<?xml version="1.0" encoding="UTF-8"?>
<svg version="1.1" xmlns="http://www.w3.org/2000/svg" width="192" height="192">
<path d="M0 0 C4.03843343 2.60254599 6.29289779 5.25369336 7.8125 9.8125 C8.21657669 15.16651612 7.57614443 18.22904035 4.8125 22.8125 C2.63673956 25.18471437 0.25526724 27.29590615 -2.1484375 29.43359375 C-3.52174273 30.71051634 -4.89276974 31.98989272 -6.26171875 33.27148438 C-8.40836671 35.27006225 -10.56343268 37.25082425 -12.76123047 39.19311523 C-20.93407178 45.84398635 -20.93407178 45.84398635 -25.55041504 54.8616333 C-25.43873442 59.50796073 -23.94890346 63.53053261 -22.1875 67.8125 C-20.93269021 71.43990175 -19.82466259 75.03863888 -18.92578125 78.76953125 C-18.69713379 79.70547119 -18.46848633 80.64141113 -18.23291016 81.60571289 C-17.9910498 82.60207764 -17.74918945 83.59844238 -17.5 84.625 C-15.04194527 94.66788712 -12.32979809 104.61697281 -9.37231445 114.5246582 C-7.85373721 119.75798159 -6.55560865 124.35525654 -7.1875 129.8125 C-9.5625 132.75 -9.5625 132.75 -12.1875 134.8125 C-12.8475 134.8125 -13.5075 134.8125 -14.1875 134.8125 C-14.455625 135.410625 -14.72375 136.00875 -15 136.625 C-16.21243496 138.85843283 -17.13402273 140.31188199 -19.1875 141.8125 C-21.09765625 141.7109375 -21.09765625 141.7109375 -23.1875 140.8125 C-24.78515625 138.51953125 -24.78515625 138.51953125 -26.25 135.625 C-26.75917969 134.63113281 -27.26835937 133.63726562 -27.79296875 132.61328125 C-28.25316406 131.68902344 -28.71335937 130.76476562 -29.1875 129.8125 C-29.80625 128.6575 -30.425 127.5025 -31.0625 126.3125 C-32.1875 123.8125 -32.1875 123.8125 -32.1875 120.8125 C-32.8475 120.8125 -33.5075 120.8125 -34.1875 120.8125 C-34.79335937 119.64976562 -35.39921875 118.48703125 -36.0234375 117.2890625 C-41.90819659 106.03224064 -47.96835058 94.88787886 -54.1875 83.8125 C-56.37437391 83.5896083 -56.37437391 83.5896083 -58.12695312 85.55664062 C-58.89974609 86.35263672 -59.67253906 87.14863281 -60.46875 87.96875 C-61.31050781 88.82597656 -62.15226562 89.68320313 -63.01953125 90.56640625 C-63.89996094 91.47261719 -64.78039062 92.37882812 -65.6875 93.3125 C-67.4224547 95.09825864 -69.16181156 96.8797545 -70.90625 98.65625 C-71.67904297 99.45224609 -72.45183594 100.24824219 -73.24804688 101.06835938 C-75.1875 102.8125 -75.1875 102.8125 -77.1875 102.8125 C-77.414375 103.369375 -77.64125 103.92625 -77.875 104.5 C-79.56300036 107.47409588 -81.65426517 109.53258865 -84.1875 111.8125 C-84.8475 111.8125 -85.5075 111.8125 -86.1875 111.8125 C-86.435 112.39 -86.6825 112.9675 -86.9375 113.5625 C-88.43303329 116.25445992 -89.71263927 117.95635446 -92.1875 119.8125 C-95.4375 119.5625 -95.4375 119.5625 -98.1875 118.8125 C-98.1875 118.1525 -98.1875 117.4925 -98.1875 116.8125 C-99.0125 116.585625 -99.8375 116.35875 -100.6875 116.125 C-104.85259486 114.56308943 -108.6875943 112.58399893 -112.1875 109.8125 C-112.1875 109.1525 -112.1875 108.4925 -112.1875 107.8125 C-113.363125 107.5340625 -113.363125 107.5340625 -114.5625 107.25 C-118.7153276 105.60318906 -121.85189343 103.37133914 -125.4453125 100.75 C-129.1793209 98.11172626 -133.09481977 95.80385066 -137.03515625 93.48828125 C-139.1875 91.8125 -139.1875 91.8125 -140.15234375 89.80859375 C-140.1875 87.8125 -140.1875 87.8125 -139.21875 86.109375 C-136.15698741 83.01636993 -134.86584392 81.89034274 -130.375 81.375 C-127.1875 81.8125 -127.1875 81.8125 -126.1875 82.8125 C-124.71756335 83.16587871 -123.23558057 83.46957059 -121.75 83.75 C-118.98716326 84.2764431 -116.2281307 84.80389379 -113.4765625 85.38671875 C-112.61804688 85.56847656 -111.75953125 85.75023438 -110.875 85.9375 C-110.09511719 86.10507813 -109.31523438 86.27265625 -108.51171875 86.4453125 C-107.36123047 86.62707031 -107.36123047 86.62707031 -106.1875 86.8125 C-105.43742676 86.93286621 -104.68735352 87.05323242 -103.91455078 87.17724609 C-99.89699579 86.63989362 -97.91023276 84.1562397 -95.23046875 81.34375 C-94.40872917 80.51139832 -94.40872917 80.51139832 -93.57038879 79.66223145 C-91.82649497 77.89038986 -90.10080046 76.10195211 -88.375 74.3125 C-87.19451876 73.10693656 -86.01289056 71.90249507 -84.83007812 70.69921875 C-81.93575784 67.74982409 -79.05763765 64.78542495 -76.1875 61.8125 C-86.51895735 55.42448245 -86.51895735 55.42448245 -97.25048828 49.75732422 C-101.62375573 47.62415747 -105.85928871 45.21369592 -110.125 42.875 C-111.06279297 42.36259766 -112.00058594 41.85019531 -112.96679688 41.32226562 C-129.77661664 32.12884787 -129.77661664 32.12884787 -135.1875 28.8125 C-134.64662682 25.02638773 -133.07027668 23.25849233 -130.1875 20.8125 C-129.5275 20.8125 -128.8675 20.8125 -128.1875 20.8125 C-127.919375 20.214375 -127.65125 19.61625 -127.375 19 C-126.11081195 16.67123253 -125.3734724 15.32006717 -123.1875 13.8125 C-117.9362652 13.47898446 -113.60008158 14.30849244 -108.5625 15.75 C-104.45923525 16.91588747 -100.38894107 18.04786992 -96.1875 18.8125 C-96.1875 19.4725 -96.1875 20.1325 -96.1875 20.8125 C-95.26130859 20.88597656 -95.26130859 20.88597656 -94.31640625 20.9609375 C-87.65667454 21.54885902 -80.97992173 22.25663468 -74.75 24.8125 C-71.43366439 26.10667975 -68.0888474 26.65436676 -64.59765625 27.3125 C-60.95847187 28.06746856 -57.48423964 29.36487811 -53.97358704 30.57672119 C-48.99007603 32.03896627 -48.99007603 32.03896627 -44.13632202 30.79772949 C-42.11820473 29.08312027 -40.37200329 27.26975937 -38.60546875 25.296875 C-37.9433992 24.61071106 -37.28132965 23.92454712 -36.59919739 23.21759033 C-34.49422281 21.02581861 -32.434221 18.7972351 -30.375 16.5625 C-28.29064923 14.35038861 -26.19785314 12.14693207 -24.09724426 9.95025635 C-22.79487742 8.58308694 -21.50322949 7.20560482 -20.22392273 5.8168335 C-14.32309807 -0.47496735 -8.66613279 -3.22855928 0 0 Z " fill="#54C0BA" transform="translate(176.1875,9.1875)"/>
<path d="M0 0 C4.03843343 2.60254599 6.29289779 5.25369336 7.8125 9.8125 C8.21657669 15.16651612 7.57614443 18.22904035 4.8125 22.8125 C2.63673956 25.18471437 0.25526724 27.29590615 -2.1484375 29.43359375 C-3.52174273 30.71051634 -4.89276974 31.98989272 -6.26171875 33.27148438 C-8.40836671 35.27006225 -10.56343268 37.25082425 -12.76123047 39.19311523 C-20.93407178 45.84398635 -20.93407178 45.84398635 -25.55041504 54.8616333 C-25.43873442 59.50796073 -23.94890346 63.53053261 -22.1875 67.8125 C-20.93269021 71.43990175 -19.82466259 75.03863888 -18.92578125 78.76953125 C-18.69713379 79.70547119 -18.46848633 80.64141113 -18.23291016 81.60571289 C-17.9910498 82.60207764 -17.74918945 83.59844238 -17.5 84.625 C-15.04194527 94.66788712 -12.32979809 104.61697281 -9.37231445 114.5246582 C-7.85373721 119.75798159 -6.55560865 124.35525654 -7.1875 129.8125 C-9.5625 132.75 -9.5625 132.75 -12.1875 134.8125 C-12.8475 134.8125 -13.5075 134.8125 -14.1875 134.8125 C-14.455625 135.410625 -14.72375 136.00875 -15 136.625 C-16.21243496 138.85843283 -17.13402273 140.31188199 -19.1875 141.8125 C-21.09765625 141.7109375 -21.09765625 141.7109375 -23.1875 140.8125 C-24.78515625 138.51953125 -24.78515625 138.51953125 -26.25 135.625 C-26.75917969 134.63113281 -27.26835937 133.63726562 -27.79296875 132.61328125 C-28.25316406 131.68902344 -28.71335937 130.76476562 -29.1875 129.8125 C-29.80625 128.6575 -30.425 127.5025 -31.0625 126.3125 C-32.1875 123.8125 -32.1875 123.8125 -32.1875 120.8125 C-32.8475 120.8125 -33.5075 120.8125 -34.1875 120.8125 C-34.79335937 119.64976562 -35.39921875 118.48703125 -36.0234375 117.2890625 C-41.90819659 106.03224064 -47.96835058 94.88787886 -54.1875 83.8125 C-56.37437391 83.5896083 -56.37437391 83.5896083 -58.12695312 85.55664062 C-58.89974609 86.35263672 -59.67253906 87.14863281 -60.46875 87.96875 C-61.31050781 88.82597656 -62.15226562 89.68320313 -63.01953125 90.56640625 C-63.89996094 91.47261719 -64.78039062 92.37882812 -65.6875 93.3125 C-67.4224547 95.09825864 -69.16181156 96.8797545 -70.90625 98.65625 C-71.67904297 99.45224609 -72.45183594 100.24824219 -73.24804688 101.06835938 C-75.1875 102.8125 -75.1875 102.8125 -77.1875 102.8125 C-77.414375 103.369375 -77.64125 103.92625 -77.875 104.5 C-79.56300036 107.47409588 -81.65426517 109.53258865 -84.1875 111.8125 C-84.8475 111.8125 -85.5075 111.8125 -86.1875 111.8125 C-86.435 112.39 -86.6825 112.9675 -86.9375 113.5625 C-88.43303329 116.25445992 -89.71263927 117.95635446 -92.1875 119.8125 C-95.4375 119.5625 -95.4375 119.5625 -98.1875 118.8125 C-98.1875 118.1525 -98.1875 117.4925 -98.1875 116.8125 C-99.0125 116.585625 -99.8375 116.35875 -100.6875 116.125 C-104.85259486 114.56308943 -108.6875943 112.58399893 -112.1875 109.8125 C-112.1875 109.1525 -112.1875 108.4925 -112.1875 107.8125 C-113.363125 107.5340625 -113.363125 107.5340625 -114.5625 107.25 C-118.7153276 105.60318906 -121.85189343 103.37133914 -125.4453125 100.75 C-129.1793209 98.11172626 -133.09481977 95.80385066 -137.03515625 93.48828125 C-139.1875 91.8125 -139.1875 91.8125 -140.15234375 89.80859375 C-140.1875 87.8125 -140.1875 87.8125 -139.21875 86.109375 C-136.15698741 83.01636993 -134.86584392 81.89034274 -130.375 81.375 C-127.1875 81.8125 -127.1875 81.8125 -126.1875 82.8125 C-124.71756335 83.16587871 -123.23558057 83.46957059 -121.75 83.75 C-118.98716326 84.2764431 -116.2281307 84.80389379 -113.4765625 85.38671875 C-112.61804688 85.56847656 -111.75953125 85.75023438 -110.875 85.9375 C-110.09511719 86.10507813 -109.31523438 86.27265625 -108.51171875 86.4453125 C-107.36123047 86.62707031 -107.36123047 86.62707031 -106.1875 86.8125 C-105.43742676 86.93286621 -104.68735352 87.05323242 -103.91455078 87.17724609 C-99.89699579 86.63989362 -97.91023276 84.1562397 -95.23046875 81.34375 C-94.40872917 80.51139832 -94.40872917 80.51139832 -93.57038879 79.66223145 C-91.82649497 77.89038986 -90.10080046 76.10195211 -88.375 74.3125 C-87.19451876 73.10693656 -86.01289056 71.90249507 -84.83007812 70.69921875 C-81.93575784 67.74982409 -79.05763765 64.78542495 -76.1875 61.8125 C-86.51895735 55.42448245 -86.51895735 55.42448245 -97.25048828 49.75732422 C-101.62375573 47.62415747 -105.85928871 45.21369592 -110.125 42.875 C-111.06279297 42.36259766 -112.00058594 41.85019531 -112.96679688 41.32226562 C-129.77661664 32.12884787 -129.77661664 32.12884787 -135.1875 28.8125 C-134.64662682 25.02638773 -133.07027668 23.25849233 -130.1875 20.8125 C-129.5275 20.8125 -128.8675 20.8125 -128.1875 20.8125 C-127.919375 20.214375 -127.65125 19.61625 -127.375 19 C-126.11081195 16.67123253 -125.3734724 15.32006717 -123.1875 13.8125 C-117.9362652 13.47898446 -113.60008158 14.30849244 -108.5625 15.75 C-104.45923525 16.91588747 -100.38894107 18.04786992 -96.1875 18.8125 C-96.1875 19.4725 -96.1875 20.1325 -96.1875 20.8125 C-95.26130859 20.88597656 -95.26130859 20.88597656 -94.31640625 20.9609375 C-87.65667454 21.54885902 -80.97992173 22.25663468 -74.75 24.8125 C-71.43366439 26.10667975 -68.0888474 26.65436676 -64.59765625 27.3125 C-60.95847187 28.06746856 -57.48423964 29.36487811 -53.97358704 30.57672119 C-48.99007603 32.03896627 -48.99007603 32.03896627 -44.13632202 30.79772949 C-42.11820473 29.08312027 -40.37200329 27.26975937 -38.60546875 25.296875 C-37.9433992 24.61071106 -37.28132965 23.92454712 -36.59919739 23.21759033 C-34.49422281 21.02581861 -32.434221 18.7972351 -30.375 16.5625 C-28.29064923 14.35038861 -26.19785314 12.14693207 -24.09724426 9.95025635 C-22.79487742 8.58308694 -21.50322949 7.20560482 -20.22392273 5.8168335 C-14.32309807 -0.47496735 -8.66613279 -3.22855928 0 0 Z M-20.55859375 10.58984375 C-21.12578629 11.156996 -21.69297882 11.72414825 -22.27735901 12.30848694 C-23.46557232 13.50203413 -24.64770778 14.70166001 -25.82397461 15.90698242 C-27.62993365 17.75504868 -29.45656382 19.58061373 -31.28710938 21.40429688 C-32.44137874 22.56905078 -33.59441857 23.73502472 -34.74609375 24.90234375 C-35.29285263 25.44930405 -35.83961151 25.99626434 -36.40293884 26.55979919 C-39.54689646 29.61565304 -39.54689646 29.61565304 -40.1875 33.8125 C-40.909375 34.01875 -41.63125 34.225 -42.375 34.4375 C-45.382916 35.90803671 -46.89282865 37.59318863 -48.91796875 40.22265625 C-50.1875 41.8125 -50.1875 41.8125 -53 44.5625 C-55.41985946 46.52848205 -55.41985946 46.52848205 -55.1875 48.8125 C-55.744375 49.039375 -56.30125 49.26625 -56.875 49.5 C-59.84909588 51.18800036 -61.90758865 53.27926517 -64.1875 55.8125 C-64.1875 56.4725 -64.1875 57.1325 -64.1875 57.8125 C-64.75331787 58.06209473 -65.31913574 58.31168945 -65.90209961 58.56884766 C-72.78279545 62.31313402 -78.31506443 68.86379949 -83.58984375 74.5390625 C-84.97132986 76.00884334 -86.35409156 77.47741527 -87.73706055 78.94580078 C-88.67049671 79.94901889 -89.59391397 80.96164364 -90.50756836 81.98291016 C-98.16416372 90.50166766 -98.16416372 90.50166766 -103.1418457 91.26635742 C-105.95425971 91.02740032 -108.46359247 90.5375293 -111.1875 89.8125 C-112.95686154 89.49177166 -114.72754122 89.17814486 -116.5 88.875 C-119.26181473 88.29471349 -121.76058667 87.61412385 -124.4375 86.6875 C-127.48497596 85.71784856 -130.00904339 85.66114492 -133.1875 85.8125 C-133.8475 87.1325 -134.5075 88.4525 -135.1875 89.8125 C-133.89936658 90.65128455 -132.60686744 91.48336783 -131.3125 92.3125 C-130.59320313 92.7765625 -129.87390625 93.240625 -129.1328125 93.71875 C-127.26889534 94.97586501 -127.26889534 94.97586501 -125.1875 94.8125 C-124.8575 95.8025 -124.5275 96.7925 -124.1875 97.8125 C-122.85953709 98.16662344 -121.52533393 98.49771554 -120.1875 98.8125 C-118.6875 100.1875 -118.6875 100.1875 -117.1875 101.8125 C-114.69314146 104.02970759 -112.36346863 105.16730884 -109.25 106.25 C-104.57510147 107.91526998 -101.43923437 110.36518213 -98.1875 114.125 C-96.32666984 116.02661312 -96.32666984 116.02661312 -93.875 116 C-89.15220333 113.91318287 -85.43710807 110.06438262 -82.93798828 105.56079102 C-80.83552657 102.25989681 -78.28549123 99.60490064 -75.53125 96.85546875 C-74.98770874 96.30764236 -74.44416748 95.75981598 -73.88415527 95.19538879 C-72.74025573 94.04577222 -71.59376162 92.89873209 -70.44482422 91.75415039 C-68.68433131 89.99683703 -66.93763094 88.22655711 -65.19140625 86.45507812 C-64.07633145 85.33773211 -62.96047296 84.22116752 -61.84375 83.10546875 C-61.32180054 82.57430954 -60.79985107 82.04315033 -60.26208496 81.49589539 C-56.5313237 77.8125 -56.5313237 77.8125 -53.1875 77.8125 C-51.94482422 79.30957031 -51.94482422 79.30957031 -50.7421875 81.390625 C-50.30519531 82.13957031 -49.86820312 82.88851562 -49.41796875 83.66015625 C-48.97066406 84.45292969 -48.52335937 85.24570313 -48.0625 86.0625 C-47.60746094 86.83980469 -47.15242188 87.61710937 -46.68359375 88.41796875 C-44.69403294 91.8716574 -43.00760127 94.88261873 -42.1875 98.8125 C-41.5275 98.8125 -40.8675 98.8125 -40.1875 98.8125 C-39.1975 102.2775 -39.1975 102.2775 -38.1875 105.8125 C-37.5275 105.8125 -36.8675 105.8125 -36.1875 105.8125 C-35.96054443 106.61518311 -35.96054443 106.61518311 -35.72900391 107.43408203 C-33.80568523 113.73761267 -30.96647925 119.06738843 -27.5625 124.6875 C-26.56796409 126.35016003 -25.57567274 128.0141653 -24.5859375 129.6796875 C-24.14942871 130.40269043 -23.71291992 131.12569336 -23.26318359 131.87060547 C-22.1875 133.8125 -22.1875 133.8125 -21.1875 136.8125 C-20.5275 136.8125 -19.8675 136.8125 -19.1875 136.8125 C-17.67903848 135.28629124 -17.67903848 135.28629124 -16.1875 133.375 C-13.39088983 129.91419492 -13.39088983 129.91419492 -11.1875 128.8125 C-10.8627557 123.72483933 -11.61269878 120.0286142 -13.33203125 115.25 C-16.00277041 107.64022267 -17.71202767 99.72072161 -19.44140625 91.85546875 C-20.19782922 88.77037191 -21.17870444 85.82324645 -22.1875 82.8125 C-22.99844066 79.65797965 -23.75162198 76.49316751 -24.50390625 73.32421875 C-24.94262159 70.89184642 -24.94262159 70.89184642 -26.1875 69.8125 C-26.84673661 66.51254987 -27.43033867 63.20780898 -27.99414062 59.890625 C-28.69148085 55.95950495 -29.58305087 52.49407828 -31.1875 48.8125 C-31.55621088 47.15330104 -31.90031674 45.4877357 -32.1875 43.8125 C-29.1875 45.8125 -29.1875 45.8125 -28.1875 48.8125 C-24.90650591 47.41146549 -23.11335065 45.81903684 -20.875 43.0625 C-18.6211076 40.39050816 -16.39289973 38.02545618 -13.6875 35.8125 C-10.39213012 33.0921611 -7.64747021 30.08673107 -4.89453125 26.82421875 C-3.77751927 25.50783163 -2.62956 24.21694607 -1.44921875 22.95703125 C1.84170184 19.39906698 3.91834972 16.89328641 3.8125 11.8125 C2.3625457 7.46263709 1.66365325 5.3799355 -2.1875 2.8125 C-10.07705715 1.93588254 -15.33839692 5.20894803 -20.55859375 10.58984375 Z " fill="#136293" transform="translate(176.1875,9.1875)"/>
<path d="M0 0 C0 0.66 0 1.32 0 2 C1.1446875 2.12761719 2.289375 2.25523438 3.46875 2.38671875 C7.87990014 2.94005063 12.16891556 3.82149728 16.5 4.8125 C17.26812012 4.98555664 18.03624023 5.15861328 18.82763672 5.33691406 C26.5827085 7.10051367 34.29597863 9.02676292 42 11 C42 11.66 42 12.32 42 13 C42.73605469 13.06058594 43.47210938 13.12117188 44.23046875 13.18359375 C45.20628906 13.26738281 46.18210938 13.35117187 47.1875 13.4375 C48.63189453 13.55931641 48.63189453 13.55931641 50.10546875 13.68359375 C52.78649602 13.97666151 55.3662986 14.42703754 58 15 C58 15.66 58 16.32 58 17 C60.64 17.33 63.28 17.66 66 18 C63.64240351 23.3857509 59.37750303 27.11061744 55.3125 31.25 C54.52166016 32.09046875 53.73082031 32.9309375 52.91601562 33.796875 C47.1131681 39.70034994 47.1131681 39.70034994 42.58984375 40.91796875 C37.25137066 39.55285322 32.9274874 36.92024369 28.25 34.0625 C26.38140725 32.9472076 24.51166607 31.8338364 22.640625 30.72265625 C21.82110352 30.22515869 21.00158203 29.72766113 20.15722656 29.21508789 C17.93226299 27.87183442 17.93226299 27.87183442 15 27 C15 26.34 15 25.68 15 25 C14.45255127 24.84289551 13.90510254 24.68579102 13.34106445 24.52392578 C7.40745474 22.7010217 2.43948596 20.14982323 -2.8125 16.875 C-4.27450896 15.97195684 -5.73926431 15.07334144 -7.20703125 14.1796875 C-7.8410083 13.78507324 -8.47498535 13.39045898 -9.12817383 12.98388672 C-11.07308573 11.961584 -12.85487249 11.44263121 -15 11 C-15 7 -15 7 -13.49609375 5.078125 C-8.83979948 0.94312364 -6.27405795 -0.91496678 0 0 Z " fill="#50BFB8" transform="translate(61,27)"/>
<path d="M0 0 C4.03843343 2.60254599 6.29289779 5.25369336 7.8125 9.8125 C8.21657669 15.16651612 7.57614443 18.22904035 4.8125 22.8125 C2.63673956 25.18471437 0.25526724 27.29590615 -2.1484375 29.43359375 C-3.52174273 30.71051634 -4.89276974 31.98989272 -6.26171875 33.27148438 C-8.40836671 35.27006225 -10.56343268 37.25082425 -12.76123047 39.19311523 C-20.98020985 45.86494776 -20.98020985 45.86494776 -25.53430176 54.94219971 C-25.38973924 59.4850961 -24.4939087 65.5060913 -21.1875 68.8125 C-21.02447147 70.70544235 -20.90863471 72.60248395 -20.8125 74.5 C-20.15826035 83.92935872 -18.18581508 92.86591468 -15.1875 101.8125 C-14.62437218 104.18647022 -14.13694582 106.56606068 -13.65234375 108.95703125 C-13.35564743 110.81570956 -13.35564743 110.81570956 -12.1875 111.8125 C-12.14669217 113.81208364 -12.14495644 115.81295254 -12.1875 117.8125 C-13.1775 117.3175 -13.1775 117.3175 -14.1875 116.8125 C-14.92149984 114.58969886 -15.54854797 112.33126701 -16.125 110.0625 C-16.29757324 109.39162354 -16.47014648 108.72074707 -16.64794922 108.02954102 C-18.02692979 102.61503314 -19.28236894 97.17301077 -20.4765625 91.71484375 C-21.2202914 88.67863182 -22.19583265 85.77601556 -23.1875 82.8125 C-23.99844066 79.65797965 -24.75162198 76.49316751 -25.50390625 73.32421875 C-25.94262159 70.89184642 -25.94262159 70.89184642 -27.1875 69.8125 C-27.84673661 66.51254987 -28.43033867 63.20780898 -28.99414062 59.890625 C-29.69271238 55.95256244 -30.62710262 52.5159324 -32.1875 48.8125 C-32.3125 46 -32.3125 46 -32.1875 43.8125 C-30.8675 44.4725 -29.5475 45.1325 -28.1875 45.8125 C-28.1875 46.8025 -28.1875 47.7925 -28.1875 48.8125 C-27.465625 48.090625 -26.74375 47.36875 -26 46.625 C-25.071875 45.696875 -24.14375 44.76875 -23.1875 43.8125 C-22.40375 43.008125 -21.62 42.20375 -20.8125 41.375 C-18.85381034 39.46294581 -16.91500609 37.73644476 -14.8125 36 C-11.5016744 33.19908463 -8.68854159 30.13540482 -5.89453125 26.82421875 C-4.77751927 25.50783163 -3.62956 24.21694607 -2.44921875 22.95703125 C0.85760269 19.38187586 2.8125 16.90685139 2.8125 11.8125 C1.83466355 7.57520873 1.49200002 6.26550002 -2.1875 3.8125 C-6.66858426 2.94624245 -10.97231193 3.32064535 -14.83312988 5.92077637 C-19.17714329 9.48385068 -22.97450146 13.59772359 -26.8125 17.6875 C-28.00427523 18.91233508 -29.19827023 20.13501442 -30.39453125 21.35546875 C-36.28925709 26.9374774 -36.28925709 26.9374774 -40.1875 33.8125 C-41.85812481 34.98193737 -43.53108433 36.14826109 -45.21875 37.29296875 C-48.06709187 39.49139134 -50.23986388 42.13305759 -52.55078125 44.875 C-54.64585806 47.35509093 -56.79092334 49.6213442 -59.1875 51.8125 C-59.8475 51.8125 -60.5075 51.8125 -61.1875 51.8125 C-61.414375 52.369375 -61.64125 52.92625 -61.875 53.5 C-63.86835165 57.01209577 -66.54869749 59.99309875 -70.1875 61.8125 C-70.1875 61.1525 -70.1875 60.4925 -70.1875 59.8125 C-71.5075 59.1525 -72.8275 58.4925 -74.1875 57.8125 C-73.2900708 57.56628906 -72.3926416 57.32007813 -71.46801758 57.06640625 C-67.97235978 55.73026735 -66.29602691 54.39967311 -63.69921875 51.75 C-62.91095703 50.95335937 -62.12269531 50.15671875 -61.31054688 49.3359375 C-60.50681641 48.50320312 -59.70308594 47.67046875 -58.875 46.8125 C-58.05193359 45.97976562 -57.22886719 45.14703125 -56.38085938 44.2890625 C-52.31434935 40.4008567 -52.31434935 40.4008567 -49.1875 35.8125 C-51.8275 35.4825 -54.4675 35.1525 -57.1875 34.8125 C-57.1875 34.1525 -57.1875 33.4925 -57.1875 32.8125 C-58.29158203 32.72162109 -58.29158203 32.72162109 -59.41796875 32.62890625 C-60.39378906 32.54511719 -61.36960937 32.46132813 -62.375 32.375 C-63.33792969 32.29378906 -64.30085938 32.21257813 -65.29296875 32.12890625 C-67.97399602 31.83583849 -70.5537986 31.38546246 -73.1875 30.8125 C-73.1875 30.1525 -73.1875 29.4925 -73.1875 28.8125 C-74.5075 28.4825 -75.8275 28.1525 -77.1875 27.8125 C-75.52138095 27.769779 -73.85367115 27.77186168 -72.1875 27.8125 C-71.8575 28.1425 -71.5275 28.4725 -71.1875 28.8125 C-67.82120749 28.95886054 -65.40330438 28.88443479 -62.1875 27.8125 C-59.41747238 28.69080144 -56.67624859 29.64301719 -53.93086243 30.59503174 C-48.96827663 32.04317364 -48.96827663 32.04317364 -44.13803101 30.79699707 C-42.11818596 29.08330211 -40.37247987 27.27029161 -38.60546875 25.296875 C-37.9433992 24.61071106 -37.28132965 23.92454712 -36.59919739 23.21759033 C-34.49422281 21.02581861 -32.434221 18.7972351 -30.375 16.5625 C-28.29064923 14.35038861 -26.19785314 12.14693207 -24.09724426 9.95025635 C-22.79487742 8.58308694 -21.50322949 7.20560482 -20.22392273 5.8168335 C-14.32309807 -0.47496735 -8.66613279 -3.22855928 0 0 Z " fill="#115F93" transform="translate(176.1875,9.1875)"/>
<path d="M0 0 C0 3 0 3 -1.8984375 5.05078125 C-3.54274995 6.5524483 -5.1885725 8.05246356 -6.8359375 9.55078125 C-9.18079081 11.84633256 -9.18079081 11.84633256 -9.80078125 14.859375 C-11.31316996 18.82015846 -13.48175009 20.40909465 -16.6640625 23.10107422 C-22.96578464 28.15953377 -22.96578464 28.15953377 -26.42333984 35.14013672 C-26.27969656 39.66334997 -25.27860749 45.72139251 -22 49 C-21.83697147 50.89294235 -21.72113471 52.78998395 -21.625 54.6875 C-20.97076035 64.11685872 -18.99831508 73.05341468 -16 82 C-15.43687218 84.37397022 -14.94944582 86.75356068 -14.46484375 89.14453125 C-14.16814743 91.00320956 -14.16814743 91.00320956 -13 92 C-12.95919217 93.99958364 -12.95745644 96.00045254 -13 98 C-13.66 97.67 -14.32 97.34 -15 97 C-15.73399984 94.77719886 -16.36104797 92.51876701 -16.9375 90.25 C-17.11007324 89.57912354 -17.28264648 88.90824707 -17.46044922 88.21704102 C-18.83942979 82.80253314 -20.09486894 77.36051077 -21.2890625 71.90234375 C-22.0327914 68.86613182 -23.00833265 65.96351556 -24 63 C-24.81094066 59.84547965 -25.56412198 56.68066751 -26.31640625 53.51171875 C-26.75512159 51.07934642 -26.75512159 51.07934642 -28 50 C-28.65923661 46.70004987 -29.24283867 43.39530898 -29.80664062 40.078125 C-30.50521238 36.14006244 -31.43960262 32.7034324 -33 29 C-33.125 26.1875 -33.125 26.1875 -33 24 C-31.02 24.99 -31.02 24.99 -29 26 C-29 26.99 -29 27.98 -29 29 C-28.278125 28.278125 -27.55625 27.55625 -26.8125 26.8125 C-25.884375 25.884375 -24.95625 24.95625 -24 24 C-23.21625 23.195625 -22.4325 22.39125 -21.625 21.5625 C-19.66631034 19.65044581 -17.72750609 17.92394476 -15.625 16.1875 C-12.27711634 13.36363292 -9.47749402 10.23411261 -6.64453125 6.90234375 C-4.5426894 4.470997 -2.30634883 2.23645947 0 0 Z " fill="#0F5C91" transform="translate(177,29)"/>
<path d="M0 0 C0.55324951 0.26095459 1.10649902 0.52190918 1.67651367 0.79077148 C1.67651367 5.29220269 1.67651367 5.29220269 -0.92211914 7.92285156 C-1.48981018 8.50637894 -2.05750122 9.08990631 -2.64239502 9.69111633 C-3.2641864 10.30794785 -3.88597778 10.92477936 -4.52661133 11.56030273 C-5.16080994 12.20069992 -5.79500854 12.84109711 -6.44842529 13.50090027 C-7.79189771 14.85147626 -9.14053817 16.19692808 -10.49389648 17.53759766 C-12.56744524 19.59727082 -14.61588179 21.67979817 -16.66333008 23.76538086 C-17.97047203 25.07347384 -19.27901982 26.38016383 -20.58911133 27.68530273 C-21.20280579 28.3122554 -21.81650024 28.93920807 -22.4487915 29.5851593 C-24.20727539 31.30566406 -24.20727539 31.30566406 -27.32348633 33.79077148 C-29.45574951 33.5710907 -29.45574951 33.5710907 -31.32348633 32.79077148 C-31.65348633 32.13077148 -31.98348633 31.47077148 -32.32348633 30.79077148 C-26.88989981 24.36021834 -21.10356536 18.29017658 -15.18847656 12.30566406 C-14.14277149 11.24318561 -13.10248997 10.17534507 -12.06738281 9.10253906 C-10.55653391 7.53724942 -9.03017096 5.98876511 -7.49926758 4.44311523 C-6.60119385 3.52522217 -5.70312012 2.6073291 -4.77783203 1.66162109 C-2.32348633 -0.20922852 -2.32348633 -0.20922852 0 0 Z " fill="#F0AD71" transform="translate(151.323486328125,150.209228515625)"/>
<path d="M0 0 C1.32 0.66 2.64 1.32 4 2 C3.42177182 5.12535357 2.60611876 6.76909891 0.36376953 9.00854492 C-0.18705292 9.56559616 -0.73787537 10.1226474 -1.3053894 10.69657898 C-2.20222946 11.57960442 -2.20222946 11.57960442 -3.1171875 12.48046875 C-3.73014679 13.09392654 -4.34310608 13.70738434 -4.97463989 14.33943176 C-6.27068064 15.63313428 -7.57041029 16.92315027 -8.87353516 18.2097168 C-10.86929132 20.18185887 -12.85137582 22.16700155 -14.83203125 24.15429688 C-16.09295935 25.40964883 -17.35465269 26.66423271 -18.6171875 27.91796875 C-19.21103241 28.51272507 -19.80487732 29.10748138 -20.41671753 29.72026062 C-24.65341535 33.88447178 -24.65341535 33.88447178 -28 35 C-28.66 34.34 -29.32 33.68 -30 33 C-29.66314405 29.7735082 -28.49203163 28.12200524 -26.22436523 25.88378906 C-25.64383896 25.30348938 -25.06331268 24.7231897 -24.4651947 24.12530518 C-23.83601639 23.51161072 -23.20683807 22.89791626 -22.55859375 22.265625 C-21.91632339 21.62759949 -21.27405304 20.98957397 -20.61231995 20.33221436 C-18.56098274 18.29765882 -16.49945727 16.27378621 -14.4375 14.25 C-13.04423766 12.87178509 -11.65165102 11.49288675 -10.25976562 10.11328125 C-6.84763135 6.73420954 -3.42632293 3.36468136 0 0 Z " fill="#F0AD70" transform="translate(38,38)"/>
<path d="M0 0 C0.33 0 0.66 0 1 0 C1.1451001 0.59611084 1.2902002 1.19222168 1.43969727 1.80639648 C2.14299178 4.68450667 2.85178624 7.56121261 3.5625 10.4375 C3.95816162 12.03936157 3.95816162 12.03936157 4.36181641 13.67358398 C6.63059506 22.74936005 9.13899976 31.74651581 11.81469727 40.71069336 C13.33352072 45.94448268 14.63195148 50.54223725 14 56 C11.625 58.9375 11.625 58.9375 9 61 C8.34 61 7.68 61 7 61 C6.731875 61.598125 6.46375 62.19625 6.1875 62.8125 C4.97506504 65.04593283 4.05347727 66.49938199 2 68 C0.1015625 67.953125 0.1015625 67.953125 -2 67 C-3.703125 64.27734375 -3.703125 64.27734375 -5.25 60.9375 C-5.77078125 59.83277344 -6.2915625 58.72804687 -6.828125 57.58984375 C-7.21484375 56.73519531 -7.6015625 55.88054687 -8 55 C-6.68 55.66 -5.36 56.32 -4 57 C-4 57.99 -4 58.98 -4 60 C-3.34 60 -2.68 60 -2 60 C-1.67 61.32 -1.34 62.64 -1 64 C-0.01 64 0.98 64 2 64 C2.061875 63.443125 2.12375 62.88625 2.1875 62.3125 C3.3480769 59.00931958 5.40213446 57.28105267 8 55 C8.66 55 9.32 55 10 55 C9.71638858 52.29060578 9.4233895 49.58277339 9.125 46.875 C9.00705078 45.73417969 9.00705078 45.73417969 8.88671875 44.5703125 C8.38862856 40.12581545 7.53587693 36.22668494 6 32 C5.6417369 30.48484565 5.30586515 28.96409479 5 27.4375 C4.48019313 24.9927833 3.95112582 22.88086918 3 20.5625 C0.40148301 13.90380023 -0.26255588 7.08900876 0 0 Z " fill="#085188" transform="translate(155,83)"/>
<path d="M0 0 C4.03843343 2.60254599 6.29289779 5.25369336 7.8125 9.8125 C8.21716105 15.17425887 7.54892165 18.21059173 4.8125 22.8125 C2.71473727 25.24544341 0.44385771 27.46662219 -1.875 29.6875 C-2.48150391 30.28046875 -3.08800781 30.8734375 -3.71289062 31.484375 C-5.19764785 32.93405922 -6.69164991 34.37426468 -8.1875 35.8125 C-8.8137207 33.96044922 -8.8137207 33.96044922 -9.1875 31.8125 C-7.16796875 29.4453125 -7.16796875 29.4453125 -4.375 26.9375 C-0.47549309 23.42849378 1.64567674 20.98680552 2.8125 15.8125 C2.50928832 12.23460212 1.94643079 9.21429236 0.8125 5.8125 C-2.67084494 3.49027004 -3.54395537 3.66809698 -7.5625 4.125 C-8.49835938 4.22425781 -9.43421875 4.32351562 -10.3984375 4.42578125 C-13.02325547 4.7897266 -15.59618939 5.26125756 -18.1875 5.8125 C-18.1875 6.4725 -18.1875 7.1325 -18.1875 7.8125 C-19.8375 8.4725 -21.4875 9.1325 -23.1875 9.8125 C-16.72109382 1.94503915 -10.95648332 -4.08182712 0 0 Z " fill="#0E5C91" transform="translate(176.1875,9.1875)"/>
<path d="M0 0 C0 1.65 0 3.3 0 5 C-0.61875 5.2475 -1.2375 5.495 -1.875 5.75 C-4.38710296 7.22770762 -4.76107344 8.43955177 -6 11 C-6.99 11.33 -7.98 11.66 -9 12 C-10.20882096 14.00016466 -10.20882096 14.00016466 -11 16 C-11.66 16 -12.32 16 -13 16 C-13.268125 16.639375 -13.53625 17.27875 -13.8125 17.9375 C-15 20 -15 20 -18 21 C-19.20882096 23.00016466 -19.20882096 23.00016466 -20 25 C-20.66 25 -21.32 25 -22 25 C-22.33 25.99 -22.66 26.98 -23 28 C-23.99 28 -24.98 28 -26 28 C-26.66 26.68 -27.32 25.36 -28 24 C-24.66809755 20.5692506 -21.32328789 17.15182854 -17.96582031 13.74609375 C-16.82545259 12.58560571 -15.68870002 11.42155368 -14.55566406 10.25390625 C-12.92669147 8.57643535 -11.28516197 6.91219718 -9.640625 5.25 C-8.88413666 4.46254395 -8.88413666 4.46254395 -8.11236572 3.65917969 C-5.1080417 0.65296544 -4.45013425 0 0 0 Z " fill="#F1AE6E" transform="translate(148,141)"/>
<path d="M0 0 C1.65 0 3.3 0 5 0 C4.59448009 4.87010096 2.24935925 7.28133359 -1.12890625 10.51953125 C-1.63800034 11.02296555 -2.14709442 11.52639984 -2.6716156 12.04508972 C-4.29273211 13.64389465 -5.92722134 15.22819606 -7.5625 16.8125 C-8.66692883 17.89685713 -9.77045537 18.98213408 -10.87304688 20.06835938 C-13.57169448 22.72300912 -16.28241911 25.36474126 -19 28 C-20.32 27.34 -21.64 26.68 -23 26 C-22.67 24.68 -22.34 23.36 -22 22 C-21.34 22 -20.68 22 -20 22 C-19.34 20.68 -18.68 19.36 -18 18 C-17.34 18 -16.68 18 -16 18 C-15.731875 17.360625 -15.46375 16.72125 -15.1875 16.0625 C-14 14 -14 14 -11 13 C-9.79117904 10.99983534 -9.79117904 10.99983534 -9 9 C-8.34 9 -7.68 9 -7 9 C-6.731875 8.360625 -6.46375 7.72125 -6.1875 7.0625 C-5 5 -5 5 -2 4 C-0.79117904 1.99983534 -0.79117904 1.99983534 0 0 Z " fill="#F0AC70" transform="translate(46,44)"/>
<path d="M0 0 C5.26230985 -0.21076435 9.57051035 0.49115418 14.625 1.9375 C18.72826475 3.10338747 22.79855893 4.23536992 27 5 C27 5.66 27 6.32 27 7 C27.92619141 7.07347656 27.92619141 7.07347656 28.87109375 7.1484375 C36.65900288 7.83595459 43.73523317 9.09409327 51 12 C53.98520345 12.73996554 56.98719793 13.38299914 60 14 C58 16 58 16 54.9375 16.1875 C52 16 52 16 51 15 C49.48530552 14.76807135 47.96245438 14.58784762 46.4375 14.4375 C45.61121094 14.35371094 44.78492188 14.26992188 43.93359375 14.18359375 C43.29550781 14.12300781 42.65742187 14.06242187 42 14 C42 13.34 42 12.68 42 12 C41.13375 11.8659375 40.2675 11.731875 39.375 11.59375 C35.18373952 10.85639862 31.11593602 9.79060834 27 8.71875 C24.01244736 8.00298218 21.03504677 7.46970962 18 7 C18 6.34 18 5.68 18 5 C17.40832031 4.93941406 16.81664063 4.87882812 16.20703125 4.81640625 C12.09021792 4.37987629 8.04455467 3.91328654 4 3 C4 2.34 4 1.68 4 1 C2.35 1.33 0.7 1.66 -1 2 C-0.67 1.34 -0.34 0.68 0 0 Z " fill="#0C5A8F" transform="translate(53,23)"/>
<path d="M0 0 C0.99 0 1.98 0 3 0 C1.58226538 3.54433654 0.32387762 4.33806119 -3 6 C-3.68486725 7.32407669 -4.34870203 8.65909241 -5 10 C-7.5 12.75 -7.5 12.75 -10 15 C-10.66 15 -11.32 15 -12 15 C-12.2475 15.5775 -12.495 16.155 -12.75 16.75 C-14.24553329 19.44195992 -15.52513927 21.14385446 -18 23 C-21.25 22.75 -21.25 22.75 -24 22 C-24 21.34 -24 20.68 -24 20 C-24.9075 19.7525 -25.815 19.505 -26.75 19.25 C-30.10351489 17.96018658 -31.67708236 16.68028958 -34 14 C-29.9785844 13.61700804 -28.35525905 13.7607439 -24.9375 16.0625 C-22.24016811 18.2637025 -22.24016811 18.2637025 -19.5234375 17.84765625 C-16.54864447 16.84838367 -15.59698002 15.82936886 -13.6875 13.375 C-10.63594794 9.65424792 -7.37070263 6.546959 -3.69921875 3.4453125 C-1.90381734 1.95747294 -1.90381734 1.95747294 0 0 Z " fill="#0E5B91" transform="translate(102,106)"/>
<path d="M0 0 C0 1.65 0 3.3 0 5 C-0.61875 5.2475 -1.2375 5.495 -1.875 5.75 C-4.44249816 7.26029304 -4.71815729 8.36091208 -6 11 C-8.5 13.75 -8.5 13.75 -11 16 C-11.66 16 -12.32 16 -13 16 C-13.33 16.99 -13.66 17.98 -14 19 C-15.65 18.67 -17.3 18.34 -19 18 C-18.10710952 12.88216189 -14.75913859 10.28215313 -11.1875 6.75 C-10.24293945 5.77546875 -10.24293945 5.77546875 -9.27929688 4.78125 C-8.35793945 3.86085937 -8.35793945 3.86085937 -7.41796875 2.921875 C-6.85875732 2.36081055 -6.2995459 1.79974609 -5.72338867 1.22167969 C-4 0 -4 0 0 0 Z " fill="#F1AD6E" transform="translate(143,132)"/>
<path d="M0 0 C1.65 0 3.3 0 5 0 C4.7936229 5.66993929 0.98981749 8.63764673 -2.8125 12.375 C-3.44220703 13.02855469 -4.07191406 13.68210937 -4.72070312 14.35546875 C-5.33494141 14.96777344 -5.94917969 15.58007812 -6.58203125 16.2109375 C-7.14124268 16.77087402 -7.7004541 17.33081055 -8.27661133 17.90771484 C-10 19 -10 19 -12.21362305 18.67431641 C-12.80312744 18.45179199 -13.39263184 18.22926758 -14 18 C-13.67 16.35 -13.34 14.7 -13 13 C-12.34 13 -11.68 13 -11 13 C-10.6596875 12.1646875 -10.6596875 12.1646875 -10.3125 11.3125 C-8.62449964 8.33840412 -6.53323483 6.27991135 -4 4 C-3.34 4 -2.68 4 -2 4 C-1.34 2.68 -0.68 1.36 0 0 Z " fill="#EFAC6F" transform="translate(55,49)"/>
<path d="M0 0 C0.495 0.99 0.495 0.99 1 2 C-0.010625 2.66 -1.02125 3.32 -2.0625 4 C-5.72869272 6.60707038 -8.47517172 9.63570937 -11.36328125 13.0625 C-13.45835806 15.54259093 -15.60342334 17.8088442 -18 20 C-18.66 20 -19.32 20 -20 20 C-20.226875 20.556875 -20.45375 21.11375 -20.6875 21.6875 C-22.68085165 25.19959577 -25.36119749 28.18059875 -29 30 C-29 29.34 -29 28.68 -29 28 C-30.32 27.34 -31.64 26.68 -33 26 C-32.1025708 25.75378906 -31.2051416 25.50757812 -30.28051758 25.25390625 C-26.78485978 23.91776735 -25.10852691 22.58717311 -22.51171875 19.9375 C-21.72345703 19.14085938 -20.93519531 18.34421875 -20.12304688 17.5234375 C-19.31931641 16.69070312 -18.51558594 15.85796875 -17.6875 15 C-16.86443359 14.16726562 -16.04136719 13.33453125 -15.19335938 12.4765625 C-11.12684935 8.5883567 -11.12684935 8.5883567 -8 4 C-10.64 3.67 -13.28 3.34 -16 3 C-12.27116893 1.90428426 -8.97156177 1.99782623 -5.12109375 2.16015625 C-2.69576058 2.15140845 -2.69576058 2.15140845 0 0 Z " fill="#2E8BA4" transform="translate(135,41)"/>
<path d="M0 0 C4.29875977 4.07250926 6.76117439 6.4206834 7.3125 12.375 C6.67182359 19.80684634 2.44152188 23.96269736 -2.6875 28.875 C-3.59725586 29.76445313 -3.59725586 29.76445313 -4.52539062 30.671875 C-6.01014785 32.12155922 -7.50414991 33.56176468 -9 35 C-9.62841797 33.15673828 -9.62841797 33.15673828 -10 31 C-7.9453125 28.4921875 -7.9453125 28.4921875 -5.125 25.875 C-1.60763913 22.78157269 -1.60763913 22.78157269 1 19 C1.66 19 2.32 19 3 19 C3.31096617 12.52729684 3.50355481 7.69327657 0 2 C0 1.34 0 0.68 0 0 Z " fill="#0B558C" transform="translate(177,10)"/>
<path d="M0 0 C2.625 -0.1875 2.625 -0.1875 5 0 C4.582687 4.92784505 2.45014073 6.9777145 -1.0625 10.3125 C-1.98160156 11.19550781 -2.90070312 12.07851562 -3.84765625 12.98828125 C-4.55792969 13.65214844 -5.26820312 14.31601563 -6 15 C-7.32 14.34 -8.64 13.68 -10 13 C-9.44243814 9.46368301 -8.35846524 8.11730658 -5.5625 5.9375 C-3.08722511 3.98931914 -1.79578076 2.69367114 0 0 Z " fill="#EDB26E" transform="translate(64,54)"/>
<path d="M0 0 C0.25 2.25 0.25 2.25 0 5 C-1.875 7.3125 -1.875 7.3125 -4 9 C-4.66 9 -5.32 9 -6 9 C-6 9.66 -6 10.32 -6 11 C-7.62626404 12.38232443 -9.2925002 13.71937515 -11 15 C-12.32 14.34 -13.64 13.68 -15 13 C-13.47246728 9.4193319 -11.34422227 7.01439208 -8.625 4.25 C-7.85414063 3.45078125 -7.08328125 2.6515625 -6.2890625 1.828125 C-4 0 -4 0 0 0 Z " fill="#F1B56F" transform="translate(138,123)"/>
<path d="M0 0 C1.32 0.66 2.64 1.32 4 2 C2.56300045 7.02949844 0.17389165 9.07827585 -4 12 C-5.32 12 -6.64 12 -8 12 C-7.92303847 8.76761586 -7.62561345 6.66772205 -5.375 4.265625 C-3.62229929 2.78148327 -1.84920638 1.36155666 0 0 Z " fill="#E5A366" transform="translate(75,58)"/>
<path d="M0 0 C1.32 0.66 2.64 1.32 4 2 C2.45991675 5.46518731 0.65074056 8.27562776 -2 11 C-5.25 11.8125 -5.25 11.8125 -8 12 C-7.49572053 7.58755464 -5.98672249 5.25025683 -3 2 C-2.01 1.34 -1.02 0.68 0 0 Z " fill="#EEA76A" transform="translate(130,113)"/>
<path d="M0 0 C0.33 0.66 0.66 1.32 1 2 C-1.31 2 -3.62 2 -6 2 C-7.0089034 6.23646767 -7.0089034 6.23646767 -6.0625 10.375 C-5.711875 10.91125 -5.36125 11.4475 -5 12 C-4.34 12 -3.68 12 -3 12 C-3 12.99 -3 13.98 -3 15 C-6.99500618 13.6302836 -9.80009492 11.74277578 -13 9 C-12.66594467 5.99350204 -11.76111354 4.69085282 -9.875 2.25 C-6.32859745 -0.52544547 -4.3942304 -0.4308069 0 0 Z " fill="#115E96" transform="translate(49,91)"/>
<path d="M0 0 C1.98 0.99 1.98 0.99 4 2 C4 2.99 4 3.98 4 5 C4.66 5.33 5.32 5.66 6 6 C5.01 6.66 4.02 7.32 3 8 C3.93488001 11.3499867 4.89074136 14.67136039 5.98828125 17.97265625 C8.30170196 25.03069251 9.70230981 31.57262987 10 39 C7.58112915 36.58112915 7.50623037 35.25907651 6.9375 31.9375 C6.58972434 28.66916048 6.58972434 28.66916048 5 26 C4.34076339 22.70004987 3.75716133 19.39530898 3.19335938 16.078125 C2.49478762 12.14006244 1.56039738 8.7034324 0 5 C-0.125 2.1875 -0.125 2.1875 0 0 Z " fill="#308EA6" transform="translate(144,53)"/>
<path d="M0 0 C3.22818302 2.7699236 5.11911098 6.3494617 7.1875 10 C7.73954102 10.94359375 7.73954102 10.94359375 8.30273438 11.90625 C11 16.630218 11 16.630218 11 20 C11.66 20.33 12.32 20.66 13 21 C12.01 21 11.02 21 10 21 C9.67 19.68 9.34 18.36 9 17 C8.34 17 7.68 17 7 17 C6.7525 16.4225 6.505 15.845 6.25 15.25 C5.11631941 12.88339584 5.11631941 12.88339584 2.9375 11.3125 C0.06878871 7.88855427 0.18588482 4.3497047 0 0 Z " fill="#1E759C" transform="translate(144,126)"/>
<path d="M0 0 C5.26230985 -0.21076435 9.57051035 0.49115418 14.625 1.9375 C18.72826475 3.10338747 22.79855893 4.23536992 27 5 C23.5647952 7.29013653 22.014669 7.17842973 18 7 C18 6.34 18 5.68 18 5 C17.40832031 4.93941406 16.81664063 4.87882812 16.20703125 4.81640625 C12.09021792 4.37987629 8.04455467 3.91328654 4 3 C4 2.34 4 1.68 4 1 C2.35 1.33 0.7 1.66 -1 2 C-0.67 1.34 -0.34 0.68 0 0 Z " fill="#095280" transform="translate(53,23)"/>
<path d="M0 0 C1.98 0.99 1.98 0.99 4 2 C4 2.99 4 3.98 4 5 C4.66 5 5.32 5 6 5 C6.33 6.32 6.66 7.64 7 9 C7.99 9 8.98 9 10 9 C10 8.34 10 7.68 10 7 C11.8125 5.9375 11.8125 5.9375 14 5 C14.99 5.33 15.98 5.66 17 6 C16.34 6 15.68 6 15 6 C14.731875 6.598125 14.46375 7.19625 14.1875 7.8125 C12.97506504 10.04593283 12.05347727 11.49938199 10 13 C8.1015625 12.953125 8.1015625 12.953125 6 12 C4.296875 9.27734375 4.296875 9.27734375 2.75 5.9375 C2.22921875 4.83277344 1.7084375 3.72804687 1.171875 2.58984375 C0.78515625 1.73519531 0.3984375 0.88054687 0 0 Z " fill="#0B4A8F" transform="translate(147,138)"/>
<path d="M0 0 C2 1 2 1 3 3.84375 C3.33 5.0503125 3.66 6.256875 4 7.5 C4.34675781 8.76199219 4.69351563 10.02398437 5.05078125 11.32421875 C5.82254091 14.31280246 6.53924581 17.29543728 7.1875 20.3125 C7.60571764 23.78518073 7.60571764 23.78518073 9 25 C9.04080783 26.99958364 9.04254356 29.00045254 9 31 C8.34 30.67 7.68 30.34 7 30 C6.26600016 27.77719886 5.63895203 25.51876701 5.0625 23.25 C4.80581543 22.24803589 4.80581543 22.24803589 4.54394531 21.22583008 C0 3.32717026 0 3.32717026 0 0 Z " fill="#257EA0" transform="translate(155,96)"/>
<path d="M0 0 C0.556875 0.268125 1.11375 0.53625 1.6875 0.8125 C1.32237253 3.5144433 0.98880763 5.39640852 -0.625 7.625 C-2.3125 8.8125 -2.3125 8.8125 -6.3125 8.8125 C-7.125 7.125 -7.125 7.125 -7.3125 4.8125 C-3.35769774 -0.27224576 -3.35769774 -0.27224576 0 0 Z " fill="#F2A965" transform="translate(127.3125,105.1875)"/>
<path d="M0 0 C0.7425 0.2475 1.485 0.495 2.25 0.75 C1.71104623 4.5226764 0.25464642 6.43212991 -2.75 8.75 C-5 8.5 -5 8.5 -6.75 7.75 C-6.75 3.75 -6.75 3.75 -5.0625 1.4375 C-2.75 -0.25 -2.75 -0.25 0 0 Z " fill="#ECA666" transform="translate(84.75,63.25)"/>
<path d="M0 0 C3.3 0 6.6 0 10 0 C10 0.66 10 1.32 10 2 C10.72703125 2.02578125 11.4540625 2.0515625 12.203125 2.078125 C20.01693143 2.51890382 26.70038905 4.21734689 34 7 C34 7.33 34 7.66 34 8 C26.67872592 7.28418236 19.65044553 5.63081979 12.5 3.9375 C11.29601562 3.65583984 10.09203125 3.37417969 8.8515625 3.08398438 C5.90016178 2.39298183 2.94969839 1.69822701 0 1 C0 0.67 0 0.34 0 0 Z " fill="#237C9F" transform="translate(61,28)"/>
<path d="M0 0 C3.38822712 1.12940904 3.62624605 1.48516479 5.1875 4.5 C7.30779802 8.98337826 7.61917868 13.1074734 7 18 C6.67 18.66 6.34 19.32 6 20 C5.34 20 4.68 20 4 20 C4.309375 18.205625 4.309375 18.205625 4.625 16.375 C5.11528448 12.42470792 4.74081938 9.65572071 3 6 C-0.20380017 3.86413322 -1.01939967 3.76867825 -4.6875 3.875 C-5.49574219 3.89304687 -6.30398437 3.91109375 -7.13671875 3.9296875 C-7.75160156 3.95289063 -8.36648437 3.97609375 -9 4 C-7 2 -7 2 -3.375 1.875 C-1.704375 1.936875 -1.704375 1.936875 0 2 C0 1.34 0 0.68 0 0 Z " fill="#237CA0" transform="translate(174,9)"/>
<path d="M0 0 C0 0.66 0 1.32 0 2 C2.64 2.33 5.28 2.66 8 3 C5.29319153 3.86617871 3.51963822 3.96441765 0.625 3.75 C-4.22273893 4.08432682 -5.58564786 5.66892474 -9 9 C-9.36585366 4.48780488 -9.36585366 4.48780488 -7.6875 2.25 C-5.11894077 0.34736353 -3.17220461 0 0 0 Z " fill="#115D91" transform="translate(57,24)"/>
<path d="M0 0 C0 0.99 0 1.98 0 3 C-1 4 -2 5 -3 6 C-3.309375 6.825 -3.61875 7.65 -3.9375 8.5 C-5.16608907 11.39079782 -6.3269438 12.41287288 -9 14 C-10.66666667 14 -12.33333333 14 -14 14 C-9.38 9.38 -4.76 4.76 0 0 Z " fill="#0C588C" transform="translate(89,82)"/>
<path d="M0 0 C2.55358486 0.73028658 4.29708365 1.0625 7 1.0625 C7 2.0525 7 3.0425 7 4.0625 C8.65 4.3925 10.3 4.7225 12 5.0625 C8.67424363 6.19115035 6.87796829 5.9316177 3.625 4.6875 C0.08853571 3.40735838 -3.25309231 2.54287278 -7 2.0625 C-7 1.4025 -7 0.7425 -7 0.0625 C-3.80010533 -1.00413156 -3.08719982 -0.89458631 0 0 Z " fill="#227A9E" transform="translate(50,92.9375)"/>
<path d="M0 0 C0.598125 0.226875 1.19625 0.45375 1.8125 0.6875 C1.0625 5.4375 1.0625 5.4375 -1.1875 7.6875 C-2.1775 7.6875 -3.1675 7.6875 -4.1875 7.6875 C-4.875 5.375 -4.875 5.375 -5.1875 2.6875 C-3.60587179 0.1901923 -2.97595617 -0.4251366 0 0 Z " fill="#F0A06C" transform="translate(122.1875,97.3125)"/>
<path d="M0 0 C3.92491136 4.52874388 7.37459686 9.60598991 10 15 C9.67 15.66 9.34 16.32 9 17 C4.4444679 13.63286758 2.41674205 11.6669682 1 6 C0.67 5.67 0.34 5.34 0 5 C-0.04063832 3.33382885 -0.042721 1.66611905 0 0 Z " fill="#1F769C" transform="translate(124,89)"/>
<path d="M0 0 C2.625 0.375 2.625 0.375 5 1 C4.42655063 3.86724686 4.1385485 4.8614515 2 7 C-0.625 6.625 -0.625 6.625 -3 6 C-2.42655063 3.13275314 -2.1385485 2.1385485 0 0 Z " fill="#F0A76C" transform="translate(90,68)"/>
<path d="M0 0 C0 3 0 3 -1.93359375 5.12109375 C-3.60016321 6.6628655 -5.26682957 8.20453251 -6.93359375 9.74609375 C-8.96296931 11.95960925 -9.63361677 13.07559571 -10 16 C-11.65 16.33 -13.3 16.66 -15 17 C-13.77881657 13.33644971 -11.71134803 11.59758518 -9 9 C-7.39314404 7.39852714 -5.78914241 5.79418696 -4.1875 4.1875 C-2.09375 2.09375 -2.09375 2.09375 0 0 Z " fill="#2A86A3" transform="translate(177,29)"/>
<path d="M0 0 C0 0.33 0 0.66 0 1 C-0.845625 1.165 -1.69125 1.33 -2.5625 1.5 C-6.78511526 3.34259575 -8.67136705 5.75970334 -11.484375 9.3203125 C-11.98453125 9.87460937 -12.4846875 10.42890625 -13 11 C-13.66 11 -14.32 11 -15 11 C-15 7 -15 7 -13.49609375 5.078125 C-8.83979948 0.94312364 -6.27405795 -0.91496678 0 0 Z " fill="#42AAB0" transform="translate(61,27)"/>
<path d="M0 0 C0.99 0 1.98 0 3 0 C3.433125 0.9590625 3.433125 0.9590625 3.875 1.9375 C4.82823451 4.15206079 4.82823451 4.15206079 7 5 C7.4140625 7.06640625 7.4140625 7.06640625 7.625 9.5625 C7.69976562 10.38878906 7.77453125 11.21507813 7.8515625 12.06640625 C7.90054688 12.70449219 7.94953125 13.34257813 8 14 C5.08975798 11.49941082 3.83208836 8.80344623 2.3125 5.3125 C1.87550781 4.31863281 1.43851563 3.32476562 0.98828125 2.30078125 C0.66214844 1.54152344 0.33601562 0.78226562 0 0 Z " fill="#0A4F88" transform="translate(132,110)"/>
<path d="M0 0 C2.13586678 3.20380017 2.23132175 4.01939967 2.125 7.6875 C2.10695312 8.49574219 2.08890625 9.30398437 2.0703125 10.13671875 C2.03550781 11.05904297 2.03550781 11.05904297 2 12 C1.34 12 0.68 12 0 12 C0 13.32 0 14.64 0 16 C-2.31 16.66 -4.62 17.32 -7 18 C-6.04882866 16.8274869 -5.08882991 15.66212985 -4.125 14.5 C-3.59132812 13.8503125 -3.05765625 13.200625 -2.5078125 12.53125 C-1.76144531 11.77328125 -1.76144531 11.77328125 -1 11 C-0.34 11 0.32 11 1 11 C0.67 7.37 0.34 3.74 0 0 Z " fill="#227A9E" transform="translate(164,127)"/>
<path d="M0 0 C0.33 0.66 0.66 1.32 1 2 C-1.31 2 -3.62 2 -6 2 C-6 2.66 -6 3.32 -6 4 C-6.99 4.33 -7.98 4.66 -9 5 C-9.33 6.65 -9.66 8.3 -10 10 C-10.99 9.67 -11.98 9.34 -13 9 C-12.66594467 5.99350204 -11.76111354 4.69085282 -9.875 2.25 C-6.32859745 -0.52544547 -4.3942304 -0.4308069 0 0 Z " fill="#08588E" transform="translate(49,91)"/>
<path d="M0 0 C1.98270912 0.95098266 3.96108379 1.91100703 5.9375 2.875 C7.03964844 3.40867188 8.14179687 3.94234375 9.27734375 4.4921875 C12 6 12 6 13 8 C7.06 6.515 7.06 6.515 1 5 C0.67 3.35 0.34 1.7 0 0 Z " fill="#1A6E9A" transform="translate(78,54)"/>
<path d="M0 0 C1.32 0.33 2.64 0.66 4 1 C0.7 4.3 -2.6 7.6 -6 11 C-6.33 10.01 -6.66 9.02 -7 8 C-6.01 7.67 -5.02 7.34 -4 7 C-4 6.34 -4 5.68 -4 5 C-3.34 5 -2.68 5 -2 5 C-1.34 3.35 -0.68 1.7 0 0 Z " fill="#08518E" transform="translate(163,45)"/>
<path d="M0 0 C4.571279 0.54855348 8.67435795 1.41744803 13 3 C12.67 4.32 12.34 5.64 12 7 C8.04 5.02 4.08 3.04 0 1 C0 0.67 0 0.34 0 0 Z " fill="#09528B" transform="translate(80,59)"/>
<path d="M0 0 C0 3 0 3 -1.609375 4.859375 C-2.31578125 5.48328125 -3.0221875 6.1071875 -3.75 6.75 C-4.44609375 7.38421875 -5.1421875 8.0184375 -5.859375 8.671875 C-8 10 -8 10 -10.140625 9.828125 C-12 9 -12 9 -14 7 C-12.989375 7.144375 -11.97875 7.28875 -10.9375 7.4375 C-5.47851048 6.83094561 -3.41603002 4.07016343 0 0 Z " fill="#3394A8" transform="translate(91,115)"/>
<path d="M0 0 C5.19822672 1.36144033 8.09543873 3.46730171 12 7 C8.72953565 7 6.1526164 6.91951312 3 6 C1.125 2.9375 1.125 2.9375 0 0 Z " fill="#2A86A3" transform="translate(65,114)"/>
<path d="M0 0 C9.41002278 0.96355353 9.41002278 0.96355353 14 2 C14 2.33 14 2.66 14 3 C5.99625838 4.44729968 5.99625838 4.44729968 1.9375 2.625 C1.298125 2.08875 0.65875 1.5525 0 1 C0 0.67 0 0.34 0 0 Z " fill="#085A8B" transform="translate(61,95)"/>
<path d="M0 0 C4.82360189 -0.19294408 8.49646738 0.24252386 13 2 C12.67 2.66 12.34 3.32 12 4 C9.36 3.67 6.72 3.34 4 3 C4 2.34 4 1.68 4 1 C2.35 1.33 0.7 1.66 -1 2 C-0.67 1.34 -0.34 0.68 0 0 Z " fill="#074786" transform="translate(53,23)"/>
<path d="M0 0 C1.98 0.99 1.98 0.99 4 2 C4 2.99 4 3.98 4 5 C4.66 5 5.32 5 6 5 C8.10865385 8.47307692 8.10865385 8.47307692 7.55859375 11.140625 C7.28208984 12.06101563 7.28208984 12.06101563 7 13 C5.83072457 11.02237345 4.66464427 9.04285742 3.5 7.0625 C2.8503125 5.96035156 2.200625 4.85820312 1.53125 3.72265625 C0 1 0 1 0 0 Z " fill="#084A7D" transform="translate(147,138)"/>
<path d="M0 0 C0.66 0 1.32 0 2 0 C3.18538537 3.70432927 3.35140565 7.1345378 3 11 C1 12.9375 1 12.9375 -1 14 C-1 12.68 -1 11.36 -1 10 C-0.34 10 0.32 10 1 10 C0.67 6.7 0.34 3.4 0 0 Z " fill="#0D5694" transform="translate(165,129)"/>
<path d="M0 0 C1.27253436 3.64793184 2.32829194 7.1936543 3 11 C0.87961365 8.38485683 -1.13091744 5.80362384 -3 3 C-3.99 3.495 -3.99 3.495 -5 4 C-5 3.01 -5 2.02 -5 1 C-3 0 -3 0 0 0 Z " fill="#074D87" transform="translate(124,89)"/>
<path d="M0 0 C0.99 0.33 1.98 0.66 3 1 C1.4169423 5.2742558 -1.50568404 7.26531794 -5 10 C-4.42437172 6.66135596 -3.40936384 5.30897368 -1 3 C-0.67 2.01 -0.34 1.02 0 0 Z " fill="#186C99" transform="translate(103,68)"/>
<path d="M0 0 C0.99 0 1.98 0 3 0 C1.79618552 2.49361571 0.54571278 4.68143083 -1 7 C-1.99 7 -2.98 7 -4 7 C-3.67 5.68 -3.34 4.36 -3 3 C-2.34 3 -1.68 3 -1 3 C-0.67 2.01 -0.34 1.02 0 0 Z " fill="#B9E5E2" transform="translate(124,60)"/>
<path d="M0 0 C0.33 0.66 0.66 1.32 1 2 C0.67 2.66 0.34 3.32 0 4 C-0.66 4 -1.32 4 -2 4 C-2 4.66 -2 5.32 -2 6 C-2.639375 6.28875 -3.27875 6.5775 -3.9375 6.875 C-6.15206079 7.82823451 -6.15206079 7.82823451 -7 10 C-7.66 9.67 -8.32 9.34 -9 9 C-7.87895467 7.68412059 -6.75303035 6.37239647 -5.625 5.0625 C-4.99851563 4.33160156 -4.37203125 3.60070313 -3.7265625 2.84765625 C-2 1 -2 1 0 0 Z " fill="#257EA0" transform="translate(161,46)"/>
<path d="M0 0 C0.99 0.33 1.98 0.66 3 1 C0.36 3.64 -2.28 6.28 -5 9 C-5.33 8.01 -5.66 7.02 -6 6 C-4.71034824 4.62437146 -3.37310707 3.29233607 -2 2 C-1.34 2 -0.68 2 0 2 C0 1.34 0 0.68 0 0 Z " fill="#196D99" transform="translate(158,15)"/>
<path d="M0 0 C2.97148323 3.35490043 4.2679078 5.6074468 5 10 C5.66 10.33 6.32 10.66 7 11 C6.01 11 5.02 11 4 11 C3.67 9.68 3.34 8.36 3 7 C2.34 7 1.68 7 1 7 C0.67 4.69 0.34 2.38 0 0 Z " fill="#247D9F" transform="translate(150,136)"/>
<path d="M0 0 C1.98 0 3.96 0 6 0 C6.66 1.65 7.32 3.3 8 5 C2.25 3.375 2.25 3.375 0 0 Z " fill="#0A4D7C" transform="translate(68,120)"/>
<path d="M0 0 C0 0.99 0 1.98 0 3 C-4.34285714 7 -4.34285714 7 -7 7 C-7 4 -7 4 -5.1875 1.8125 C-3 0 -3 0 0 0 Z " fill="#B3E3DF" transform="translate(107,80)"/>
<path d="M0 0 C0 0.99 0 1.98 0 3 C-4.34285714 7 -4.34285714 7 -7 7 C-6.22006468 2.47637516 -4.81844319 0 0 0 Z " fill="#B8E5E1" transform="translate(117,70)"/>
<path d="M0 0 C3 1 3 1 4 3 C4.66 3.144375 5.32 3.28875 6 3.4375 C6.66 3.623125 7.32 3.80875 8 4 C8.33 4.99 8.66 5.98 9 7 C5.00544473 6.38545304 2.25533664 4.29353263 -1 2 C-0.67 1.34 -0.34 0.68 0 0 Z " fill="#074D81" transform="translate(46,38)"/>
<path d="M0 0 C0 0.99 0 1.98 0 3 C-4.34285714 7 -4.34285714 7 -7 7 C-7 4 -7 4 -5.1875 1.8125 C-3 0 -3 0 0 0 Z " fill="#B9E5E2" transform="translate(158,29)"/>
<path d="M0 0 C0.66 0.33 1.32 0.66 2 1 C1.34 2.32 0.68 3.64 0 5 C-0.99 5 -1.98 5 -3 5 C-3 5.66 -3 6.32 -3 7 C-4.65 7.66 -6.3 8.32 -8 9 C-7.04270084 7.87411986 -6.08412105 6.7493285 -5.125 5.625 C-4.59132812 4.99851562 -4.05765625 4.37203125 -3.5078125 3.7265625 C-2.38567993 2.44163349 -1.20628025 1.20628025 0 0 Z " fill="#064880" transform="translate(161,10)"/>
<path d="M0 0 C0.33 0.99 0.66 1.98 1 3 C-0.125 4.5625 -0.125 4.5625 -2 6 C-5.1875 5.6875 -5.1875 5.6875 -8 5 C-5 3 -5 3 -1 3 C-0.67 2.01 -0.34 1.02 0 0 Z " fill="#074883" transform="translate(86,123)"/>
<path d="M0 0 C0.99 0 1.98 0 3 0 C3 0.66 3 1.32 3 2 C5.64 2.33 8.28 2.66 11 3 C7.0186217 4.3271261 3.14954773 4.06915913 -1 4 C-0.67 2.68 -0.34 1.36 0 0 Z " fill="#1B6F9A" transform="translate(54,24)"/>
<path d="M0 0 C0.33 0 0.66 0 1 0 C1.99 3.96 2.98 7.92 4 12 C3.01 12 2.02 12 1 12 C-0.3271261 8.0186217 -0.06915913 4.14954773 0 0 Z " fill="#084B85" transform="translate(155,83)"/>
<path d="M0 0 C0.33 1.32 0.66 2.64 1 4 C-0.32 4.99 -1.64 5.98 -3 7 C-3.66 6.67 -4.32 6.34 -5 6 C-4.67 5.01 -4.34 4.02 -4 3 C-3.01 3 -2.02 3 -1 3 C-0.67 2.01 -0.34 1.02 0 0 Z " fill="#0F6095" transform="translate(155,53)"/>
<path d="M0 0 C2.6855594 2.6855594 3.06049974 5.37621328 4 9 C3.01 9 2.02 9 1 9 C0.29925156 5.846632 0 3.27275026 0 0 Z " fill="#20779D" transform="translate(139,115)"/>
<path d="M0 0 C3.77545388 1.09068668 6.47043472 1.9083091 9 5 C7.68 5 6.36 5 5 5 C5 4.34 5 3.68 5 3 C3.35 3 1.7 3 0 3 C0 2.01 0 1.02 0 0 Z " fill="#166998" transform="translate(93,63)"/>
<path d="M0 0 C0.66 0 1.32 0 2 0 C0.71480435 2.86697492 -0.57129254 4.97607712 -3 7 C-3.66 7 -4.32 7 -5 7 C-4.67 6.01 -4.34 5.02 -4 4 C-3.34 4 -2.68 4 -2 4 C-1.34 2.68 -0.68 1.36 0 0 Z " fill="#EA9A5D" transform="translate(46,58)"/>
<path d="M0 0 C0.99 0.33 1.98 0.66 3 1 C-0.465 3.97 -0.465 3.97 -4 7 C-3.04065919 3.16263678 -2.76390737 2.40339772 0 0 Z " fill="#1A6E9A" transform="translate(144,29)"/>
<path d="M0 0 C1.65 0 3.3 0 5 0 C5 1.65 5 3.3 5 5 C3.0625 4.1875 3.0625 4.1875 1 3 C0.67 2.01 0.34 1.02 0 0 Z " fill="#116295" transform="translate(145,134)"/>
<path d="M0 0 C2.5 2.3125 2.5 2.3125 5 5 C5 5.99 5 6.98 5 8 C4.01 7.67 3.02 7.34 2 7 C0.8125 3.4375 0.8125 3.4375 0 0 Z " fill="#074D87" transform="translate(177,10)"/>
</svg>
