<?xml version="1.0" encoding="UTF-8"?>
<svg version="1.1" xmlns="http://www.w3.org/2000/svg" width="192" height="192">
<path d="M0 0 C0.82862549 0.00773438 1.65725098 0.01546875 2.51098633 0.0234375 C8.65954539 0.19795066 13.17307127 1.28374114 18.5 4.5 C18.5 5.16 18.5 5.82 18.5 6.5 C19.056875 6.7475 19.61375 6.995 20.1875 7.25 C25.02017755 9.86225813 28.10998855 13.26248568 31.5 17.5 C32.325 18.16 33.15 18.82 34 19.5 C36.62899543 21.60319635 38.40319635 23.87899543 40.5 26.5 C41.325 27.16 42.15 27.82 43 28.5 C45.62899543 30.60319635 47.40319635 32.87899543 49.5 35.5 C51.16270287 36.83827304 52.82916181 38.17189785 54.5 39.5 C57.5 43.01724138 57.5 43.01724138 57.5 45.5 C58.16 45.5 58.82 45.5 59.5 45.5 C64.6899366 54.09583249 64.76006338 63.72349429 63.5 73.5 C62.37361267 77.33156345 60.85961337 80.2935117 58.5 83.5 C58.08105469 84.0775 57.66210938 84.655 57.23046875 85.25 C54.07641843 89.25514326 50.38844963 92.8429114 46.56216431 96.20042419 C39.240313 102.62721244 32.45508181 109.52514732 25.64948654 116.4893055 C22.07991865 120.13637228 18.4915399 123.76488404 14.90625 127.39648438 C10.3681252 131.99469739 5.83599788 136.59835331 1.32519531 141.22338867 C-2.3453385 144.98587955 -6.03508 148.72853839 -9.73853683 152.45861626 C-11.14034994 153.87768766 -12.53497235 155.30390066 -13.92207718 156.73735237 C-15.85778446 158.7358447 -17.81707051 160.70801287 -19.78369141 162.67602539 C-20.62867943 163.56651329 -20.62867943 163.56651329 -21.49073792 164.47499084 C-24.47951904 167.41124005 -26.46925759 168.86121082 -30.74351501 168.97853088 C-35.2510758 168.404322 -36.67770203 167.31762664 -39.83984375 164.1171875 C-40.75701172 163.19679687 -41.67417969 162.27640625 -42.61914062 161.328125 C-43.08167236 160.84279297 -43.5442041 160.35746094 -44.02075195 159.85742188 C-45.43594108 158.37663119 -46.88284508 156.93372173 -48.33789062 155.4921875 C-56.14635745 147.51192332 -56.14635745 147.51192332 -56.5 141.5 C-55.5390625 139.62890625 -55.5390625 139.62890625 -54.125 138.0625 C-51.3793781 134.5826728 -50.58078804 132.0241304 -50.5 127.5 C-51.10225482 123.13365253 -52.09873995 120.40484969 -55.4375 117.5625 C-60.14482782 114.60445058 -65.13180517 114.46125034 -70.5 115.5 C-72.54243477 116.66321523 -74.10166275 117.85392374 -75.76953125 119.50390625 C-78.54828084 121.10341222 -80.4693867 120.28969439 -83.5 119.5 C-86.96081093 116.96058221 -89.90593795 113.93900789 -92.92480469 110.8918457 C-94.37005918 109.44245496 -95.84647374 108.03118575 -97.328125 106.61914062 C-98.24851562 105.70197266 -99.16890625 104.78480469 -100.1171875 103.83984375 C-100.95878418 103.00831787 -101.80038086 102.17679199 -102.66748047 101.32006836 C-104.61424915 98.32418173 -105.13973826 96.28633867 -105.03721619 92.72059727 C-103.90394677 88.03619825 -100.09891383 85.02269503 -96.74829102 81.76074219 C-95.92394058 80.92719208 -95.09959015 80.09364197 -94.2502594 79.23483276 C-91.52078818 76.48545111 -88.76346104 73.76603525 -86.00390625 71.046875 C-84.09397127 69.14309656 -82.18930525 67.23407484 -80.28416443 65.32550049 C-76.28688351 61.32739095 -72.27409842 57.34539059 -68.2512207 53.37304688 C-63.61368861 48.79347377 -58.99934545 44.19154035 -54.39732987 39.57629657 C-49.9572255 35.1241473 -45.5029797 30.68642396 -41.04154778 26.25565338 C-39.14952338 24.37638144 -37.26288393 22.4921508 -35.37841988 20.6052475 C-32.7365179 17.96477833 -30.07886777 15.34124691 -27.41625977 12.72167969 C-26.25855072 11.55585861 -26.25855072 11.55585861 -25.07745361 10.3664856 C-17.54111022 3.01890785 -10.54478084 -0.23953259 0 0 Z " fill="#010200" transform="translate(116.5,11.5)"/>
<path d="M0 0 C3.97526224 1.6006756 6.64020304 4.37143556 9.59472656 7.36767578 C10.14151062 7.91416779 10.68829468 8.46065979 11.25164795 9.02371216 C13.05275649 10.82621093 14.84668247 12.63568396 16.640625 14.4453125 C17.89000495 15.69842367 19.13982801 16.95109319 20.39007568 18.20333862 C23.67586872 21.49675955 26.9556107 24.79614291 30.23413086 28.09680176 C33.58214253 31.46528994 36.93583907 34.8281076 40.2890625 38.19140625 C46.86495296 44.78873176 53.43446516 51.39236983 60 58 C58.34395113 62.29505763 55.10451694 65.16153042 51.89794922 68.32910156 C51.27342865 68.95391418 50.64890808 69.57872681 50.00546265 70.22247314 C47.9432435 72.28330069 45.8740341 74.33695653 43.8046875 76.390625 C42.37221453 77.81936725 40.94018293 79.24855215 39.50857544 80.67816162 C35.74168516 84.43742017 31.96882707 88.19063357 28.19470215 91.94262695 C24.34363269 95.77322817 20.49822729 99.60950595 16.65234375 103.4453125 C9.10710066 110.96911378 1.55554189 118.48654202 -6 126 C-10.52918278 123.81638152 -14.02905764 121.1096609 -17 117 C-17 113.75 -17 113.75 -16 111 C-13.83119773 104.49359318 -13.64991825 94.86560109 -16.5 88.5 C-19.89022032 83.0013741 -25.65985811 77.71732131 -31.74609375 75.4296875 C-39.23126223 74.00270564 -46.95323547 74.17407907 -54 77 C-57.86456203 76.77137133 -59.66201374 74.65488557 -62.25 71.9375 C-63.30960938 70.83728516 -63.30960938 70.83728516 -64.390625 69.71484375 C-64.92171875 69.14894531 -65.4528125 68.58304687 -66 68 C-64.34395113 63.70494237 -61.10451694 60.83846958 -57.89794922 57.67089844 C-57.27342865 57.04608582 -56.64890808 56.42127319 -56.00546265 55.77752686 C-53.9432435 53.71669931 -51.8740341 51.66304347 -49.8046875 49.609375 C-48.37221453 48.18063275 -46.94018293 46.75144785 -45.50857544 45.32183838 C-41.74168516 41.56257983 -37.96882707 37.80936643 -34.19470215 34.05737305 C-30.34363269 30.22677183 -26.49822729 26.39049405 -22.65234375 22.5546875 C-15.10710066 15.03088622 -7.55554189 7.51345798 0 0 Z " fill="#5FB235" transform="translate(93,39)"/>
<path d="M0 0 C2.625 0.6875 2.625 0.6875 4.2890625 2.28125 C6.12541555 5.58883327 5.74756316 8.11767304 5.625 11.875 C5.66340502 16.29051038 6.07170463 19.05803896 9.09375 22.49609375 C12.06685276 24.83357588 12.06685276 24.83357588 15.15625 26.7578125 C17.625 28.6875 17.625 28.6875 18.5546875 31.296875 C18.625 33.6875 18.625 33.6875 17.25 35.8125 C12.48279296 39.21764789 7.45439727 40.6875 1.625 40.6875 C1.43164062 41.50734375 1.23828125 42.3271875 1.0390625 43.171875 C0.64847656 44.78835937 0.64847656 44.78835937 0.25 46.4375 C-0.13285156 48.03851563 -0.13285156 48.03851563 -0.5234375 49.671875 C-1.26135682 52.28505717 -1.8922756 54.4213503 -3.375 56.6875 C-6.625 57.875 -6.625 57.875 -10.375 57.6875 C-12.84841684 55.68357432 -14.56490057 53.287461 -16.375 50.6875 C-16.99375 49.924375 -17.6125 49.16125 -18.25 48.375 C-19.375 46.6875 -19.375 46.6875 -19.375 44.6875 C-20.57898438 44.71070313 -21.78296875 44.73390625 -23.0234375 44.7578125 C-24.59895215 44.77656863 -26.17447348 44.79476899 -27.75 44.8125 C-28.5440625 44.82925781 -29.338125 44.84601563 -30.15625 44.86328125 C-32.22992015 44.88085473 -34.30383241 44.79085168 -36.375 44.6875 C-38.375 42.6875 -38.375 42.6875 -38.9375 39.625 C-38.32459981 35.33469865 -37.54050824 34.36655343 -34.8125 31.1875 C-31.77170067 27.67170307 -31.77170067 27.67170307 -31.3125 23.0625 C-32.0406137 20.74966825 -32.7698362 18.43718535 -33.5 16.125 C-34.4344441 12.45396961 -34.46632701 10.29727397 -33.375 6.6875 C-30.375 4.6875 -30.375 4.6875 -27.6875 4.875 C-24.37869791 5.68659296 -21.41807401 6.80117443 -18.3046875 8.1640625 C-15.85827172 8.82766516 -14.72837974 8.62432617 -12.375 7.6875 C-10.87637578 6.55127036 -9.41996266 5.35812547 -8 4.125 C-5.0971738 1.80464879 -3.69495696 0.75267642 0 0 Z " fill="#020302" transform="translate(109.375,69.3125)"/>
<path d="M0 0 C6.35118142 3.95929201 11.70275266 9.86382623 17.00492859 15.10131836 C17.65237534 15.74069336 18.29982208 16.38006836 18.96688843 17.03881836 C20.32028502 18.37850855 21.67222708 19.71966967 23.02275085 21.06225586 C24.39820293 22.42611383 25.77812928 23.78547366 27.16239929 25.14038086 C29.18232179 27.11760038 31.18863158 29.10777357 33.19242859 31.10131836 C33.80806168 31.69944336 34.42369476 32.29756836 35.0579834 32.91381836 C39.74358892 37.62328163 43.19104269 42.6064582 43.20414734 49.53881836 C43.03701771 54.1786552 41.75844769 58.48160929 38.76664734 62.10131836 C37.0486908 63.02268982 37.0486908 63.02268982 34.76664734 63.10131836 C32.61989491 61.4356769 30.86352051 59.82966628 28.98832703 57.890625 C28.42203583 57.32506393 27.85574463 56.75950287 27.27229309 56.17680359 C25.39894649 54.29996685 23.54393752 52.40602644 21.68852234 50.51147461 C20.39495679 49.20858608 19.10028463 47.90679539 17.80455017 46.60606384 C14.39367623 43.17607989 10.99808007 39.73134718 7.60539246 36.28338623 C4.14216121 32.7690495 0.66476963 29.26878779 -2.81147766 25.76733398 C-9.63274661 18.89240668 -16.43796716 12.001824 -23.23335266 5.10131836 C-16.47464604 -1.83672376 -9.22969669 -4.45247127 0 0 Z " fill="#5EB034" transform="translate(125.23335266113281,25.898681640625)"/>
<path d="M0 0 C0.66 0 1.32 0 2 0 C2.12375 1.6396875 2.12375 1.6396875 2.25 3.3125 C2.62010299 7.03443943 2.62010299 7.03443943 5.0625 8.8125 C5.701875 9.204375 6.34125 9.59625 7 10 C7 10.66 7 11.32 7 12 C5.576875 12.3403125 5.576875 12.3403125 4.125 12.6875 C0.80676612 13.69083714 0.80676612 13.69083714 -0.375 16.625 C-0.58125 17.40875 -0.7875 18.1925 -1 19 C-1.886875 18.360625 -2.77375 17.72125 -3.6875 17.0625 C-6.69211428 15.19170243 -8.5510371 14.40576034 -12 14 C-11.505 13.2575 -11.505 13.2575 -11 12.5 C-9.56363642 8.90909106 -9.87148538 5.85543873 -10 2 C-8.72125 2.04125 -7.4425 2.0825 -6.125 2.125 C-3.98128508 2.24212873 -3.98128508 2.24212873 -2 2 C-1.34 1.34 -0.68 0.68 0 0 Z " fill="#DEDCDD" transform="translate(101,88)"/>
</svg>
