<?xml version="1.0" encoding="UTF-8"?>
<svg version="1.1" xmlns="http://www.w3.org/2000/svg" width="192" height="192">
<path d="M0 0 C5.29956509 2.83916013 9.51899335 6.9820149 13.6875 11.25 C14.21386047 11.77270477 14.74022095 12.29540955 15.28253174 12.83395386 C20.50750738 18.13321387 24.60350898 22.78852341 24.80859375 30.59765625 C24.56534018 34.33474482 24.15597412 36.60197309 21.375 39.1875 C18.06297585 40.96617964 15.67284252 41.49074032 12 42 C18.24443508 50.23024029 18.24443508 50.23024029 27.515625 53.953125 C31.69054336 54.27091925 35.82085336 54.21067211 40 54 C40 53.34 40 52.68 40 52 C41.64351457 50.63823078 43.31522656 49.31037934 45 48 C45.845625 47.154375 46.69125 46.30875 47.5625 45.4375 C51.54972167 41.45027833 54.17878582 39.23284857 60 39 C63.50729401 40.37540942 66.89971204 41.79429732 69 45 C70.4923024 52.11713451 69.30560875 56.16119144 65.58984375 62.42578125 C60.89098778 69.18986571 55.69144043 74.88146466 47.35150146 76.52050781 C39.79243029 77.44202806 32.22861039 77.44703912 24.625 77.3125 C22.94022049 77.28453842 22.94022049 77.28453842 21.22140503 77.25601196 C17.97059624 77.18133614 14.72509418 77.06766158 11.4765625 76.92578125 C9.98524055 76.86318115 9.98524055 76.86318115 8.46379089 76.79931641 C7.54068619 76.74219482 6.61758148 76.68507324 5.66650391 76.6262207 C4.8591983 76.57859085 4.0518927 76.530961 3.22012329 76.48188782 C0.50753777 75.89310884 -0.97660722 74.87832254 -3 73 C-3 72.34 -3 71.68 -3 71 C-3.66 71 -4.32 71 -5 71 C-5 70.34 -5 69.68 -5 69 C-6.32 68.34 -7.64 67.68 -9 67 C-9 66.34 -9 65.68 -9 65 C-9.66 65 -10.32 65 -11 65 C-11 64.34 -11 63.68 -11 63 C-12.32 62.34 -13.64 61.68 -15 61 C-15 60.34 -15 59.68 -15 59 C-15.66 59 -16.32 59 -17 59 C-17 58.34 -17 57.68 -17 57 C-18.32 56.34 -19.64 55.68 -21 55 C-21 54.34 -21 53.68 -21 53 C-21.66 53 -22.32 53 -23 53 C-23 52.34 -23 51.68 -23 51 C-24.32 50.34 -25.64 49.68 -27 49 C-27 48.34 -27 47.68 -27 47 C-27.66 47 -28.32 47 -29 47 C-29 46.34 -29 45.68 -29 45 C-30.32 44.34 -31.64 43.68 -33 43 C-33 42.34 -33 41.68 -33 41 C-33.66 41 -34.32 41 -35 41 C-35 40.34 -35 39.68 -35 39 C-36.32 38.34 -37.64 37.68 -39 37 C-39 36.34 -39 35.68 -39 35 C-39.66 35 -40.32 35 -41 35 C-41 34.34 -41 33.68 -41 33 C-42.32 32.34 -43.64 31.68 -45 31 C-45 30.34 -45 29.68 -45 29 C-45.66 29 -46.32 29 -47 29 C-47 28.34 -47 27.68 -47 27 C-48.32 26.34 -49.64 25.68 -51 25 C-50.34 23.68 -49.68 22.36 -49 21 C-48.34 21 -47.68 21 -47 21 C-47 20.34 -47 19.68 -47 19 C-45.33784732 17.66104368 -43.67036393 16.32869858 -42 15 C-41.34 14.175 -40.68 13.35 -40 12.5 C-37.89680365 9.87100457 -35.62100457 8.09680365 -33 6 C-31.65263027 4.34466005 -30.31665664 2.67987227 -29 1 C-20.84582192 -3.07708904 -8.47195539 -2.48241845 0 0 Z " fill="#017CE4" transform="translate(102,90)"/>
<path d="M0 0 C5.22948744 4.37029366 10.10289955 8.96911804 14.90234375 13.8046875 C15.6249086 14.5286673 16.34747345 15.25264709 17.0919342 15.99856567 C19.37616922 18.28835265 21.65688312 20.58160993 23.9375 22.875 C25.49521039 24.43773161 27.05315087 26.0002339 28.61132812 27.5625 C32.41021602 31.3723531 36.20622713 35.18505379 40 39 C38.3413812 42.52344644 36.43342692 44.79901878 33.6484375 47.546875 C32.79765625 48.39121094 31.946875 49.23554688 31.0703125 50.10546875 C30.18085937 50.97816406 29.29140625 51.85085937 28.375 52.75 C27.4778125 53.63816406 26.580625 54.52632812 25.65625 55.44140625 C23.44192996 57.63216969 21.22307565 59.81812763 19 62 C16.15776803 60.63760782 14.03972359 59.44766831 12 57 C12 56.34 12 55.68 12 55 C10.68 54.34 9.36 53.68 8 53 C8 52.34 8 51.68 8 51 C7.34 51 6.68 51 6 51 C6 50.34 6 49.68 6 49 C4.68 48.34 3.36 47.68 2 47 C2 46.34 2 45.68 2 45 C1.34 45 0.68 45 0 45 C0 44.34 0 43.68 0 43 C-1.32 42.34 -2.64 41.68 -4 41 C-4 40.34 -4 39.68 -4 39 C-4.66 39 -5.32 39 -6 39 C-6 38.34 -6 37.68 -6 37 C-7.32 36.34 -8.64 35.68 -10 35 C-10 34.34 -10 33.68 -10 33 C-10.66 33 -11.32 33 -12 33 C-12 32.34 -12 31.68 -12 31 C-13.32 30.34 -14.64 29.68 -16 29 C-16 28.34 -16 27.68 -16 27 C-16.66 27 -17.32 27 -18 27 C-18 26.34 -18 25.68 -18 25 C-18.99 24.67 -19.98 24.34 -21 24 C-21.33 23.01 -21.66 22.02 -22 21 C-20.68 20.34 -19.36 19.68 -18 19 C-18 18.34 -18 17.68 -18 17 C-17.34 17 -16.68 17 -16 17 C-15.34 15.68 -14.68 14.36 -14 13 C-13.34 13 -12.68 13 -12 13 C-12 12.34 -12 11.68 -12 11 C-11.34 11 -10.68 11 -10 11 C-9.34 9.68 -8.68 8.36 -8 7 C-7.34 7 -6.68 7 -6 7 C-6 6.34 -6 5.68 -6 5 C-5.34 5 -4.68 5 -4 5 C-3.71125 4.360625 -3.4225 3.72125 -3.125 3.0625 C-2 1 -2 1 0 0 Z " fill="#E5E5EA" transform="translate(43,122)"/>
<path d="M0 0 C1.20527344 -0.01417969 2.41054687 -0.02835938 3.65234375 -0.04296875 C8.36248557 0.27535699 11.03818491 1.07538647 14.25 4.5625 C19.57031571 12.26778482 19.9432197 21.55574279 18.375 30.6875 C17.11919916 35.8815606 14.84894376 39.40105624 11.0625 43.1875 C7.49769667 44.48004994 3.88198018 44.35495208 0.125 44.375 C-1.08027344 44.38917969 -2.28554687 44.40335938 -3.52734375 44.41796875 C-8.23748557 44.09964301 -10.91318491 43.29961353 -14.125 39.8125 C-19.12972266 32.56428097 -19.79151943 24.54399902 -18.62890625 15.890625 C-17.49197408 9.8940624 -15.31244974 5.56244974 -10.9375 1.1875 C-7.37269667 -0.10504994 -3.75698018 0.02004792 0 0 Z " fill="#040404" transform="translate(164.9375,49.8125)"/>
<path d="M0 0 C1.20527344 -0.01417969 2.41054687 -0.02835938 3.65234375 -0.04296875 C8.36248557 0.27535699 11.03818491 1.07538647 14.25 4.5625 C19.57853232 12.27968474 19.91405898 21.94273374 18.64453125 31.1171875 C17.32214355 35.82098266 14.48352218 39.76647782 11.0625 43.1875 C4.08127119 45.08707179 -5.43357398 45.60206116 -11.9375 42.1875 C-18.47732509 35.28435129 -18.84767429 28.42956769 -18.9375 19.1875 C-18.30957142 11.71215973 -16.2791903 6.5291903 -10.9375 1.1875 C-7.37269667 -0.10504994 -3.75698018 0.02004792 0 0 Z " fill="#030303" transform="translate(107.9375,22.8125)"/>
<path d="M0 0 C6.70460217 7.07708007 6.97131015 14.32482841 7.01171875 23.7265625 C6.62581986 30.84915345 4.02935978 35.97064022 -1 41 C-4.56480333 42.29254994 -8.18051982 42.16745208 -11.9375 42.1875 C-13.14277344 42.20167969 -14.34804688 42.21585938 -15.58984375 42.23046875 C-20.29998557 41.91214301 -22.97568491 41.11211353 -26.1875 37.625 C-31.55742048 29.84787379 -31.69793216 20.55290585 -30.58203125 11.328125 C-29.3609765 6.44390599 -26.51933805 2.51933805 -23 -1 C-16.01877119 -2.89957179 -6.50392602 -3.41456116 0 0 Z " fill="#030303" transform="translate(60,37)"/>
<path d="M0 0 C2.95818606 1.33025957 5.01351165 2.77410511 7.28051758 5.08520508 C7.89828568 5.70957962 8.51605377 6.33395416 9.15254211 6.97724915 C10.13857674 7.98817879 10.13857674 7.98817879 11.14453125 9.01953125 C11.83254318 9.71511642 12.52055511 10.4107016 13.22941589 11.12736511 C16.167149 14.09770896 19.09301279 17.07964327 22.01977539 20.06079102 C24.16133484 22.23871702 26.30901847 24.4104726 28.45703125 26.58203125 C29.10831497 27.24991165 29.75959869 27.91779205 30.43061829 28.60591125 C35.97116727 34.20481786 41.55105211 38.70317676 48.9375 41.6875 C49.89527344 42.08324219 50.85304687 42.47898438 51.83984375 42.88671875 C66.24723246 47.96225124 81.74792675 47.57689823 96 42 C101.94569679 38.90236538 110.87936107 34.24127787 114 28 C114.66 28 115.32 28 116 28 C117.46527254 34.3006719 115.80635781 38.00290301 112.58984375 43.42578125 C107.89098778 50.18986571 102.69144043 55.88146466 94.35150146 57.52050781 C86.79243029 58.44202806 79.22861039 58.44703912 71.625 58.3125 C70.50181366 58.29385895 69.37862732 58.2752179 68.22140503 58.25601196 C64.97059624 58.18133614 61.72509418 58.06766158 58.4765625 57.92578125 C56.98524055 57.86318115 56.98524055 57.86318115 55.46379089 57.79931641 C54.54068619 57.74219482 53.61758148 57.68507324 52.66650391 57.6262207 C51.8591983 57.57859085 51.0518927 57.530961 50.22012329 57.48188782 C47.50753777 56.89310884 46.02339278 55.87832254 44 54 C44 53.34 44 52.68 44 52 C43.34 52 42.68 52 42 52 C42 51.34 42 50.68 42 50 C40.68 49.34 39.36 48.68 38 48 C38 47.34 38 46.68 38 46 C37.34 46 36.68 46 36 46 C36 45.34 36 44.68 36 44 C34.68 43.34 33.36 42.68 32 42 C32 41.34 32 40.68 32 40 C31.34 40 30.68 40 30 40 C30 39.34 30 38.68 30 38 C28.68 37.34 27.36 36.68 26 36 C26 35.34 26 34.68 26 34 C25.34 34 24.68 34 24 34 C24 33.34 24 32.68 24 32 C22.68 31.34 21.36 30.68 20 30 C20 29.34 20 28.68 20 28 C19.34 28 18.68 28 18 28 C18 27.34 18 26.68 18 26 C16.68 25.34 15.36 24.68 14 24 C14 23.34 14 22.68 14 22 C13.34 22 12.68 22 12 22 C12 21.34 12 20.68 12 20 C10.68 19.34 9.36 18.68 8 18 C8 17.34 8 16.68 8 16 C7.34 16 6.68 16 6 16 C6 15.34 6 14.68 6 14 C4.68 13.34 3.36 12.68 2 12 C2 11.34 2 10.68 2 10 C1.34 10 0.68 10 0 10 C0 9.34 0 8.68 0 8 C-1.32 7.34 -2.64 6.68 -4 6 C-3.34 4.68 -2.68 3.36 -2 2 C-1.34 2 -0.68 2 0 2 C0 1.34 0 0.68 0 0 Z " fill="#0365B0" transform="translate(55,109)"/>
<path d="M0 0 C3.5218253 1.95656961 6.34442785 3.95100975 9 7 C9 7.66 9 8.32 9 9 C9.66 9 10.32 9 11 9 C12.55078125 10.609375 12.55078125 10.609375 14.3125 12.75 C16.99633926 15.91269855 19.68304363 18.48987086 23 21 C25.3125 23.125 25.3125 23.125 27 25 C27 25.66 27 26.32 27 27 C27.99 27.33 28.98 27.66 30 28 C30 28.66 30 29.32 30 30 C30.99 30.33 31.98 30.66 33 31 C33 31.66 33 32.32 33 33 C37.17710362 31.62731224 39.581962 29.77260976 42.625 26.625 C43.38039062 25.85414063 44.13578125 25.08328125 44.9140625 24.2890625 C47.01503474 22.07134982 47.01503474 22.07134982 48.6484375 19.7109375 C49.31746094 18.86402344 49.31746094 18.86402344 50 18 C50.66 18 51.32 18 52 18 C52.33 17.34 52.66 16.68 53 16 C54.65 17.65 56.3 19.3 58 21 C56.48623919 24.56764285 54.39486871 26.83706287 51.6484375 29.546875 C50.79765625 30.39121094 49.946875 31.23554688 49.0703125 32.10546875 C48.18085937 32.97816406 47.29140625 33.85085937 46.375 34.75 C45.4778125 35.63816406 44.580625 36.52632812 43.65625 37.44140625 C41.44192996 39.63216969 39.22307565 41.81812763 37 44 C34.15776803 42.63760782 32.03972359 41.44766831 30 39 C30 38.34 30 37.68 30 37 C28.68 36.34 27.36 35.68 26 35 C26 34.34 26 33.68 26 33 C25.34 33 24.68 33 24 33 C24 32.34 24 31.68 24 31 C22.68 30.34 21.36 29.68 20 29 C20 28.34 20 27.68 20 27 C19.34 27 18.68 27 18 27 C18 26.34 18 25.68 18 25 C16.68 24.34 15.36 23.68 14 23 C14 22.34 14 21.68 14 21 C13.34 21 12.68 21 12 21 C12 20.34 12 19.68 12 19 C10.68 18.34 9.36 17.68 8 17 C8 16.34 8 15.68 8 15 C7.34 15 6.68 15 6 15 C6 14.34 6 13.68 6 13 C4.68 12.34 3.36 11.68 2 11 C2 10.34 2 9.68 2 9 C1.34 9 0.68 9 0 9 C0 8.34 0 7.68 0 7 C-0.99 6.67 -1.98 6.34 -3 6 C-3.33 5.01 -3.66 4.02 -4 3 C-2.68 2.01 -1.36 1.02 0 0 Z " fill="#CBCBD5" transform="translate(25,140)"/>
<path d="M0 0 C3.15590375 0.97941841 4.00827269 2.01359085 5.75 4.875 C8.12979164 11.12522201 8.12979164 18.87477799 5.75 25.125 C4.00827269 27.98640915 3.15590375 29.02058159 0 30 C-3.17432368 27.40282608 -4.09388894 24.9729485 -5 21 C-5.56629773 13.97009718 -5.5081158 8.20666641 -2 2 C-1.34 1.34 -0.68 0.68 0 0 Z " fill="#DBDCE1" transform="translate(101,30)"/>
<path d="M0 0 C3.19445845 0.99138366 4.01174045 2.01970719 5.75 4.9375 C8.13041519 11.21551808 7.84114762 18.24309787 5.75 24.5625 C4 28 4 28 1.8125 29.5 C0.9153125 29.7475 0.9153125 29.7475 0 30 C-5.11973545 24.05450076 -5.28289948 19.6782794 -5.2265625 11.98828125 C-4.85670043 7.10992808 -3.51760781 3.51760781 0 0 Z " fill="#DCDDE1" transform="translate(41,42)"/>
<path d="M0 0 C3.23284041 1.0032953 4.015175 2.02601428 5.75 5 C8.47063476 12.15095802 7.36252759 19.91241722 5 27 C3.375 29 3.375 29 2 30 C0.1875 29.5 0.1875 29.5 -2 28 C-5.38529962 21.35030432 -6.42169706 14.10352792 -4.390625 6.8125 C-3.27253941 4.07433122 -2.0963701 2.0963701 0 0 Z " fill="#DDDDE2" transform="translate(158,57)"/>
<path d="M0 0 C3.04846865 0.32956418 4.58429646 0.5694499 6.75 2.8125 C10.09379401 8.66413952 10.09461829 16.87030374 8.3984375 23.26953125 C7.27144787 25.973168 6.07558172 27.92441828 4 30 C2.68 30 1.36 30 0 30 C0.33 28.783125 0.66 27.56625 1 26.3125 C2.94993454 17.48208216 2.70282279 8.61524764 0 0 Z " fill="#CDCED6" transform="translate(51,42)"/>
<path d="M0 0 C3.04846865 0.32956418 4.58429646 0.5694499 6.75 2.8125 C10.09379401 8.66413952 10.09461829 16.87030374 8.3984375 23.26953125 C7.27144787 25.973168 6.07558172 27.92441828 4 30 C2.68 30 1.36 30 0 30 C0.144375 29.41734375 0.28875 28.8346875 0.4375 28.234375 C2.61958423 18.59683633 2.91985772 9.4895376 0 0 Z " fill="#CACBD3" transform="translate(111,30)"/>
<path d="M0 0 C3.04846865 0.32956418 4.58429646 0.5694499 6.75 2.8125 C10.09379401 8.66413952 10.09461829 16.87030374 8.3984375 23.26953125 C7.27144787 25.973168 6.07558172 27.92441828 4 30 C2.68 30 1.36 30 0 30 C0.144375 29.41734375 0.28875 28.8346875 0.4375 28.234375 C2.61958423 18.59683633 2.91985772 9.4895376 0 0 Z " fill="#CBCCD3" transform="translate(168,57)"/>
<path d="M0 0 C1.155 0.33 2.31 0.66 3.5 1 C11.09141026 2.86783381 17.5565682 1.92977862 25 0 C17.44683226 9.0066983 17.44683226 9.0066983 14 12 C12.68 12 11.36 12 10 12 C8.61096733 10.37946188 7.28667172 8.70294787 6 7 C4.93786396 6.07913329 3.85374548 5.18305981 2.75 4.3125 C1.8425 3.549375 0.935 2.78625 0 2 C0 1.34 0 0.68 0 0 Z " fill="#D8D9E1" transform="translate(48,161)"/>
<path d="M0 0 C2.64 0 5.28 0 8 0 C8 5.28 8 10.56 8 16 C5.36 16 2.72 16 0 16 C0 10.72 0 5.44 0 0 Z " fill="#0D1212" transform="translate(104,6)"/>
<path d="M0 0 C1.98 0 3.96 0 6 0 C6 5.28 6 10.56 6 16 C4.02 16 2.04 16 0 16 C0 10.72 0 5.44 0 0 Z " fill="#030404" transform="translate(162,30)"/>
<path d="M0 0 C2.64 0 5.28 0 8 0 C8 3.96 8 7.92 8 12 C5.36 12 2.72 12 0 12 C0 8.04 0 4.08 0 0 Z " fill="#0C1010" transform="translate(44,18)"/>
<path d="M0 0 C2 0 2 0 3.7265625 1.71484375 C4.35304688 2.44832031 4.97953125 3.18179688 5.625 3.9375 C6.25664063 4.66839844 6.88828125 5.39929688 7.5390625 6.15234375 C9 8 9 8 9 9 C3.39 9 -2.22 9 -8 9 C-2.25 2.25 -2.25 2.25 0 0 Z " fill="#FCFCFC" transform="translate(44,132)"/>
<path d="M0 0 C1 4 1 4 0 6 C1.32 6.33 2.64 6.66 4 7 C3.34 7.66 2.68 8.32 2 9 C0.68 9 -0.64 9 -2 9 C-1.34 6.03 -0.68 3.06 0 0 Z " fill="#B3B3BB" transform="translate(53,63)"/>
</svg>
