<?xml version="1.0" encoding="UTF-8"?>
<svg version="1.1" xmlns="http://www.w3.org/2000/svg" width="192" height="192">
<path d="M0 0 C1.94326172 -0.05607422 1.94326172 -0.05607422 3.92578125 -0.11328125 C8.24078209 0.37512487 10.37970133 1.54830856 13.6875 4.3125 C13.6875 4.9725 13.6875 5.6325 13.6875 6.3125 C14.56921875 6.71662109 14.56921875 6.71662109 15.46875 7.12890625 C17.69307489 8.31547393 19.31496621 9.57046859 21.1875 11.25 C22.21423828 12.16652344 22.21423828 12.16652344 23.26171875 13.1015625 C25.10224591 14.77908001 26.93790294 16.46124873 28.76953125 18.1484375 C29.30320312 18.63965088 29.836875 19.13086426 30.38671875 19.63696289 C31.44758058 20.61546665 32.50624379 21.59636043 33.5625 22.57983398 C35.86174271 24.70746327 38.07323633 26.56965755 40.6875 28.3125 C40.6875 28.9725 40.6875 29.6325 40.6875 30.3125 C41.244375 30.56 41.80125 30.8075 42.375 31.0625 C45.11160913 32.54174818 47.36400869 34.24717439 49.6875 36.3125 C49.6875 36.9725 49.6875 37.6325 49.6875 38.3125 C50.22117188 38.52777344 50.75484375 38.74304687 51.3046875 38.96484375 C54.56407608 40.80826844 57.1156177 43.31263373 59.8125 45.875 C63.45153407 49.49883907 63.45153407 49.49883907 67.6875 52.3125 C67.6875 52.9725 67.6875 53.6325 67.6875 54.3125 C68.6775 54.6425 69.6675 54.9725 70.6875 55.3125 C70.6875 55.9725 70.6875 56.6325 70.6875 57.3125 C71.244375 57.56 71.80125 57.8075 72.375 58.0625 C75.10341152 59.53731704 77.32179118 61.31074639 79.6875 63.3125 C80.491875 63.9621875 80.491875 63.9621875 81.3125 64.625 C86.01523933 70.39654372 86.12546264 76.50726143 86.09155273 83.61889648 C86.09841599 84.63119324 86.10527924 85.64348999 86.11235046 86.6864624 C86.13059002 90.01898386 86.12678493 93.35103328 86.12109375 96.68359375 C86.12565685 99.00855156 86.1309628 101.33350802 86.13697815 103.65846252 C86.14590365 108.52635179 86.14349232 113.39407695 86.13354492 118.26196289 C86.12205522 124.49060044 86.14227022 130.71867106 86.17146206 136.94723415 C86.18983473 141.74717285 86.18952943 146.54697595 86.18382454 151.34694099 C86.18367146 153.64298358 86.18970454 155.93903543 86.20211601 158.23504448 C86.21704407 161.44929135 86.20633474 164.6624941 86.18920898 167.87670898 C86.20371094 169.28981102 86.20371094 169.28981102 86.21850586 170.73146057 C86.14909152 176.97377514 84.85748004 180.92181156 81.6875 186.3125 C81.0275 186.3125 80.3675 186.3125 79.6875 186.3125 C79.3575 187.3025 79.0275 188.2925 78.6875 189.3125 C74.9531244 192.16403592 72.1614587 192.69196613 67.52140808 192.71363831 C66.28080124 192.72643326 65.0401944 192.73922821 63.76199341 192.75241089 C62.39495821 192.75136244 61.02792323 192.7499779 59.66088867 192.74829102 C58.21501384 192.75727189 56.76914619 192.7674809 55.32328796 192.77882385 C51.40164579 192.80529673 47.48020006 192.8123562 43.55847716 192.81427121 C41.10619239 192.81640562 38.65395735 192.82281407 36.20168495 192.83076286 C27.64020245 192.85850875 19.07885996 192.87076951 10.51733398 192.8684082 C2.54700379 192.86660671 -5.42271671 192.89824801 -13.39289266 192.94563919 C-20.24404627 192.98491929 -27.09500105 193.00095764 -33.94626635 192.99904197 C-38.03455879 192.99827848 -42.12230938 193.00674908 -46.21048927 193.03857613 C-50.05789617 193.06771148 -53.90424676 193.06779698 -57.75169182 193.04602623 C-59.15933915 193.04289973 -60.56705329 193.04991243 -61.97458649 193.0681076 C-69.57102087 193.15990384 -75.02940503 193.01330369 -80.88006115 187.84352016 C-86.88341714 181.42700955 -86.4619732 173.95082732 -86.45776367 165.65454102 C-86.46112228 164.69930542 -86.4644809 163.74406982 -86.46794128 162.7598877 C-86.47741593 159.61204721 -86.47939252 156.4642601 -86.48046875 153.31640625 C-86.4836833 151.12214639 -86.48704752 148.92788674 -86.49055481 146.73362732 C-86.49653703 142.13808699 -86.49839559 137.54256544 -86.49780273 132.94702148 C-86.49770106 127.06481063 -86.51136277 121.18272034 -86.52857494 115.30053806 C-86.53970368 110.77002918 -86.54172169 106.23954939 -86.54119301 101.70902824 C-86.54237143 99.54055299 -86.5467855 97.37207695 -86.55452538 95.20361519 C-86.56434457 92.16894239 -86.56143971 89.1345307 -86.55541992 86.09985352 C-86.56103943 85.2087236 -86.56665894 84.31759369 -86.57244873 83.39945984 C-86.53753668 76.45820659 -85.97215787 70.45732585 -81 65.1875 C-80.38125 64.52492188 -79.7625 63.86234375 -79.125 63.1796875 C-78.526875 62.56351563 -77.92875 61.94734375 -77.3125 61.3125 C-76.8175 60.77882812 -76.3225 60.24515625 -75.8125 59.6953125 C-74.69550794 58.51848158 -73.50997359 57.40733299 -72.3125 56.3125 C-71.6525 56.3125 -70.9925 56.3125 -70.3125 56.3125 C-70.3125 55.6525 -70.3125 54.9925 -70.3125 54.3125 C-68.8515625 52.8046875 -68.8515625 52.8046875 -66.9375 51.1875 C-66.31101562 50.64867187 -65.68453125 50.10984375 -65.0390625 49.5546875 C-63.3125 48.3125 -63.3125 48.3125 -61.3125 48.3125 C-60.9825 47.3225 -60.6525 46.3325 -60.3125 45.3125 C-58.8515625 43.8046875 -58.8515625 43.8046875 -56.9375 42.1875 C-56.22207031 41.5790625 -55.50664063 40.970625 -54.76953125 40.34375 C-51.17821563 37.37477683 -47.56126717 34.43813967 -43.92578125 31.5234375 C-41.21787693 29.30357373 -41.21787693 29.30357373 -38.60546875 26.5390625 C-36.3125 24.3125 -36.3125 24.3125 -34.3125 24.3125 C-33.8175 22.8275 -33.8175 22.8275 -33.3125 21.3125 C-32.6525 21.3125 -31.9925 21.3125 -31.3125 21.3125 C-30.8175 19.8275 -30.8175 19.8275 -30.3125 18.3125 C-28.70090371 16.85342979 -27.02275332 15.46707379 -25.3125 14.125 C-20.77725601 10.51688271 -16.43806935 6.78177748 -12.1875 2.84375 C-8.4719453 -0.19061967 -4.62228438 0.08686786 0 0 Z " fill="#F25404" transform="translate(94.3125,-0.3125)"/>
<path d="M0 0 C0.91517395 -0.00807175 1.8303479 -0.01614349 2.77325439 -0.02445984 C4.7134003 -0.03830504 6.65357061 -0.04902524 8.59375 -0.05688477 C11.55255748 -0.07407025 14.51023967 -0.11794882 17.46875 -0.16210938 C19.35415845 -0.17223876 21.23957641 -0.1807541 23.125 -0.1875 C24.00645691 -0.20500809 24.88791382 -0.22251617 25.79608154 -0.24055481 C31.88575195 -0.21919206 35.42076751 0.83092376 39.828125 5.23828125 C39.92245485 7.44695956 39.94554931 9.65869646 39.94165039 11.86938477 C39.94179642 12.5620343 39.94194244 13.25468384 39.9420929 13.96832275 C39.94139374 16.26797571 39.93360128 18.56754862 39.92578125 20.8671875 C39.92391708 22.45759537 39.92249317 24.04800382 39.92149353 25.63841248 C39.91766829 29.83224055 39.90783795 34.0260342 39.89678955 38.21984863 C39.88478097 43.2475183 39.88017322 48.27519944 39.87433624 53.30287933 C39.86462619 60.94803727 39.84546971 68.59311963 39.828125 76.23828125 C21.348125 76.23828125 2.868125 76.23828125 -16.171875 76.23828125 C-16.37241905 58.96921056 -16.37241905 58.96921056 -16.41601562 51.59960938 C-16.44588854 46.57370565 -16.4812007 41.54825801 -16.54907227 36.52270508 C-16.60345881 32.47022193 -16.63330925 28.41822792 -16.64626122 24.36540794 C-16.65548934 22.82040902 -16.67351036 21.27543642 -16.70052528 19.73064613 C-16.73690739 17.56374211 -16.74181704 15.39885049 -16.73950195 13.23168945 C-16.75060501 11.99925003 -16.76170807 10.76681061 -16.77314758 9.49702454 C-16.00524477 5.33518813 -14.39460574 3.88341308 -11.171875 1.23828125 C-7.73424989 -0.48053131 -3.78484242 0.03142966 0 0 Z " fill="#F5A27D" transform="translate(82.171875,115.76171875)"/>
</svg>
