<?xml version="1.0" encoding="UTF-8"?>
<svg version="1.1" xmlns="http://www.w3.org/2000/svg" width="192" height="192">
<path d="M0 0 C1.37285156 0.42925781 1.37285156 0.42925781 2.7734375 0.8671875 C4.86109281 1.54166075 6.93311639 2.26432956 9 3 C9 3.66 9 4.32 9 5 C9.72832031 5.1134375 10.45664063 5.226875 11.20703125 5.34375 C20.31688155 7.4842463 27.44758035 14.72428726 34 21 C34.639375 21.57621094 35.27875 22.15242188 35.9375 22.74609375 C41.02737476 27.48376736 44.42584479 33.0776531 48 39 C48.66 39.99 49.32 40.98 50 42 C50 43.32 50 44.64 50 46 C50.66 46 51.32 46 52 46 C52.73891341 48.44826642 53.47502185 50.89731494 54.20703125 53.34765625 C54.82059374 55.399917 55.44028372 57.45034637 56.0625 59.5 C57 63 57 63 57.390625 65.4765625 C58.31312544 71.26781529 59.24784595 74.19827676 64 78 C64.62132812 78.40992187 65.24265625 78.81984375 65.8828125 79.2421875 C67.95555789 80.72751517 69.48963404 81.93497987 71 84 C71.58877422 87.73923279 71.42053951 91.2485206 71 95 C64.65853659 96.2195122 64.65853659 96.2195122 61.75 95.25 C59.96510541 93.97507529 58.53058416 92.56497931 57 91 C56.97421875 91.73863281 56.9484375 92.47726563 56.921875 93.23828125 C56.49976252 100.78833852 54.94335212 107.04547498 52 114 C51.34 114 50.68 114 50 114 C49.8453125 115.33804688 49.8453125 115.33804688 49.6875 116.703125 C46.95362838 129.81328208 31.07582286 143.15993347 20.671875 150.68359375 C6.59411322 159.65700151 -8.31252848 163.4044471 -24.875 163.3125 C-25.92856689 163.30758545 -26.98213379 163.3026709 -28.06762695 163.29760742 C-35.7979828 163.18124931 -42.6368693 162.49444836 -50 160 C-51.08152344 159.64808594 -52.16304688 159.29617187 -53.27734375 158.93359375 C-65.46461024 154.62467689 -74.71989939 147.86481212 -84 139 C-84.61488281 138.45988281 -85.22976562 137.91976562 -85.86328125 137.36328125 C-95.40026638 128.65941207 -102.40555946 115.90238391 -105.33618164 103.43676758 C-107.2361299 95.46204884 -109.75247548 89.52514229 -116.78515625 84.80078125 C-118.4375 83.6875 -118.4375 83.6875 -121 81 C-121.6647618 77.2620771 -121.77373174 73.72470859 -121 70 C-118 68 -118 68 -115.5625 68.1875 C-112.84009592 69.05070129 -111.22387816 70.24828281 -109 72 C-108.74605469 70.96101563 -108.49210937 69.92203125 -108.23046875 68.8515625 C-106.34013775 61.17232312 -104.393084 53.54184048 -102 46 C-101.34 46 -100.68 46 -100 46 C-99.8865625 45.27167969 -99.773125 44.54335938 -99.65625 43.79296875 C-97.51688953 34.68795247 -90.27935197 27.5442104 -84 21 C-83.40058594 20.34902344 -82.80117187 19.69804688 -82.18359375 19.02734375 C-72.05207566 8.3316576 -57.36020328 0.91691629 -43 -2 C-41.71802734 -2.27457031 -41.71802734 -2.27457031 -40.41015625 -2.5546875 C-27.16292937 -4.28456592 -12.75456235 -4.17627263 0 0 Z " fill="#FAB3AE" transform="translate(121,16)"/>
<path d="M0 0 C1.37285156 0.42925781 1.37285156 0.42925781 2.7734375 0.8671875 C4.86109281 1.54166075 6.93311639 2.26432956 9 3 C9 3.66 9 4.32 9 5 C9.72832031 5.1134375 10.45664063 5.226875 11.20703125 5.34375 C20.31688155 7.4842463 27.44758035 14.72428726 34 21 C34.639375 21.57621094 35.27875 22.15242188 35.9375 22.74609375 C41.02737476 27.48376736 44.42584479 33.0776531 48 39 C48.66 39.99 49.32 40.98 50 42 C50 43.32 50 44.64 50 46 C50.66 46 51.32 46 52 46 C52.73891341 48.44826642 53.47502185 50.89731494 54.20703125 53.34765625 C54.82059374 55.399917 55.44028372 57.45034637 56.0625 59.5 C57 63 57 63 57.390625 65.4765625 C58.31312544 71.26781529 59.24784595 74.19827676 64 78 C64.62132812 78.40992187 65.24265625 78.81984375 65.8828125 79.2421875 C67.95555789 80.72751517 69.48963404 81.93497987 71 84 C71.58877422 87.73923279 71.42053951 91.2485206 71 95 C64.65853659 96.2195122 64.65853659 96.2195122 61.75 95.25 C59.96510541 93.97507529 58.53058416 92.56497931 57 91 C56.97421875 91.73863281 56.9484375 92.47726563 56.921875 93.23828125 C56.49976252 100.78833852 54.94335212 107.04547498 52 114 C51.34 114 50.68 114 50 114 C49.8453125 115.33804688 49.8453125 115.33804688 49.6875 116.703125 C46.95362838 129.81328208 31.07582286 143.15993347 20.671875 150.68359375 C6.59411322 159.65700151 -8.31252848 163.4044471 -24.875 163.3125 C-25.92856689 163.30758545 -26.98213379 163.3026709 -28.06762695 163.29760742 C-35.7979828 163.18124931 -42.6368693 162.49444836 -50 160 C-51.08152344 159.64808594 -52.16304688 159.29617187 -53.27734375 158.93359375 C-65.46461024 154.62467689 -74.71989939 147.86481212 -84 139 C-84.61488281 138.45988281 -85.22976562 137.91976562 -85.86328125 137.36328125 C-95.40026638 128.65941207 -102.40555946 115.90238391 -105.33618164 103.43676758 C-107.2361299 95.46204884 -109.75247548 89.52514229 -116.78515625 84.80078125 C-118.4375 83.6875 -118.4375 83.6875 -121 81 C-121.6647618 77.2620771 -121.77373174 73.72470859 -121 70 C-118 68 -118 68 -115.5625 68.1875 C-112.84009592 69.05070129 -111.22387816 70.24828281 -109 72 C-108.74605469 70.96101563 -108.49210937 69.92203125 -108.23046875 68.8515625 C-106.34013775 61.17232312 -104.393084 53.54184048 -102 46 C-101.34 46 -100.68 46 -100 46 C-99.8865625 45.27167969 -99.773125 44.54335938 -99.65625 43.79296875 C-97.51688953 34.68795247 -90.27935197 27.5442104 -84 21 C-83.40058594 20.34902344 -82.80117187 19.69804688 -82.18359375 19.02734375 C-72.05207566 8.3316576 -57.36020328 0.91691629 -43 -2 C-41.71802734 -2.27457031 -41.71802734 -2.27457031 -40.41015625 -2.5546875 C-27.16292937 -4.28456592 -12.75456235 -4.17627263 0 0 Z M-47 11 C-48.8253125 11.495 -48.8253125 11.495 -50.6875 12 C-53.91415647 12.97408497 -55.40319511 13.97124618 -58 16 C-59.03125 16.391875 -60.0625 16.78375 -61.125 17.1875 C-74.01065621 22.49661157 -85.7803139 37.07572501 -91.59765625 49.37890625 C-95.06847726 58.34116553 -97.67762877 67.34379008 -97 77 C-96.01 77 -95.02 77 -94 77 C-92.33700035 74.58944746 -92.33700035 74.58944746 -91 72 C-90 71 -90 71 -87.5 70.875 C-85 71 -85 71 -84 72 C-83.62890625 74.7578125 -83.62890625 74.7578125 -84 78 C-86.15234375 80.4921875 -86.15234375 80.4921875 -88.9375 82.875 C-93.22086423 86.69209244 -93.22086423 86.69209244 -95.3125 91.8125 C-95.29396355 100.95097082 -92.55460743 109.79636849 -87 117 C-86.13375 118.14855469 -86.13375 118.14855469 -85.25 119.3203125 C-74.51299889 133.13121312 -63.78759933 145.50080013 -46 149 C-43.16576508 149.17012013 -43.16576508 149.17012013 -41 149 C-41 149.66 -41 150.32 -41 151 C-38.28598706 152.35700647 -36.15153684 152.1123861 -33.1171875 152.09765625 C-31.95058594 152.09443359 -30.78398438 152.09121094 -29.58203125 152.08789062 C-28.35871094 152.07951172 -27.13539062 152.07113281 -25.875 152.0625 C-24.02841797 152.05573242 -24.02841797 152.05573242 -22.14453125 152.04882812 C-19.09630608 152.0370133 -16.04817686 152.02054028 -13 152 C-13 151.34 -13 150.68 -13 150 C-11.96552734 149.96132813 -11.96552734 149.96132813 -10.91015625 149.921875 C0.5425979 149.23062509 7.95835183 144.79165277 17 138 C17.84949219 137.37996094 18.69898438 136.75992188 19.57421875 136.12109375 C26.11166596 131.16544847 34.56788348 124.55346306 36 116 C36.66 116 37.32 116 38 116 C42.98945301 108.42979543 45.26966266 100.07414866 45 91 C44.01 91.66 43.02 92.32 42 93 C39.95703125 93.1953125 39.95703125 93.1953125 37.8125 93.125 C36.554375 93.08375 35.29625 93.0425 34 93 C33.45380362 90.14764112 33.25471972 88.75603648 34 86 C37.3899413 81.5724666 41.22480723 76.82124301 47 76 C46.3393675 64.427541 44.45712354 52.88254883 38 43 C37.01 42.34 36.02 41.68 35 41 C34.70738281 40.236875 34.41476563 39.47375 34.11328125 38.6875 C32.71827973 35.31991738 30.81007293 33.51641181 28.1875 31 C27.33542969 30.175 26.48335938 29.35 25.60546875 28.5 C24.74566406 27.675 23.88585937 26.85 23 26 C22.16855469 25.13632812 21.33710938 24.27265625 20.48046875 23.3828125 C12.23799812 15.46484858 0.36634747 10.34148357 -11.0625 9.875 C-11.701875 9.91625 -12.34125 9.9575 -13 10 C-13 9.34 -13 8.68 -13 8 C-17.35403865 7.91244328 -21.70784877 7.85942031 -26.0625 7.8125 C-27.29162109 7.78736328 -28.52074219 7.76222656 -29.78710938 7.73632812 C-36.37247033 7.68307723 -41.1866968 7.8471566 -47 11 Z " fill="#563831" transform="translate(121,16)"/>
<path d="M0 0 C4.67372893 3.4753369 7.19541512 7.11961097 8.4375 12.8125 C9.21985563 18.18160729 9.70335875 22.77714011 6.75390625 27.51953125 C3.87397586 30.79049806 1.06645871 33.39319419 -2.5625 35.8125 C-3.5525 35.8125 -4.5425 35.8125 -5.5625 35.8125 C-5.5625 36.4725 -5.5625 37.1325 -5.5625 37.8125 C-4.80324219 37.77769531 -4.04398438 37.74289063 -3.26171875 37.70703125 C-1.77091797 37.66642578 -1.77091797 37.66642578 -0.25 37.625 C0.73613281 37.59019531 1.72226563 37.55539063 2.73828125 37.51953125 C5.4375 37.8125 5.4375 37.8125 7.04907227 39.05493164 C8.72220535 41.17289982 8.99521882 42.56479162 9.3515625 45.2265625 C9.47273438 46.06960937 9.59390625 46.91265625 9.71875 47.78125 C9.8321875 48.6578125 9.945625 49.534375 10.0625 50.4375 C10.30128966 52.18015647 10.54330296 53.9223753 10.7890625 55.6640625 C10.89041504 56.43572754 10.99176758 57.20739258 11.09619141 58.00244141 C11.26409822 59.82704386 11.26409822 59.82704386 12.4375 60.8125 C12.67113881 62.66141946 12.85053635 64.51738031 13 66.375 C13.08378906 67.38691406 13.16757813 68.39882812 13.25390625 69.44140625 C13.34478516 70.61509766 13.34478516 70.61509766 13.4375 71.8125 C14.654375 71.709375 15.87125 71.60625 17.125 71.5 C20.42249093 71.22055162 21.40707582 71.79066259 24.1640625 73.76953125 C27.2266073 77.86871064 27.21810911 80.82509044 27.125 85.8125 C27.15271484 86.6065625 27.18042969 87.400625 27.20898438 88.21875 C27.19065616 92.6175212 26.81512241 94.35069802 23.94921875 97.85546875 C20.03425459 100.56864891 16.16735184 100.37865709 11.5625 100.125 C10.77875 100.10244141 9.995 100.07988281 9.1875 100.05664062 C7.2699974 99.99818018 5.3534894 99.90851283 3.4375 99.8125 C3.49550781 100.69292969 3.55351563 101.57335937 3.61328125 102.48046875 C3.65839844 103.64191406 3.70351562 104.80335938 3.75 106 C3.80800781 107.14855469 3.86601563 108.29710937 3.92578125 109.48046875 C3.4375 112.8125 3.4375 112.8125 1.484375 115.703125 C-2.65061475 118.56581021 -5.71349698 118.5216712 -10.625 118.375 C-11.82866211 118.39143555 -11.82866211 118.39143555 -13.05664062 118.40820312 C-16.92252729 118.36008005 -18.92297069 118.30190506 -22.05859375 115.90234375 C-24.61628241 112.34815302 -24.73616125 110.07485608 -24.87890625 105.7109375 C-24.92080078 104.49921875 -24.96269531 103.2875 -25.00585938 102.0390625 C-25.04517578 100.76804687 -25.08449219 99.49703125 -25.125 98.1875 C-25.16818359 96.90875 -25.21136719 95.63 -25.25585938 94.3125 C-25.36219886 91.14594652 -25.46422833 87.97931247 -25.5625 84.8125 C-26.18898438 84.78671875 -26.81546875 84.7609375 -27.4609375 84.734375 C-28.68683594 84.64929688 -28.68683594 84.64929688 -29.9375 84.5625 C-30.74960938 84.51609375 -31.56171875 84.4696875 -32.3984375 84.421875 C-34.5625 83.8125 -34.5625 83.8125 -35.8359375 82.01171875 C-37.17838432 77.94829101 -37.36467546 73.62919149 -35.6328125 69.70703125 C-33.73656646 64.57886222 -33.47416899 59.06162381 -32.8828125 53.6484375 C-32.14427121 47.77367725 -30.97026392 43.69389157 -27.5625 38.8125 C-25.26620006 37.66435003 -23.48551914 37.50480191 -20.9375 37.25 C-20.12023437 37.16621094 -19.30296875 37.08242187 -18.4609375 36.99609375 C-17.83445312 36.93550781 -17.20796875 36.87492187 -16.5625 36.8125 C-17.16578125 36.63976562 -17.7690625 36.46703125 -18.390625 36.2890625 C-22.03598304 35.00730758 -24.77490072 33.92671525 -27.05078125 30.70703125 C-30.18776152 23.53190182 -30.97131853 15.9606879 -28.4375 8.5 C-22.99354502 0.69699786 -22.99354502 0.69699786 -18.76953125 -0.83984375 C-12.5452333 -1.82030838 -5.99141665 -1.99713888 0 0 Z " fill="#5E4139" transform="translate(106.5625,38.1875)"/>
<path d="M0 0 C1.98 0 3.96 0 6 0 C6.50881977 2.6652464 7.00720141 5.33178419 7.5 8 C7.64308594 8.74378906 7.78617188 9.48757812 7.93359375 10.25390625 C8.84632568 15.25220015 9.13856719 19.91920316 9 25 C8.36191406 25.19335938 7.72382812 25.38671875 7.06640625 25.5859375 C5.82697266 25.97652344 5.82697266 25.97652344 4.5625 26.375 C3.73878906 26.63023438 2.91507813 26.88546875 2.06640625 27.1484375 C-0.17798016 27.80882227 -0.17798016 27.80882227 -1 30 C-1.66 30 -2.32 30 -3 30 C-3 36.27 -3 42.54 -3 49 C-1.515 49.495 -1.515 49.495 0 50 C0 54.29 0 58.58 0 63 C-3.3 63 -6.6 63 -10 63 C-10.33 52.11 -10.66 41.22 -11 30 C-13.97 30 -16.94 30 -20 30 C-18.48288973 5.96577947 -18.48288973 5.96577947 -16 1 C-14.02 1 -12.04 1 -10 1 C-9.93941406 2.19238281 -9.87882812 3.38476562 -9.81640625 4.61328125 C-9.73198851 6.17969925 -9.64734113 7.74610488 -9.5625 9.3125 C-9.52318359 10.09818359 -9.48386719 10.88386719 -9.44335938 11.69335938 C-9.38051758 12.8293457 -9.38051758 12.8293457 -9.31640625 13.98828125 C-9.27974854 14.68477783 -9.24309082 15.38127441 -9.20532227 16.09887695 C-9.04418847 18.2216572 -9.04418847 18.2216572 -8 21 C-5.69 21 -3.38 21 -1 21 C-0.67 14.07 -0.34 7.14 0 0 Z " fill="#8B93A5" transform="translate(101,84)"/>
<path d="M0 0 C4.26047174 0.28777486 6.62547764 1.41263179 9.5625 4.625 C10.78664155 8.29742465 11.02809007 10.7672537 10.5625 14.625 C7.91603523 17.81432934 6.35014083 19.27302927 2.30078125 20.0703125 C-1.3784065 20.25275156 -3.76302751 20.00336262 -7 18.1875 C-9.16998209 14.31927105 -9.14754277 10.95252383 -8.4375 6.625 C-6.53761128 1.91658013 -5.00442187 0.2585618 0 0 Z " fill="#F4DCD9" transform="translate(95.4375,45.375)"/>
<path d="M0 0 C4.95 0 9.9 0 15 0 C15 2.97 15 5.94 15 9 C10.05 9 5.1 9 0 9 C0 6.03 0 3.06 0 0 Z " fill="#B6A9A6" transform="translate(108,119)"/>
<path d="M0 0 C0.66 0 1.32 0 2 0 C2.33 5.94 2.66 11.88 3 18 C4.65 18.33 6.3 18.66 8 19 C8 12.73 8 6.46 8 0 C8.66 0 9.32 0 10 0 C10.08086376 2.93804996 10.1404283 5.87388075 10.1875 8.8125 C10.21263672 9.64587891 10.23777344 10.47925781 10.26367188 11.33789062 C10.27817383 12.54155273 10.27817383 12.54155273 10.29296875 13.76953125 C10.31653442 14.87711792 10.31653442 14.87711792 10.34057617 16.00708008 C9.90199296 18.57349926 9.0551054 19.44612499 7 21 C4.3125 21.1875 4.3125 21.1875 2 21 C-0.71486934 17.02389214 -0.22440753 12.86098023 -0.125 8.25 C-0.11597656 7.45722656 -0.10695313 6.66445312 -0.09765625 5.84765625 C-0.07417012 3.89830719 -0.03830137 1.94911425 0 0 Z " fill="#624D4B" transform="translate(91,85)"/>
<path d="M0 0 C0.66 0.33 1.32 0.66 2 1 C-3.3250511 7.12627407 -8.72690435 12.83794309 -15 18 C-15 15 -15 15 -13.64453125 13.3515625 C-13.03996094 12.78179687 -12.43539062 12.21203125 -11.8125 11.625 C-11.17441406 11.01398437 -10.53632812 10.40296875 -9.87890625 9.7734375 C-9.25886719 9.18820313 -8.63882813 8.60296875 -8 8 C-7.0925 7.0925 -6.185 6.185 -5.25 5.25 C-2.625 2.625 -2.625 2.625 0 0 Z " fill="#D69892" transform="translate(53,37)"/>
<path d="M0 0 C1.231394 2.46278801 1.07159196 4.2795055 1 7 C3.832168 7.33448259 3.832168 7.33448259 7 7 C9.25065102 5.08333079 9.25065102 5.08333079 11 3 C11.66 3 12.32 3 13 3 C12.88610125 4.79240663 12.75852313 6.58394835 12.625 8.375 C12.55539063 9.37273437 12.48578125 10.37046875 12.4140625 11.3984375 C12 14 12 14 10 16 C10 13.03 10 10.06 10 7 C9.34 7.66 8.68 8.32 8 9 C5.28545044 9.32752234 2.74769241 9.1308425 0 9 C-1 8 -1 8 -1.125 4.5 C-1 1 -1 1 0 0 Z " fill="#9C6D66" transform="translate(155,101)"/>
<path d="M0 0 C0.66 0.33 1.32 0.66 2 1 C1.07038578 2.15224028 0.1309875 3.29659176 -0.8125 4.4375 C-1.59560547 5.39462891 -1.59560547 5.39462891 -2.39453125 6.37109375 C-4 8 -4 8 -7 9 C-5.44499019 5.18315774 -2.96404505 2.80804268 0 0 Z " fill="#815952" transform="translate(86,38)"/>
<path d="M0 0 C0.66 0.33 1.32 0.66 2 1 C1.67 1.66 1.34 2.32 1 3 C2.65 3 4.3 3 6 3 C6 3.33 6 3.66 6 4 C2.7 4 -0.6 4 -4 4 C-4 3.34 -4 2.68 -4 2 C-2.125 0.9375 -2.125 0.9375 0 0 Z " fill="#B9827C" transform="translate(105,72)"/>
</svg>
