<svg viewBox="0 0 32 32" fill="none" xmlns="http://www.w3.org/2000/svg"><circle cx="16" cy="16" r="13" fill="url(#gradientHealthPro1)"></circle><path d="M16 6 L18 12 L24 12 L19.5 16 L21.5 22 L16 18 L10.5 22 L12.5 16 L8 12 L14 12 Z" fill="white" fill-opacity="0.95"></path><circle cx="16" cy="16" r="4" fill="url(#gradientHealthPro2)" fill-opacity="0.8"></circle><path d="M16 8 L17 11 L20 11 L17.5 13 L18.5 16 L16 14 L13.5 16 L14.5 13 L12 11 L15 11 Z" fill="url(#gradientHealthPro1)" fill-opacity="0.5"></path><circle cx="16" cy="7" r="1.5" fill="white" fill-opacity="0.9"></circle><circle cx="11" cy="11" r="1" fill="white" fill-opacity="0.75"></circle><circle cx="21" cy="11" r="1" fill="white" fill-opacity="0.75"></circle><circle cx="11" cy="21" r="1" fill="white" fill-opacity="0.75"></circle><circle cx="21" cy="21" r="1" fill="white" fill-opacity="0.75"></circle><defs><linearGradient id="gradientHealthPro1" x1="3" y1="3" x2="29" y2="29" gradientUnits="userSpaceOnUse"><stop stop-color="#EA580C"></stop><stop offset="0.5" stop-color="#DC2626"></stop><stop offset="1" stop-color="#B91C1C"></stop></linearGradient><linearGradient id="gradientHealthPro2" x1="16" y1="3" x2="16" y2="29" gradientUnits="userSpaceOnUse"><stop stop-color="#F97316" stop-opacity="0.9"></stop><stop offset="1" stop-color="#C2410C"></stop></linearGradient></defs></svg>
