<?xml version="1.0" encoding="UTF-8"?>
<svg version="1.1" xmlns="http://www.w3.org/2000/svg" width="192" height="192">
<path d="M0 0 C0.98424454 -0.00845947 1.96848907 -0.01691895 2.9825592 -0.02563477 C4.06109665 -0.01956207 5.13963409 -0.01348938 6.25085449 -0.00723267 C7.95603493 -0.0151181 7.95603493 -0.0151181 9.69566345 -0.02316284 C13.46354807 -0.03639602 17.23101224 -0.02761268 20.99890137 -0.01748657 C23.61059653 -0.01950634 26.22229115 -0.02241697 28.83398438 -0.02618408 C34.31169209 -0.03164307 39.78927848 -0.02444637 45.26696777 -0.01016235 C51.60125275 0.00616456 57.93524805 0.00087615 64.269526 -0.01564157 C70.36123659 -0.03089137 76.45281868 -0.02928308 82.54454041 -0.02049637 C85.13777202 -0.01849088 87.73101099 -0.0209658 90.32423401 -0.02793503 C93.94450648 -0.03552852 97.56421772 -0.02397406 101.18444824 -0.00723267 C102.80225441 -0.01634171 102.80225441 -0.01634171 104.45274353 -0.02563477 C105.43698807 -0.01717529 106.4212326 -0.00871582 107.43530273 0 C108.29143913 0.00113108 109.14757553 0.00226215 110.02965546 0.00342751 C112.74425548 0.47181279 113.62671375 1.15234874 115.21765137 3.38095093 C115.5276688 6.38386487 115.6419763 9.12934146 115.59265137 12.13095093 C115.58467529 12.99897339 115.57669922 13.86699585 115.56848145 14.76132202 C115.41864803 21.88884047 114.77177726 28.93240984 113.90515137 36.00595093 C113.72895264 37.50786987 113.72895264 37.50786987 113.54919434 39.04013062 C113.42302734 39.96986694 113.29686035 40.89960327 113.16687012 41.85751343 C113.0019104 43.09622192 113.0019104 43.09622192 112.83361816 44.35995483 C112.21765137 46.38095093 112.21765137 46.38095093 109.21765137 48.38095093 C104.01079111 48.9233322 104.01079111 48.9233322 101.54968262 47.24032593 C96.23266568 39.8183316 101.51844294 19.67382681 102.21765137 13.38095093 C54.20265137 13.87595093 54.20265137 13.87595093 5.21765137 14.38095093 C5.87765137 21.31095093 6.53765137 28.24095093 7.21765137 35.38095093 C9.40809082 35.37047729 11.59853027 35.36000366 13.85534668 35.34921265 C21.09169706 35.31607649 28.32805079 35.29398267 35.56445694 35.27732658 C39.95198835 35.26688836 44.33944203 35.25272844 48.72692871 35.23007202 C52.96091221 35.20834504 57.19482095 35.19638259 61.4288559 35.19119644 C63.04439216 35.18750043 64.65992433 35.18028308 66.27542877 35.16949081 C68.5378352 35.15497775 70.79993246 35.1529729 73.06237793 35.15390015 C74.35033264 35.14945892 75.63828735 35.1450177 76.965271 35.14044189 C80.02993438 35.36706952 81.76535042 35.55967556 84.21765137 37.38095093 C85.19638707 40.90439945 85.77666956 43.21091853 84.16740417 46.57913208 C81.25263713 49.27274646 79.00184423 48.86165852 75.08410645 48.83505249 C74.00080299 48.83592865 74.00080299 48.83592865 72.89561462 48.83682251 C70.50898128 48.8340362 68.12359768 48.80292066 65.73718262 48.77157593 C64.08237897 48.76411543 62.42756649 48.75842159 60.77275085 48.75442505 C56.41760865 48.73915353 52.06300019 48.69985907 47.70806885 48.65560913 C43.26407085 48.6146889 38.81998659 48.596421 34.37585449 48.57626343 C25.65620853 48.53336589 16.93699635 48.46509672 8.21765137 48.38095093 C8.41789917 50.34536133 8.41789917 50.34536133 8.62219238 52.34945679 C9.55395908 61.54169891 10.46090762 70.72970159 11.15515137 79.94345093 C11.89412872 89.46687012 12.69435947 98.98369101 13.52172852 108.49972534 C14.54006912 120.22682148 15.52497246 131.95503547 16.40515137 143.69345093 C16.53083496 145.34643188 16.53083496 145.34643188 16.65905762 147.0328064 C16.73382324 148.0513269 16.80858887 149.06984741 16.88562012 150.11923218 C16.95031494 150.99619751 17.01500977 151.87316284 17.08166504 152.77670288 C17.23124297 155.64124114 17.21765137 158.51251007 17.21765137 161.38095093 C44.44265137 160.88595093 44.44265137 160.88595093 72.21765137 160.38095093 C70.23765137 157.74095093 68.25765137 155.10095093 66.21765137 152.38095093 C55.22980654 134.46510836 46.29304974 112.14545247 50.71765137 90.99032593 C53.05403145 82.63776714 58.66935374 74.99377747 65.21765137 69.38095093 C65.87765137 69.38095093 66.53765137 69.38095093 67.21765137 69.38095093 C67.21765137 68.72095093 67.21765137 68.06095093 67.21765137 67.38095093 C76.98872333 61.27403095 86.95036875 59.86839045 98.33483887 61.95126343 C102.25081262 62.91754267 106.05687236 63.8925744 109.78015137 65.45907593 C118.67703329 68.87678057 125.96969169 65.43787996 134.39929199 62.09286499 C135.98646251 61.47146472 137.60064064 60.9199545 139.21765137 60.38095093 C139.54765137 59.39095093 139.87765137 58.40095093 140.21765137 57.38095093 C140.87765137 57.38095093 141.53765137 57.38095093 142.21765137 57.38095093 C142.3504248 56.84985718 142.48319824 56.31876343 142.61999512 55.77157593 C143.81921387 50.97470093 145.01843262 46.17782593 146.21765137 41.38095093 C140.20500072 43.55794513 134.56787748 45.81413352 129.21765137 49.38095093 C124.00498168 49.92393735 124.00498168 49.92393735 121.40515137 48.13095093 C120.00560137 46.06845619 119.36500653 44.88598864 119.21765137 42.38095093 C122.63093848 35.54343668 128.56989455 32.79903821 135.48327637 30.11141968 C149.34924586 25.54854832 149.34924586 25.54854832 155.59265137 28.50595093 C159.78816204 33.34692478 159.57811527 39.164568 159.47937012 45.27157593 C158.96182099 51.42036855 157.06342272 56.93686659 154.21765137 62.38095093 C155.41390137 62.62845093 156.61015137 62.87595093 157.84265137 63.13095093 C166.07447515 65.20339952 173.46954004 71.44140361 178.21765137 78.38095093 C178.21765137 79.37095093 178.21765137 80.36095093 178.21765137 81.38095093 C178.87765137 81.38095093 179.53765137 81.38095093 180.21765137 81.38095093 C183.68102782 88.61045342 184.87209719 94.70639549 184.71765137 102.69345093 C184.70484131 103.70745972 184.69203125 104.72146851 184.67883301 105.76620483 C184.46821935 113.56953442 183.24164384 120.15548218 180.21765137 127.38095093 C179.70023947 128.7469724 179.18613348 130.11424893 178.67468262 131.48251343 C172.7893346 146.87112436 164.70703867 163.71222251 149.35827637 171.44345093 C148.65187012 171.75282593 147.94546387 172.06220093 147.21765137 172.38095093 C146.46741699 172.74704468 145.71718262 173.11313843 144.94421387 173.49032593 C141.39467719 174.64977344 138.03385713 174.67234763 134.34265137 174.63095093 C133.6607373 174.6386853 132.97882324 174.64641968 132.27624512 174.65438843 C127.60401321 174.63658945 123.7161716 173.74263536 119.21765137 172.38095093 C116.41093693 172.66162237 113.86225123 173.21612586 111.13746643 173.91285706 C106.96421926 174.58189649 102.84601536 174.54536416 98.62561035 174.55795288 C97.6657019 174.56452408 96.70579346 174.57109528 95.71679688 174.5778656 C92.54911212 174.59753389 89.38147447 174.60924285 86.21374512 174.61923218 C85.13109941 174.6233077 84.04845371 174.62738323 82.93300056 174.63158226 C77.20960813 174.65240898 71.48623947 174.66672899 65.76281738 174.67611694 C59.84541239 174.68721271 53.92838018 174.72165881 48.01110744 174.76128864 C43.46355981 174.78738343 38.91610233 174.79580211 34.3684864 174.79939842 C32.18634569 174.80427786 30.00420935 174.81593018 27.82214165 174.83443642 C24.7745547 174.85868993 21.72795101 174.85788874 18.68029785 174.85092163 C17.32506767 174.87013672 17.32506767 174.87013672 15.94245911 174.88973999 C9.83902537 174.83875665 9.83902537 174.83875665 6.6714325 172.50498962 C4.16965111 168.84977608 4.10931896 164.96960379 3.78796387 160.65438843 C3.71650146 159.723927 3.64503906 158.79346558 3.57141113 157.83480835 C3.49592041 156.8187854 3.42042969 155.80276245 3.34265137 154.75595093 C2.54057982 144.35521714 1.67931211 133.96111972 0.78015137 123.56845093 C0.00721933 114.62025276 -0.76279031 105.67192588 -1.50109863 96.72079468 C-1.58965118 95.64873779 -1.58965118 95.64873779 -1.67999268 94.55502319 C-1.92054058 91.64096644 -2.160905 88.72689701 -2.39916992 85.81265259 C-3.16241981 76.48458604 -3.98192235 67.1637426 -4.86047363 57.84579468 C-5.13890846 54.85476595 -5.41674028 51.86368166 -5.69448853 48.87258911 C-5.87423812 46.96050605 -6.05741247 45.04874097 -6.24447632 43.13735962 C-7.23622185 33.00044465 -7.96917989 22.90957116 -8.08312988 12.72079468 C-8.10143356 11.82751968 -8.11973724 10.93424469 -8.13859558 10.01390076 C-8.13874161 9.18748581 -8.13888763 8.36107086 -8.13903809 7.50961304 C-8.14321243 6.78277817 -8.14738678 6.0559433 -8.15168762 5.30708313 C-7.27570591 0.73876883 -4.2071634 0.00555826 0 0 Z " fill="#B23F49" transform="translate(7.7823486328125,8.619049072265625)"/>
<path d="M0 0 C8.93003267 3.35448919 15.63858439 2.52902951 24.39599609 -0.86523438 C33.62901238 -4.15335373 41.58676438 -5.98979512 50.89599609 -1.80273438 C60.50136638 3.75421863 64.63887254 10.42821769 67.58349609 21.13476562 C71.03299119 37.15401177 58.76796988 58.15605107 50.52099609 71.19726562 C46.57561395 76.79370442 42.35105401 82.17866327 35.58349609 84.13476562 C32.55750326 84.41204784 29.55774612 84.41417725 26.52099609 84.38476562 C25.71855469 84.3925 24.91611328 84.40023437 24.08935547 84.40820312 C20.01483911 84.39467776 17.15343649 84.27845865 13.58349609 82.13476562 C10.16219683 82.44579283 7.08231648 83.27443863 3.77099609 84.19726562 C-3.54466099 86.04014107 -9.70652286 85.86253287 -16.41650391 82.13476562 C-31.49533607 71.89062629 -39.55507091 50.33805569 -43.41650391 33.13476562 C-44.11930385 21.69383639 -42.95204582 13.07495899 -35.41650391 4.13476562 C-24.05085009 -6.11617983 -13.74847483 -5.33675737 0 0 Z " fill="#F3B1AF" transform="translate(113.41650390625,85.865234375)"/>
</svg>
