<?xml version="1.0" encoding="UTF-8"?>
<svg version="1.1" xmlns="http://www.w3.org/2000/svg" width="192" height="192">
<path d="M0 0 C0.98272888 -0.00426498 1.96545776 -0.00852997 2.97796631 -0.01292419 C4.58566643 -0.01224442 4.58566643 -0.01224442 6.22584534 -0.0115509 C7.35956573 -0.01490952 8.49328613 -0.01826813 9.66136169 -0.02172852 C13.41406852 -0.03123799 17.16673073 -0.03318156 20.91944885 -0.03425598 C23.52492288 -0.03746828 26.13039672 -0.04083233 28.73587036 -0.04434204 C34.19916576 -0.05073472 39.66244905 -0.05222473 45.12574768 -0.05158997 C51.43666099 -0.05098907 57.74748886 -0.06154471 64.05838054 -0.07733363 C70.13457116 -0.09199259 76.2107208 -0.09557785 82.28692818 -0.09498024 C84.87013663 -0.09616172 87.4533457 -0.10059285 90.03654289 -0.10831261 C93.64659123 -0.11809176 97.25641857 -0.11524264 100.86647034 -0.10920715 C102.47113411 -0.11763641 102.47113411 -0.11763641 104.10821533 -0.12623596 C105.58653839 -0.11994423 105.58653839 -0.11994423 107.09472656 -0.11352539 C107.94772056 -0.11407016 108.80071455 -0.11461493 109.67955685 -0.1151762 C113.21464568 0.24670643 116.06501031 1.31197757 118.8608551 3.50871277 C122.66449808 8.45344863 121.29684919 16.10787377 121.29615784 21.97819519 C121.29834421 24.06084129 121.316521 26.14295714 121.33546448 28.22550964 C121.33739807 29.54486511 121.33933167 30.86422058 121.34132385 32.22355652 C121.34543274 33.42874939 121.34954163 34.63394226 121.35377502 35.87565613 C120.97461019 40.96103778 119.53092913 43.99539839 115.9233551 47.50871277 C113.49793109 50.25593751 113.13068908 50.85107852 112.8608551 54.69621277 C114.23538955 58.47618249 115.67739305 60.09402485 118.7358551 62.57902527 C122.86606442 67.24897785 121.29517034 76.32469828 121.2983551 82.13371277 C121.3106012 83.30933777 121.32284729 84.48496277 121.33546448 85.69621277 C121.33739807 86.83058777 121.33933167 87.96496277 121.34132385 89.13371277 C121.34543274 90.16496277 121.34954163 91.19621277 121.35377502 92.25871277 C121.0375998 96.00070218 120.16639718 98.77221406 117.85499477 101.75359344 C115.49996449 103.61710407 114.01695559 103.51594048 111.03152466 103.52812195 C109.98141205 103.53947174 108.93129944 103.55082153 107.84936523 103.56251526 C106.12170677 103.55811935 106.12170677 103.55811935 104.35914612 103.55363464 C103.14593689 103.56210419 101.93272766 103.57057373 100.68275452 103.57929993 C97.35407691 103.59871081 94.02595948 103.6044456 90.697263 103.60255241 C87.91887011 103.60243281 85.14052983 103.61099268 82.36215156 103.61932993 C75.80756595 103.63857192 69.2531077 103.64144497 62.69850159 103.63468933 C55.9358167 103.62804751 49.17367711 103.65091601 42.41110283 103.68800306 C36.6054757 103.71868718 30.80002409 103.73006154 24.99431747 103.72616625 C21.52656794 103.72409736 18.05924269 103.72959849 14.5915699 103.75405884 C10.72481489 103.78043272 6.8587756 103.76660779 2.99195862 103.74894714 C1.84221054 103.76221039 0.69246246 103.77547363 -0.49212646 103.78913879 C-8.23593955 103.70670344 -8.23593955 103.70670344 -11.56921387 100.78276062 C-14.64747361 94.60481861 -14.11087397 88.59563267 -14.1391449 81.82121277 C-14.1597699 80.59724792 -14.1803949 79.37328308 -14.2016449 78.11222839 C-14.20680115 76.92693542 -14.2119574 75.74164246 -14.2172699 74.52043152 C-14.2266156 73.43979431 -14.2359613 72.3591571 -14.24559021 71.24577332 C-13.68492216 66.35068038 -11.65465579 62.59798654 -8.1391449 59.19621277 C-5.58392606 56.3037474 -5.58392606 56.3037474 -5.7016449 52.69621277 C-7.01537285 48.7550289 -8.66054499 46.64775306 -11.5141449 43.71183777 C-15.43578114 39.2108689 -14.11363025 32.00853481 -14.12937927 26.41960144 C-14.13906273 24.33886904 -14.17008855 22.25913445 -14.2016449 20.17863464 C-14.20817797 18.8446561 -14.21342725 17.51067053 -14.2172699 16.17668152 C-14.2266156 14.97036072 -14.2359613 13.76403992 -14.24559021 12.52116394 C-13.75081505 7.81910552 -12.23295984 4.47752771 -8.8891449 1.13371277 C-5.90588067 0.12262114 -3.13398574 0.00615994 0 0 Z " fill="#323232" transform="translate(41.88914489746094,40.86628723144531)"/>
<path d="M0 0 C22.44 0 44.88 0 68 0 C68 28 68 28 61 36 C59.27434745 41.17695764 59.3141293 46.12288018 61.1875 51.25 C63.26039862 54.59585579 63.26039862 54.59585579 68 59 C68 67.25 68 75.5 68 84 C45.56 84 23.12 84 0 84 C0 56.28 0 28.56 0 0 Z " fill="#F9F9F9" transform="translate(85,51)"/>
<path d="M0 0 C12.87 0 25.74 0 39 0 C39 27.72 39 55.44 39 84 C26.13 84 13.26 84 0 84 C-0.103125 79.978125 -0.20625 75.95625 -0.3125 71.8125 C-0.35802002 70.55284424 -0.40354004 69.29318848 -0.45043945 67.99536133 C-0.55351063 59.71974353 -0.55351063 59.71974353 2.40625 55.87109375 C3.2621875 55.25363281 4.118125 54.63617188 5 54 C8.23588229 49.09038549 8.7512893 44.72214866 8 39 C6.63301998 35.25879152 5.41815203 33.36566069 2.41723633 30.74145508 C-0.57099242 27.35242159 -0.58990166 25.83769288 -0.48828125 21.38671875 C-0.47579346 20.26225342 -0.46330566 19.13778809 -0.45043945 17.97924805 C-0.40491943 16.56297119 -0.35939941 15.14669434 -0.3125 13.6875 C-0.209375 9.170625 -0.10625 4.65375 0 0 Z " fill="#89A6F8" transform="translate(38,51)"/>
<path d="M0 0 C1.12341797 -0.020625 2.24683594 -0.04125 3.40429688 -0.0625 C4.47615234 -0.06765625 5.54800781 -0.0728125 6.65234375 -0.078125 C7.64097412 -0.0874707 8.62960449 -0.09681641 9.64819336 -0.10644531 C10.44491455 0.01118164 11.24163574 0.12880859 12.0625 0.25 C14.0625 3.25 14.0625 3.25 13.8125 5.3125 C13.0625 7.25 13.0625 7.25 11.0625 9.25 C8.84765625 9.50878906 8.84765625 9.50878906 6.125 9.515625 C5.14789063 9.51820312 4.17078125 9.52078125 3.1640625 9.5234375 C2.14054687 9.51570313 1.11703125 9.50796875 0.0625 9.5 C-0.96101563 9.50773437 -1.98453125 9.51546875 -3.0390625 9.5234375 C-4.01617187 9.52085938 -4.99328125 9.51828125 -6 9.515625 C-6.89847656 9.51336914 -7.79695313 9.51111328 -8.72265625 9.50878906 C-10.9375 9.25 -10.9375 9.25 -12.9375 7.25 C-13.125 4.1875 -13.125 4.1875 -12.9375 1.25 C-10.39336018 -1.29413982 -3.4204618 0.01564534 0 0 Z " fill="#3A3A3A" transform="translate(115.9375,100.75)"/>
<path d="M0 0 C1.01900391 0.00322266 2.03800781 0.00644531 3.08789062 0.00976562 C4.10302734 -0.00634766 5.11816406 -0.02246094 6.1640625 -0.0390625 C7.62489258 -0.0400293 7.62489258 -0.0400293 9.11523438 -0.04101562 C10.45509399 -0.04548706 10.45509399 -0.04548706 11.82202148 -0.05004883 C14.15039062 0.32226562 14.15039062 0.32226562 15.98071289 1.6809082 C17.15039062 3.32226562 17.15039062 3.32226562 16.90039062 5.94726562 C16.15039062 8.32226562 16.15039062 8.32226562 15.15039062 9.32226562 C13.36967816 9.40952785 11.58555922 9.42925604 9.80273438 9.41992188 C8.72314453 9.41669922 7.64355469 9.41347656 6.53125 9.41015625 C5.39494141 9.40177734 4.25863281 9.39339844 3.08789062 9.38476562 C1.94771484 9.38025391 0.80753906 9.37574219 -0.3671875 9.37109375 C-3.19471289 9.3592631 -6.02213577 9.34277972 -8.84960938 9.32226562 C-9.47460938 5.94726562 -9.47460938 5.94726562 -9.84960938 2.32226562 C-6.86312374 -0.66422001 -4.08413445 0.02977169 0 0 Z " fill="#3B3B3B" transform="translate(112.849609375,78.677734375)"/>
<path d="M0 0 C7.92 0 15.84 0 24 0 C24 0.33 24 0.66 24 1 C23.34926514 1.01981934 22.69853027 1.03963867 22.02807617 1.06005859 C19.08080849 1.15529299 16.13425115 1.26497818 13.1875 1.375 C12.16333984 1.4059375 11.13917969 1.436875 10.08398438 1.46875 C8.60961914 1.52675781 8.60961914 1.52675781 7.10546875 1.5859375 C5.74651489 1.63306885 5.74651489 1.63306885 4.36010742 1.68115234 C1.73474608 1.86027919 1.73474608 1.86027919 -1 4 C-0.67 2.68 -0.34 1.36 0 0 Z " fill="#454545" transform="translate(104,101)"/>
</svg>
