<?xml version="1.0" encoding="UTF-8"?>
<svg version="1.1" xmlns="http://www.w3.org/2000/svg" width="192" height="192">
<path d="M0 0 C1.21720482 0.00136711 1.21720482 0.00136711 2.45899963 0.00276184 C3.29250443 -0.00152328 4.12600922 -0.00580841 4.98477173 -0.01022339 C6.74920238 -0.01597126 8.51365674 -0.01646359 10.27809143 -0.01213074 C12.98008121 -0.00897336 15.68097367 -0.03241436 18.38282776 -0.05778503 C20.095717 -0.06005822 21.80860919 -0.06076143 23.52149963 -0.05973816 C24.33094528 -0.06894791 25.14039093 -0.07815765 25.97436523 -0.08764648 C31.60839496 -0.04111037 31.60839496 -0.04111037 33.79397583 1.63931274 C35.05665588 3.30354309 35.05665588 3.30354309 35.05665588 6.30354309 C36.03424866 6.27735901 37.01184143 6.25117493 38.01905823 6.22419739 C41.6903694 6.13282372 45.36158293 6.07598272 49.03370667 6.02888489 C50.61460848 6.00393683 52.19539731 5.96996504 53.77589417 5.92634583 C64.6096969 5.63511457 72.91401213 6.00416688 81.4521637 13.37019348 C83.88259664 15.67546553 86.19672685 18.05355065 88.49415588 20.49104309 C90.05336553 22.11144821 91.61447934 23.73002384 93.17774963 25.34651184 C94.18986511 26.41421814 94.18986511 26.41421814 95.22242737 27.50349426 C97.12916551 29.48685584 97.12916551 29.48685584 100.05665588 31.30354309 C100.05665588 31.96354309 100.05665588 32.62354309 100.05665588 33.30354309 C100.92290588 33.58198059 100.92290588 33.58198059 101.80665588 33.86604309 C105.64214398 36.31649382 107.05143849 40.29310829 109.05665588 44.30354309 C109.65023769 50.01106042 109.30977273 54.42386783 106.05665588 59.30354309 C103.07150294 62.86565837 100.78208748 65.53748952 96.05665588 66.30354309 C88.17258048 66.92283602 83.19113272 66.16587321 76.61915588 61.61604309 C74.52193778 59.72343163 72.76404975 57.87375804 70.93165588 55.74104309 C70.33095276 55.05783997 69.73024963 54.37463684 69.11134338 53.67073059 C67.60369628 51.93378355 66.13497476 50.16284864 64.68946838 48.37385559 C60.32159332 43.38384995 57.17545673 39.86183771 50.12892151 39.3853302 C48.19940248 39.36681319 46.26968793 39.444459 44.34181213 39.52619934 C41.05665588 39.30354309 41.05665588 39.30354309 38.64259338 37.49104309 C36.52075945 34.5643756 36.52981307 32.84091629 37.05665588 29.30354309 C38.69050185 27.0965559 39.64688324 26.39275687 42.34986877 25.80427551 C61.63111622 24.75895959 61.63111622 24.75895959 66.62306213 28.36604309 C69.07816147 30.88486256 71.04703008 33.42364 73.05665588 36.30354309 C75.62111108 38.99347622 78.17103614 41.39647705 81.05665588 43.74104309 C84.17711617 46.40643626 86.5200771 49.09551698 89.05665588 52.30354309 C90.37665588 51.97354309 91.69665588 51.64354309 93.05665588 51.30354309 C93.45222461 49.02455748 93.45222461 49.02455748 93.05665588 46.30354309 C91.07978807 43.61946769 91.07978807 43.61946769 88.34962463 41.07307434 C87.86842667 40.59657944 87.3872287 40.12008453 86.89144897 39.62915039 C85.35369251 38.11270219 83.79917578 36.61476179 82.24415588 35.11604309 C81.20856411 34.0969638 80.17404592 33.07679229 79.14064026 32.05549622 C71.21221373 24.04261952 71.21221373 24.04261952 60.54493713 21.88948059 C59.81671249 21.87011444 59.08848785 21.85074829 58.3381958 21.83079529 C56.01530114 21.77107933 53.6923567 21.72464692 51.36915588 21.67854309 C49.79296256 21.64035588 48.21678994 21.60130371 46.64064026 21.56135559 C42.77948054 21.46538461 38.91822312 21.3813246 35.05665588 21.30354309 C34.95159078 27.08480805 34.91351243 32.86144711 34.93458557 38.64363098 C34.93265176 40.60564457 34.91315331 42.56772933 34.87501526 44.52937317 C34.41121745 58.3175584 34.41121745 58.3175584 40.81446838 69.97151184 C45.91269615 74.6575445 50.02428634 77.68010633 57.08106995 77.67585754 C58.27290894 77.68208633 59.46474792 77.68831512 60.69270325 77.69473267 C61.97296387 77.68552292 63.25322449 77.67631317 64.57228088 77.66682434 C65.9112091 77.66630497 67.25013809 77.66682565 68.58906555 77.66833496 C71.39331983 77.6682454 74.19728571 77.65785412 77.0014801 77.63972473 C80.57320994 77.6171259 84.14451563 77.61647925 87.71629715 77.62324238 C90.4823525 77.62660683 93.24831353 77.61990461 96.01435089 77.61011314 C97.96450011 77.6044557 99.91466546 77.60568904 101.86482239 77.60708618 C108.57782133 77.55395943 114.57024833 77.06067924 121.05665588 75.30354309 C121.05665588 74.64354309 121.05665588 73.98354309 121.05665588 73.30354309 C121.95126526 72.80725403 122.84587463 72.31096497 123.76759338 71.79963684 C130.14642818 68.2291554 136.34081708 64.58243176 142.27540588 60.29963684 C146.64078904 57.16661606 151.08915809 54.15482366 155.5249176 51.12263489 C156.18250061 50.67186584 156.84008362 50.2210968 157.51759338 49.75666809 C158.13859924 49.331922 158.7596051 48.9071759 159.39942932 48.46955872 C160.7498585 47.51940407 162.05549107 46.50583854 163.34571838 45.47541809 C165.05665588 44.30354309 165.05665588 44.30354309 168.05665588 44.30354309 C168.05665588 43.64354309 168.05665588 42.98354309 168.05665588 42.30354309 C168.71665588 42.30354309 169.37665588 42.30354309 170.05665588 42.30354309 C170.05665588 41.64354309 170.05665588 40.98354309 170.05665588 40.30354309 C170.71665588 40.30354309 171.37665588 40.30354309 172.05665588 40.30354309 C171.06665588 37.33354309 171.06665588 37.33354309 170.05665588 34.30354309 C163.76586636 34.44029938 160.32008952 36.91999094 155.38868713 40.70979309 C153.18447948 42.21618626 151.66071159 42.87252697 149.05665588 43.30354309 C149.05665588 43.96354309 149.05665588 44.62354309 149.05665588 45.30354309 C146.60639288 46.97513356 144.15976134 48.53047389 141.61915588 50.05354309 C140.14166712 50.95045652 138.66509785 51.84888646 137.18946838 52.74885559 C136.47436096 53.18488098 135.75925354 53.62090637 135.0224762 54.07014465 C132.60315626 55.58807862 130.30234793 57.24766457 127.99415588 58.92854309 C124.28198304 61.44118016 121.5912107 62.02907186 117.05665588 61.30354309 C114.05665588 59.30354309 114.05665588 59.30354309 113.37696838 57.42073059 C113.14307001 54.73557727 113.23359699 52.88495507 114.05665588 50.30354309 C116.75687636 47.43108633 119.8801994 45.44530188 123.2412262 43.40852356 C125.24225088 42.19057874 127.20747042 40.92428226 129.17384338 39.65119934 C140.94790789 32.0985086 140.94790789 32.0985086 146.05665588 30.30354309 C146.05665588 29.64354309 146.05665588 28.98354309 146.05665588 28.30354309 C148.88340897 26.0484223 151.98708095 24.20932223 155.05665588 22.30354309 C156.00540588 21.68479309 156.95415588 21.06604309 157.93165588 20.42854309 C163.32530247 18.48683032 169.01066215 18.07196825 174.40431213 20.25276184 C178.46791052 22.66053883 181.525188 25.26303604 184.05665588 29.30354309 C184.62814351 32.31934083 184.61629215 35.24221498 184.55665588 38.30354309 C184.57985901 39.49463684 184.57985901 39.49463684 184.60353088 40.70979309 C184.57649226 44.7655869 184.34139979 46.84608566 182.15040588 50.36604309 C180.05665588 52.30354309 180.05665588 52.30354309 178.05665588 52.30354309 C177.72665588 53.29354309 177.39665588 54.28354309 177.05665588 55.30354309 C174.76368713 56.98713684 174.76368713 56.98713684 171.86915588 58.74104309 C170.87657776 59.34948059 169.88399963 59.95791809 168.86134338 60.58479309 C167.93579651 61.15198059 167.01024963 61.71916809 166.05665588 62.30354309 C164.86378921 63.10814336 163.67484284 63.91867407 162.49415588 64.74104309 C160.05665588 66.30354309 160.05665588 66.30354309 158.05665588 66.30354309 C158.05665588 66.96354309 158.05665588 67.62354309 158.05665588 68.30354309 C155.71103415 69.91501568 153.36879272 71.40425989 150.93165588 72.86604309 C149.45835295 73.76472335 147.98570883 74.66448447 146.51368713 75.56526184 C145.76683655 76.0207843 145.01998596 76.47630676 144.25050354 76.94563293 C141.5942672 78.5897445 138.98628967 80.2999766 136.37892151 82.02009583 C127.29230073 88.00178501 119.39599381 92.38995149 108.36378479 92.48054504 C107.69984207 92.48711624 107.03589935 92.49368744 106.35183716 92.50045776 C104.16229628 92.52011233 101.97282366 92.53183434 99.78321838 92.54182434 C99.03312878 92.54589987 98.28303917 92.5499754 97.51021957 92.55417442 C93.5416517 92.57499947 89.57311806 92.58931782 85.60450745 92.59870911 C81.51330801 92.60977985 77.42265149 92.64419701 73.33164406 92.68388081 C70.17799387 92.71006044 67.02447302 92.71840198 63.87072372 92.72199059 C62.36287637 92.72685131 60.85503459 92.73845077 59.34729385 92.75702858 C57.2338658 92.78145578 55.12184291 92.78044987 53.00831604 92.77351379 C51.20773239 92.78231316 51.20773239 92.78231316 49.37077332 92.79129028 C44.51387588 92.07648819 41.32069431 89.89910965 38.29176331 86.07575989 C34.65412668 83.19147761 30.79202518 83.83141666 26.29493713 83.94807434 C25.34853867 83.9561058 24.4021402 83.96413727 23.42706299 83.97241211 C20.40718935 84.00139978 17.38859211 84.05767677 14.36915588 84.11604309 C11.33917453 84.15848249 8.30922054 84.19532569 5.27911377 84.22753906 C3.39377437 84.24932251 1.50850074 84.27806457 -0.37661743 84.3142395 C-2.56527255 84.34776035 -4.75460387 84.33094746 -6.94334412 84.30354309 C-8.66953026 82.57735695 -8.0755435 80.36297567 -8.08998108 78.06097412 C-8.08952789 77.31030167 -8.08907471 76.55962921 -8.08860779 75.78620911 C-8.0919664 74.99923645 -8.09532501 74.21226379 -8.0987854 73.40144348 C-8.10832391 70.78676294 -8.11023996 68.17214623 -8.11131287 65.55744934 C-8.11452343 63.74762953 -8.11788734 61.93780998 -8.12139893 60.12799072 C-8.12739746 56.3289988 -8.12923808 52.53002965 -8.12864685 48.73103333 C-8.12854518 43.85371536 -8.14219872 38.97654284 -8.15941906 34.09925938 C-8.17051637 30.35986658 -8.17256676 26.62050919 -8.17203712 22.88110161 C-8.17322062 21.08249854 -8.17766296 19.28389465 -8.18536949 17.48530769 C-8.19512384 14.97352424 -8.19230955 12.46205977 -8.18626404 9.95027161 C-8.19188354 9.20162338 -8.19750305 8.45297516 -8.20329285 7.68164062 C-8.16187006 0.93813061 -6.62370559 0.084076 0 0 Z " fill="#2A4E79" transform="translate(7.9433441162109375,86.69645690917969)"/>
<path d="M0 0 C2.4296875 0.390625 2.4296875 0.390625 5.1796875 2.140625 C9.72149957 8.70102021 13.03891209 15.78773257 15.4296875 23.390625 C16.49509766 23.48150391 16.49509766 23.48150391 17.58203125 23.57421875 C18.50113281 23.65800781 19.42023438 23.74179687 20.3671875 23.828125 C21.74197266 23.94994141 21.74197266 23.94994141 23.14453125 24.07421875 C25.4296875 24.390625 25.4296875 24.390625 26.4296875 25.390625 C28.5104734 25.66100961 30.59447049 25.90685628 32.6796875 26.140625 C36.70318265 26.76336135 39.20200158 27.25745022 42.7421875 29.328125 C45.27338084 33.92177217 44.83403929 38.25985002 44.4296875 43.390625 C43.7696875 43.390625 43.1096875 43.390625 42.4296875 43.390625 C42.22730469 43.92945313 42.02492188 44.46828125 41.81640625 45.0234375 C39.50598623 48.9674221 35.91836059 51.7878715 32.50976562 54.79296875 C30.64150891 56.479449 30.64150891 56.479449 28.4296875 59.390625 C28.36856576 62.44125142 28.36856576 62.44125142 29.4296875 65.390625 C30.24616939 69.79610285 30.65021273 74.03306494 30.7421875 78.515625 C30.79826172 80.31386719 30.79826172 80.31386719 30.85546875 82.1484375 C30.35154518 85.98565364 29.41199917 87.03264774 26.4296875 89.390625 C23.68978444 91.4455523 21.72927823 91.47669443 18.4296875 91.140625 C15.44684689 90.67872991 13.02050637 90.0098868 10.4296875 88.390625 C10.4296875 87.730625 10.4296875 87.070625 10.4296875 86.390625 C9.7284375 86.2875 9.0271875 86.184375 8.3046875 86.078125 C5.4296875 85.390625 5.4296875 85.390625 2.4296875 83.765625 C-1.01263595 82.18789342 -2.05882428 82.16160412 -5.5703125 83.390625 C-6.6015625 83.90625 -7.6328125 84.421875 -8.6953125 84.953125 C-11.5703125 86.390625 -11.5703125 86.390625 -14.5703125 86.390625 C-14.5703125 87.050625 -14.5703125 87.710625 -14.5703125 88.390625 C-20.10853503 90.81966997 -23.50702695 91.93616838 -29.5703125 90.390625 C-31.0553125 89.400625 -31.0553125 89.400625 -32.5703125 88.390625 C-32.5703125 87.730625 -32.5703125 87.070625 -32.5703125 86.390625 C-33.2303125 86.390625 -33.8903125 86.390625 -34.5703125 86.390625 C-37.52321495 80.48482009 -35.20577321 72.04247077 -34.0703125 65.828125 C-33.92722656 65.01021484 -33.78414062 64.19230469 -33.63671875 63.34960938 C-33.28802938 61.36207996 -32.93015165 59.37616604 -32.5703125 57.390625 C-33.17359375 57.1121875 -33.776875 56.83375 -34.3984375 56.546875 C-37.35979986 54.97032238 -39.3378697 52.871117 -41.5703125 50.390625 C-41.5703125 49.730625 -41.5703125 49.070625 -41.5703125 48.390625 C-42.1684375 48.1225 -42.7665625 47.854375 -43.3828125 47.578125 C-45.63301644 46.35658572 -46.93589053 45.34922984 -48.5703125 43.390625 C-49.82672021 39.14428501 -50.07091271 35.51101594 -48.2578125 31.453125 C-44.95948316 27.42183359 -43.16714514 27.00206637 -38.0078125 26.328125 C-33.96601398 26.1216248 -33.96601398 26.1216248 -30.5703125 24.390625 C-29.98121094 24.46023437 -29.39210938 24.52984375 -28.78515625 24.6015625 C-25.84753936 24.81319185 -24.26576548 24.65160615 -21.5703125 23.390625 C-18.63062641 19.21131225 -16.5245171 14.81850361 -14.41113281 10.18164062 C-10.87940924 2.65878229 -8.44851846 -0.34283843 0 0 Z " fill="#2C517B" transform="translate(134.5703125,12.609375)"/>
<path d="M0 0 C3.88973201 1.29657734 4.18261792 2.36523583 6 6 C6.73652112 8.29408217 7.42763616 10.58864648 8.05859375 12.9140625 C9.31723468 15.70291834 10.28232827 16.55405927 13 18 C15.83587175 18.60961798 18.6752221 18.87647481 21.5625 19.125 C29.7164311 19.90547703 29.7164311 19.90547703 33 21 C32.8125 23.3125 32.8125 23.3125 32 26 C30.36021682 27.04349839 28.68535024 28.03182008 27 29 C22.62698996 32.4822117 19.30209422 35.15722527 18.375 40.8125 C18.56510418 42.83354403 18.56510418 42.83354403 19 45 C19.15726563 45.92683594 19.31453125 46.85367188 19.4765625 47.80859375 C19.81404497 49.70504375 20.17437143 51.59763887 20.5625 53.484375 C21 56 21 56 21 60 C17.28754093 59.42177629 14.55091692 58.39136744 11.3125 56.5 C10.16201172 55.83484375 10.16201172 55.83484375 8.98828125 55.15625 C8.33214844 54.7746875 7.67601562 54.393125 7 54 C3.92009655 52.46004827 1.41257239 52.77622476 -2 53 C-5.58685001 54.32147105 -8.86016806 55.92739496 -12.25 57.6875 C-15 59 -15 59 -18 59 C-17.5140207 51.6379306 -17.02325928 44.30899482 -16 37 C-16.54140625 36.7834375 -17.0828125 36.566875 -17.640625 36.34375 C-20.81645344 34.53500003 -23.20728081 32.08276201 -25.75 29.5 C-26.25660156 29.00113281 -26.76320313 28.50226562 -27.28515625 27.98828125 C-31 24.25341139 -31 24.25341139 -31 22 C-28.70691037 20.85345518 -27.20090344 20.80270883 -24.6484375 20.68359375 C-23.79765625 20.64169922 -22.946875 20.59980469 -22.0703125 20.55664062 C-21.18085937 20.51732422 -20.29140625 20.47800781 -19.375 20.4375 C-18.4778125 20.39431641 -17.580625 20.35113281 -16.65625 20.30664062 C-14.43765717 20.20043139 -12.2189512 20.09838806 -10 20 C-9.72285156 19.28070313 -9.44570312 18.56140625 -9.16015625 17.8203125 C-8.03807448 15.09255817 -6.78173894 12.49927542 -5.4375 9.875 C-4.08662907 7.23739445 -2.93892243 4.8167673 -2 2 C-1.34 2 -0.68 2 0 2 C0 1.34 0 0.68 0 0 Z " fill="#C7E1F4" transform="translate(131,29)"/>
<path d="M0 0 C6.93 0 13.86 0 21 0 C21 20.13 21 40.26 21 61 C14.07 61 7.14 61 0 61 C0 40.87 0 20.74 0 0 Z " fill="#C5E0F3" transform="translate(11,99)"/>
<path d="M0 0 C0.33 0 0.66 0 1 0 C0.85811015 2.54194161 0.71160845 5.08347993 0.5625 7.625 C0.50352539 8.69427734 0.50352539 8.69427734 0.44335938 9.78515625 C0.19690319 13.91803682 -0.23470053 17.92269024 -1 22 C-0.34 22.33 0.32 22.66 1 23 C-0.32 23.33 -1.64 23.66 -3 24 C-2.29563752 15.95543903 -1.18531495 7.98649105 0 0 Z " fill="#6182A4" transform="translate(114,66)"/>
<path d="M0 0 C0.33 0 0.66 0 1 0 C1.33 3.3 1.66 6.6 2 10 C-1.68754757 9.50168276 -3.60490662 8.89932357 -6 6 C-3.03 6.495 -3.03 6.495 0 7 C0 4.69 0 2.38 0 0 Z " fill="#A1BDD6" transform="translate(150,79)"/>
</svg>
