<?xml version="1.0" encoding="UTF-8"?>
<svg version="1.1" xmlns="http://www.w3.org/2000/svg" width="192" height="192">
<path d="M0 0 C1.27009163 -0.00856522 1.27009163 -0.00856522 2.56584167 -0.01730347 C3.49162521 -0.01842133 4.41740875 -0.01953918 5.37124634 -0.02069092 C6.34876358 -0.02565582 7.32628082 -0.03062073 8.3334198 -0.03573608 C11.57210998 -0.05035957 14.8107512 -0.05715972 18.04946899 -0.06268311 C20.29764813 -0.068434 22.54582725 -0.07419175 24.79400635 -0.07995605 C29.51002227 -0.0904663 34.22602113 -0.09630895 38.94204712 -0.09979248 C44.98713553 -0.10527998 51.03199901 -0.12931353 57.07701683 -0.15776443 C61.72154399 -0.17638013 66.36601683 -0.18159583 71.01057816 -0.18312836 C73.23932755 -0.18615737 75.46807594 -0.19419421 77.69678879 -0.20731354 C80.81370969 -0.22435286 83.93007911 -0.22249889 87.04702759 -0.21600342 C87.96876266 -0.2252182 88.89049774 -0.23443298 89.84016418 -0.243927 C94.66756638 -0.21238598 97.9340887 -0.02102217 101.83853149 3.14044189 C104.07681274 5.76934814 104.07681274 5.76934814 106.15103149 8.70294189 C107.19710571 10.15893799 107.19710571 10.15893799 108.26431274 11.64434814 C109.83853149 14.14044189 109.83853149 14.14044189 109.83853149 16.14044189 C110.49853149 16.14044189 111.15853149 16.14044189 111.83853149 16.14044189 C111.83853149 17.13044189 111.83853149 18.12044189 111.83853149 19.14044189 C112.49853149 19.14044189 113.15853149 19.14044189 113.83853149 19.14044189 C114.99478149 20.61700439 114.99478149 20.61700439 116.33853149 22.76544189 C118.26146266 25.79812437 120.24788983 28.70975157 122.45571899 31.53887939 C130.50561584 41.95279297 130.50561584 41.95279297 130.83853149 47.07794189 C130.08205041 52.97630164 125.83409703 56.55422313 121.40103149 60.07794189 C119.18935826 61.85806913 117.61701672 63.49307973 115.80337524 65.64434814 C110.60115274 71.65557903 104.88112531 77.14325993 99.22134399 82.71856689 C95.51089236 86.39518462 91.84455703 90.05300777 88.45181274 94.02716064 C83.63618119 99.64469156 78.28847866 104.75933845 73.02603149 109.95294189 C70.9541149 111.99821004 68.88558706 114.04682145 66.81900024 116.09747314 C65.91045288 116.99441895 65.00190552 117.89136475 64.06582642 118.81549072 C61.72048243 121.12788868 61.72048243 121.12788868 59.83853149 124.14044189 C59.17853149 124.14044189 58.51853149 124.14044189 57.83853149 124.14044189 C57.34353149 125.62544189 57.34353149 125.62544189 56.83853149 127.14044189 C56.17853149 127.14044189 55.51853149 127.14044189 54.83853149 127.14044189 C54.50853149 128.13044189 54.17853149 129.12044189 53.83853149 130.14044189 C53.17853149 130.14044189 52.51853149 130.14044189 51.83853149 130.14044189 C51.50853149 131.13044189 51.17853149 132.12044189 50.83853149 133.14044189 C48.06752756 134.52594386 45.9050609 134.32818859 42.83853149 134.14044189 C41.35353149 133.15044189 41.35353149 133.15044189 39.83853149 132.14044189 C39.83853149 131.48044189 39.83853149 130.82044189 39.83853149 130.14044189 C38.84853149 129.81044189 37.85853149 129.48044189 36.83853149 129.14044189 C36.83853149 128.48044189 36.83853149 127.82044189 36.83853149 127.14044189 C35.35353149 126.64544189 35.35353149 126.64544189 33.83853149 126.14044189 C33.83853149 125.48044189 33.83853149 124.82044189 33.83853149 124.14044189 C32.35353149 123.64544189 32.35353149 123.64544189 30.83853149 123.14044189 C29.41860962 121.69708252 29.41860962 121.69708252 27.86978149 119.79669189 C24.85260036 116.24072841 21.67941504 112.89157421 18.36978149 109.60919189 C17.8819519 109.12466553 17.39412231 108.64013916 16.89151001 108.14093018 C15.37580603 106.63877466 13.85762412 105.13917005 12.33853149 103.64044189 C6.58300927 97.96207636 0.88680009 92.30811882 -4.36898804 86.15557861 C-8.15870115 81.89511933 -12.28890633 77.95334115 -16.34896851 73.95294189 C-18.11567037 72.21186297 -19.88007578 70.46845007 -21.64193726 68.72247314 C-22.41432739 67.96168457 -23.18671753 67.200896 -23.98251343 66.41705322 C-26.16146851 64.14044189 -26.16146851 64.14044189 -28.28378296 61.48297119 C-30.33136701 58.92848296 -32.60580943 57.17186321 -35.16146851 55.14044189 C-37.84215679 52.64462866 -38.42570394 50.61963108 -38.65365601 47.06231689 C-38.56615009 40.96566336 -35.31632334 37.52678231 -31.47396851 33.07794189 C-30.21647358 31.569207 -28.96252097 30.05751214 -27.71224976 28.54278564 C-26.80466919 27.45393066 -26.80466919 27.45393066 -25.87875366 26.34307861 C-23.71227024 23.56428796 -21.92812635 20.63885027 -20.19345093 17.57623291 C-19.85289673 17.10242188 -19.51234253 16.62861084 -19.16146851 16.14044189 C-18.50146851 16.14044189 -17.84146851 16.14044189 -17.16146851 16.14044189 C-16.82115601 15.11950439 -16.82115601 15.11950439 -16.47396851 14.07794189 C-14.84920704 10.441571 -12.83343594 7.11214926 -10.16146851 4.14044189 C-9.50146851 4.14044189 -8.84146851 4.14044189 -8.16146851 4.14044189 C-7.83146851 3.15044189 -7.50146851 2.16044189 -7.16146851 1.14044189 C-4.42606615 0.22864111 -2.81518935 0.01138501 0 0 Z " fill="#070608" transform="translate(50.161468505859375,28.85955810546875)"/>
<path d="M0 0 C15.18 0 30.36 0 46 0 C43.74953381 9.00186476 43.74953381 9.00186476 42.72949219 12.02441406 C42.38534271 13.05112213 42.38534271 13.05112213 42.03424072 14.09857178 C41.79091003 14.81369934 41.54757935 15.5288269 41.296875 16.265625 C41.03694763 17.03731018 40.77702026 17.80899536 40.50921631 18.60406494 C39.67678431 21.07074361 38.83916411 23.53560404 38 26 C37.58560669 27.21852661 37.58560669 27.21852661 37.1628418 28.46166992 C35.20046916 34.22739215 33.22648943 39.98910466 31.25 45.75 C30.3833762 48.27777372 29.5169702 50.80562182 28.65081787 53.33355713 C28.11910707 54.88521855 27.58710426 56.43677994 27.05474854 57.98822021 C25.68416962 61.98598093 24.32982616 65.98843663 23 70 C22.34 70 21.68 70 21 70 C20.71503662 69.06208618 20.71503662 69.06208618 20.42431641 68.10522461 C16.28699017 54.5134327 12.05618597 40.95651524 7.6875 27.4375 C7.47530823 26.78055145 7.26311646 26.12360291 7.04449463 25.44674683 C6.43021532 23.54626627 5.81473273 21.64617478 5.19921875 19.74609375 C4.82200684 18.58062012 4.44479492 17.41514648 4.05615234 16.21435547 C2.91554442 12.74296298 1.72464838 9.2913683 0.49145508 5.85180664 C0 4 0 4 0 0 Z " fill="#D2AEE9" transform="translate(74,79)"/>
<path d="M0 0 C14.85 0 29.7 0 45 0 C46.83876877 4.90338338 48.60372969 9.71251246 50.19921875 14.68359375 C50.60019775 15.92955322 51.00117676 17.1755127 51.41430664 18.45922852 C51.83883998 19.78527562 52.26323487 21.11136706 52.6875 22.4375 C53.1280636 23.81115189 53.56873881 25.184768 54.00952148 26.55834961 C54.68153119 28.65290921 55.35327981 30.74755036 56.02412415 32.84248352 C57.47104368 37.35960144 58.93090821 41.87233608 60.3984375 46.3828125 C61.11979804 48.60937293 61.84115256 50.83593532 62.5625 53.0625 C62.89660889 54.08335693 63.23071777 55.10421387 63.57495117 56.15600586 C65.0593681 60.75672304 66.40674951 65.18085564 67 70 C63.6496392 67.38508425 60.73435178 64.78987437 58.00390625 61.53125 C53.13263004 55.89712691 47.79798876 50.72696561 42.5 45.5 C31.31095583 34.46095259 31.31095583 34.46095259 27.55859375 30.0546875 C24.56164957 26.54488279 21.34522231 23.28322009 18.06640625 20.0390625 C17.53916962 19.51733459 17.01193298 18.99560669 16.46871948 18.45806885 C14.27278554 16.28989162 12.07314355 14.12555586 9.86938477 11.96533203 C8.24325081 10.36921101 6.62324105 8.76707677 5.00390625 7.1640625 C4.50089493 6.6745108 3.99788361 6.18495911 3.47962952 5.68057251 C2.28138007 4.49116463 1.13516637 3.24975604 0 2 C0 1.34 0 0.68 0 0 Z " fill="#DFC3EC" transform="translate(22,79)"/>
<path d="M0 0 C14.52 0 29.04 0 44 0 C41.87764728 4.24470543 39.26266479 6.97490348 35.92578125 10.234375 C35.3237236 10.83123108 34.72166595 11.42808716 34.10136414 12.04302979 C32.17644085 13.95017565 30.24498653 15.85052066 28.3125 17.75 C25.78436908 20.24138019 23.25944288 22.73594226 20.73828125 25.234375 C19.82642563 26.13784668 19.82642563 26.13784668 18.89614868 27.05957031 C15.33928455 30.60433104 11.95924608 34.23124463 8.71166992 38.06347656 C4.01188022 43.38065413 -1.21053759 48.24292037 -6.26171875 53.22265625 C-11.39480222 58.31129744 -16.3448343 63.46856781 -21 69 C-22.47070997 65.1444021 -21.47895303 62.69568206 -20.12109375 58.8984375 C-19.69731445 57.69485596 -19.27353516 56.49127441 -18.83691406 55.2512207 C-18.37051398 53.95912141 -17.90404114 52.66704837 -17.4375 51.375 C-16.96853325 50.0514476 -16.50076508 48.72746993 -16.03417969 47.40307617 C-15.1116188 44.78577565 -14.1849969 42.16997461 -13.25537109 39.55517578 C-11.70242035 35.15726278 -10.2107244 30.74172039 -8.75 26.3125 C-5.84688401 17.53717212 -2.92291741 8.76875223 0 0 Z " fill="#DFC4ED" transform="translate(126,79)"/>
<path d="M0 0 C3.39068267 3.06167014 5.34000669 6.13697027 7.41796875 10.19140625 C7.72068192 10.77792465 8.02339508 11.36444305 8.33528137 11.96873474 C8.96983977 13.20153215 9.60078351 14.43619622 10.22827148 15.67260742 C11.18814055 17.56376202 12.15845022 19.44925187 13.13085938 21.33398438 C17.82770867 30.483126 17.82770867 30.483126 19 34 C4.48 34 -10.04 34 -25 34 C-18.23928378 23.85892566 -18.23928378 23.85892566 -15.52734375 20.17578125 C-14.93759766 19.37462891 -14.34785156 18.57347656 -13.74023438 17.74804688 C-13.14533203 16.94431641 -12.55042969 16.14058594 -11.9375 15.3125 C-11.33873047 14.49716797 -10.73996094 13.68183594 -10.12304688 12.84179688 C-6.87508872 8.44122268 -3.5534809 4.15804286 0 0 Z " fill="#D0ACE6" transform="translate(45,39)"/>
<path d="M0 0 C5.18125123 4.5705334 8.49916743 10.16813456 12.125 16 C13.05505859 17.47726563 13.05505859 17.47726563 14.00390625 18.984375 C15.6791527 21.6503586 17.34739293 24.3199274 19 27 C19.56058105 27.88945313 20.12116211 28.77890625 20.69873047 29.6953125 C22 32 22 32 22 34 C7.81 34 -6.38 34 -21 34 C-18.6201249 29.24024981 -16.47233074 24.95541724 -13.65234375 20.546875 C-13.04712891 19.598125 -12.44191406 18.649375 -11.81835938 17.671875 C-11.19767578 16.70765625 -10.57699219 15.7434375 -9.9375 14.75 C-9.31294922 13.7703125 -8.68839844 12.790625 -8.04492188 11.78125 C-5.47056089 7.75898268 -2.90936711 3.79021478 0 0 Z " fill="#DFC3EC" transform="translate(96,39)"/>
<path d="M0 0 C4.55003764 3.21612373 7.23350894 6.86193589 10.25 11.4375 C11.20926737 12.86483076 12.16890888 14.29191013 13.12890625 15.71875 C13.60602051 16.43289062 14.08313477 17.14703125 14.57470703 17.8828125 C16.73806025 21.09634437 18.96390421 24.2655001 21.1875 27.4375 C25 32.87915937 25 32.87915937 25 34 C11.14 34 -2.72 34 -17 34 C-16.01620246 30.06480985 -14.51880418 26.85664915 -12.65625 23.30078125 C-12.16251892 22.34730049 -12.16251892 22.34730049 -11.65881348 21.3745575 C-10.9648006 20.03634941 -10.26875281 18.69919493 -9.57080078 17.36303711 C-8.49948427 15.31151241 -7.43479122 13.25665556 -6.37109375 11.20117188 C-5.69569736 9.9008417 -5.01992904 8.60070462 -4.34375 7.30078125 C-4.02394165 6.68415115 -3.7041333 6.06752106 -3.37463379 5.4322052 C-1.11632464 1.11632464 -1.11632464 1.11632464 0 0 Z " fill="#CFABE6" transform="translate(147,39)"/>
<path d="M0 0 C12.87 0 25.74 0 39 0 C29.7972973 18.40540541 29.7972973 18.40540541 26 25.5 C25.60683594 26.23863281 25.21367187 26.97726563 24.80859375 27.73828125 C23.87418712 29.49314248 22.93739122 31.24673123 22 33 C17.90930125 31.63643375 16.94766516 28.94640675 14.9375 25.375 C11.2398551 18.98279059 7.2951236 12.82612729 3.09936523 6.74951172 C0 2.2067331 0 2.2067331 0 0 Z " fill="#C693E1" transform="translate(103,36)"/>
<path d="M0 0 C12.54 0 25.08 0 38 0 C36.43372535 4.69882395 35.69886644 6.77526223 32.9375 10.4375 C29.31974999 15.41285431 26.18592652 20.59053867 23.10913086 25.90991211 C21.31234055 28.97837585 19.58016061 31.56150066 17 34 C16.73372803 33.49251221 16.46745605 32.98502441 16.19311523 32.4621582 C14.94195161 30.07856631 13.6897755 27.69550793 12.4375 25.3125 C11.76001709 24.02194702 11.76001709 24.02194702 11.06884766 22.70532227 C7.83606535 16.55776441 4.54040163 10.4498048 1.1796875 4.37109375 C0 2 0 2 0 0 Z " fill="#C793E1" transform="translate(52,36)"/>
</svg>
