<?xml version="1.0" encoding="UTF-8"?>
<svg version="1.1" xmlns="http://www.w3.org/2000/svg" width="192" height="192">
<path d="M0 0 C0.71303284 -0.00698914 1.42606567 -0.01397827 2.16070557 -0.0211792 C22.42282056 -0.13137861 43.98087969 6.26846332 59.625 19.625 C59.625 20.285 59.625 20.945 59.625 21.625 C60.181875 21.8725 60.73875 22.12 61.3125 22.375 C66.73455154 25.30583867 71.04924409 29.63614467 74.625 34.625 C74.625 35.285 74.625 35.945 74.625 36.625 C75.285 36.625 75.945 36.625 76.625 36.625 C91.31475146 53.73780325 96.18120069 75.08891404 96.25 97 C96.25698914 97.71303284 96.26397827 98.42606567 96.2711792 99.16070557 C96.38137861 119.42282056 89.98153668 140.98087969 76.625 156.625 C75.965 156.625 75.305 156.625 74.625 156.625 C74.3775 157.181875 74.13 157.73875 73.875 158.3125 C70.94416133 163.73455154 66.61385533 168.04924409 61.625 171.625 C60.965 171.625 60.305 171.625 59.625 171.625 C59.625 172.285 59.625 172.945 59.625 173.625 C42.51219675 188.31475146 21.16108596 193.18120069 -0.75 193.25 C-1.46303284 193.25698914 -2.17606567 193.26397827 -2.91070557 193.2711792 C-23.17282056 193.38137861 -44.73087969 186.98153668 -60.375 173.625 C-60.375 172.965 -60.375 172.305 -60.375 171.625 C-60.931875 171.3775 -61.48875 171.13 -62.0625 170.875 C-67.48455154 167.94416133 -71.79924409 163.61385533 -75.375 158.625 C-75.375 157.965 -75.375 157.305 -75.375 156.625 C-76.035 156.625 -76.695 156.625 -77.375 156.625 C-92.06475146 139.51219675 -96.93120069 118.16108596 -97 96.25 C-97.00698914 95.53696716 -97.01397827 94.82393433 -97.0211792 94.08929443 C-97.13137861 73.82717944 -90.73153668 52.26912031 -77.375 36.625 C-76.715 36.625 -76.055 36.625 -75.375 36.625 C-75.1275 36.068125 -74.88 35.51125 -74.625 34.9375 C-71.69416133 29.51544846 -67.36385533 25.20075591 -62.375 21.625 C-61.715 21.625 -61.055 21.625 -60.375 21.625 C-60.375 20.965 -60.375 20.305 -60.375 19.625 C-43.26219675 4.93524854 -21.91108596 0.06879931 0 0 Z " fill="#83DAFE" transform="translate(96.375,-0.625)"/>
<path d="M0 0 C0.98902313 -0.00700928 1.97804626 -0.01401855 2.99703979 -0.02124023 C6.26784298 -0.03885228 9.53778169 -0.02718567 12.80859375 -0.01367188 C15.0801612 -0.01636585 17.35172752 -0.02024749 19.62329102 -0.02526855 C24.38471452 -0.03116797 29.14583793 -0.02258607 33.90722656 -0.00390625 C40.01418443 0.01888318 46.12043916 0.00576253 52.22737122 -0.01819611 C56.91822621 -0.03264188 61.60891418 -0.02805362 66.29977417 -0.01768494 C68.5516671 -0.01501429 70.80357514 -0.01829923 73.05545044 -0.02760315 C76.2014388 -0.0377483 79.34628438 -0.02229524 82.4921875 0 C83.42529755 -0.00809692 84.35840759 -0.01619385 85.3197937 -0.02453613 C89.03163041 0.02426197 91.542641 0.12925142 94.82336426 1.94030762 C97.04174661 5.95890107 96.80288993 9.75189622 96.76367188 14.27148438 C96.77068115 15.26050751 96.77769043 16.24953064 96.78491211 17.26852417 C96.80252415 20.53932736 96.79085755 23.80926606 96.77734375 27.08007812 C96.78003773 29.35164557 96.78391936 31.6232119 96.78894043 33.89477539 C96.79483985 38.65619889 96.78625794 43.4173223 96.76757812 48.17871094 C96.74478869 54.2856688 96.75790935 60.39192353 96.78186798 66.49885559 C96.79631375 71.18971059 96.7917255 75.88039855 96.78135681 80.57125854 C96.77868617 82.82315148 96.7819711 85.07505952 96.79127502 87.32693481 C96.80142017 90.47292318 96.78596711 93.61776876 96.76367188 96.76367188 C96.7717688 97.69678192 96.77986572 98.62989197 96.78820801 99.59127808 C96.7394099 103.30311478 96.63442046 105.81412538 94.82336426 109.09484863 C90.80477081 111.31323099 87.01177566 111.0743743 82.4921875 111.03515625 C81.50316437 111.04216553 80.51414124 111.0491748 79.49514771 111.05639648 C76.22434452 111.07400853 72.95440581 111.06234192 69.68359375 111.04882812 C67.4120263 111.0515221 65.14045998 111.05540374 62.86889648 111.0604248 C58.10747298 111.06632422 53.34634957 111.05774232 48.58496094 111.0390625 C42.47800307 111.01627307 36.37174834 111.02939372 30.26481628 111.05335236 C25.57396129 111.06779813 20.88327332 111.06320987 16.19241333 111.05284119 C13.9405204 111.05017054 11.68861236 111.05345548 9.43673706 111.0627594 C6.2907487 111.07290455 3.14590312 111.05745149 0 111.03515625 C-1.39966507 111.04730164 -1.39966507 111.04730164 -2.8276062 111.05969238 C-6.53944291 111.01089428 -9.0504535 110.90590483 -12.33117676 109.09484863 C-14.54955911 105.07625518 -14.31070243 101.28326003 -14.27148438 96.76367188 C-14.27849365 95.77464874 -14.28550293 94.78562561 -14.29272461 93.76663208 C-14.31033665 90.49582889 -14.29867005 87.22589019 -14.28515625 83.95507812 C-14.28785023 81.68351068 -14.29173186 79.41194435 -14.29675293 77.14038086 C-14.30265235 72.37895736 -14.29407044 67.61783395 -14.27539062 62.85644531 C-14.25260119 56.74948745 -14.26572185 50.64323272 -14.28968048 44.53630066 C-14.30412625 39.84544566 -14.299538 35.1547577 -14.28916931 30.46389771 C-14.28649867 28.21200477 -14.2897836 25.96009673 -14.29908752 23.70822144 C-14.30923267 20.56223307 -14.29377961 17.41738749 -14.27148438 14.27148438 C-14.28362976 12.87181931 -14.28362976 12.87181931 -14.29602051 11.44387817 C-14.2472224 7.73204147 -14.14223296 5.22103087 -12.33117676 1.94030762 C-8.31258331 -0.27807474 -4.51958816 -0.03921805 0 0 Z " fill="#F8CB5B" transform="translate(54.75390625,40.482421875)"/>
<path d="M0 0 C6.33531015 -0.10141463 12.67041102 -0.17147114 19.00634766 -0.21972656 C21.16170067 -0.23984276 23.31699911 -0.26713925 25.47216797 -0.30175781 C28.57012395 -0.35027486 31.66735846 -0.37296873 34.765625 -0.390625 C35.72929993 -0.41127014 36.69297485 -0.43191528 37.68585205 -0.45318604 C41.50672505 -0.45446778 44.20768264 -0.41953174 47.61523438 1.38476562 C49.82442792 5.55699433 49.49013941 9.58923639 49.390625 14.234375 C49.38496521 15.22753723 49.37930542 16.22069946 49.37347412 17.24395752 C49.35110026 20.41313059 49.30090106 23.5811692 49.25 26.75 C49.22993635 28.89972324 49.21168534 31.04946423 49.1953125 33.19921875 C49.15123239 38.46653229 49.08431033 43.73318509 49 49 C44.58355402 49.11608127 40.16749983 49.1872132 35.75 49.25 C33.86861328 49.30027344 33.86861328 49.30027344 31.94921875 49.3515625 C30.14130859 49.37089844 30.14130859 49.37089844 28.296875 49.390625 C26.63156738 49.4220459 26.63156738 49.4220459 24.93261719 49.45410156 C21.33199092 48.89656203 20.36499337 47.67123299 18 45 C14.97698602 44.09533069 14.97698602 44.09533069 11.75 43.75 C10.67234375 43.60046875 9.5946875 43.4509375 8.484375 43.296875 C7.66453125 43.19890625 6.8446875 43.1009375 6 43 C5.7525 41.9275 5.505 40.855 5.25 39.75 C4.35576717 36.00151 4.35576717 36.00151 1.94628906 34.22753906 C-0.83623739 31.04292148 -0.4568921 28.78420243 -0.390625 24.609375 C-0.38496521 23.90476135 -0.37930542 23.20014771 -0.37347412 22.47418213 C-0.35115078 20.23208572 -0.30096754 17.99161012 -0.25 15.75 C-0.22992952 14.22658565 -0.2116797 12.70314614 -0.1953125 11.1796875 C-0.15130118 7.4526017 -0.08230372 3.72645913 0 0 Z " fill="#324B5E" transform="translate(102,41)"/>
<path d="M0 0 C1.25619141 0.02707031 2.51238281 0.05414063 3.80664062 0.08203125 C6.89370748 0.15245863 9.97720152 0.25091354 13.0625 0.375 C13.16391463 6.71031015 13.23397114 13.04541102 13.28222656 19.38134766 C13.30234276 21.53670067 13.32963925 23.69199911 13.36425781 25.84716797 C13.41277486 28.94512395 13.43546873 32.04235846 13.453125 35.140625 C13.47377014 36.10429993 13.49441528 37.06797485 13.51568604 38.06085205 C13.51696778 41.88172505 13.48203174 44.58268264 11.67773438 47.99023438 C7.50550567 50.19942792 3.47326361 49.86513941 -1.171875 49.765625 C-2.16503723 49.75996521 -3.15819946 49.75430542 -4.18145752 49.74847412 C-7.35063059 49.72610026 -10.5186692 49.67590106 -13.6875 49.625 C-15.83722324 49.60493635 -17.98696423 49.58668534 -20.13671875 49.5703125 C-25.40403229 49.52623239 -30.67068509 49.45931033 -35.9375 49.375 C-36.03653473 44.89101216 -36.10904483 40.40760708 -36.15722656 35.92285156 C-36.17731599 34.39799915 -36.20459316 32.87322352 -36.23925781 31.34863281 C-36.28789796 29.15410402 -36.31049396 26.96059531 -36.328125 24.765625 C-36.34907227 23.44594727 -36.37001953 22.12626953 -36.39160156 20.76660156 C-35.85925595 16.79060947 -34.89435035 15.92691792 -31.9375 13.375 C-30.65984735 9.73956099 -30.65984735 9.73956099 -29.9375 6.375 C-29.36902344 6.44460937 -28.80054687 6.51421875 -28.21484375 6.5859375 C-27.44269531 6.64007813 -26.67054687 6.69421875 -25.875 6.75 C-24.74384766 6.85441406 -24.74384766 6.85441406 -23.58984375 6.9609375 C-20.53891619 6.28694761 -20.07945417 5.5799975 -18 3.375 C-12.85595927 -1.33508848 -6.57761668 -0.26903728 0 0 Z " fill="#324B5E" transform="translate(137.9375,101.625)"/>
<path d="M0 0 C4.37464796 -0.14564235 8.7486696 -0.23419143 13.125 -0.3125 C14.3625 -0.35439453 15.6 -0.39628906 16.875 -0.43945312 C27.14500518 -0.57749083 27.14500518 -0.57749083 30.578125 2.50390625 C31.37734375 3.32761719 32.1765625 4.15132813 33 5 C35.37180061 5.47547584 35.37180061 5.47547584 37.625 5.25 C39.953125 5.36328125 39.953125 5.36328125 42 6 C43.52837146 8.22667911 44.33204241 10.30233546 45.1484375 12.87109375 C45.9052097 15.34596617 45.9052097 15.34596617 49 17 C49.26727014 19.48340903 49.34866334 21.71472068 49.29296875 24.1953125 C49.28872391 24.90275604 49.28447906 25.61019958 49.28010559 26.33908081 C49.26329547 28.60143905 49.22564128 30.86291048 49.1875 33.125 C49.17245607 34.65753923 49.15876716 36.1900924 49.14648438 37.72265625 C49.11338462 41.48211318 49.06158825 45.24090618 49 49 C42.66468985 49.10141463 36.32958898 49.17147114 29.99365234 49.21972656 C27.83829933 49.23984276 25.68300089 49.26713925 23.52783203 49.30175781 C20.42987605 49.35027486 17.33264154 49.37296873 14.234375 49.390625 C13.27070007 49.41127014 12.30702515 49.43191528 11.31414795 49.45318604 C7.49327495 49.45446778 4.79231736 49.41953174 1.38476562 47.61523438 C-0.82442792 43.44300567 -0.49013941 39.41076361 -0.390625 34.765625 C-0.38496521 33.77246277 -0.37930542 32.77930054 -0.37347412 31.75604248 C-0.35110026 28.58686941 -0.30090106 25.4188308 -0.25 22.25 C-0.22993635 20.10027676 -0.21168534 17.95053577 -0.1953125 15.80078125 C-0.15123239 10.53346771 -0.08431033 5.26681491 0 0 Z " fill="#324B5E" transform="translate(41,102)"/>
<path d="M0 0 C0.99316223 0.00565979 1.98632446 0.01131958 3.00958252 0.01715088 C6.17875559 0.03952474 9.3467942 0.08972394 12.515625 0.140625 C14.66534824 0.16068865 16.81508923 0.17893966 18.96484375 0.1953125 C24.23215729 0.23939261 29.49881009 0.30631467 34.765625 0.390625 C34.88959647 4.85626801 34.98013492 9.32098939 35.0402832 13.7878418 C35.06536609 15.30592301 35.0994416 16.82388418 35.14282227 18.34155273 C35.20375793 20.52878465 35.23189395 22.71441539 35.25390625 24.90234375 C35.28009033 26.21678467 35.30627441 27.53122559 35.33325195 28.88549805 C34.62708532 33.24611495 33.02678556 34.53952208 29.765625 37.390625 C29.518125 38.2775 29.270625 39.164375 29.015625 40.078125 C27.765625 42.390625 27.765625 42.390625 25.859375 42.97265625 C24.33098072 43.2452199 22.79314145 43.47034732 21.25 43.640625 C18.50324609 44.24731195 18.50324609 44.24731195 16.3359375 46.93359375 C11.557951 51.16765768 4.87056651 49.90557094 -1.109375 49.703125 C-2.37007812 49.68056641 -3.63078125 49.65800781 -4.9296875 49.63476562 C-8.03246999 49.57600081 -11.13280699 49.49388351 -14.234375 49.390625 C-14.33578963 43.05531485 -14.40584614 36.72021398 -14.45410156 30.38427734 C-14.47421776 28.22892433 -14.50151425 26.07362589 -14.53613281 23.91845703 C-14.58464986 20.82050105 -14.60734373 17.72326654 -14.625 14.625 C-14.64564514 13.66132507 -14.66629028 12.69765015 -14.68756104 11.70477295 C-14.68884278 7.88389995 -14.65390674 5.18294236 -12.84960938 1.77539062 C-8.67738067 -0.43380292 -4.64513861 -0.09951441 0 0 Z " fill="#324B5E" transform="translate(55.234375,40.609375)"/>
<path d="M0 0 C0.66 0 1.32 0 2 0 C4.81720317 3.68403491 5.51124478 6.398797 5 11 C3 13 3 13 0.5 13.25 C-2 13 -2 13 -4 11 C-4.5193604 7.104797 -4.29481269 5.45204612 -2.125 2.125 C-1.42375 1.42375 -0.7225 0.7225 0 0 Z " fill="#48585D" transform="translate(95,100)"/>
<path d="M0 0 C2.5 0.25 2.5 0.25 4.5 2.25 C4.19903201 6.38830989 3.82101984 8.76847024 1.5 12.25 C-0.375 11.9375 -0.375 11.9375 -2.5 11.25 C-4.80163882 7.79754176 -4.84490322 6.30261287 -4.5 2.25 C-2.5 0.25 -2.5 0.25 0 0 Z " fill="#3A4F5D" transform="translate(95.5,78.75)"/>
<path d="M0 0 C1.125 2.3125 1.125 2.3125 2 5 C1.01 6.485 1.01 6.485 0 8 C-3.81884318 8.42431591 -6.12405448 8.5390434 -9.4375 6.5 C-9.953125 6.005 -10.46875 5.51 -11 5 C-8.45499142 -0.63537615 -5.97208347 -0.11059414 0 0 Z " fill="#3E525D" transform="translate(116,92)"/>
<path d="M0 0 C3.81884318 -0.42431591 6.12405448 -0.5390434 9.4375 1.5 C9.953125 1.995 10.46875 2.49 11 3 C9.25 6.875 9.25 6.875 7 8 C4.6670134 8.04022391 2.33293334 8.04320247 0 8 C-1.125 5.6875 -1.125 5.6875 -2 3 C-1.34 2.01 -0.68 1.02 0 0 Z " fill="#3E525D" transform="translate(76,92)"/>
<path d="M0 0 C0.78375 0.04125 1.5675 0.0825 2.375 0.125 C1.199375 0.99125 1.199375 0.99125 0 1.875 C-2.42547244 3.95397637 -3.48194417 5.21540333 -4.625 8.125 C-4.75 5.25 -4.75 5.25 -4.625 2.125 C-2.625 0.125 -2.625 0.125 0 0 Z " fill="#6C705C" transform="translate(95.625,78.875)"/>
</svg>
