<?xml version="1.0" encoding="UTF-8"?>
<svg version="1.1" xmlns="http://www.w3.org/2000/svg" width="192" height="192">
<path d="M0 0 C0.91978638 -0.0099852 1.83957275 -0.0199704 2.78723145 -0.03025818 C4.72334347 -0.04534373 6.65953239 -0.05248697 8.59570312 -0.05200195 C11.49746843 -0.05851789 14.39571966 -0.11297364 17.296875 -0.16992188 C42.25908712 -0.3969128 63.06460758 9.45291916 81.03125 26.50390625 C97.67587499 43.23203271 108.64416798 64.48941093 108.77311707 88.24972534 C108.76028066 90.14875924 108.73706485 92.04775057 108.70361328 93.9465332 C108.65599239 96.83201545 108.66260082 99.71382708 108.67578125 102.59960938 C108.64532148 112.91082312 108.05703894 121.88664499 104.03125 131.50390625 C103.71285156 132.26646729 103.39445313 133.02902832 103.06640625 133.81469727 C102.17895845 135.79257792 101.22639528 137.70987139 100.21875 139.62890625 C99.70707275 140.62567383 99.70707275 140.62567383 99.18505859 141.64257812 C96.1654869 147.43323156 93.06738224 153.35511053 89.03125 158.50390625 C88.37125 158.50390625 87.71125 158.50390625 87.03125 158.50390625 C86.7940625 159.0659375 86.556875 159.62796875 86.3125 160.20703125 C84.74177303 163.02284667 82.81653536 164.98346041 80.53125 167.25390625 C79.34015625 168.45273437 79.34015625 168.45273437 78.125 169.67578125 C76.03125 171.50390625 76.03125 171.50390625 74.03125 171.50390625 C74.03125 172.16390625 74.03125 172.82390625 74.03125 173.50390625 C72.56933594 174.66137695 72.56933594 174.66137695 70.515625 175.9296875 C69.76474609 176.39439453 69.01386719 176.85910156 68.24023438 177.33789062 C67.02303711 178.06975586 67.02303711 178.06975586 65.78125 178.81640625 C64.95947266 179.31333984 64.13769531 179.81027344 63.29101562 180.32226562 C57.09265902 184.00633192 50.88078029 187.19669605 44.03125 189.50390625 C43.33139481 189.74766495 42.63153961 189.99142365 41.91047668 190.24256897 C35.7820405 192.25132155 30.31460245 192.9591883 23.88671875 192.9375 C22.95507401 192.94274185 22.02342926 192.9479837 21.06355286 192.9533844 C19.10642485 192.95976234 17.1492583 192.95852297 15.19213867 192.94995117 C12.236104 192.94145612 9.2820158 192.97023859 6.32617188 193.00195312 C-4.1494856 193.04199549 -13.19971845 192.6288105 -22.96875 188.50390625 C-23.7306665 188.1905835 -24.49258301 187.87726074 -25.27758789 187.55444336 C-27.25803929 186.68556256 -29.17452471 185.74995028 -31.09375 184.75390625 C-31.7655127 184.41029053 -32.43727539 184.0666748 -33.12939453 183.71264648 C-39.18391046 180.53485788 -44.66442479 176.825031 -49.96875 172.50390625 C-50.79632813 171.84003906 -51.62390625 171.17617187 -52.4765625 170.4921875 C-68.3519089 157.03049094 -81.6190792 136.82390721 -84.31033325 115.84063721 C-84.73436993 110.24713072 -84.7398781 104.66738138 -84.64111328 99.0612793 C-84.59349239 96.17579705 -84.60010082 93.29398542 -84.61328125 90.40820312 C-84.57278908 76.65111662 -82.51740551 65.48230477 -76.03125 53.19140625 C-75.68497559 52.51916016 -75.33870117 51.84691406 -74.98193359 51.15429688 C-72.5325463 46.44946539 -70.03854438 41.83773361 -66.96875 37.50390625 C-66.30875 37.50390625 -65.64875 37.50390625 -64.96875 37.50390625 C-64.56269531 36.62605469 -64.56269531 36.62605469 -64.1484375 35.73046875 C-54.94460492 18.35899666 -33.18674821 7.75239725 -15.39306641 1.96411133 C-10.19432189 0.42123949 -5.39967275 0.02109943 0 0 Z " fill="#4C3829" transform="translate(83.96875,-0.50390625)"/>
<path d="M0 0 C5.65694301 0.41415223 9.99836305 1.93586305 14.0625 6 C15.625 8.5625 15.625 8.5625 15.625 12.5625 C16.8625 12.624375 18.1 12.68625 19.375 12.75 C27.74518981 13.66239036 35.19393111 17.84696555 42.625 21.5625 C42.625 49.6125 42.625 77.6625 42.625 106.5625 C40.975 107.2225 39.325 107.8825 37.625 108.5625 C36.944375 109.09875 36.26375 109.635 35.5625 110.1875 C33.625 111.5625 33.625 111.5625 29.625 111.5625 C29.625 117.1725 29.625 122.7825 29.625 128.5625 C27.975 128.8925 26.325 129.2225 24.625 129.5625 C24.625 124.2825 24.625 119.0025 24.625 113.5625 C21.985 113.8925 19.345 114.2225 16.625 114.5625 C16.625 119.1825 16.625 123.8025 16.625 128.5625 C14.975 128.8925 13.325 129.2225 11.625 129.5625 C11.625 125.2725 11.625 120.9825 11.625 116.5625 C10.52285156 116.60890625 9.42070313 116.6553125 8.28515625 116.703125 C-5.7562061 117.10867423 -18.95198831 115.59439341 -31.375 108.5625 C-33.355 107.9025 -35.335 107.2425 -37.375 106.5625 C-37.375 78.5125 -37.375 50.4625 -37.375 21.5625 C-18.375 12.5625 -18.375 12.5625 -10.375 12.5625 C-10.2821875 11.263125 -10.2821875 11.263125 -10.1875 9.9375 C-8.79013335 4.13305391 -6.22483886 0.22307443 0 0 Z " fill="#F67054" transform="translate(93.375,29.4375)"/>
<path d="M0 0 C19.60094089 1.15299652 19.60094089 1.15299652 25.875 3.4375 C26.53628906 3.65470703 27.19757813 3.87191406 27.87890625 4.09570312 C30.91717313 5.12181151 33.31541839 6.21027893 36 8 C36.28654687 10.57318919 36.37852887 12.90497099 36.34057617 15.47900391 C36.34123329 16.6352401 36.34123329 16.6352401 36.34190369 17.81483459 C36.3398095 20.36899937 36.31644941 22.92251205 36.29296875 25.4765625 C36.28737502 27.24489992 36.28310387 29.01324197 36.28010559 30.78158569 C36.26863921 35.44076322 36.23915675 40.09966114 36.20599365 44.75872803 C36.1753313 49.51098854 36.16160847 54.26329413 36.14648438 59.015625 C36.11428866 68.34387299 36.06307078 77.67191327 36 87 C33.0173094 88.52448631 30.181798 89.93940067 27 91 C26.67 88.69 26.34 86.38 26 84 C25.01 84 24.02 84 23 84 C22.93941406 84.63808594 22.87882812 85.27617187 22.81640625 85.93359375 C22.69072266 87.17302734 22.69072266 87.17302734 22.5625 88.4375 C22.48128906 89.26121094 22.40007812 90.08492188 22.31640625 90.93359375 C22 93 22 93 21 94 C18.66702567 94.04092937 16.33294775 94.04241723 14 94 C14 90.37 14 86.74 14 83 C12.35 83 10.7 83 9 83 C9 86.96 9 90.92 9 95 C6.03 95 3.06 95 0 95 C0 84.77 0 74.54 0 64 C7.26 63.67 14.52 63.34 22 63 C22.66 61.35 23.32 59.7 24 58 C16.08 57.67 8.16 57.34 0 57 C0 38.19 0 19.38 0 0 Z " fill="#CE4F39" transform="translate(96,46)"/>
<path d="M0 0 C5.65694301 0.41415223 9.99836305 1.93586305 14.0625 6 C15.625 8.5625 15.625 8.5625 15.625 12.5625 C16.8625 12.624375 18.1 12.68625 19.375 12.75 C27.74518981 13.66239036 35.19393111 17.84696555 42.625 21.5625 C42.625 49.6125 42.625 77.6625 42.625 106.5625 C40.975 107.2225 39.325 107.8825 37.625 108.5625 C36.944375 109.09875 36.26375 109.635 35.5625 110.1875 C33.625 111.5625 33.625 111.5625 29.625 111.5625 C29.625 117.1725 29.625 122.7825 29.625 128.5625 C27.975 128.8925 26.325 129.2225 24.625 129.5625 C24.625 124.2825 24.625 119.0025 24.625 113.5625 C21.985 113.8925 19.345 114.2225 16.625 114.5625 C16.625 119.1825 16.625 123.8025 16.625 128.5625 C14.975 128.8925 13.325 129.2225 11.625 129.5625 C11.625 125.2725 11.625 120.9825 11.625 116.5625 C10.52285156 116.60890625 9.42070313 116.6553125 8.28515625 116.703125 C-5.7562061 117.10867423 -18.95198831 115.59439341 -31.375 108.5625 C-33.355 107.9025 -35.335 107.2425 -37.375 106.5625 C-37.375 78.5125 -37.375 50.4625 -37.375 21.5625 C-18.375 12.5625 -18.375 12.5625 -10.375 12.5625 C-10.2821875 11.263125 -10.2821875 11.263125 -10.1875 9.9375 C-8.79013335 4.13305391 -6.22483886 0.22307443 0 0 Z M-33.375 24.5625 C-33.47000548 27.02694057 -33.50057985 29.46324626 -33.48852539 31.92797852 C-33.48867142 32.69865662 -33.48881744 33.46933472 -33.4889679 34.2633667 C-33.4882686 36.82274139 -33.48047545 39.3820442 -33.47265625 41.94140625 C-33.47079213 43.71117615 -33.4693682 45.48094656 -33.46836853 47.25071716 C-33.46454288 51.91801366 -33.4547122 56.58527923 -33.44366455 61.25256348 C-33.43345144 66.01147035 -33.42887113 70.77038221 -33.42382812 75.52929688 C-33.41308997 84.87371153 -33.39601299 94.2181032 -33.375 103.5625 C-32.385 103.8925 -31.395 104.2225 -30.375 104.5625 C-29.9728125 105.03429687 -29.570625 105.50609375 -29.15625 105.9921875 C-26.46959719 108.36068406 -23.27810963 108.8772358 -19.875 109.6875 C-18.53109956 110.02283516 -17.18734397 110.35875149 -15.84375 110.6953125 C-14.6990625 110.98148437 -13.554375 111.26765625 -12.375 111.5625 C-10.89 112.0575 -10.89 112.0575 -9.375 112.5625 C-7.74780518 112.64393855 -6.11748281 112.6700302 -4.48828125 112.66015625 C-3.55048828 112.65693359 -2.61269531 112.65371094 -1.64648438 112.65039062 C-0.67001953 112.64201172 0.30644531 112.63363281 1.3125 112.625 C2.30056641 112.62048828 3.28863281 112.61597656 4.30664062 112.61132812 C6.74611958 112.5995432 9.18556741 112.58160783 11.625 112.5625 C11.625 108.2725 11.625 103.9825 11.625 99.5625 C13.275 99.5625 14.925 99.5625 16.625 99.5625 C16.625 103.1925 16.625 106.8225 16.625 110.5625 C18.95794775 110.60491723 21.29202567 110.60342937 23.625 110.5625 C25.20772601 108.97977399 24.97235747 107.18215997 25.1875 105 C25.27128906 104.17371094 25.35507813 103.34742188 25.44140625 102.49609375 C25.50199219 101.85800781 25.56257813 101.21992188 25.625 100.5625 C26.615 100.5625 27.605 100.5625 28.625 100.5625 C29.12 104.0275 29.12 104.0275 29.625 107.5625 C30.181875 107.27375 30.73875 106.985 31.3125 106.6875 C33.69614743 105.52788773 36.16384039 104.54696384 38.625 103.5625 C38.625 77.4925 38.625 51.4225 38.625 24.5625 C31.66849839 20.3388932 31.66849839 20.3388932 27.625 20.5625 C27.625 19.9025 27.625 19.2425 27.625 18.5625 C11.22985257 13.53625042 -19.95773066 11.14523066 -33.375 24.5625 Z " fill="#F0E8E6" transform="translate(93.375,29.4375)"/>
<path d="M0 0 C5.65694301 0.41415223 9.99836305 1.93586305 14.0625 6 C15.625 8.5625 15.625 8.5625 15.625 12.5625 C16.8625 12.624375 18.1 12.68625 19.375 12.75 C27.74518981 13.66239036 35.19393111 17.84696555 42.625 21.5625 C42.625 49.6125 42.625 77.6625 42.625 106.5625 C42.295 106.5625 41.965 106.5625 41.625 106.5625 C41.295 104.9125 40.965 103.2625 40.625 101.5625 C39.965 101.5625 39.305 101.5625 38.625 101.5625 C38.625 76.1525 38.625 50.7425 38.625 24.5625 C34.9691622 23.10016488 31.3622512 21.77927946 27.625 20.5625 C27.625 19.9025 27.625 19.2425 27.625 18.5625 C7.60971933 14.4717857 -15.10112772 14.57699312 -33.375 24.5625 C-33.705 23.2425 -34.035 21.9225 -34.375 20.5625 C-31.88443858 19.20840836 -29.38494955 17.87977848 -26.875 16.5625 C-26.17890625 16.1809375 -25.4828125 15.799375 -24.765625 15.40625 C-19.68778185 12.77329429 -16.08663116 12.15085091 -10.375 12.5625 C-10.2821875 11.263125 -10.2821875 11.263125 -10.1875 9.9375 C-8.79013335 4.13305391 -6.22483886 0.22307443 0 0 Z " fill="#E6E3E1" transform="translate(93.375,29.4375)"/>
<path d="M0 0 C10.07565853 0.50378293 18.06904483 4.53452241 27 9 C27 37.05 27 65.1 27 94 C26.67 94 26.34 94 26 94 C25.67 92.35 25.34 90.7 25 89 C24.34 89 23.68 89 23 89 C23 63.59 23 38.18 23 12 C19.3441622 10.53766488 15.7372512 9.21677946 12 8 C12 7.34 12 6.68 12 6 C4.21710403 4.40933513 -3.32329272 3.78542662 -11.25 3.75 C-12.07661133 3.74097656 -12.90322266 3.73195312 -13.75488281 3.72265625 C-18.73949247 3.74651557 -23.1762824 4.3317935 -27.98339844 5.66894531 C-30.27959101 6.04589896 -31.80200103 5.70390208 -34 5 C-26.8581847 1.70309764 -20.29625184 1.46242792 -12.5 1.3125 C-11.29601562 1.27833984 -10.09203125 1.24417969 -8.8515625 1.20898438 C-5.90113484 1.12702805 -2.95098484 1.05770616 0 1 C0 0.67 0 0.34 0 0 Z " fill="#E6D6D3" transform="translate(109,42)"/>
<path d="M0 0 C1.32 0 2.64 0 4 0 C4 27.06 4 54.12 4 82 C5.32 82.33 6.64 82.66 8 83 C8 83.99 8 84.98 8 86 C2.25 86.125 2.25 86.125 0 85 C0 56.95 0 28.9 0 0 Z " fill="#EFE2DE" transform="translate(56,51)"/>
<path d="M0 0 C5.94 0 11.88 0 18 0 C18 5.94 18 11.88 18 18 C12.06 18 6.12 18 0 18 C0 12.06 0 6.12 0 0 Z " fill="#FEFEFE" transform="translate(101,59)"/>
<path d="M0 0 C0.33 0 0.66 0 1 0 C1 26.4 1 52.8 1 80 C-6 84 -6 84 -11 85 C-11 90.61 -11 96.22 -11 102 C-13.475 102.495 -13.475 102.495 -16 103 C-16 97.39 -16 91.78 -16 86 C-16.66 85.67 -17.32 85.34 -18 85 C-17.505 84.01 -17.505 84.01 -17 83 C-16.77532169 81.46331135 -16.59203195 79.92031946 -16.4375 78.375 C-16.35371094 77.55773437 -16.26992187 76.74046875 -16.18359375 75.8984375 C-16.12300781 75.27195312 -16.06242187 74.64546875 -16 74 C-14.0625 73.4375 -14.0625 73.4375 -12 73 C-11 74 -11 74 -10.9375 77.5625 C-10.958125 78.696875 -10.97875 79.83125 -11 81 C-9.6078125 80.01 -9.6078125 80.01 -8.1875 79 C-5 77 -5 77 -2 77 C-2 76.34 -2 75.68 -2 75 C-1.34 75 -0.68 75 0 75 C0 50.25 0 25.5 0 0 Z " fill="#F2F0EF" transform="translate(134,56)"/>
<path d="M0 0 C15.18 0 30.36 0 46 0 C45.67 1.65 45.34 3.3 45 5 C29.82 5 14.64 5 -1 5 C-0.67 3.35 -0.34 1.7 0 0 Z " fill="#FAEBE8" transform="translate(74,104)"/>
<path d="M0 0 C0.33 0 0.66 0 1 0 C1 26.4 1 52.8 1 80 C-2.76687864 81.88343932 -4.02958963 82.22057835 -8 82 C-7.34 81.01 -6.68 80.02 -6 79 C-5.01 79 -4.02 79 -3 79 C-2.67 77.68 -2.34 76.36 -2 75 C-1.34 75 -0.68 75 0 75 C0 50.25 0 25.5 0 0 Z " fill="#FDFDFD" transform="translate(134,56)"/>
<path d="M0 0 C5.94 0 11.88 0 18 0 C18 5.94 18 11.88 18 18 C12.06 18 6.12 18 0 18 C0 12.06 0 6.12 0 0 Z M2 2 C2 6.95 2 11.9 2 17 C6.95 17 11.9 17 17 17 C17 12.05 17 7.1 17 2 C12.05 2 7.1 2 2 2 Z " fill="#EDC3BC" transform="translate(101,59)"/>
<path d="M0 0 C2.4375 1.3125 2.4375 1.3125 4 3 C4 3.99 4 4.98 4 6 C-0.95 6 -5.9 6 -11 6 C-9.37304347 -0.50782611 -6.13043691 -0.53775762 0 0 Z " fill="#6B5A4D" transform="translate(99,35)"/>
<path d="M0 0 C0.66 0.33 1.32 0.66 2 1 C-3.94 6.94 -9.88 12.88 -16 19 C-16.66 18.67 -17.32 18.34 -18 18 C-6.66287016 5.33029613 -6.66287016 5.33029613 0 0 Z " fill="#362116" transform="translate(37,17)"/>
<path d="M0 0 C1.06089844 0.01353516 2.12179688 0.02707031 3.21484375 0.04101562 C5.81043687 0.07609121 8.40494067 0.12524156 11 0.1875 C11 0.5175 11 0.8475 11 1.1875 C9.80503906 1.23648438 8.61007813 1.28546875 7.37890625 1.3359375 C-2.57935597 1.66746713 -2.57935597 1.66746713 -12.375 3.3125 C-15.81472567 4.14277861 -16.822028 4.18149124 -20 3.1875 C-13.18435497 0.06639332 -7.43258975 -0.18139612 0 0 Z " fill="#F7BBB0" transform="translate(95,43.8125)"/>
<path d="M0 0 C0 0.33 0 0.66 0 1 C-1.72681437 1.50806447 -3.45657979 2.00610467 -5.1875 2.5 C-6.63189453 2.91765625 -6.63189453 2.91765625 -8.10546875 3.34375 C-10.85345876 3.96677608 -13.19598416 4.12302812 -16 4 C-10.09487017 -0.63974487 -7.38668748 -1.23111458 0 0 Z " fill="#FBF3F1" transform="translate(82,45)"/>
<path d="M0 0 C0.66 0.33 1.32 0.66 2 1 C2 1.66 2 2.32 2 3 C3.32 3.33 4.64 3.66 6 4 C6 4.99 6 5.98 6 7 C1.25 6.125 1.25 6.125 -1 5 C-0.67 3.35 -0.34 1.7 0 0 Z " fill="#FAEBE7" transform="translate(58,130)"/>
<path d="M0 0 C-2.91403262 1.94268841 -5.85808576 3.46395304 -9 5 C-9.33 3.68 -9.66 2.36 -10 1 C-6.1496895 -1.56687367 -4.41430237 -0.83288724 0 0 Z " fill="#F2E7E4" transform="translate(69,49)"/>
<path d="M0 0 C0 0.66 0 1.32 0 2 C-1.98 2.99 -1.98 2.99 -4 4 C-3.01 4.66 -2.02 5.32 -1 6 C-4 8 -4 8 -6.1875 7.625 C-6.785625 7.41875 -7.38375 7.2125 -8 7 C-7.34 7 -6.68 7 -6 7 C-6 6.34 -6 5.68 -6 5 C-6.66 4.67 -7.32 4.34 -8 4 C-2.25 0 -2.25 0 0 0 Z " fill="#DAC2BD" transform="translate(131,133)"/>
<path d="M0 0 C1.18851563 0.28746094 2.37703125 0.57492188 3.6015625 0.87109375 C4.51679687 1.09925781 5.43203125 1.32742187 6.375 1.5625 C2.70433422 2.64304231 0.13727546 2.21680878 -3.625 1.5625 C-4.615 2.0575 -4.615 2.0575 -5.625 2.5625 C-6.615 1.5725 -7.605 0.5825 -8.625 -0.4375 C-5.54978317 -1.97510842 -3.27824882 -0.80349236 0 0 Z " fill="#F3D7D1" transform="translate(70.625,137.4375)"/>
<path d="M0 0 C3.63 0.66 7.26 1.32 11 2 C10.67 2.66 10.34 3.32 10 4 C7.25 4.25 7.25 4.25 4 4 C1.625 2 1.625 2 0 0 Z " fill="#F3F0EF" transform="translate(66,138)"/>
<path d="M0 0 C0.33 0.99 0.66 1.98 1 3 C1.66 3.66 2.32 4.32 3 5 C-0.13498292 6.85776765 -2.37471432 7.20140476 -6 7 C-5.34 6.01 -4.68 5.02 -4 4 C-3.01 4 -2.02 4 -1 4 C-0.67 2.68 -0.34 1.36 0 0 Z " fill="#F2EDEC" transform="translate(132,131)"/>
<path d="M0 0 C0.80050781 0.12761719 1.60101563 0.25523438 2.42578125 0.38671875 C3.23402344 0.50660156 4.04226562 0.62648437 4.875 0.75 C5.48988281 0.85699219 6.10476562 0.96398438 6.73828125 1.07421875 C6.73828125 1.40421875 6.73828125 1.73421875 6.73828125 2.07421875 C4.75828125 2.07421875 2.77828125 2.07421875 0.73828125 2.07421875 C0.73828125 2.73421875 0.73828125 3.39421875 0.73828125 4.07421875 C-2.23171875 3.57921875 -2.23171875 3.57921875 -5.26171875 3.07421875 C-3.53640014 0.90221572 -2.83921072 0.09316926 0 0 Z " fill="#E0D4D1" transform="translate(111.26171875,41.92578125)"/>
<path d="M0 0 C1.98 0.495 1.98 0.495 4 1 C4 3.31 4 5.62 4 8 C3.67 8 3.34 8 3 8 C2.67 6.35 2.34 4.7 2 3 C1.01 3.66 0.02 4.32 -1 5 C-0.67 3.35 -0.34 1.7 0 0 Z " fill="#F3D7D2" transform="translate(119,129)"/>
<path d="M0 0 C2.875 -0.1875 2.875 -0.1875 6 0 C6.66 0.99 7.32 1.98 8 3 C2.25 3.125 2.25 3.125 0 2 C0 1.34 0 0.68 0 0 Z " fill="#F9F3F2" transform="translate(112,44)"/>
</svg>
