<?xml version="1.0" encoding="UTF-8"?>
<svg version="1.1" xmlns="http://www.w3.org/2000/svg" width="192" height="192">
<path d="M0 0 C0.69802231 -0.00540298 1.39604462 -0.01080597 2.11521912 -0.01637268 C4.41700956 -0.02885613 6.71754833 -0.01237487 9.01928711 0.00561523 C10.62064174 0.00546025 12.22199675 0.00397142 13.823349 0.00120544 C17.17667252 -0.0001783 20.52956818 0.01237639 23.8828125 0.03515625 C28.18278816 0.06356413 32.4820542 0.06079722 36.78208256 0.04806614 C40.08749971 0.0411148 43.39275255 0.04889154 46.69814873 0.06132317 C48.28379118 0.06584138 49.86945124 0.06617123 51.45509529 0.06225777 C53.66965091 0.0593502 55.88322466 0.07582822 58.09765625 0.09765625 C59.98817467 0.10576073 59.98817467 0.10576073 61.91688538 0.11402893 C64.98413086 0.50170898 64.98413086 0.50170898 66.89324951 1.78765869 C68.86345673 4.88335216 68.34454103 8.55423216 68.27709961 12.10717773 C68.27285477 12.9463826 68.26860992 13.78558746 68.26423645 14.65022278 C68.2474455 17.33021143 68.20979316 20.00944768 68.17163086 22.68920898 C68.15658453 24.50625541 68.14289603 26.32331363 68.13061523 28.14038086 C68.09754068 32.59444674 68.04575599 37.0479503 67.98413086 41.50170898 C68.61195969 41.49504715 69.23978851 41.48838531 69.88664246 41.48152161 C76.42405067 41.41512516 82.961363 41.36989036 89.49902344 41.33691406 C91.93851614 41.32183244 94.37798176 41.30136429 96.81738281 41.27539062 C100.32485645 41.23898086 103.8319714 41.22197609 107.33959961 41.20874023 C108.42935593 41.19325638 109.51911224 41.17777252 110.64189148 41.16181946 C120.01339494 41.15973897 120.01339494 41.15973897 123.98413086 44.50170898 C125.72773288 46.24531101 125.12542322 48.65175756 125.13803101 51.02388 C125.14663147 52.22269806 125.15523193 53.42151611 125.16409302 54.65666199 C125.16852863 55.99734454 125.17282695 57.33802755 125.17700195 58.67871094 C125.18489973 60.08121953 125.19316847 61.48372609 125.20178223 62.88623047 C125.22804092 67.50413054 125.2433141 72.12203986 125.25756836 76.73999023 C125.26292654 78.32761326 125.26830404 79.91523622 125.27370071 81.50285912 C125.29533547 88.10564671 125.31407314 94.70843182 125.3253231 101.31124592 C125.34156763 110.78431834 125.37475034 120.25698088 125.43172395 129.72989875 C125.47038794 136.38470355 125.48995159 143.03939856 125.49524367 149.69431275 C125.49890219 153.67184019 125.51097536 157.64893089 125.54334641 161.62633705 C125.5733652 165.36848236 125.57976163 169.10992529 125.56796265 172.85216522 C125.56774138 174.22602388 125.57609041 175.59991454 125.59361649 176.97366142 C125.6162342 178.84850027 125.60505137 180.72365627 125.59213257 182.59858704 C125.59709779 184.17290481 125.59709779 184.17290481 125.60216331 185.77902699 C124.98413086 188.50170898 124.98413086 188.50170898 122.91344643 190.8389082 C119.35604374 192.85823724 116.48856852 193.06111779 112.50708008 193.00964355 C111.76312925 193.01588352 111.01917843 193.02212348 110.25268364 193.02855253 C107.76440439 193.04448406 105.27710455 193.03187829 102.78881836 193.01928711 C101.00310699 193.02470818 99.21740009 193.03183075 97.43170166 193.04052734 C92.58459766 193.05876546 87.73783415 193.05169114 82.89072418 193.039011 C77.81882304 193.02888589 72.74695111 193.03827532 67.67504883 193.04455566 C59.1575802 193.05183349 50.6402503 193.04224081 42.12280273 193.02319336 C32.27462332 193.00142438 22.42677514 193.00847566 12.57860374 193.03049898 C4.12411348 193.04864912 -4.33027705 193.05121319 -12.7847805 193.0407443 C-17.83470464 193.03450726 -22.88447307 193.03367958 -27.93438721 193.04689026 C-32.68199423 193.05844248 -37.42917407 193.05043449 -42.17673492 193.02731323 C-43.91941875 193.02202279 -45.6621385 193.02354567 -47.40480804 193.03236389 C-49.78329728 193.04329011 -52.16041651 193.02959264 -54.53881836 193.00964355 C-55.22899614 193.01856644 -55.91917393 193.02748933 -56.63026619 193.03668261 C-59.9846026 192.98208471 -62.01024536 192.5049038 -64.94434357 190.83806705 C-67.5479582 187.90159544 -67.63997572 186.50094319 -67.6373291 182.61204529 C-67.6541423 180.80546448 -67.6541423 180.80546448 -67.67129517 178.96238708 C-67.65803192 177.64432571 -67.64476868 176.32626434 -67.63110352 174.96826172 C-67.6346051 173.56368337 -67.64026411 172.15910898 -67.6479187 170.75454712 C-67.66217017 166.94245734 -67.64510324 163.13108856 -67.62163353 159.31906772 C-67.60153478 155.33129052 -67.6074035 151.34354354 -67.60974121 147.35572815 C-67.60968763 140.65988258 -67.58992671 133.96431917 -67.55786133 127.26855469 C-67.52095314 119.52381364 -67.51218773 111.77944203 -67.51915884 104.03462452 C-67.52546022 96.58723672 -67.51471734 89.1399758 -67.49519348 81.6926136 C-67.48701205 78.52160906 -67.48431128 75.35066929 -67.48588562 72.17965508 C-67.48676347 68.44737673 -67.47257579 64.71545041 -67.44665909 60.98326492 C-67.43948689 59.61225274 -67.43741874 58.24120314 -67.44077682 56.87017632 C-67.44448121 55.00155657 -67.42792822 53.13292909 -67.41027832 51.26438904 C-67.40654961 50.21781852 -67.40282089 49.171248 -67.39897919 48.09296322 C-67.01586914 45.50170898 -67.01586914 45.50170898 -65.67871857 43.70404148 C-62.5730102 41.45844183 -59.78113942 41.37887455 -56.08544922 41.38818359 C-55.08463821 41.38825912 -54.08382721 41.38833466 -53.0526886 41.38841248 C-51.97448349 41.39357376 -50.89627838 41.39873505 -49.78540039 41.40405273 C-48.67984299 41.40546768 -47.57428558 41.40688263 -46.43522644 41.40834045 C-42.89957997 41.41394385 -39.36399652 41.42649694 -35.82836914 41.43920898 C-33.43318776 41.44422355 -31.03800539 41.44878653 -28.64282227 41.45288086 C-22.76714967 41.46391438 -16.89151391 41.48065583 -11.01586914 41.50170898 C-11.03681641 40.40181641 -11.05776367 39.30192383 -11.0793457 38.16870117 C-11.15180549 34.08371017 -11.19769029 29.99877585 -11.2355957 25.91333008 C-11.25569765 24.14598027 -11.28298386 22.37869685 -11.31762695 20.61157227 C-11.36620923 18.06957613 -11.3888514 15.52846002 -11.40649414 12.98608398 C-11.42713928 12.19739929 -11.44778442 11.4087146 -11.46905518 10.59613037 C-11.47041474 7.26402385 -11.4033022 5.04008457 -9.42597961 2.29240417 C-6.16310405 -0.1318895 -4.04473053 0.00053293 0 0 Z M7.98413086 18.50170898 C7.98413086 26.09170898 7.98413086 33.68170898 7.98413086 41.50170898 C22.17413086 41.50170898 36.36413086 41.50170898 50.98413086 41.50170898 C50.98413086 33.91170898 50.98413086 26.32170898 50.98413086 18.50170898 C36.79413086 18.50170898 22.60413086 18.50170898 7.98413086 18.50170898 Z " fill="#030406" transform="translate(67.015869140625,-0.501708984375)"/>
<path d="M0 0 C29.37 0 58.74 0 89 0 C89 41.91 89 83.82 89 127 C59.63 127 30.26 127 0 127 C0 85.09 0 43.18 0 0 Z " fill="#7AADED" transform="translate(51,47)"/>
<path d="M0 0 C6.6 0 13.2 0 20 0 C21.70597818 1.70597818 21.12609838 3.90633088 21.12698364 6.23864746 C21.12980347 7.37448776 21.13262329 8.51032806 21.13552856 9.68058777 C21.13350433 10.93777115 21.1314801 12.19495453 21.12939453 13.49023438 C21.13114685 14.80550613 21.13289917 16.12077789 21.13470459 17.47590637 C21.13927865 21.09357682 21.13748948 24.71121888 21.1343255 28.32888985 C21.13180176 32.10675256 21.13413948 35.88461278 21.13571167 39.66247559 C21.13753332 46.00789834 21.13512717 52.35330948 21.13037109 58.69873047 C21.12492848 66.04516643 21.12669114 73.39157464 21.1321975 80.73800993 C21.13672875 87.03438667 21.13737912 93.33075504 21.13475883 99.62713289 C21.13319612 103.3925551 21.13300212 107.15796424 21.13629532 110.92338562 C21.13970802 115.11886247 21.13498411 119.31429113 21.12939453 123.50976562 C21.13141876 124.76694901 21.13344299 126.02413239 21.13552856 127.31941223 C21.13129883 129.02317268 21.13129883 129.02317268 21.12698364 130.76135254 C21.12660662 131.75466835 21.12622959 132.74798416 21.12584114 133.77140045 C21 136 21 136 20 137 C18.5112814 137.08669432 17.018555 137.10703494 15.52734375 137.09765625 C14.62822266 137.09443359 13.72910156 137.09121094 12.80273438 137.08789062 C11.85720703 137.07951172 10.91167969 137.07113281 9.9375 137.0625 C8.98810547 137.05798828 8.03871094 137.05347656 7.06054688 137.04882812 C4.70696935 137.0370011 2.35351523 137.02052025 0 137 C0 135.35 0 133.7 0 132 C3.96 131.67 7.92 131.34 12 131 C12.495 129.02 12.495 129.02 13 127 C9.89982079 123.89982079 4.36917099 125.36409758 0 125 C0 83.75 0 42.5 0 0 Z " fill="#7BAFF0" transform="translate(165,48)"/>
<path d="M0 0 C6.27 0 12.54 0 19 0 C19 41.58 19 83.16 19 126 C14.71 126 10.42 126 6 126 C6.495 128.475 6.495 128.475 7 131 C10.96 131.33 14.92 131.66 19 132 C19 133.65 19 135.3 19 137 C15.85418577 137.02888514 12.70840531 137.04675923 9.5625 137.0625 C8.66466797 137.07087891 7.76683594 137.07925781 6.84179688 137.08789062 C5.98779297 137.09111328 5.13378906 137.09433594 4.25390625 137.09765625 C3.46314697 137.10289307 2.6723877 137.10812988 1.85766602 137.11352539 C-0 137 -0 137 -1 136 C-1.09847473 134.25604929 -1.12632065 132.50808117 -1.12698364 130.76135254 C-1.12980347 129.62551224 -1.13262329 128.48967194 -1.13552856 127.31941223 C-1.13350433 126.06222885 -1.1314801 124.80504547 -1.12939453 123.50976562 C-1.13114685 122.19449387 -1.13289917 120.87922211 -1.13470459 119.52409363 C-1.13927865 115.90642318 -1.13748948 112.28878112 -1.1343255 108.67111015 C-1.13180176 104.89324744 -1.13413948 101.11538722 -1.13571167 97.33752441 C-1.13753332 90.99210166 -1.13512717 84.64669052 -1.13037109 78.30126953 C-1.12492848 70.95483357 -1.12669114 63.60842536 -1.1321975 56.26199007 C-1.13672875 49.96561333 -1.13737912 43.66924496 -1.13475883 37.37286711 C-1.13319612 33.6074449 -1.13300212 29.84203576 -1.13629532 26.07661438 C-1.13970802 21.88113753 -1.13498411 17.68570887 -1.12939453 13.49023438 C-1.13141876 12.23305099 -1.13344299 10.97586761 -1.13552856 9.68058777 C-1.13270874 8.54474747 -1.12988892 7.40890717 -1.12698364 6.23864746 C-1.12660662 5.24533165 -1.12622959 4.25201584 -1.12584114 3.22859955 C-1 1 -1 1 0 0 Z " fill="#7BAFEF" transform="translate(7,48)"/>
<path d="M0 0 C4.62 0 9.24 0 14 0 C14 45.54 14 91.08 14 138 C9.38 138 4.76 138 0 138 C0 92.46 0 46.92 0 0 Z " fill="#3E6EAA" transform="translate(145,47)"/>
<path d="M0 0 C4.29 0 8.58 0 13 0 C13 45.54 13 91.08 13 138 C8.71 138 4.42 138 0 138 C0 92.46 0 46.92 0 0 Z " fill="#4274B3" transform="translate(32,47)"/>
<path d="M0 0 C21.78 0 43.56 0 66 0 C66 11.22 66 22.44 66 34 C64.68 34 63.36 34 62 34 C61.67 24.76 61.34 15.52 61 6 C42.85 6 24.7 6 6 6 C5.67 15.24 5.34 24.48 5 34 C3.35 34 1.7 34 0 34 C0 22.78 0 11.56 0 0 Z " fill="#77A9E7" transform="translate(63,7)"/>
<path d="M0 0 C29.04 0 58.08 0 88 0 C88 1.65 88 3.3 88 5 C58.96 5 29.92 5 0 5 C0 3.35 0 1.7 0 0 Z " fill="#7AAEEE" transform="translate(51,180)"/>
</svg>
