<?xml version="1.0" encoding="UTF-8"?>
<svg version="1.1" xmlns="http://www.w3.org/2000/svg" width="192" height="192">
<path d="M0 0 C1.21726776 -0.00525696 2.43453552 -0.01051392 3.68869019 -0.01593018 C7.00702891 -0.02682642 10.32480205 -0.02433629 13.64310837 -0.01479292 C17.12804634 -0.00715769 20.61296139 -0.0142526 24.09790039 -0.01895142 C29.94844869 -0.02439778 35.79888309 -0.01724687 41.64941406 -0.00292969 C48.39779698 0.01339476 55.14590791 0.00810545 61.89428425 -0.0084089 C67.70516176 -0.0220558 73.51595775 -0.02392784 79.32684612 -0.0160929 C82.79005575 -0.01143392 86.25313785 -0.01074227 89.71633911 -0.02070236 C93.5792281 -0.03103743 97.44181639 -0.0166824 101.3046875 0 C103.00998123 -0.00910904 103.00998123 -0.00910904 104.74972534 -0.0184021 C112.03576975 0.03976604 118.60602727 0.34186712 124.02734375 5.76318359 C126.97875588 10.53084934 127.90089363 14.16617106 127.84765625 19.78271484 C127.83798828 21.58579102 127.83798828 21.58579102 127.828125 23.42529297 C127.80298828 25.29411133 127.80298828 25.29411133 127.77734375 27.20068359 C127.76832031 28.46589844 127.75929687 29.73111328 127.75 31.03466797 C127.72646769 34.15269923 127.6935892 37.27034457 127.65234375 40.38818359 C127.03818604 40.57501709 126.42402832 40.76185059 125.79125977 40.9543457 C124.98358154 41.20966064 124.17590332 41.46497559 123.34375 41.72802734 C122.54396729 41.97673584 121.74418457 42.22544434 120.92016602 42.48168945 C117.13956455 43.99287185 115.630423 45.87868815 113.65234375 49.38818359 C112.63223739 54.5730217 112.98663173 58.20708163 115.58984375 62.82568359 C118.44055407 65.21097182 119.92122 65.98403541 123.34375 67.04833984 C124.15142822 67.30365479 124.95910645 67.55896973 125.79125977 67.82202148 C126.40541748 68.00885498 127.0195752 68.19568848 127.65234375 68.38818359 C127.76930875 72.72128687 127.83985265 77.05397939 127.90234375 81.38818359 C127.93585938 82.60892578 127.969375 83.82966797 128.00390625 85.08740234 C128.08254633 92.36160989 127.7097283 97.2656195 123.65234375 103.38818359 C118.63758905 107.46267179 114.761251 108.50808269 108.44171143 108.52862549 C106.86053024 108.5371907 106.86053024 108.5371907 105.24740601 108.54592896 C104.09616241 108.54704681 102.94491882 108.54816467 101.75878906 108.54931641 C99.93376358 108.55676376 99.93376358 108.55676376 98.0718689 108.56436157 C94.73694818 108.57645936 91.40209008 108.58392567 88.06715488 108.58837223 C85.98123722 108.59130751 83.89532501 108.59541321 81.8094101 108.5998764 C75.27616695 108.6135455 68.7429363 108.62321464 62.20967984 108.62707829 C54.6809734 108.6315557 47.15244882 108.64909115 39.62379766 108.67807889 C33.7960356 108.69973468 27.96832456 108.70978467 22.14052272 108.71111941 C18.66381375 108.71216479 15.18727586 108.71801518 11.71060944 108.73593903 C7.82817288 108.75556583 3.94596143 108.75111521 0.06347656 108.74462891 C-1.65124344 108.75845108 -1.65124344 108.75845108 -3.40060425 108.77255249 C-10.10263985 108.73751902 -16.45113179 108.51833652 -21.91860867 104.12620735 C-25.56112309 100.31037564 -25.94154786 97.13253755 -25.8359375 92.02099609 C-25.82886276 91.34140839 -25.82178802 90.66182068 -25.8144989 89.9616394 C-25.78671772 87.81098899 -25.72402513 85.66303403 -25.66015625 83.51318359 C-25.63505166 82.04707562 -25.61224227 80.58092644 -25.59179688 79.11474609 C-25.53694913 75.53836336 -25.45079755 71.96353696 -25.34765625 68.38818359 C-24.79843506 68.2013501 -24.24921387 68.0145166 -23.68334961 67.82202148 C-22.96284424 67.56670654 -22.24233887 67.3113916 -21.5 67.04833984 C-20.78577881 66.79963135 -20.07155762 66.55092285 -19.33569336 66.29467773 C-15.77286169 64.6701175 -14.04644801 61.78576711 -12.34765625 58.38818359 C-11.95534208 53.6804136 -11.87428867 51.31738663 -14.03515625 47.07568359 C-17.3747656 43.19451598 -20.43505855 41.5226606 -25.34765625 40.38818359 C-25.47184383 36.08326897 -25.56226627 31.77932009 -25.62231445 27.47314453 C-25.64736154 26.01039453 -25.68141017 24.54776848 -25.72485352 23.08544922 C-25.78594981 20.9751114 -25.8139606 18.86643608 -25.8359375 16.75537109 C-25.86212158 15.48806152 -25.88830566 14.22075195 -25.9152832 12.91503906 C-25.2213297 8.60327466 -23.69890031 6.07961302 -20.34765625 3.38818359 C-13.53532789 0.10325109 -7.48267886 -0.03996966 0 0 Z " fill="#EE952E" transform="translate(25.34765625,41.61181640625)"/>
<path d="M0 0 C1.40101483 0.02808036 2.80205825 0.05476563 4.203125 0.0801239 C7.86622841 0.15012959 11.52863771 0.23891394 15.19122314 0.33178711 C18.93844239 0.42342359 22.6860114 0.49722984 26.43359375 0.57226562 C33.76888134 0.72043275 41.10261794 0.89806273 48.4375 1.07421875 C48.4375 10.64421875 48.4375 20.21421875 48.4375 30.07421875 C43.29427756 28.78841314 41.09401442 25.79804197 37.76757812 21.93554688 C35.05315926 19.00612454 33.7359249 18.10671738 29.70703125 17.66796875 C26.54785859 17.86314155 26.54785859 17.86314155 24.4375 19.13671875 C23.20710342 21.52061213 23.04373586 23.38859688 23.51171875 26.02734375 C25.24195101 29.85283617 28.45636969 32.4488414 31.50390625 35.25390625 C32.14199219 35.85460937 32.78007813 36.4553125 33.4375 37.07421875 C33.4375 37.40421875 33.4375 37.73421875 33.4375 38.07421875 C32.40109375 38.13480469 31.3646875 38.19539063 30.296875 38.2578125 C28.92707127 38.34225246 27.55728025 38.42689872 26.1875 38.51171875 C25.50558594 38.55103516 24.82367188 38.59035156 24.12109375 38.63085938 C20.79301959 38.84088347 17.63494598 39.09355877 14.4375 40.07421875 C14.35618537 41.51077729 14.29816441 42.94866705 14.25 44.38671875 C14.21519531 45.18722656 14.18039063 45.98773438 14.14453125 46.8125 C14.25638086 49.0960001 14.25638086 49.0960001 15.609375 50.68359375 C18.10780552 52.58410928 19.86136612 52.50342156 22.98046875 52.5859375 C24.05361328 52.62138672 25.12675781 52.65683594 26.23242188 52.69335938 C27.35197266 52.71591797 28.47152344 52.73847656 29.625 52.76171875 C30.75615234 52.79587891 31.88730469 52.83003906 33.05273438 52.86523438 C35.8475574 52.94778189 38.64206398 53.01691057 41.4375 53.07421875 C41.4375 56.04421875 41.4375 59.01421875 41.4375 62.07421875 C40.7261792 62.0992749 40.0148584 62.12433105 39.28198242 62.15014648 C36.06280483 62.26610314 32.84392015 62.3888312 29.625 62.51171875 C28.50544922 62.55103516 27.38589844 62.59035156 26.23242188 62.63085938 C25.15927734 62.67275391 24.08613281 62.71464844 22.98046875 62.7578125 C21.4958313 62.81279907 21.4958313 62.81279907 19.98120117 62.86889648 C17.3156649 62.98212206 17.3156649 62.98212206 14.4375 64.07421875 C14.38350264 65.53214759 14.34470823 66.99064587 14.3125 68.44921875 C14.28929687 69.26132813 14.26609375 70.0734375 14.2421875 70.91015625 C14.22379949 73.28764118 14.22379949 73.28764118 16.4375 75.07421875 C19.0557767 75.44594891 19.0557767 75.44594891 22.1015625 75.48828125 C23.78378906 75.54628906 23.78378906 75.54628906 25.5 75.60546875 C26.675625 75.63640625 27.85125 75.66734375 29.0625 75.69921875 C30.24585938 75.73789063 31.42921875 75.7765625 32.6484375 75.81640625 C35.57796691 75.9109072 38.50748597 75.99646433 41.4375 76.07421875 C41.51206421 77.21963135 41.51206421 77.21963135 41.58813477 78.38818359 C41.70112915 79.88406006 41.70112915 79.88406006 41.81640625 81.41015625 C41.88674072 82.40063965 41.9570752 83.39112305 42.02954102 84.41162109 C42.2532469 87.25050277 42.2532469 87.25050277 44.375 89.69921875 C46.37806669 91.09618323 46.37806669 91.09618323 48.4375 92.07421875 C48.4375 97.02421875 48.4375 101.97421875 48.4375 107.07421875 C40.3617476 107.27325426 32.28602433 107.45872306 24.2094574 107.62080669 C20.45856073 107.69661334 16.70798054 107.77818956 12.95751953 107.87329102 C9.33320606 107.96497574 5.70886033 108.04106091 2.08398438 108.10666847 C0.70609467 108.13428534 -0.67169734 108.16737437 -2.04931641 108.206213 C-18.1581377 108.65233787 -18.1581377 108.65233787 -24.13298035 103.7983551 C-26.67196325 101.16466399 -27.55190447 99.1400523 -28.13012695 95.54736328 C-28.10394287 94.28005371 -28.07775879 93.01274414 -28.05078125 91.70703125 C-28.04370651 91.02744354 -28.03663177 90.34785583 -28.02934265 89.64767456 C-28.00156147 87.49702414 -27.93886888 85.34906918 -27.875 83.19921875 C-27.84989541 81.73311078 -27.82708602 80.2669616 -27.80664062 78.80078125 C-27.75179288 75.22439852 -27.6656413 71.64957211 -27.5625 68.07421875 C-27.01327881 67.88738525 -26.46405762 67.70055176 -25.89819336 67.50805664 C-25.17768799 67.2527417 -24.45718262 66.99742676 -23.71484375 66.734375 C-23.00062256 66.4856665 -22.28640137 66.23695801 -21.55053711 65.98071289 C-17.98770544 64.35615266 -16.26129176 61.47180226 -14.5625 58.07421875 C-14.17018583 53.36644875 -14.08913242 51.00342178 -16.25 46.76171875 C-19.58960935 42.88055113 -22.6499023 41.20869576 -27.5625 40.07421875 C-27.68668758 35.76930412 -27.77711002 31.46535525 -27.8371582 27.15917969 C-27.86220529 25.69642968 -27.89625392 24.23380363 -27.93969727 22.77148438 C-28.00079356 20.66114656 -28.02880435 18.55247123 -28.05078125 16.44140625 C-28.07696533 15.17409668 -28.10314941 13.90678711 -28.13012695 12.60107422 C-27.43397076 8.27562371 -25.90228821 5.7874742 -22.5625 3.07421875 C-15.37089724 -0.8792018 -8.01308483 -0.22590946 0 0 Z " fill="#F4B045" transform="translate(27.5625,41.92578125)"/>
<path d="M0 0 C2.59031018 1.86653624 4.59834271 4.16108432 6.6875 6.5625 C7.78355927 7.8036821 8.89118399 9.03477509 10.01171875 10.25390625 C10.49084717 10.80377197 10.96997559 11.3536377 11.46362305 11.92016602 C12.96414254 13.22088049 12.96414254 13.22088049 15.01635742 12.82592773 C18.2039704 11.49870377 20.29842704 8.96965097 22.625 6.5 C28.76036795 0.09015506 28.76036795 0.09015506 33.4375 -0.25 C37 0 37 0 38.9375 1.0625 C40.73584842 4.34184124 40.60523685 6.30805523 40 10 C37.94757585 12.96104942 35.56340473 15.47719218 33 18 C32.34 18.66 31.68 19.32 31 20 C32.42892578 20.03867188 32.42892578 20.03867188 33.88671875 20.078125 C35.14097656 20.13484375 36.39523438 20.1915625 37.6875 20.25 C38.92886719 20.29640625 40.17023438 20.3428125 41.44921875 20.390625 C45.47134651 21.08089115 47.19559015 22.07457434 50 25 C50.625 28.5 50.625 28.5 50 32 C47.75781322 34.74315259 45.96912049 35.88051939 42.43359375 36.31640625 C39.34210583 36.39410237 36.27833054 36.34818154 33.1875 36.25 C32.11306641 36.23195312 31.03863281 36.21390625 29.93164062 36.1953125 C27.28684535 36.14829392 24.64388411 36.0825916 22 36 C22 38.97 22 41.94 22 45 C22.6705542 44.97905273 23.3411084 44.95810547 24.03198242 44.93652344 C27.0836678 44.85313973 30.13511317 44.80126984 33.1875 44.75 C34.77014648 44.69972656 34.77014648 44.69972656 36.38476562 44.6484375 C44.19489585 44.54988696 44.19489585 44.54988696 48.20703125 46.79296875 C50 49 50 49 50.5 52.5625 C50 56 50 56 48.82885742 57.6965332 C46.24530001 59.53789124 44.38819479 59.34093698 41.23828125 59.29296875 C40.12001953 59.28330078 39.00175781 59.27363281 37.84960938 59.26367188 C36.68236328 59.23853516 35.51511719 59.21339844 34.3125 59.1875 C33.13365234 59.17396484 31.95480469 59.16042969 30.74023438 59.14648438 C27.82636589 59.11109326 24.91341055 59.06171809 22 59 C22.01812744 59.7628833 22.03625488 60.5257666 22.05493164 61.31176758 C22.06903076 62.30845459 22.08312988 63.3051416 22.09765625 64.33203125 C22.11578369 65.32178955 22.13391113 66.31154785 22.15258789 67.33129883 C22 70 22 70 20.4375 72.6875 C17.04833828 74.51243324 14.78703318 74.55084119 11 74 C8.69842598 71.7406567 8.04502105 70.42980099 7.70703125 67.203125 C7.74183594 66.22859375 7.77664062 65.2540625 7.8125 64.25 C7.83957031 63.26515625 7.86664063 62.2803125 7.89453125 61.265625 C7.92933594 60.51796875 7.96414062 59.7703125 8 59 C7.25838623 59.01571045 6.51677246 59.0314209 5.75268555 59.04760742 C2.39770104 59.10990714 -0.95716186 59.14897507 -4.3125 59.1875 C-6.06336914 59.22520508 -6.06336914 59.22520508 -7.84960938 59.26367188 C-8.96787109 59.27333984 -10.08613281 59.28300781 -11.23828125 59.29296875 C-12.26993408 59.3086792 -13.30158691 59.32438965 -14.36450195 59.34057617 C-17 59 -17 59 -18.83276367 57.6965332 C-20.82002047 54.80813172 -20.41498331 52.37914983 -20 49 C-17.91882182 46.2683778 -16.76458307 45.13066194 -13.34277344 44.54589844 C-12.35825195 44.5668457 -11.37373047 44.58779297 -10.359375 44.609375 C-9.28945313 44.62226562 -8.21953125 44.63515625 -7.1171875 44.6484375 C-6.00601563 44.68195313 -4.89484375 44.71546875 -3.75 44.75 C-2.06003906 44.77707031 -2.06003906 44.77707031 -0.3359375 44.8046875 C2.44356896 44.85179778 5.2213534 44.91756639 8 45 C8 42.03 8 39.06 8 36 C7.29391602 36.02094727 6.58783203 36.04189453 5.86035156 36.06347656 C2.65704624 36.14669298 -0.54603163 36.19867785 -3.75 36.25 C-5.41675781 36.30027344 -5.41675781 36.30027344 -7.1171875 36.3515625 C-8.72207031 36.37089844 -8.72207031 36.37089844 -10.359375 36.390625 C-11.34389648 36.41157227 -12.32841797 36.43251953 -13.34277344 36.45410156 C-16.76458307 35.86933806 -17.91882182 34.7316222 -20 32 C-20.7363388 26.00409836 -20.7363388 26.00409836 -18.625 23.125 C-15.09940116 20.68420081 -12.12800001 20.70814545 -7.875 20.4375 C-6.59367187 20.35371094 -5.31234375 20.26992187 -3.9921875 20.18359375 C-2.51105469 20.09271484 -2.51105469 20.09271484 -1 20 C-1.63808594 19.43152344 -2.27617188 18.86304687 -2.93359375 18.27734375 C-10.53198018 11.17682351 -10.53198018 11.17682351 -11.3125 7.1875 C-11 4 -11 4 -9.5 1.5625 C-6.00861487 -0.6196157 -4.07545036 -0.55016464 0 0 Z " fill="#E5246A" transform="translate(61,59)"/>
<path d="M0 0 C1.9375 1.0625 1.9375 1.0625 3 3 C3.625 6.1875 3.625 6.1875 3 10 C0.94757585 12.96104942 -1.43659527 15.47719218 -4 18 C-4.66 18.66 -5.32 19.32 -6 20 C-4.57107422 20.03867188 -4.57107422 20.03867188 -3.11328125 20.078125 C-1.85902344 20.13484375 -0.60476562 20.1915625 0.6875 20.25 C1.92886719 20.29640625 3.17023438 20.3428125 4.44921875 20.390625 C8.47134651 21.08089115 10.19559015 22.07457434 13 25 C13.625 28.5 13.625 28.5 13 32 C10.75781322 34.74315259 8.96912049 35.88051939 5.43359375 36.31640625 C2.34210583 36.39410237 -0.72166946 36.34818154 -3.8125 36.25 C-4.88693359 36.23195312 -5.96136719 36.21390625 -7.06835938 36.1953125 C-9.71315465 36.14829392 -12.35611589 36.0825916 -15 36 C-15 38.97 -15 41.94 -15 45 C-14.3294458 44.97905273 -13.6588916 44.95810547 -12.96801758 44.93652344 C-9.9163322 44.85313973 -6.86488683 44.80126984 -3.8125 44.75 C-2.22985352 44.69972656 -2.22985352 44.69972656 -0.61523438 44.6484375 C7.19489585 44.54988696 7.19489585 44.54988696 11.20703125 46.79296875 C13 49 13 49 13.5 52.5625 C13 56 13 56 11.82885742 57.6965332 C9.24530001 59.53789124 7.38819479 59.34093698 4.23828125 59.29296875 C3.12001953 59.28330078 2.00175781 59.27363281 0.84960938 59.26367188 C-0.31763672 59.23853516 -1.48488281 59.21339844 -2.6875 59.1875 C-3.86634766 59.17396484 -5.04519531 59.16042969 -6.25976562 59.14648438 C-9.17363411 59.11109326 -12.08658945 59.06171809 -15 59 C-14.97897217 59.7628833 -14.95794434 60.5257666 -14.9362793 61.31176758 C-14.91992432 62.30845459 -14.90356934 63.3051416 -14.88671875 64.33203125 C-14.86569092 65.32178955 -14.84466309 66.31154785 -14.82299805 67.33129883 C-15 70 -15 70 -16.8125 72.6875 C-19 74 -19 74 -22 74 C-22.1627727 66.4459127 -22.28686114 58.89200899 -22.3626852 51.33656311 C-22.39909381 47.82742009 -22.44840628 44.31948375 -22.52807617 40.81103516 C-22.61926296 36.76974462 -22.65275482 32.72970498 -22.68359375 28.6875 C-22.71972275 27.4382373 -22.75585175 26.18897461 -22.79307556 24.90185547 C-22.79577001 18.88518281 -22.6332826 14.94740177 -18.59399414 10.2890625 C-17.4213161 9.16566676 -16.22605518 8.06488519 -15 7 C-14.278125 6.236875 -13.55625 5.47375 -12.8125 4.6875 C-8.63556209 0.79862678 -5.97820064 -1.1721962 0 0 Z " fill="#CA035A" transform="translate(98,59)"/>
</svg>
