<?xml version="1.0" encoding="UTF-8"?>
<svg version="1.1" xmlns="http://www.w3.org/2000/svg" width="192" height="192">
<path d="M0 0 C2.1953125 -0.0234375 2.1953125 -0.0234375 6.0078125 0.3515625 C7.0078125 1.3515625 7.0078125 1.3515625 7.3828125 5.1640625 C7.359375 7.359375 7.359375 7.359375 7.0078125 9.3515625 C4.7578125 11.5390625 4.7578125 11.5390625 2.0078125 13.3515625 C1.0178125 14.5890625 1.0178125 14.5890625 0.0078125 15.8515625 C-2.09538385 18.48055793 -4.37118293 20.25475885 -6.9921875 22.3515625 C-7.6521875 23.1765625 -8.3121875 24.0015625 -8.9921875 24.8515625 C-11.09538385 27.48055793 -13.37118293 29.25475885 -15.9921875 31.3515625 C-16.6521875 32.1765625 -17.3121875 33.0015625 -17.9921875 33.8515625 C-20.09538385 36.48055793 -22.37118293 38.25475885 -24.9921875 40.3515625 C-26.36587095 41.98513201 -27.71156265 43.6440627 -28.9921875 45.3515625 C-28.0021875 45.6815625 -27.0121875 46.0115625 -25.9921875 46.3515625 C-25.9921875 47.0115625 -25.9921875 47.6715625 -25.9921875 48.3515625 C-25.0021875 48.6815625 -24.0121875 49.0115625 -22.9921875 49.3515625 C-22.9921875 50.0115625 -22.9921875 50.6715625 -22.9921875 51.3515625 C-22.0021875 51.6815625 -21.0121875 52.0115625 -19.9921875 52.3515625 C-19.9921875 53.0115625 -19.9921875 53.6715625 -19.9921875 54.3515625 C-19.0021875 54.6815625 -18.0121875 55.0115625 -16.9921875 55.3515625 C-16.6621875 56.3415625 -16.3321875 57.3315625 -15.9921875 58.3515625 C-17.20703125 60.26953125 -17.20703125 60.26953125 -18.9296875 62.5390625 C-23.25803067 69.42598236 -23.12860803 76.55195685 -21.9921875 84.3515625 C-20.9209091 86.8622562 -19.83481944 88.69421119 -18.0859375 90.7734375 C-16.9921875 92.3515625 -16.9921875 92.3515625 -16.9921875 96.3515625 C-18.48028183 98.3458147 -18.48028183 98.3458147 -20.60980225 100.48384094 C-21.4117804 101.29854355 -22.21375854 102.11324615 -23.04003906 102.95263672 C-23.93142578 103.83749756 -24.8228125 104.7223584 -25.74121094 105.6340332 C-26.68134823 106.5812268 -27.62063895 107.5292613 -28.55914307 108.47807312 C-31.11187266 111.05333618 -33.67720898 113.61568446 -36.24565411 116.17526269 C-38.38680022 118.31130585 -40.52172583 120.45351126 -42.65666986 122.59575051 C-47.69144734 127.6475388 -52.73644985 132.68895082 -57.78808594 137.72387695 C-63.00497536 142.92383285 -68.20525815 148.13997672 -73.39751029 153.36452419 C-77.85216448 157.84583628 -82.31641999 162.31741641 -86.78866982 166.78116864 C-89.46141412 169.44897395 -92.1304238 172.12026173 -94.79045868 174.80074501 C-97.7548208 177.78679972 -100.73897534 180.75226258 -103.72558594 183.71606445 C-104.60887573 184.61104645 -105.49216553 185.50602844 -106.40222168 186.4281311 C-107.62210785 187.62903633 -107.62210785 187.62903633 -108.86663818 188.85420227 C-109.57088802 189.5578658 -110.27513786 190.26152933 -111.00072861 190.986516 C-112.9921875 192.3515625 -112.9921875 192.3515625 -115.0582037 192.23732758 C-117.15401891 191.27744367 -118.42785999 190.29809383 -120.06147766 188.67668152 C-120.64058395 188.10892502 -121.21969025 187.54116852 -121.81634521 186.95620728 C-122.43938538 186.33023651 -123.06242554 185.70426575 -123.7043457 185.05932617 C-124.3697789 184.40236252 -125.0352121 183.74539886 -125.72080994 183.06852722 C-127.91942392 180.89332533 -130.10664608 178.70708239 -132.29296875 176.51953125 C-133.81392848 175.00566898 -135.335188 173.49210784 -136.85673523 171.97883606 C-140.04358042 168.80544431 -143.22441454 165.62616565 -146.40161133 162.44311523 C-150.48180986 158.35701089 -154.57998274 154.28947341 -158.68327045 150.22657299 C-161.82905593 147.10658042 -164.96335738 143.97524825 -168.09444237 140.84050941 C-169.60124617 139.3354038 -171.1120585 137.83430054 -172.62685585 136.33724022 C-174.73897555 134.24714916 -176.83473946 132.14192497 -178.92700195 130.03198242 C-179.56016327 129.41208435 -180.19332458 128.79218628 -180.84567261 128.15350342 C-182.55781555 126.40739441 -182.55781555 126.40739441 -184.9921875 123.3515625 C-184.77477824 119.61745987 -182.79400638 117.78257896 -180.22740173 115.22601318 C-179.41826828 114.41275574 -178.60913483 113.59949829 -177.77548218 112.76159668 C-176.88140656 111.87830688 -175.98733093 110.99501709 -175.06616211 110.08496094 C-174.11956949 109.13921462 -173.17363715 108.19280704 -172.22831726 107.24578857 C-169.66075288 104.67736296 -167.08403952 102.11829623 -164.50560069 99.56079388 C-161.81230847 96.886247 -159.12750145 94.20321019 -156.44178772 91.52105713 C-151.35499307 86.44358923 -146.26059898 81.3738175 -141.16343933 76.30675721 C-135.36076267 70.53760491 -129.56659553 64.75993849 -123.77313221 58.98153639 C-111.85560247 47.09536995 -99.92741664 35.21995691 -87.9921875 23.3515625 C-85.44874582 24.55806688 -83.49734069 25.73394412 -81.2421875 27.4765625 C-75.40768814 30.79619144 -67.47261437 30.49347385 -60.9921875 29.3515625 C-56.96966136 27.79125527 -53.50231853 25.85029984 -49.9921875 23.3515625 C-49.0021875 24.0115625 -48.0121875 24.6715625 -46.9921875 25.3515625 C-46.9921875 26.0115625 -46.9921875 26.6715625 -46.9921875 27.3515625 C-46.0021875 27.6815625 -45.0121875 28.0115625 -43.9921875 28.3515625 C-43.9921875 29.0115625 -43.9921875 29.6715625 -43.9921875 30.3515625 C-43.0021875 30.6815625 -42.0121875 31.0115625 -40.9921875 31.3515625 C-40.9921875 32.0115625 -40.9921875 32.6715625 -40.9921875 33.3515625 C-40.0021875 33.6815625 -39.0121875 34.0115625 -37.9921875 34.3515625 C-37.9921875 35.0115625 -37.9921875 35.6715625 -37.9921875 36.3515625 C-35.31825136 34.34611039 -33.08642785 32.46936294 -30.9921875 29.8515625 C-28.88899115 27.22256707 -26.61319207 25.44836615 -23.9921875 23.3515625 C-23.3321875 22.5265625 -22.6721875 21.7015625 -21.9921875 20.8515625 C-19.88899115 18.22256707 -17.61319207 16.44836615 -14.9921875 14.3515625 C-14.0021875 13.1140625 -14.0021875 13.1140625 -12.9921875 11.8515625 C-10.88899115 9.22256707 -8.61319207 7.44836615 -5.9921875 5.3515625 C-5.3940625 4.4440625 -4.7959375 3.5365625 -4.1796875 2.6015625 C-1.9921875 0.3515625 -1.9921875 0.3515625 0 0 Z M-63.6171875 55.7265625 C-65.76152722 58.26078217 -66.00215957 60.45926081 -66.3046875 63.7265625 C-65.94103723 67.94490564 -64.94333758 69.40041242 -61.9921875 72.3515625 C-59.00220925 73.84655163 -56.29175975 73.46733696 -52.9921875 73.3515625 C-49.35887635 72.1495943 -49.35887635 72.1495943 -46.9921875 69.3515625 C-46.43626247 66.67253333 -46.21659266 64.0893055 -45.9921875 61.3515625 C-46.3221875 62.0115625 -46.6521875 62.6715625 -46.9921875 63.3515625 C-50.29473625 65.55326167 -53.08921238 65.61176084 -56.9921875 65.3515625 C-57.9921875 64.3515625 -57.9921875 64.3515625 -58.1796875 61.5390625 C-57.99871176 58.46247491 -57.67878918 56.88146502 -55.9921875 54.3515625 C-55.3321875 54.0215625 -54.6721875 53.6915625 -53.9921875 53.3515625 C-57.75318677 53.24991387 -60.61059315 53.18252113 -63.6171875 55.7265625 Z " fill="#94A43A" transform="translate(184.9921875,-0.3515625)"/>
<path d="M0 0 C6.15234375 -0.09765625 6.15234375 -0.09765625 8 0 C9 1 9 1 9.375 4.8125 C9.3515625 7.0078125 9.3515625 7.0078125 9 9 C6.75 11.1875 6.75 11.1875 4 13 C3.34 13.825 2.68 14.65 2 15.5 C-0.10319635 18.12899543 -2.37899543 19.90319635 -5 22 C-5.66 22.825 -6.32 23.65 -7 24.5 C-9.10319635 27.12899543 -11.37899543 28.90319635 -14 31 C-14.66 31.825 -15.32 32.65 -16 33.5 C-18.10696801 36.13371001 -20.34145849 37.93963033 -23 40 C-23.598125 40.598125 -24.19625 41.19625 -24.8125 41.8125 C-26.73063576 43.73063576 -28.69463654 45.48310861 -30.75 47.25 C-39.02600386 54.19817849 -39.02600386 54.19817849 -45 63 C-47.43748359 65.43748359 -48.6540331 65.96540331 -52.125 66.3125 C-55 66 -55 66 -57 64 C-57.4375 61.1875 -57.4375 61.1875 -57 58 C-55 55.5625 -55 55.5625 -52 53 C-50.72716427 51.89814221 -49.45648291 50.7937928 -48.1875 49.6875 C-47.506875 49.09582031 -46.82625 48.50414062 -46.125 47.89453125 C-40.99013968 43.31657674 -36.47802065 38.96232112 -33 33 C-31.34997172 31.64613064 -29.6825613 30.31321858 -28 29 C-27.01 27.7625 -27.01 27.7625 -26 26.5 C-23.89680365 23.87100457 -21.62100457 22.09680365 -19 20 C-18.34 19.175 -17.68 18.35 -17 17.5 C-14.89680365 14.87100457 -12.62100457 13.09680365 -10 11 C-9.34 10.175 -8.68 9.35 -8 8.5 C-5.90532454 5.88165568 -3.62909541 4.06064235 -1 2 C-0.67 1.34 -0.34 0.68 0 0 Z " fill="#FED43D" transform="translate(183,0)"/>
<path d="M0 0 C2.20573425 0.87173462 2.20573425 0.87173462 3.20573425 1.87173462 C3.75110967 5.82490896 3.53722917 7.41838421 1.15136719 10.68127441 C0.19514965 11.66997185 -0.77789619 12.64256418 -1.76374817 13.60171509 C-2.29216309 14.13903763 -2.820578 14.67636017 -3.36500549 15.22996521 C-5.11196337 16.99819603 -6.87978642 18.74372673 -8.6497345 20.48892212 C-9.87182105 21.7125111 -11.09294354 22.93706365 -12.31314087 24.16253662 C-14.87199269 26.72571937 -17.44111322 29.27800371 -20.0181427 31.82290649 C-23.32131853 35.08628134 -26.59933995 38.37363118 -29.87028027 41.6692791 C-32.3875178 44.20069505 -34.91674579 46.71984478 -37.44986916 49.23535538 C-38.66345239 50.44308731 -39.87347107 51.654412 -41.07983971 52.86935043 C-42.7672895 54.56478669 -44.46997854 56.24325158 -46.17781067 57.91812134 C-46.67412491 58.42298569 -47.17043915 58.92785004 -47.68179321 59.44801331 C-49.94077119 61.63222486 -51.3776611 62.80531685 -54.52029419 63.30633545 C-56.79426575 62.87173462 -56.79426575 62.87173462 -58.79426575 60.87173462 C-59.2355957 58.60449219 -59.2355957 58.60449219 -58.79426575 55.87173462 C-57.16944561 53.74863694 -55.62256968 52.00587342 -53.73298645 50.14761353 C-53.19481796 49.59907715 -52.65664948 49.05054077 -52.10217285 48.48538208 C-50.32065848 46.67677484 -48.52136288 44.8871682 -46.720047 43.09829712 C-45.47582928 41.84817237 -44.23228242 40.5973796 -42.98937988 39.34594727 C-40.38218687 36.72686995 -37.76590452 34.11730777 -35.1431427 31.51382446 C-31.77936878 28.17295413 -28.44108554 24.80785891 -25.10940266 21.43502235 C-22.54726032 18.84733553 -19.97122934 16.27384165 -17.39084435 13.70435715 C-16.1538999 12.46890194 -14.92154942 11.22882975 -13.69388771 9.98414993 C-11.97744409 8.24779566 -10.2430377 6.5316614 -8.5025177 4.81948853 C-7.99685272 4.30010712 -7.49118774 3.78072571 -6.97019958 3.24560547 C-4.55446314 0.9080603 -3.440819 -0.15794416 0 0 Z " fill="#1C1C19" transform="translate(91.79426574707031,68.12826538085938)"/>
<path d="M0 0 C1 1 1 1 1.37309265 3.70437622 C0.89013404 7.97047437 -1.01981184 9.86019955 -3.96948242 12.72998047 C-4.49789734 13.26730301 -5.02631226 13.80462555 -5.57073975 14.35823059 C-7.31769762 16.12646141 -9.08552067 17.87199211 -10.85546875 19.6171875 C-12.0775553 20.84077648 -13.2986778 22.06532903 -14.51887512 23.290802 C-17.07772694 25.85398475 -19.64684747 28.40626909 -22.22387695 30.95117188 C-25.52705278 34.21454672 -28.8050742 37.50189656 -32.07601452 40.79754448 C-34.59325205 43.32896043 -37.12248004 45.84811017 -39.65560341 48.36362076 C-40.86918664 49.57135269 -42.07920532 50.78267738 -43.28557396 51.99761581 C-44.97302375 53.69305207 -46.67571279 55.37151696 -48.38354492 57.04638672 C-48.87985916 57.55125107 -49.3761734 58.05611542 -49.88752747 58.57627869 C-52.14650545 60.76049024 -53.58339535 61.93358223 -56.72602844 62.43460083 C-59 62 -59 62 -61 60 C-61.43460083 57.72602844 -61.43460083 57.72602844 -61 55 C-59.40967555 52.91133185 -57.90143931 51.20718134 -56.04638672 49.38354492 C-55.25617378 48.57778015 -55.25617378 48.57778015 -54.44999695 47.7557373 C-52.70575135 45.98439737 -50.94373518 44.23207339 -49.1796875 42.48046875 C-47.96028603 41.25515944 -46.74155522 40.02918237 -45.52346802 38.80256653 C-42.96754859 36.23476188 -40.40254315 33.67647749 -37.83105469 31.12426758 C-34.53688814 27.85298072 -31.26818959 24.55752062 -28.00611687 21.25426769 C-25.49456249 18.71713495 -22.96908345 16.19423657 -20.43927383 13.67531776 C-19.2282767 12.4658076 -18.0218579 11.25169539 -16.8201561 10.03294945 C-15.13746702 8.33029303 -13.43674772 6.64795523 -11.72998047 4.96948242 C-10.99090202 4.20982933 -10.99090202 4.20982933 -10.2368927 3.43482971 C-6.85952737 0.1684149 -4.66259965 -0.64324692 0 0 Z " fill="#1B1B18" transform="translate(108,83)"/>
<path d="M0 0 C0.81098145 0.16330811 1.62196289 0.32661621 2.45751953 0.49487305 C3.37734407 3.24049253 3.80114264 4.67820237 3.45751953 7.49487305 C1.31297735 10.86386355 -1.50340243 13.50448148 -4.36279297 16.2722168 C-5.17360321 17.08356583 -5.98441345 17.89491486 -6.8197937 18.73085022 C-8.53717392 20.44053274 -10.26436546 22.14040787 -12.00048828 23.83105469 C-14.65951216 26.42460096 -17.28217194 29.05111122 -19.90185547 31.68432617 C-21.57428879 33.3406913 -23.24870368 34.99505851 -24.92529297 36.6472168 C-25.71195343 37.43458725 -26.49861389 38.2219577 -27.30911255 39.03318787 C-28.05273041 39.75136185 -28.79634827 40.46953583 -29.5625 41.20947266 C-30.53632126 42.16375404 -30.53632126 42.16375404 -31.52981567 43.13731384 C-34.06978216 44.85054244 -35.53626502 44.91278583 -38.54248047 44.49487305 C-40.54248047 42.49487305 -40.54248047 42.49487305 -40.87380981 40.11763 C-40.46113507 36.85095421 -39.53874154 35.85343191 -37.24121094 33.53076172 C-36.51980927 32.79037155 -35.79840759 32.04998138 -35.05514526 31.28715515 C-34.26463776 30.50363174 -33.47413025 29.72010834 -32.65966797 28.9128418 C-31.85264435 28.09866287 -31.04562073 27.28448395 -30.21414185 26.44563293 C-28.50366413 24.72736972 -26.78674985 23.01549361 -25.06396484 21.30957031 C-22.42917336 18.69398072 -19.8249778 16.05044792 -17.22216797 13.40307617 C-15.55727331 11.73789113 -13.89066196 10.07442034 -12.22216797 8.4128418 C-11.44380585 7.61919724 -10.66544373 6.82555267 -9.86349487 6.00785828 C-4.34583062 0.60709846 -4.34583062 0.60709846 0 0 Z " fill="#1C1D19" transform="translate(101.54248046875,114.505126953125)"/>
</svg>
