<?xml version="1.0" encoding="UTF-8"?>
<svg version="1.1" xmlns="http://www.w3.org/2000/svg" width="192" height="192">
<path d="M0 0 C2.65568752 1.40595221 4.7290803 2.89162952 6.6875 5.1875 C6.6875 5.8475 6.6875 6.5075 6.6875 7.1875 C7.6775 7.5175 8.6675 7.8475 9.6875 8.1875 C10.18765625 9.03441406 10.6878125 9.88132812 11.203125 10.75390625 C13.38404801 13.37310249 13.38404801 13.37310249 15.93945312 13.49951172 C19.76062952 13.44989513 23.54967832 13.1920614 27.359375 12.90429688 C33.62342861 12.62769125 37.31621557 13.28989798 42.10791016 17.48339844 C47.02843223 22.79178237 47.54855692 29.15771633 48.6484375 36.04296875 C49.40696104 39.30698421 49.40696104 39.30698421 51.9765625 40.99609375 C54.5250561 42.11610895 57.06293692 43.13570116 59.6875 44.0625 C65.49900553 46.3594695 68.98579503 49.16568087 71.5625 54.9375 C73.47327859 60.69154916 72.64826941 65.85420286 70.375 71.375 C68.6875 74.1875 68.6875 74.1875 66.5 77.1875 C64.34878188 80.74813689 63.96637835 82.101144 64.6875 86.1875 C65.49282722 87.55850689 66.32990039 88.91106956 67.1875 90.25 C70.59334839 96.02725571 70.83625028 101.65036714 69.6875 108.1875 C66.86440819 114.58308618 61.65021852 117.96076138 55.6875 121.1875 C52.50683442 122.94844997 52.50683442 122.94844997 49.6875 125.1875 C49.58067045 127.5407175 49.50245849 129.89525468 49.4375 132.25 C49.04211819 139.88564241 47.58370318 144.52579053 42 149.7734375 C36.35269435 154.03244718 30.51448753 153.94605417 23.6875 153.1875 C21.93243329 152.72723755 20.1819005 152.24916691 18.4375 151.75 C15.40336296 151.05093483 14.25871642 150.85575907 11.53515625 152.4375 C9.4769705 154.27050996 7.57296154 156.17794227 5.6875 158.1875 C1.39002639 162.56036788 -2.08296743 163.58602297 -8.25 163.875 C-16.10116676 163.58390801 -19.79691929 160.9559415 -24.99609375 155.3828125 C-26.71906145 153.65586566 -28.14776985 152.32119373 -30.3125 151.1875 C-32.88983936 151.26846354 -35.0806075 151.83446156 -37.56640625 152.51171875 C-43.98121767 154.0903281 -50.8529251 154.48586393 -56.75 151.1875 C-60.76690486 148.15808426 -63.66715643 144.99306294 -65.3125 140.1875 C-65.75270691 136.2420941 -65.93674478 132.45029519 -65.9765625 128.48046875 C-66.04045682 125.28256863 -66.04045682 125.28256863 -67.53515625 123.37890625 C-69.65059656 121.96086384 -71.79044314 120.95595491 -74.125 119.9375 C-79.68221305 117.26451302 -83.54043545 113.7316291 -86.3125 108.1875 C-87.12144744 100.23670229 -86.63336783 94.26357447 -82.40625 87.40625 C-81.09596696 84.74824727 -80.94919788 83.11750803 -81.3125 80.1875 C-82.25570369 78.40620099 -82.25570369 78.40620099 -83.625 76.875 C-87.65861284 71.54281664 -89.66627152 66.83452693 -89.25 60.0625 C-88.44987632 54.45303075 -86.28812475 50.95426321 -82.05859375 47.171875 C-78.29953867 44.45551657 -74.31599353 43.22075672 -69.95703125 41.7265625 C-67.08325753 40.39359867 -67.08325753 40.39359867 -66.03125 37.3984375 C-65.7940625 36.33882812 -65.556875 35.27921875 -65.3125 34.1875 C-65.08949219 33.1975 -64.86648437 32.2075 -64.63671875 31.1875 C-64.42660156 30.1975 -64.21648437 29.2075 -64 28.1875 C-62.42311235 21.79278477 -60.37372019 18.76473281 -55.3359375 14.5234375 C-49.97020321 12.15253165 -44.08584484 13.19531339 -38.328125 13.56835938 C-33.12153996 13.9310765 -33.12153996 13.9310765 -28.58203125 11.83837891 C-27.07203121 10.01046964 -27.07203121 10.01046964 -25.3125 7.1875 C-24.6525 7.1875 -23.9925 7.1875 -23.3125 7.1875 C-23.10625 6.61 -22.9 6.0325 -22.6875 5.4375 C-17.85798717 -2.46533917 -7.81598136 -3.77820501 0 0 Z " fill="#8EDFEE" transform="translate(104.3125,13.8125)"/>
<path d="M0 0 C2.65568752 1.40595221 4.7290803 2.89162952 6.6875 5.1875 C6.6875 5.8475 6.6875 6.5075 6.6875 7.1875 C7.6775 7.5175 8.6675 7.8475 9.6875 8.1875 C10.18765625 9.03441406 10.6878125 9.88132812 11.203125 10.75390625 C13.38404801 13.37310249 13.38404801 13.37310249 15.93945312 13.49951172 C19.76062952 13.44989513 23.54967832 13.1920614 27.359375 12.90429688 C33.62342861 12.62769125 37.31621557 13.28989798 42.10791016 17.48339844 C47.02843223 22.79178237 47.54855692 29.15771633 48.6484375 36.04296875 C49.40696104 39.30698421 49.40696104 39.30698421 51.9765625 40.99609375 C54.5250561 42.11610895 57.06293692 43.13570116 59.6875 44.0625 C65.49900553 46.3594695 68.98579503 49.16568087 71.5625 54.9375 C73.47327859 60.69154916 72.64826941 65.85420286 70.375 71.375 C68.6875 74.1875 68.6875 74.1875 66.5 77.1875 C64.34878188 80.74813689 63.96637835 82.101144 64.6875 86.1875 C65.49282722 87.55850689 66.32990039 88.91106956 67.1875 90.25 C70.59334839 96.02725571 70.83625028 101.65036714 69.6875 108.1875 C66.86440819 114.58308618 61.65021852 117.96076138 55.6875 121.1875 C52.50683442 122.94844997 52.50683442 122.94844997 49.6875 125.1875 C49.58067045 127.5407175 49.50245849 129.89525468 49.4375 132.25 C49.04211819 139.88564241 47.58370318 144.52579053 42 149.7734375 C36.35269435 154.03244718 30.51448753 153.94605417 23.6875 153.1875 C21.93243329 152.72723755 20.1819005 152.24916691 18.4375 151.75 C15.40336296 151.05093483 14.25871642 150.85575907 11.53515625 152.4375 C9.4769705 154.27050996 7.57296154 156.17794227 5.6875 158.1875 C1.39002639 162.56036788 -2.08296743 163.58602297 -8.25 163.875 C-16.10116676 163.58390801 -19.79691929 160.9559415 -24.99609375 155.3828125 C-26.71906145 153.65586566 -28.14776985 152.32119373 -30.3125 151.1875 C-32.88983936 151.26846354 -35.0806075 151.83446156 -37.56640625 152.51171875 C-43.98121767 154.0903281 -50.8529251 154.48586393 -56.75 151.1875 C-60.76690486 148.15808426 -63.66715643 144.99306294 -65.3125 140.1875 C-65.75270691 136.2420941 -65.93674478 132.45029519 -65.9765625 128.48046875 C-66.04045682 125.28256863 -66.04045682 125.28256863 -67.53515625 123.37890625 C-69.65059656 121.96086384 -71.79044314 120.95595491 -74.125 119.9375 C-79.68221305 117.26451302 -83.54043545 113.7316291 -86.3125 108.1875 C-87.12144744 100.23670229 -86.63336783 94.26357447 -82.40625 87.40625 C-81.09596696 84.74824727 -80.94919788 83.11750803 -81.3125 80.1875 C-82.25570369 78.40620099 -82.25570369 78.40620099 -83.625 76.875 C-87.65861284 71.54281664 -89.66627152 66.83452693 -89.25 60.0625 C-88.44987632 54.45303075 -86.28812475 50.95426321 -82.05859375 47.171875 C-78.29953867 44.45551657 -74.31599353 43.22075672 -69.95703125 41.7265625 C-67.08325753 40.39359867 -67.08325753 40.39359867 -66.03125 37.3984375 C-65.7940625 36.33882812 -65.556875 35.27921875 -65.3125 34.1875 C-65.08949219 33.1975 -64.86648437 32.2075 -64.63671875 31.1875 C-64.42660156 30.1975 -64.21648437 29.2075 -64 28.1875 C-62.42311235 21.79278477 -60.37372019 18.76473281 -55.3359375 14.5234375 C-49.97020321 12.15253165 -44.08584484 13.19531339 -38.328125 13.56835938 C-33.12153996 13.9310765 -33.12153996 13.9310765 -28.58203125 11.83837891 C-27.07203121 10.01046964 -27.07203121 10.01046964 -25.3125 7.1875 C-24.6525 7.1875 -23.9925 7.1875 -23.3125 7.1875 C-23.10625 6.61 -22.9 6.0325 -22.6875 5.4375 C-17.85798717 -2.46533917 -7.81598136 -3.77820501 0 0 Z M-19.3125 20.1875 C-22.44077008 23.61077394 -24.99225218 26.01699589 -29.75439453 26.36694336 C-30.64239746 26.33737549 -31.53040039 26.30780762 -32.4453125 26.27734375 C-33.41597656 26.25736328 -34.38664062 26.23738281 -35.38671875 26.21679688 C-37.42849908 26.15536046 -39.47017138 26.09022771 -41.51171875 26.02148438 C-42.47980469 26.00279297 -43.44789062 25.98410156 -44.4453125 25.96484375 C-45.77393311 25.92218384 -45.77393311 25.92218384 -47.12939453 25.87866211 C-47.84981934 25.98057861 -48.57024414 26.08249512 -49.3125 26.1875 C-51.47377073 29.42940609 -51.74792673 31.19858813 -52.25 35 C-53.31121655 41.72373843 -54.73234412 46.59690298 -60.29296875 50.9609375 C-63.88386722 53.14187003 -67.78772364 54.57915878 -71.703125 56.07421875 C-74.41175403 57.03815337 -74.41175403 57.03815337 -76.3125 59.1875 C-76.42463481 64.45783606 -74.75181157 67.2099616 -71.75 71.5 C-68.72648051 76.06333251 -67.35190262 79.22984219 -67.734375 84.71484375 C-68.59950708 88.41503703 -70.36026482 91.48231611 -72.16796875 94.80078125 C-74.06257478 98.75164912 -74.2639671 100.86930316 -73.3125 105.1875 C-70.91196095 107.39929888 -68.2089299 108.72365683 -65.3125 110.1875 C-64.17589585 110.94111797 -63.04926916 111.71020359 -61.9375 112.5 C-59.55221083 114.36775253 -59.55221083 114.36775253 -57.3125 114.1875 C-53.59932284 121.08340043 -52.98228963 127.41348575 -52.65625 135.140625 C-52.62100687 138.29457704 -52.62100687 138.29457704 -50.3125 140.1875 C-46.2066379 140.46122414 -43.26836802 140.51290188 -39.375 139.1875 C-34.50110718 137.59602479 -29.79969292 136.98708397 -25.0625 139.2734375 C-23.69610253 140.14250648 -22.35184304 141.04797447 -21.0390625 141.99609375 C-19.21038794 143.37627618 -19.21038794 143.37627618 -16.3125 144.1875 C-15.25 146.125 -15.25 146.125 -14.3125 148.1875 C-12.38607392 150.51954711 -12.38607392 150.51954711 -9 150.625 C-4.35425618 150.07381006 -3.31607742 148.66532649 -0.3125 145.1875 C4.92949779 140.8191685 7.74540313 138.92045514 14.6875 139 C15.925 139.00644531 17.1625 139.01289063 18.4375 139.01953125 C21.6875 139.1875 21.6875 139.1875 24.6875 140.1875 C26.64336747 140.38209037 26.64336747 140.38209037 28.6875 140.375 C29.368125 140.38917969 30.04875 140.40335938 30.75 140.41796875 C33.01364132 140.29690411 33.01364132 140.29690411 35.6875 138.1875 C36.12508836 135.1412613 36.12508836 135.1412613 36.125 131.625 C36.51261935 124.21463007 37.622816 118.43245953 42.8125 112.9375 C46.30180875 110.81357294 49.89349188 108.9988382 53.578125 107.23828125 C55.62074557 106.3601324 55.62074557 106.3601324 56.6875 105.1875 C57.26288509 99.91313667 56.78401061 96.95541304 54.1875 92.3125 C51.44443135 87.11885129 50.17860288 82.98966795 51.6875 77.1875 C53.59316663 73.64899538 55.62920688 70.45808793 57.9375 67.16796875 C59.75503839 64.07247367 60.35305386 62.6876002 59.6875 59.1875 C57.46061763 55.81963549 54.07881857 55.15074622 50.375 53.9375 C44.58137467 51.73347346 40.31483484 50.0196059 37.6875 44.1875 C36.72238114 40.28560316 36.00816667 36.49327779 35.42578125 32.515625 C34.66723611 29.09615169 34.38486032 28.21909478 31.6875 26.1875 C29.59558674 25.83976338 29.59558674 25.83976338 27.30078125 26.03515625 C26.0159082 26.07672852 26.0159082 26.07672852 24.70507812 26.11914062 C22.92098327 26.20544702 21.13711028 26.29648779 19.35351562 26.39257812 C13.23221057 26.58001166 8.72091345 25.84008501 3.6875 22.1875 C1.40234375 19.64453125 1.40234375 19.64453125 -0.375 17 C-2.87033705 13.73125439 -4.04217955 12.31783307 -7.8125 10.5 C-13.48150239 11.61355404 -15.85989385 15.82369057 -19.3125 20.1875 Z " fill="#1990A7" transform="translate(104.3125,13.8125)"/>
<path d="M0 0 C3.2827301 0.9055481 3.2827301 0.9055481 5.2827301 2.9055481 C5.1217157 8.56684796 3.72639974 11.21602081 -0.21775818 15.18240356 C-0.68458511 15.65974442 -1.15141205 16.13708527 -1.63238525 16.62889099 C-3.16943631 18.19220701 -4.72722509 19.73270739 -6.2875824 21.2727356 C-7.3688543 22.35805297 -8.44923449 23.44425937 -9.52876282 24.53131104 C-11.79063504 26.80201148 -14.06295722 29.06155072 -16.34324646 31.31375122 C-19.25903129 34.1953512 -22.14704411 37.10305649 -25.02774239 40.01968193 C-27.25261713 42.26628302 -29.49164191 44.49834172 -31.73514938 46.72632217 C-32.80561673 47.7927994 -33.87167915 48.86371768 -34.93312454 49.93917465 C-36.421473 51.44283824 -37.92784923 52.92581039 -39.44041443 54.40505981 C-40.29233368 55.25220551 -41.14425293 56.0993512 -42.02198792 56.97216797 C-45.2781474 59.30787684 -47.76362707 59.63277677 -51.7172699 59.9055481 C-53.58538395 57.80391978 -54.63735381 56.39325959 -55.09667969 53.59008789 C-54.55896308 49.7854374 -52.82763576 48.36079981 -50.14671326 45.64041138 C-49.66052521 45.14064285 -49.17433716 44.64087433 -48.67341614 44.1259613 C-47.0641293 42.47940627 -45.4368988 40.85211161 -43.80711365 39.2258606 C-42.67993248 38.08769128 -41.55327647 36.94900164 -40.42712402 35.80981445 C-38.06403359 33.42581682 -35.69136013 31.05186539 -33.3122406 28.68386841 C-30.26562887 25.64895095 -27.24967241 22.58546613 -24.24091244 19.51307869 C-21.92214443 17.15371609 -19.58521653 14.81301717 -17.24269295 12.47726059 C-16.12283864 11.3552001 -15.00931768 10.22678134 -13.90237236 9.0919838 C-12.35118298 7.50628677 -10.77662335 5.94813557 -9.19358826 4.39431763 C-8.30312302 3.50116852 -7.41265778 2.60801941 -6.49520874 1.68780518 C-3.7172699 -0.0944519 -3.7172699 -0.0944519 0 0 Z " fill="#1B91A8" transform="translate(120.71726989746094,66.09445190429688)"/>
<path d="M0 0 C3.3258409 2.062783 6.23502468 4.47004936 8 8 C8.39767092 12.13577752 8.24785009 14.50429983 6.375 18.25 C3.01359809 22.14214958 0.04894975 23.65850837 -5 24.5 C-9.13221934 23.81129678 -11.04323352 21.88956724 -14 19 C-16.10081332 15.84878002 -16.53041608 13.89550991 -16.4609375 10.13671875 C-15.61684071 6.22382939 -12.9177214 3.60780798 -10 1 C-6.7374887 -0.63125565 -3.5120384 -0.68851113 0 0 Z " fill="#1B91A8" transform="translate(118,108)"/>
<path d="M0 0 C3.3258409 2.062783 6.23502468 4.47004936 8 8 C8.39767092 12.13577752 8.24785009 14.50429983 6.375 18.25 C3.01359809 22.14214958 0.04894975 23.65850837 -5 24.5 C-9.13221934 23.81129678 -11.04323352 21.88956724 -14 19 C-16.10081332 15.84878002 -16.53041608 13.89550991 -16.4609375 10.13671875 C-15.61684071 6.22382939 -12.9177214 3.60780798 -10 1 C-6.7374887 -0.63125565 -3.5120384 -0.68851113 0 0 Z " fill="#1B91A8" transform="translate(82,60)"/>
</svg>
