<?xml version="1.0" encoding="UTF-8"?>
<svg version="1.1" xmlns="http://www.w3.org/2000/svg" width="192" height="192">
<path d="M0 0 C1.00501053 -0.00426498 2.01002106 -0.00852997 3.04548645 -0.01292419 C4.13703033 -0.01247101 5.22857422 -0.01201782 6.35319519 -0.0115509 C7.51150345 -0.01490952 8.66981171 -0.01826813 9.86322021 -0.02172852 C13.69346692 -0.03122955 17.52366986 -0.03318124 21.35392761 -0.03425598 C23.34459544 -0.03665698 25.33526327 -0.03905973 27.32593077 -0.0417164 C33.58534767 -0.04985112 39.84475018 -0.05230156 46.10417175 -0.05158997 C52.54739824 -0.05098967 58.99054088 -0.06153415 65.43374616 -0.07733363 C70.97702991 -0.09043885 76.52028635 -0.0957726 82.06358546 -0.09513456 C85.36921511 -0.09488041 88.67475374 -0.09861412 91.98037148 -0.10831261 C95.67112274 -0.11812674 99.3616591 -0.11522859 103.05241394 -0.10920715 C104.68062073 -0.11763641 104.68062073 -0.11763641 106.34172058 -0.12623596 C114.08077395 -0.09420603 121.46479466 0.30963649 127.89689636 5.13371277 C127.89689636 5.79371277 127.89689636 6.45371277 127.89689636 7.13371277 C128.88689636 7.46371277 129.87689636 7.79371277 130.89689636 8.13371277 C133.55294058 12.37572131 134.27004003 15.62748227 134.25765991 20.58778381 C134.2638459 22.50596169 134.2638459 22.50596169 134.27015686 24.46289062 C134.25954148 25.86732697 134.24863708 27.27176115 134.23747253 28.67619324 C134.23662572 30.16474388 134.23710246 31.65329578 134.23880005 33.1418457 C134.23965932 37.17246401 134.22204474 41.20281342 134.20107818 45.23336935 C134.18229994 49.4494143 134.18056003 53.6654657 134.17700195 57.88154602 C134.16768485 65.86062296 134.14307562 73.8395763 134.11295348 81.81859887 C134.07939904 90.90440017 134.06292084 99.99020743 134.04786718 109.07605529 C134.01652576 127.76201114 133.96377178 146.44785201 133.89689636 165.13371277 C129.81386539 167.4288551 127.50544902 167.20693736 122.89689636 166.13371277 C120.3588605 164.93466231 118.00272727 163.71758044 115.58439636 162.32121277 C114.26296446 161.59973665 112.94004366 160.88098083 111.61564636 160.16496277 C109.42025162 158.96949478 107.23392903 157.76215965 105.05314636 156.53996277 C101.60707993 154.8387401 99.29037294 153.76784048 95.48674011 154.76652527 C92.8089804 156.0481155 90.3888936 157.52016294 87.89689636 159.13371277 C85.8193864 160.39336754 83.73589712 161.64320738 81.64689636 162.88371277 C80.69299011 163.47668152 79.73908386 164.06965027 78.75627136 164.68058777 C75.00758178 166.58565952 71.82240863 167.55899983 67.65080261 166.63761902 C61.62843041 164.05046804 55.8721784 161.07855456 50.1627655 157.86442566 C45.29172786 155.0821128 45.29172786 155.0821128 39.89689636 154.13371277 C37.14763281 155.10136484 34.64207026 156.43289872 32.08439636 157.82121277 C30.72371928 158.53345235 29.3630422 159.24569194 28.00236511 159.95793152 C25.9223001 161.05844114 23.84425314 162.16202097 21.77165222 163.27653503 C18.19008901 165.15095492 15.21903479 166.70366257 11.08439636 166.69621277 C10.35607605 166.71812683 9.62775574 166.74004089 8.87736511 166.76261902 C6.89689636 166.13371277 6.89689636 166.13371277 5.29440308 164.02575684 C3.60133759 160.52207421 3.53501769 158.11625804 3.55632019 154.23210144 C3.55566307 153.22151169 3.55566307 153.22151169 3.55499268 152.19050598 C3.55707245 149.97726334 3.5803637 147.76479081 3.60392761 145.55168152 C3.60952649 144.01183486 3.61379521 142.47198283 3.61679077 140.93212891 C3.62821669 136.88947156 3.65766414 132.84714021 3.69090271 128.80461121 C3.72165241 124.67542429 3.73530655 120.54618443 3.75041199 116.41691589 C3.78253629 108.32236565 3.83370502 100.22807982 3.89689636 92.13371277 C2.36512756 92.9890863 2.36512756 92.9890863 0.80241394 93.86174011 C-0.5551635 94.60650182 -1.91300639 95.35077981 -3.27107239 96.09465027 C-4.27744751 96.65913879 -4.27744751 96.65913879 -5.30415344 97.23503113 C-10.51222458 100.06885793 -14.12079066 101.14766412 -20.10310364 100.13371277 C-23.02492997 97.21188644 -22.41406919 94.14826353 -22.42536926 90.23088074 C-22.43529907 89.41438553 -22.44522888 88.59789032 -22.45545959 87.75665283 C-22.48474606 85.04636798 -22.49831693 82.33631759 -22.50935364 79.62590027 C-22.52085735 77.74220269 -22.53237281 75.85850518 -22.54389954 73.97480774 C-22.56493474 70.01865039 -22.5766086 66.06257445 -22.58357239 62.10636902 C-22.59451583 57.04877527 -22.64250518 51.99226561 -22.6995163 46.93501091 C-22.73686824 43.04008407 -22.74718562 39.14541503 -22.75024414 35.25032425 C-22.75628105 33.38684824 -22.77228397 31.5233759 -22.7986145 29.66007614 C-23.0297817 12.03605637 -23.0297817 12.03605637 -17.69160461 6.44306946 C-11.84312236 1.62232998 -7.50712517 0.01446196 0 0 Z " fill="#414041" transform="translate(40.10310363769531,13.866287231445313)"/>
<path d="M0 0 C15.5078751 -0.04678668 31.0157449 -0.08202148 46.52367401 -0.10362434 C53.7247911 -0.11392296 60.92586425 -0.12795615 68.12695312 -0.15087891 C74.4057482 -0.1708562 80.68451144 -0.18372672 86.96333742 -0.18817699 C90.28581985 -0.19077705 93.60819037 -0.19791868 96.9306488 -0.21146011 C100.64587785 -0.22599878 104.36091891 -0.22797691 108.07617188 -0.22705078 C109.16949829 -0.23424133 110.26282471 -0.24143188 111.38928223 -0.24884033 C119.15168474 -0.22793166 126.54674839 0.16006129 133 5 C133 5.66 133 6.32 133 7 C133.99 7.33 134.98 7.66 136 8 C138.65604421 12.24200854 139.37314367 15.4937695 139.36076355 20.45407104 C139.36694954 22.37224892 139.36694954 22.37224892 139.3732605 24.32917786 C139.36264512 25.7336142 139.35174072 27.13804838 139.34057617 28.54248047 C139.33972936 30.03103112 139.3402061 31.51958301 139.34190369 33.00813293 C139.34276296 37.03875124 139.32514837 41.06910066 139.30418181 45.09965658 C139.28540358 49.31570153 139.28366367 53.53175293 139.28010559 57.74783325 C139.27078849 65.72691019 139.24617926 73.70586354 139.21605712 81.6848861 C139.18250268 90.7706874 139.16602448 99.85649466 139.15097082 108.94234252 C139.11962939 127.62829837 139.06687542 146.31413924 139 165 C134.91696902 167.29514233 132.60855266 167.07322459 128 166 C125.46196414 164.80094954 123.10583091 163.58386767 120.6875 162.1875 C119.36606809 161.46602388 118.0431473 160.74726806 116.71875 160.03125 C114.52335526 158.83578201 112.33703267 157.62844688 110.15625 156.40625 C106.71018357 154.70502733 104.39347657 153.63412771 100.58984375 154.6328125 C97.91208404 155.91440273 95.49199723 157.38645017 93 159 C90.92249004 160.25965477 88.83900076 161.50949461 86.75 162.75 C85.79609375 163.34296875 84.8421875 163.9359375 83.859375 164.546875 C80.83780493 166.082427 78.33069532 166.51693965 75 167 C74.23496071 154.31873665 73.76061819 141.64054011 73.5625 128.9375 C73.54798798 128.01297279 73.53347595 127.08844559 73.51852417 126.1359024 C73.02221599 86.11848671 73.02221599 86.11848671 84.98817444 72.69047546 C90.11164765 67.59309898 95.94736667 63.02438794 102.18626404 59.36351013 C105.44094773 57.43861154 106.83625134 56.52108427 107.99414062 52.83642578 C108.22806894 50.04621911 108.22806894 50.04621911 106.9375 48.0625 C103.9886541 46.44539096 102.19737526 47.14061387 99 48 C96.32250033 50.02440443 96.32250033 50.02440443 93.890625 52.69140625 C92.51197266 54.10776367 92.51197266 54.10776367 91.10546875 55.55273438 C90.15287936 56.55526185 89.20106494 57.55852621 88.25 58.5625 C86.36609247 60.52882454 84.47340986 62.48597483 82.578125 64.44140625 C81.74700195 65.31482666 80.91587891 66.18824707 80.05957031 67.08813477 C78 69 78 69 76 69 C75.99453156 67.95216591 75.99453156 67.95216591 75.98895264 66.88316345 C75.95097666 60.27752475 75.89401612 53.67234863 75.81609726 47.06705379 C75.7767042 43.6717183 75.74447635 40.27663895 75.72900391 36.88110352 C75.71086582 32.97118316 75.66087836 29.06197244 75.609375 25.15234375 C75.60814636 23.94166733 75.60691772 22.73099091 75.60565186 21.48362732 C75.49129523 14.86849375 75.33273589 10.1743306 71 5 C64.55791679 0.66585126 56.82505542 1.52179513 49.31640625 1.48828125 C47.89149954 1.47141582 46.46660753 1.45326308 45.04173279 1.43388367 C41.31166176 1.38657933 37.58165039 1.35664413 33.85137939 1.33044434 C30.0368675 1.30053936 26.22256078 1.25404346 22.40820312 1.20898438 C14.93890433 1.12317428 7.46959026 1.05573072 0 1 C0 0.67 0 0.34 0 0 Z " fill="#231F1F" transform="translate(35,14)"/>
<path d="M0 0 C4.50837566 2.29838759 6.52864756 4.33722105 8.40810585 9.03489876 C9.39564077 12.31353584 9.39246788 15.56690159 9.34057617 18.95483398 C9.34123329 20.09753502 9.34123329 20.09753502 9.34190369 21.26332092 C9.33982929 23.75784785 9.31656311 26.25168561 9.29296875 28.74609375 C9.28736798 30.48486463 9.28310015 32.22364028 9.28010559 33.9624176 C9.2686947 38.5212428 9.23926017 43.07977766 9.20599365 47.63848877 C9.17521149 52.29736403 9.1615829 56.95628656 9.14648438 61.61523438 C9.1143866 70.74361659 9.06323604 79.87178408 9 89 C7.25312297 89.99334717 5.50624593 90.98669434 3.7593689 91.9800415 C2.37505993 92.7825666 1.01457289 93.62619114 -0.3359375 94.484375 C-5.45626232 97.66250765 -9.94337584 99.21644671 -16 98 C-18.92182633 95.07817367 -18.31096556 92.01455077 -18.32226562 88.09716797 C-18.33219543 87.28067276 -18.34212524 86.46417755 -18.35235596 85.62294006 C-18.38164243 82.91265521 -18.39521329 80.20260482 -18.40625 77.4921875 C-18.41775372 75.60848992 -18.42926918 73.72479241 -18.4407959 71.84109497 C-18.4618311 67.88493762 -18.47350496 63.92886168 -18.48046875 59.97265625 C-18.49141219 54.9150625 -18.53940154 49.85855284 -18.59641266 44.80129814 C-18.6337646 40.9063713 -18.64408198 37.01170226 -18.6471405 33.11661148 C-18.65317741 31.25313547 -18.66918033 29.38966313 -18.69551086 27.52636337 C-18.92673344 9.89812159 -18.92673344 9.89812159 -13.58239746 4.32156372 C-12.79911072 3.66738968 -12.79911072 3.66738968 -12 3 C-11.01 2.154375 -10.02 1.30875 -9 0.4375 C-5.31002001 -1.33061541 -3.85787411 -1.28595804 0 0 Z " fill="#FEF100" transform="translate(36,16)"/>
<path d="M0 0 C2 3 2 3 1.95791626 5.81216431 C0.75069575 9.82965601 -1.4144163 12.13163928 -4.32666016 15.00537109 C-4.88126923 15.57195435 -5.4358783 16.1385376 -6.0072937 16.72229004 C-7.83856299 18.58567966 -9.68767684 20.43004839 -11.5390625 22.2734375 C-12.82182674 23.56465199 -14.10399399 24.85645981 -15.3855896 26.14883423 C-18.07241268 28.85204071 -20.76857035 31.54550177 -23.47119141 34.23291016 C-26.93181248 37.67623524 -30.36443708 41.14603802 -33.79010963 44.62409019 C-36.43046473 47.29753538 -39.08688685 49.95454821 -41.74824142 52.60707474 C-43.02070808 53.87990118 -44.28772323 55.1582021 -45.54909134 56.44202805 C-47.31543461 58.23561697 -49.10266897 60.00543836 -50.89697266 61.77099609 C-51.41257751 62.30391266 -51.92818237 62.83682922 -52.45941162 63.38589478 C-55.27733037 66.10813091 -56.81478426 66.97868584 -60.75643921 67.43228149 C-64 67 -64 67 -66 65.3125 C-67.31431626 62.27314366 -67.03941286 61.14316392 -66 58 C-64.254259 55.88544536 -62.54522867 54.02859036 -60.59399414 52.12402344 C-60.03135361 51.5591925 -59.46871307 50.99436157 -58.88902283 50.41241455 C-57.03054221 48.55162612 -55.15818892 46.70550557 -53.28515625 44.859375 C-51.99020237 43.56934507 -50.69605926 42.2785008 -49.4026947 40.98687744 C-46.69249145 38.28431096 -43.97596189 35.58833551 -41.25415039 32.89746094 C-37.76056742 29.44351178 -34.27789491 25.97882419 -30.79923344 22.50985336 C-27.48556589 19.20614564 -24.16695153 15.90742696 -20.84765625 12.609375 C-20.21227495 11.97738945 -19.57689365 11.3454039 -18.92225838 10.69426727 C-17.12933913 8.91289276 -15.33298983 7.13505863 -13.53540039 5.35839844 C-13.00181915 4.8275061 -12.46823792 4.29661377 -11.91848755 3.74963379 C-7.60717938 -0.49863097 -6.01568637 -1.50392159 0 0 Z " fill="#F9EC01" transform="translate(142,61)"/>
<path d="M0 0 C4.69327902 2.65657303 7.56838922 5.64266766 9.3125 10.875 C9.8429595 17.13442213 9.17393217 21.77355862 5.3125 26.875 C1.58366187 30.35132087 -2.13812255 32.16707645 -7.25 32.4375 C-12.75962614 32.06766279 -16.55539188 30.26619974 -20.23046875 26.14453125 C-23.24838368 21.90930609 -24.43230021 18.24955898 -24.109375 13.046875 C-23.16087224 8.16384229 -20.77536841 4.88326829 -17.125 1.5 C-11.65328897 -2.14780735 -6.05342054 -1.84680627 0 0 Z " fill="#F9EC01" transform="translate(95.6875,58.125)"/>
<path d="M0 0 C4.48741845 2.48615324 7.11474899 5.40674698 8.75 10.3125 C9.2804595 16.57192213 8.61143217 21.21105862 4.75 26.3125 C1.02116187 29.78882087 -2.70062255 31.60457645 -7.8125 31.875 C-13.32212614 31.50516279 -17.11789188 29.70369974 -20.79296875 25.58203125 C-23.81088368 21.34680609 -24.99480021 17.68705898 -24.671875 12.484375 C-23.72337224 7.60134229 -21.33786841 4.32076829 -17.6875 0.9375 C-12.08778076 -2.79564616 -5.96527425 -2.76521124 0 0 Z " fill="#F9BA00" transform="translate(138.25,100.6875)"/>
<path d="M0 0 C2 3 2 3 2.05273438 5.72705078 C0.54218505 10.42334584 -2.34566208 12.9874943 -5.84375 16.3671875 C-6.52804077 17.04677521 -7.21233154 17.72636292 -7.9173584 18.42654419 C-10.10012218 20.587998 -12.29993489 22.73117427 -14.5 24.875 C-15.98155582 26.34004733 -17.46203772 27.80618153 -18.94140625 29.2734375 C-21.64035184 31.93841739 -24.33950265 34.60307252 -27.05664062 37.24951172 C-27.87485291 38.04843338 -27.87485291 38.04843338 -28.70959473 38.86349487 C-30 40 -30 40 -31 40 C-33.64117368 27.31484044 -33.64117368 27.31484044 -31.08441162 22.1506958 C-28.03515232 17.88832479 -24.10540158 14.50321072 -20.1875 11.0625 C-19.03981978 9.99168857 -17.89589736 8.91683473 -16.75585938 7.83789062 C-6.62357116 -1.65589279 -6.62357116 -1.65589279 0 0 Z " fill="#F9BA00" transform="translate(142,61)"/>
<path d="M0 0 C3.125 0.375 3.125 0.375 6 1 C6.6875 3.3125 6.6875 3.3125 7 6 C5.875 7.875 5.875 7.875 4 9 C1.3125 8.6875 1.3125 8.6875 -1 8 C-1.625 5.125 -1.625 5.125 -2 2 C-1.34 1.34 -0.68 0.68 0 0 Z " fill="#4F4D3C" transform="translate(86,69)"/>
<path d="M0 0 C0.763125 0.20625 1.52625 0.4125 2.3125 0.625 C3 2.9375 3 2.9375 3.3125 5.625 C2.1875 7.5 2.1875 7.5 0.3125 8.625 C-2.375 8.3125 -2.375 8.3125 -4.6875 7.625 C-5.0175 5.645 -5.3475 3.665 -5.6875 1.625 C-2.6875 -0.375 -2.6875 -0.375 0 0 Z " fill="#322A1D" transform="translate(131.6875,111.375)"/>
</svg>
