<?xml version="1.0" encoding="UTF-8"?>
<svg version="1.1" xmlns="http://www.w3.org/2000/svg" width="192" height="192">
<path d="M0 0 C16.91139573 -0.46746948 33.88029937 4.10735452 47.65234375 14.12109375 C47.65234375 14.78109375 47.65234375 15.44109375 47.65234375 16.12109375 C48.64234375 16.12109375 49.63234375 16.12109375 50.65234375 16.12109375 C53.49113918 18.66106861 55.93273318 21.4314366 58.33984375 24.37109375 C60.35657595 27.13851569 60.35657595 27.13851569 62.65234375 28.12109375 C62.65234375 29.11109375 62.65234375 30.10109375 62.65234375 31.12109375 C63.31234375 31.12109375 63.97234375 31.12109375 64.65234375 31.12109375 C75.08664443 46.43311572 79.33844809 62.75220934 78.65234375 81.12109375 C78.62398437 81.97316406 78.595625 82.82523437 78.56640625 83.703125 C77.92994357 94.29568244 74.18633146 103.37093438 69.58984375 112.80859375 C69.24945068 113.51653076 68.90905762 114.22446777 68.55834961 114.95385742 C66.01508166 120.00018111 66.01508166 120.00018111 62.65234375 121.12109375 C62.65234375 122.11109375 62.65234375 123.10109375 62.65234375 124.12109375 C60.46484375 126.49609375 60.46484375 126.49609375 57.65234375 129.12109375 C56.32203125 130.51328125 56.32203125 130.51328125 54.96484375 131.93359375 C52.65234375 134.12109375 52.65234375 134.12109375 50.65234375 134.12109375 C50.65234375 134.78109375 50.65234375 135.44109375 50.65234375 136.12109375 C35.71093591 148.9390457 15.74249881 153.02674405 -3.34765625 152.12109375 C-19.12220639 150.75617594 -32.29490895 144.82292528 -45.34765625 136.12109375 C-45.34765625 135.46109375 -45.34765625 134.80109375 -45.34765625 134.12109375 C-45.88390625 133.91484375 -46.42015625 133.70859375 -46.97265625 133.49609375 C-50.26743634 131.58858949 -52.94129253 129.07289991 -55.34765625 126.12109375 C-55.34765625 125.46109375 -55.34765625 124.80109375 -55.34765625 124.12109375 C-56.00765625 124.12109375 -56.66765625 124.12109375 -57.34765625 124.12109375 C-67.38371301 112.42243723 -72.66459752 96.29780489 -73.34765625 81.12109375 C-73.38890625 80.23550781 -73.43015625 79.34992188 -73.47265625 78.4375 C-73.95898094 57.49514322 -66.68240117 38.42504419 -52.36328125 23.1796875 C-51.698125 22.50035156 -51.03296875 21.82101563 -50.34765625 21.12109375 C-49.80625 20.53457031 -49.26484375 19.94804688 -48.70703125 19.34375 C-47.34765625 18.12109375 -47.34765625 18.12109375 -45.34765625 18.12109375 C-45.34765625 17.46109375 -45.34765625 16.80109375 -45.34765625 16.12109375 C-44.35765625 16.12109375 -43.36765625 16.12109375 -42.34765625 16.12109375 C-42.01765625 15.13109375 -41.68765625 14.14109375 -41.34765625 13.12109375 C-38.94467478 11.66555647 -36.61766579 10.40206941 -34.09765625 9.18359375 C-33.37690918 8.83095459 -32.65616211 8.47831543 -31.91357422 8.11499023 C-21.48258769 3.13870813 -11.4932156 0.59282809 0 0 Z " fill="#17689C" transform="translate(93.34765625,19.87890625)"/>
<path d="M0 0 C11.88 0 23.76 0 36 0 C36 18.14826885 29.36551912 34.15360273 17.859375 48.1796875 C15.99829678 50.00166744 14.38737519 50.99645733 12 52 C11.05125 51.13375 10.1025 50.2675 9.125 49.375 C4.78218621 45.62965751 -0.02584651 42.82235671 -5 40 C-4.41109764 35.49263195 -3.58643532 31.1609274 -2.5 26.75 C-0.53202231 17.86050076 -0.32946462 9.09322341 0 0 Z " fill="#3691CD" transform="translate(133,97)"/>
<path d="M0 0 C11.88 0 23.76 0 36 0 C36.495 8.415 36.495 8.415 37 17 C37.42232713 19.88743222 37.89882961 22.76944066 38.5 25.625 C39.48755422 30.41463798 40.35241636 35.15557621 41 40 C40.01257812 40.62648437 39.02515625 41.25296875 38.0078125 41.8984375 C36.71345611 42.72382418 35.41918996 43.54935239 34.125 44.375 C33.47402344 44.7875 32.82304688 45.2 32.15234375 45.625 C29.56302491 47.28002854 27.18002621 48.81997379 25 51 C21.74350489 50.86631793 20.34484113 50.32889472 17.97265625 48.06640625 C6.62139277 33.18673368 0 19.05752569 0 0 Z " fill="#3691CD" transform="translate(23,97)"/>
<path d="M0 0 C0.66 0 1.32 0 2 0 C2 0.66 2 1.32 2 2 C2.54398438 2.25652344 3.08796875 2.51304688 3.6484375 2.77734375 C6.42000816 4.21837634 9.00072388 5.86839183 11.625 7.5625 C15.23450102 9.91828365 15.23450102 9.91828365 19 12 C18.71125 13.2375 18.4225 14.475 18.125 15.75 C15.47481475 27.89198348 14.53169314 39.59382685 14 52 C2.12 52 -9.76 52 -22 52 C-22 31.45724716 -14.59060996 14.59060996 0 0 Z " fill="#3691CD" transform="translate(45,43)"/>
<path d="M0 0 C7.85312944 3.858474 12.64833325 14.32448842 16.02734375 21.99609375 C16.39601562 22.73472656 16.7646875 23.47335938 17.14453125 24.234375 C21.44269361 33.06600058 22.02734375 41.20158001 22.02734375 50.99609375 C10.14734375 50.99609375 -1.73265625 50.99609375 -13.97265625 50.99609375 C-14.07578125 48.17046875 -14.17890625 45.34484375 -14.28515625 42.43359375 C-14.68205418 33.67915949 -16.05464286 25.53333813 -17.97265625 16.99609375 C-18.31968007 14.99842371 -18.65751776 12.99904129 -18.97265625 10.99609375 C-18.080625 10.45339844 -17.18859375 9.91070312 -16.26953125 9.3515625 C-15.08717521 8.62901158 -13.90488712 7.90634945 -12.72265625 7.18359375 C-12.13613281 6.82716797 -11.54960937 6.47074219 -10.9453125 6.10351562 C-8.43901444 4.56876007 -6.05426611 3.06464016 -3.80078125 1.171875 C-1.97265625 -0.00390625 -1.97265625 -0.00390625 0 0 Z " fill="#3691CD" transform="translate(146.97265625,44.00390625)"/>
<path d="M0 0 C11.22 0 22.44 0 34 0 C34 10.89 34 21.78 34 33 C26.575 33.99 26.575 33.99 19 35 C16.3344667 35.63016059 13.67921798 36.31570578 11.0625 37.125 C9.89847656 37.47820312 8.73445313 37.83140625 7.53515625 38.1953125 C6.28025391 38.59363281 6.28025391 38.59363281 5 39 C1.15147666 25.25271664 0 14.77486677 0 0 Z " fill="#3691CD" transform="translate(61,97)"/>
<path d="M0 0 C11.22 0 22.44 0 34 0 C34 14.0651911 32.98247423 25.75163572 29 39 C28.05640625 38.70996094 28.05640625 38.70996094 27.09375 38.4140625 C24.40001239 37.59458208 21.70164727 36.7930015 19 36 C18.32066406 35.79890625 17.64132813 35.5978125 16.94140625 35.390625 C11.16243313 33.80471138 6.23163274 33.56651207 0 33 C0 22.11 0 11.22 0 0 Z " fill="#3691CD" transform="translate(97,97)"/>
<path d="M0 0 C3.19860656 3.19860656 3.29634914 7.27918658 4.125 11.625 C4.30675781 12.48351562 4.48851562 13.34203125 4.67578125 14.2265625 C6.33653904 22.81755016 6 29.8213541 6 39 C-5.22 39 -16.44 39 -28 39 C-28 28.11 -28 17.22 -28 6 C-23.05 5.34 -18.1 4.68 -13 4 C-6.3299419 2.47610021 -6.3299419 2.47610021 0 0 Z " fill="#3691CE" transform="translate(125,56)"/>
<path d="M0 0 C1.08796875 0.34933594 2.1759375 0.69867188 3.296875 1.05859375 C4.78104963 1.51887576 6.26543644 1.97847396 7.75 2.4375 C8.46027344 2.66759766 9.17054687 2.89769531 9.90234375 3.13476562 C16.53937399 5.16111556 21.69521196 5.39126766 29 6 C29 16.89 29 27.78 29 39 C17.78 39 6.56 39 -5 39 C-5 24.88657328 -4.45216963 13.14874098 0 0 Z " fill="#3691CE" transform="translate(66,56)"/>
<path d="M0 0 C0 12.21 0 24.42 0 37 C-12.39501779 37 -12.39501779 37 -19.0625 35.0625 C-20.33222656 34.70285156 -21.60195312 34.34320313 -22.91015625 33.97265625 C-26 33 -26 33 -28 32 C-26.82257641 21.946614 -20.60917935 11.65214854 -13 5 C-8.59961002 1.9518521 -5.42492607 0 0 0 Z " fill="#F8DF6F" transform="translate(95,23)"/>
<path d="M0 0 C0 12.21 0 24.42 0 37 C-8.49552532 35.78635353 -12.4715333 33.15653378 -17.953125 26.69921875 C-22.38873881 20.65328427 -28 12.71428162 -28 5 C-26.10546779 4.35035977 -24.20931351 3.70544885 -22.3125 3.0625 C-21.25675781 2.70285156 -20.20101562 2.34320313 -19.11328125 1.97265625 C-12.28515493 -0.16059777 -7.54320986 0 0 0 Z " fill="#67C6CA" transform="translate(95,132)"/>
<path d="M0 0 C8.84498523 1.4741642 13.84462241 5.05852088 19.25 12.1875 C28 24.98 28 24.98 28 32 C25.40095462 32.85314502 22.79769549 33.68224189 20.1875 34.5 C19.46884766 34.73847656 18.75019531 34.97695313 18.00976562 35.22265625 C11.45579007 37.24370598 7.41056411 37 0 37 C0 24.79 0 12.58 0 0 Z " fill="#F8DF6F" transform="translate(97,23)"/>
<path d="M0 0 C7.91192715 0 13.06575041 0.13672884 20.1875 2.5 C21.32928711 2.85771484 21.32928711 2.85771484 22.49414062 3.22265625 C24.33386217 3.80118504 26.16765186 4.39852581 28 5 C26.57350546 14.71113593 20.45880784 25.61772113 13 32 C8.59428008 35.04435995 5.4286061 37 0 37 C0 24.79 0 12.58 0 0 Z " fill="#68C6CA" transform="translate(97,132)"/>
<path d="M0 0 C16.91139573 -0.46746948 33.88029937 4.10735452 47.65234375 14.12109375 C47.65234375 14.78109375 47.65234375 15.44109375 47.65234375 16.12109375 C48.64234375 16.12109375 49.63234375 16.12109375 50.65234375 16.12109375 C53.49113918 18.66106861 55.93273318 21.4314366 58.33984375 24.37109375 C60.35657595 27.13851569 60.35657595 27.13851569 62.65234375 28.12109375 C62.65234375 29.11109375 62.65234375 30.10109375 62.65234375 31.12109375 C63.31234375 31.12109375 63.97234375 31.12109375 64.65234375 31.12109375 C75.24746223 46.669111 78.95632412 62.57829147 78.65234375 81.12109375 C78.32234375 81.12109375 77.99234375 81.12109375 77.65234375 81.12109375 C77.37970703 79.72310547 77.37970703 79.72310547 77.1015625 78.296875 C76.43426738 74.91249102 75.75320842 71.5315042 75.0625 68.15185547 C74.69509702 66.33277333 74.34448242 64.51031928 73.99609375 62.6875 C71.59382482 51.00503743 66.75444379 40.68679488 59.65234375 31.12109375 C59.20761719 30.51136719 58.76289063 29.90164062 58.3046875 29.2734375 C55.91578152 26.18320133 54.42993443 24.90266424 50.65234375 24.12109375 C50.24628906 23.22777344 50.24628906 23.22777344 49.83203125 22.31640625 C48.32525902 19.5124129 46.59482473 18.39320957 43.96484375 16.62109375 C43.13597656 16.05390625 42.30710937 15.48671875 41.453125 14.90234375 C34.95444245 10.76929041 29.08582379 8.06837449 21.71484375 5.87109375 C20.84021484 5.60296875 19.96558594 5.33484375 19.06445312 5.05859375 C16.929255 4.40519979 14.79203758 3.75957916 12.65234375 3.12109375 C12.65234375 3.78109375 12.65234375 4.44109375 12.65234375 5.12109375 C8.19734375 4.13109375 8.19734375 4.13109375 3.65234375 3.12109375 C3.65234375 15.33109375 3.65234375 27.54109375 3.65234375 40.12109375 C2.99234375 40.12109375 2.33234375 40.12109375 1.65234375 40.12109375 C1.65234375 27.91109375 1.65234375 15.70109375 1.65234375 3.12109375 C-13.78450883 5.05070032 -27.87511375 8.1183099 -40.484375 17.75390625 C-42.34765625 19.12109375 -42.34765625 19.12109375 -44.66015625 19.93359375 C-48.49154582 21.62653333 -51.28046871 24.31024177 -54.34765625 27.12109375 C-52.60908409 23.35418739 -50.4450725 20.90876838 -47.34765625 18.12109375 C-46.68765625 18.12109375 -46.02765625 18.12109375 -45.34765625 18.12109375 C-45.34765625 17.46109375 -45.34765625 16.80109375 -45.34765625 16.12109375 C-44.35765625 16.12109375 -43.36765625 16.12109375 -42.34765625 16.12109375 C-42.01765625 15.13109375 -41.68765625 14.14109375 -41.34765625 13.12109375 C-38.94467478 11.66555647 -36.61766579 10.40206941 -34.09765625 9.18359375 C-33.37690918 8.83095459 -32.65616211 8.47831543 -31.91357422 8.11499023 C-21.48258769 3.13870813 -11.4932156 0.59282809 0 0 Z M-57.34765625 28.12109375 C-55.34765625 29.12109375 -55.34765625 29.12109375 -55.34765625 29.12109375 Z " fill="#236A91" transform="translate(93.34765625,19.87890625)"/>
<path d="M0 0 C-1.051875 1.0209375 -1.051875 1.0209375 -2.125 2.0625 C-7.87891839 7.86490646 -12.18935075 13.62261449 -15.875 20.9375 C-16.2771875 21.71673828 -16.679375 22.49597656 -17.09375 23.29882812 C-18.07087918 25.19492403 -19.03665715 27.09686268 -20 29 C-24.6188849 27.68618385 -27.96699445 25.86177157 -31.8125 23 C-32.76769531 22.29875 -33.72289062 21.5975 -34.70703125 20.875 C-37 19 -37 19 -38 17 C-27.23866053 8.65360679 -14.22924195 -0.45172197 0 0 Z " fill="#F5DE70" transform="translate(85,24)"/>
<path d="M0 0 C0.95703125 1.71484375 0.95703125 1.71484375 1.8125 3.9375 C5.62200724 13.08907487 10.85709406 21.11219785 18 28 C3.842422 27.74718611 -8.46480365 19.79928331 -19 11 C-15.69434296 7.52605497 -12.41008028 4.71501021 -8.375 2.125 C-7.43398438 1.50882813 -6.49296875 0.89265625 -5.5234375 0.2578125 C-3 -1 -3 -1 0 0 Z " fill="#66C4C9" transform="translate(66,140)"/>
<path d="M0 0 C14.3379179 0.92502696 26.96398505 8.08264695 38 17 C33.54838326 22.06563284 28.03282005 25.9929287 22 29 C19 28 19 28 17.203125 24.68359375 C16.54614107 23.27097764 15.8954335 21.8554308 15.25 20.4375 C12.23607373 14.10461685 9.09858068 8.90496369 4 4 C3.195625 3.175 2.39125 2.35 1.5625 1.5 C1.046875 1.005 0.53125 0.51 0 0 Z " fill="#F6DE70" transform="translate(107,24)"/>
<path d="M0 0 C6.8646288 2.44075691 12.23663698 6.61234027 18 11 C14.35274187 14.90925398 10.64144532 17.8148942 6.0625 20.5625 C5.41442383 20.95163574 4.76634766 21.34077148 4.09863281 21.74169922 C-2.22472054 25.38107233 -8.75982829 27.81997201 -16 29 C-16.99 28.67 -17.98 28.34 -19 28 C-18.43152344 27.48953125 -17.86304687 26.9790625 -17.27734375 26.453125 C-9.2721641 18.91569375 -3.95170689 10.22794724 0 0 Z " fill="#67C5CA" transform="translate(127,139)"/>
<path d="M0 0 C0.99 0.33 1.98 0.66 3 1 C4.02734375 3.625 4.02734375 3.625 4.9375 7 C10.42108286 25.92454535 21.39538871 42.40951795 38.84765625 52.24609375 C46.63323662 56.39734198 54.26608476 59.41201541 63 61 C63 60.34 63 59.68 63 59 C63.845625 59.309375 64.69125 59.61875 65.5625 59.9375 C68.97899062 61.0937107 68.97899062 61.0937107 72.5625 61.5 C75.70196939 61.95665009 78.1289243 62.69496559 81 64 C81 64.33 81 64.66 81 65 C60.57082226 65.66256793 43.96564114 60.31042742 27 49 C27 48.34 27 47.68 27 47 C26.46375 46.79375 25.9275 46.5875 25.375 46.375 C22.08021991 44.46749574 19.40636372 41.95180616 17 39 C17 38.34 17 37.68 17 37 C16.34 37 15.68 37 15 37 C6.96894978 27.63850471 -0.39698852 12.52719321 0 0 Z " fill="#126097" transform="translate(21,107)"/>
<path d="M0 0 C10.61409344 5.30704672 15.43731099 16.80244962 20 27 C20.33 27.66 20.66 28.32 21 29 C27.26418531 27.51637716 31.91513505 23.75837844 37 20 C37.66 20.66 38.32 21.32 39 22 C37.43902526 23.1063219 35.87614673 24.20995785 34.3125 25.3125 C33.44238281 25.92738281 32.57226562 26.54226562 31.67578125 27.17578125 C24.59957173 32 24.59957173 32 22 32 C22.41572266 33.64548828 22.41572266 33.64548828 22.83984375 35.32421875 C23.20579237 36.77862993 23.57167427 38.2330579 23.9375 39.6875 C24.21110352 40.7693457 24.21110352 40.7693457 24.49023438 41.87304688 C27.04333175 52.0390164 27.89268814 61.59021524 26 72 C25.67 72 25.34 72 25 72 C24.96132812 70.63294922 24.96132812 70.63294922 24.921875 69.23828125 C24.4112411 57.57493875 22.39543444 46.41285514 20 35 C16.34068482 35 13.50510804 36.00306673 10 37.0625 C3.40151272 38.95901355 -2.18410326 39.30366424 -9 38 C-9 37.67 -9 37.34 -9 37 C-8.06800781 36.89042969 -7.13601562 36.78085937 -6.17578125 36.66796875 C2.36881981 35.60529339 10.6391578 34.1148842 19 32 C14.25749971 20.0548274 9.45957121 10.03468792 -1 2 C-0.67 1.34 -0.34 0.68 0 0 Z " fill="#1B6DA4" transform="translate(106,23)"/>
<path d="M0 0 C2.475 0.495 2.475 0.495 5 1 C-0 5 -0 5 -2.453125 6.8125 C-9.24852373 12.64903878 -15.0395402 23.25481169 -17 32 C-7.69393547 34.34560829 1.36598935 36.58384403 11 37 C4.32135403 40.64554911 -1.31013353 39.0378404 -8.3125 37 C-9.50488281 36.62875 -10.69726562 36.2575 -11.92578125 35.875 C-14.94818049 34.86312374 -14.94818049 34.86312374 -18 35 C-18.99 37.475 -18.99 37.475 -20 40 C-20.33 40 -20.66 40 -21 40 C-20.67 37.36 -20.34 34.72 -20 32 C-20.86882813 31.7525 -21.73765625 31.505 -22.6328125 31.25 C-26.21603562 29.91980116 -28.80518784 28.26284257 -31.875 26 C-32.84179688 25.29875 -33.80859375 24.5975 -34.8046875 23.875 C-35.52914062 23.25625 -36.25359375 22.6375 -37 22 C-37 21.34 -37 20.68 -37 20 C-39.85897003 22.3391573 -42.61189137 24.60080255 -45.1875 27.25 C-47 29 -47 29 -50 30 C-48.57390841 26.63797061 -46.85651485 24.76324421 -44.0625 22.4375 C-41.60267986 20.3730902 -39.23631078 18.30641457 -37 16 C-36.01 16.33 -35.02 16.66 -34 17 C-34.66 17.66 -35.32 18.32 -36 19 C-34.29908111 20.30141481 -32.58889459 21.59072165 -30.875 22.875 C-29.92367187 23.59429687 -28.97234375 24.31359375 -27.9921875 25.0546875 C-25.02751726 26.98211019 -22.38877345 28.04470778 -19 29 C-18.25556641 27.40671875 -18.25556641 27.40671875 -17.49609375 25.78125 C-13.75834383 17.94734847 -10.17824374 11.20952599 -4 5 C-2.65407903 3.34348188 -1.3140151 1.68193932 0 0 Z " fill="#1C6796" transform="translate(84,23)"/>
<path d="M0 0 C2.475 0.99 2.475 0.99 5 2 C5 2.66 5 3.32 5 4 C5.99 4 6.98 4 8 4 C10.83879543 6.53997486 13.28038943 9.31034285 15.6875 12.25 C17.7042322 15.01742194 17.7042322 15.01742194 20 16 C20 16.99 20 17.98 20 19 C20.66 19 21.32 19 22 19 C32.59511848 34.54801725 36.30398037 50.45719772 36 69 C35.67 69 35.34 69 35 69 C34.81824219 68.06800781 34.63648438 67.13601562 34.44921875 66.17578125 C33.78192363 62.79139727 33.10086467 59.41041045 32.41015625 56.03076172 C32.04275327 54.21167958 31.69213867 52.38922553 31.34375 50.56640625 C28.94148107 38.88394368 24.10210004 28.56570113 17 19 C16.55527344 18.39027344 16.11054688 17.78054687 15.65234375 17.15234375 C13.26343777 14.06210758 11.77759068 12.78157049 8 12 C7.31513275 10.67592331 6.65129797 9.34090759 6 8 C5.154375 7.34 4.30875 6.68 3.4375 6 C0.91933482 3.93381319 0.3380332 3.15497657 0 0 Z " fill="#125F92" transform="translate(136,32)"/>
<path d="M0 0 C0.33 0 0.66 0 1 0 C1.19335938 1.16917969 1.38671875 2.33835937 1.5859375 3.54296875 C1.84866686 5.09119532 2.11170392 6.6393697 2.375 8.1875 C2.50132813 8.95642578 2.62765625 9.72535156 2.7578125 10.51757812 C3.45464362 14.57661938 4.2621127 18.22954016 6 22 C6.89203125 21.72285156 7.7840625 21.44570312 8.703125 21.16015625 C9.87359375 20.79792969 11.0440625 20.43570313 12.25 20.0625 C13.41015625 19.70285156 14.5703125 19.34320313 15.765625 18.97265625 C21.17173235 17.34690658 25.34056851 16.73050326 31 17 C31.99 17.66 32.98 18.32 34 19 C32.47632812 19.16435547 32.47632812 19.16435547 30.921875 19.33203125 C22.41486749 20.29591003 14.2589034 21.65372062 6 24 C10.28667605 35.12262535 15.29838457 44.60777534 24 53 C21 53 21 53 18.5625 50.8125 C12.27013119 43.90624154 6.41431192 36.1743853 4 27 C0.08223634 28.42010013 -3.20298603 30.2854438 -6.6875 32.5625 C-11.86547085 35.93273543 -11.86547085 35.93273543 -14 37 C-14.66 36.34 -15.32 35.68 -16 35 C-15.29230469 34.57976562 -14.58460937 34.15953125 -13.85546875 33.7265625 C-10.00019691 31.3954679 -6.21777595 28.95565061 -2.42578125 26.5234375 C-0 25 -0 25 2 24 C1.54504445 20.66365927 1.06483885 17.35105606 0.453125 14.0390625 C0.16695312 12.47285156 0.16695312 12.47285156 -0.125 10.875 C-0.40730469 9.38613281 -0.40730469 9.38613281 -0.6953125 7.8671875 C-1.0037984 4.96425613 -0.73063333 2.80933659 0 0 Z " fill="#1D6F9F" transform="translate(61,113)"/>
<path d="M0 0 C0.33 0 0.66 0 1 0 C1.84423812 11.9131379 -1.94412903 21.15663921 -7.0625 31.6875 C-7.4028125 32.39543701 -7.743125 33.10337402 -8.09375 33.83276367 C-10.63771224 38.87923741 -10.63771224 38.87923741 -14 40 C-14 40.99 -14 41.98 -14 43 C-16.1875 45.375 -16.1875 45.375 -19 48 C-19.886875 48.928125 -20.77375 49.85625 -21.6875 50.8125 C-24 53 -24 53 -26 53 C-26 53.66 -26 54.32 -26 55 C-27.32 55.66 -28.64 56.32 -30 57 C-28.51330148 53.55957724 -26.53310132 51.30757914 -23.9375 48.625 C-12.19519371 35.78598878 -5.40582312 21.3272638 -1.796875 4.4296875 C-1 1 -1 1 0 0 Z " fill="#105E92" transform="translate(170,101)"/>
<path d="M0 0 C-2.82463904 2.82463904 -6.15701909 3.40290875 -10 4 C-11.07507813 3.97550781 -12.15015625 3.95101563 -13.2578125 3.92578125 C-17.5435061 4.01077935 -21.10578447 4.83896529 -25.1875 6.0625 C-26.29581177 6.39096924 -26.29581177 6.39096924 -27.42651367 6.72607422 C-35.09311244 9.13346432 -41.77161589 12.77945655 -48.1796875 17.66015625 C-50 19 -50 19 -52.3125 19.8125 C-56.14388957 21.50543958 -58.93281246 24.18914802 -62 27 C-60.26142784 23.23309364 -58.09741625 20.78767463 -55 18 C-54.34 18 -53.68 18 -53 18 C-53 17.34 -53 16.68 -53 16 C-52.01 16 -51.02 16 -50 16 C-49.67 15.01 -49.34 14.02 -49 13 C-46.59701853 11.54446272 -44.27000954 10.28097566 -41.75 9.0625 C-41.02925293 8.70986084 -40.30850586 8.35722168 -39.56591797 7.99389648 C-26.5107495 1.7657031 -14.3336729 -0.27447459 0 0 Z M-65 28 C-63 29 -63 29 -63 29 Z " fill="#156191" transform="translate(101,20)"/>
<path d="M0 0 C0.33 0.99 0.66 1.98 1 3 C-0.15490063 4.5748645 -1.31121014 6.1487065 -2.47265625 7.71875 C-10.88034977 20.27653264 -12.55015464 35.42259801 -15 50 C-15.33 50 -15.66 50 -16 50 C-16.57835462 33.96672478 -13.789395 16.23759981 -4 3 C-1.84765625 1.26171875 -1.84765625 1.26171875 0 0 Z " fill="#0F6093" transform="translate(36,51)"/>
<path d="M0 0 C10.63332088 5.31666044 15.40798484 16.80302515 20 27 C20.65821466 28.33752595 21.3197633 29.67353844 22 31 C21.01 31.33 20.02 31.66 19 32 C18.5875 30.96101563 18.175 29.92203125 17.75 28.8515625 C13.31566157 18.01669218 8.47278976 9.27667587 -1 2 C-0.67 1.34 -0.34 0.68 0 0 Z " fill="#3B778E" transform="translate(106,23)"/>
<path d="M0 0 C2.475 0.495 2.475 0.495 5 1 C-0 5 -0 5 -2.453125 6.8125 C-8.75990186 12.22936356 -12.483559 20.57640233 -16 28 C-16.66385027 29.33473782 -17.32982381 30.66842721 -18 32 C-18.66 31.34 -19.32 30.68 -20 30 C-14.55768618 18.63588876 -9.54077884 9.40400519 0 1 C0 0.67 0 0.34 0 0 Z " fill="#38768E" transform="translate(84,23)"/>
<path d="M0 0 C0.99 0 1.98 0 3 0 C2.6889315 2.06271639 2.37608484 4.12516466 2.0625 6.1875 C1.88847656 7.33605469 1.71445312 8.48460938 1.53515625 9.66796875 C1.22664238 11.58886168 0.88817769 13.50648926 0.46875 15.40625 C-0.18566197 19.02732958 -0.36240893 22.64197694 -0.5625 26.3125 C-0.60568359 27.05306641 -0.64886719 27.79363281 -0.69335938 28.55664062 C-0.79870432 30.37091464 -0.89978316 32.1854355 -1 34 C-1.33 34 -1.66 34 -2 34 C-3.55382302 21.95787161 -2.63757746 11.77489939 0 0 Z " fill="#1C6FA5" transform="translate(62,61)"/>
<path d="M0 0 C0.66 0.66 1.32 1.32 2 2 C-1.56940282 11.1218072 -6.15482766 18.70582076 -13.36328125 25.40625 C-15.09672895 26.91944357 -15.09672895 26.91944357 -16 29 C-18 28 -18 28 -19 26 C-18.25556641 25.54173828 -18.25556641 25.54173828 -17.49609375 25.07421875 C-8.53119182 19.03524307 -3.91356799 9.84468966 0 0 Z " fill="#23759F" transform="translate(124,140)"/>
<path d="M0 0 C0 0.66 0 1.32 0 2 C-2.98836106 3.03762537 -5.98967829 4.02801525 -9 5 C-9.65742187 5.22429688 -10.31484375 5.44859375 -10.9921875 5.6796875 C-16.7648356 7.42824896 -22.08317286 6.80486252 -28 6 C-28 5.67 -28 5.34 -28 5 C-27.04480469 4.89042969 -26.08960937 4.78085937 -25.10546875 4.66796875 C-17.89350008 3.78354986 -11.05340098 2.69325411 -4.07421875 0.5859375 C-2 0 -2 0 0 0 Z " fill="#2E7396" transform="translate(125,55)"/>
<path d="M0 0 C0.88300781 0.20496094 1.76601562 0.40992188 2.67578125 0.62109375 C10.12257829 2.2928237 17.37887379 3.54895375 25 4 C18.33473162 7.63824693 12.46654441 6.02978894 5.5 4 C3.33020366 3.34359102 1.16242091 2.6803122 -1 2 C-0.67 1.34 -0.34 0.68 0 0 Z " fill="#297199" transform="translate(70,56)"/>
<path d="M0 0 C0.66 0.33 1.32 0.66 2 1 C1.05249713 3.31825574 0.46170489 4.71342455 -1.69921875 6.0546875 C-2.35535156 6.32539062 -3.01148438 6.59609375 -3.6875 6.875 C-8.12767894 8.90433224 -11.4579313 11.67931059 -15 15 C-13.26142784 11.23309364 -11.09741625 8.78767463 -8 6 C-7.34 6 -6.68 6 -6 6 C-6 5.34 -6 4.68 -6 4 C-5.01 4 -4.02 4 -3 4 C-2.67 3.01 -2.34 2.02 -2 1 C-1.34 0.67 -0.68 0.34 0 0 Z M-18 16 C-16 17 -16 17 -16 17 Z " fill="#115582" transform="translate(54,32)"/>
<path d="M0 0 C-0.53895377 3.7726764 -1.99535358 5.68212991 -5 8 C-7.25 7.75 -7.25 7.75 -9 7 C-6.79922603 2.09058114 -5.62803596 0 0 0 Z " fill="#0C5297" transform="translate(157,156)"/>
<path d="M0 0 C3 0 3 0 5.6875 2.3125 C8 5 8 5 8 8 C3.68607774 7.5206753 1.83430453 6.2542015 -1 3 C-0.67 2.01 -0.34 1.02 0 0 Z " fill="#0B5490" transform="translate(36,156)"/>
<path d="M0 0 C6.625 0.75 6.625 0.75 10 3 C10 3.99 10 4.98 10 6 C6.28111761 5.49287967 3.26545761 4.88391785 0 3 C0 2.01 0 1.02 0 0 Z " fill="#0C5689" transform="translate(118,12)"/>
<path d="M0 0 C3 1 3 1 4.1875 3.3125 C5 6 5 6 5 10 C3.125 9.8125 3.125 9.8125 1 9 C-0.5225431 6.31742407 -1.12235992 4.75455283 -0.625 1.6875 C-0.41875 1.130625 -0.2125 0.57375 0 0 Z " fill="#0C5587" transform="translate(171,54)"/>
<path d="M0 0 C-1 3 -1 3 -3.3125 4.75 C-6 6 -6 6 -8.3125 5.6875 C-8.869375 5.460625 -9.42625 5.23375 -10 5 C-9 2 -9 2 -6.125 0.25 C-3 -1 -3 -1 0 0 Z " fill="#0C538C" transform="translate(61,18)"/>
<path d="M0 0 C-1 3 -1 3 -3.3125 4.1875 C-6 5 -6 5 -10 5 C-9.8125 3.125 -9.8125 3.125 -9 1 C-5.6868424 -0.8804408 -3.58825658 -1.32898392 0 0 Z " fill="#0D5691" transform="translate(74,13)"/>
<path d="M0 0 C0 1.32 0 2.64 0 4 C-3.3 4.33 -6.6 4.66 -10 5 C-9.67 3.68 -9.34 2.36 -9 1 C-5.846632 0.29925156 -3.27275026 0 0 0 Z " fill="#0C5382" transform="translate(87,9)"/>
<path d="M0 0 C-1 3 -1 3 -4.4375 4.75 C-5.613125 5.1625 -6.78875 5.575 -8 6 C-8.66 5.67 -9.32 5.34 -10 5 C-10 4.01 -10 3.02 -10 2 C-3.375 -1.125 -3.375 -1.125 0 0 Z " fill="#0C5786" transform="translate(135,172)"/>
<path d="M0 0 C3.17538332 0.34021964 4.02276865 1.02466604 6.25 3.4375 C8 6 8 6 8 8 C7.01 8.33 6.02 8.66 5 9 C0 3.375 0 3.375 0 0 Z " fill="#0C598D" transform="translate(26,146)"/>
<path d="M0 0 C3.80881639 1.44472346 5.29742886 3.32603071 7 7 C6.67 7.99 6.34 8.98 6 10 C3.54896452 9.01958581 2.23241214 8.3486182 0.75 6.125 C0 4 0 4 0 0 Z " fill="#0C578A" transform="translate(19,134)"/>
<path d="M0 0 C0.99 0.33 1.98 0.66 3 1 C2.44271087 4.34373475 1.64826111 7.03312999 0 10 C-0.99 10 -1.98 10 -3 10 C-2.69201674 8.51988629 -2.378482 7.04092675 -2.0625 5.5625 C-1.88847656 4.73878906 -1.71445313 3.91507812 -1.53515625 3.06640625 C-1 1 -1 1 0 0 Z " fill="#0C5A8D" transform="translate(176,121)"/>
<path d="M0 0 C0.99 0.33 1.98 0.66 3 1 C3.73046875 3.06640625 3.73046875 3.06640625 4.1875 5.5625 C4.34605469 6.38878906 4.50460938 7.21507812 4.66796875 8.06640625 C4.77753906 8.70449219 4.88710938 9.34257812 5 10 C3.08203125 9.64453125 3.08203125 9.64453125 1 9 C-0.5225431 6.31742407 -1.12235992 4.75455283 -0.625 1.6875 C-0.41875 1.130625 -0.2125 0.57375 0 0 Z " fill="#0C5484" transform="translate(14,121)"/>
<path d="M0 0 C1.32 0 2.64 0 4 0 C3.5020163 3.73487777 3.12508244 5.81237635 1 9 C-0.32 8.67 -1.64 8.34 -3 8 C-2.01 5.36 -1.02 2.72 0 0 Z " fill="#0C5585" transform="translate(18,55)"/>
<path d="M0 0 C4.31392226 0.4793247 6.16569547 1.7457985 9 5 C8.67 5.99 8.34 6.98 8 8 C4.67689517 6.83242263 2.16638868 5.85051143 0 3 C0 2.01 0 1.02 0 0 Z " fill="#0C588F" transform="translate(153,33)"/>
<path d="M0 0 C-1.44126786 3.36295835 -3.20592655 5.62927102 -6 8 C-6.99 8 -7.98 8 -9 8 C-8.20944111 2.46608774 -5.52734603 0 0 0 Z " fill="#0D5A8E" transform="translate(39,33)"/>
<path d="M0 0 C3.31562557 0.55260426 6.15062207 1.16825705 9 3 C9.33 3.99 9.66 4.98 10 6 C8.375 6.75 8.375 6.75 6 7 C2.75 5.25 2.75 5.25 0 3 C0 2.01 0 1.02 0 0 Z " fill="#0C5689" transform="translate(131,17)"/>
<path d="M0 0 C2.97 0.99 5.94 1.98 9 3 C8.67 4.32 8.34 5.64 8 7 C4.22454612 5.90931332 1.52956528 5.0916909 -1 2 C-0.67 1.34 -0.34 0.68 0 0 Z " fill="#0C5489" transform="translate(58,171)"/>
<path d="M0 0 C0.99 0 1.98 0 3 0 C2.67 2.97 2.34 5.94 2 9 C0.68 9.33 -0.64 9.66 -2 10 C-1.125 2.25 -1.125 2.25 0 0 Z " fill="#0D5E93" transform="translate(179,108)"/>
<path d="M0 0 C0.99 0 1.98 0 3 0 C4.31626692 3.61973402 5 6.09567131 5 10 C3.68 9.67 2.36 9.34 1 9 C0.67 6.03 0.34 3.06 0 0 Z " fill="#0D5D93" transform="translate(10,108)"/>
<path d="M0 0 C0.66 0.66 1.32 1.32 2 2 C0.46841892 3.15927975 -1.07579793 4.30187547 -2.625 5.4375 C-3.48351562 6.07558594 -4.34203125 6.71367188 -5.2265625 7.37109375 C-8.22437238 9.13177927 -10.56671931 9.64257635 -14 10 C-9.57557408 6.28919117 -4.82596069 3.15422267 0 0 Z " fill="#2D7396" transform="translate(143,43)"/>
<path d="M0 0 C1.32 0 2.64 0 4 0 C6.3125 2.8125 6.3125 2.8125 8 6 C7.67 6.99 7.34 7.98 7 9 C3.17475764 7.549046 1.80909034 5.61818068 0 2 C0 1.34 0 0.68 0 0 Z " fill="#0D5B91" transform="translate(162,43)"/>
<path d="M0 0 C-0.33645789 3.14027363 -1.05236086 4.05098295 -3.375 6.3125 C-4.674375 7.1478125 -4.674375 7.1478125 -6 8 C-6.99 7.67 -7.98 7.34 -9 7 C-7.16766277 2.5718517 -4.96404317 0 0 0 Z " fill="#0D5D92" transform="translate(49,24)"/>
<path d="M0 0 C0.99 0 1.98 0 3 0 C2.40072174 3.35595828 1.15377564 5.37801226 -1 8 C-2.32 7.67 -3.64 7.34 -5 7 C-3.47793991 4.37098712 -2.15634036 2.15634036 0 0 Z " fill="#0C5D8E" transform="translate(163,146)"/>
<path d="M0 0 C0.99 0.33 1.98 0.66 3 1 C1.68 3.64 0.36 6.28 -1 9 C-1.99 9 -2.98 9 -4 9 C-3.38461538 3.46153846 -3.38461538 3.46153846 -1.4375 1.125 C-0.963125 0.75375 -0.48875 0.3825 0 0 Z " fill="#0D5989" transform="translate(171,134)"/>
<path d="M0 0 C0.99 0.33 1.98 0.66 3 1 C2.34 3.97 1.68 6.94 1 10 C0.01 10 -0.98 10 -2 10 C-2.25 3.375 -2.25 3.375 0 0 Z " fill="#0C5494" transform="translate(14,67)"/>
<path d="M0 0 C0.99 0 1.98 0 3 0 C2.47557578 3.7758544 1.67345333 6.22372155 -1 9 C-1.99 9 -2.98 9 -4 9 C-3.3543999 5.51375944 -2.07639763 2.87501211 0 0 Z " fill="#0D5B93" transform="translate(26,43)"/>
<path d="M0 0 C3.94627764 0.56375395 6.79480075 1.59610056 10 4 C10.8125 6.1875 10.8125 6.1875 11 8 C7.2089881 6.55049545 3.6125362 4.84827434 0 3 C0 2.01 0 1.02 0 0 Z " fill="#226C90" transform="translate(126,27)"/>
<path d="M0 0 C2.97 0.33 5.94 0.66 9 1 C9 2.32 9 3.64 9 5 C6.03 4.67 3.06 4.34 0 4 C0 2.68 0 1.36 0 0 Z " fill="#0C578D" transform="translate(105,9)"/>
<path d="M0 0 C0 0.99 0 1.98 0 3 C-3.3 3.33 -6.6 3.66 -10 4 C-10 3.01 -10 2.02 -10 1 C-6.52674819 -0.1577506 -3.63932552 -0.06866652 0 0 Z " fill="#0C5890" transform="translate(121,177)"/>
<path d="M0 0 C0 0.99 0 1.98 0 3 C-2.8125 5.25 -2.8125 5.25 -6 7 C-6.99 6.67 -7.98 6.34 -9 6 C-7.34548768 1.03646304 -5.15148826 0 0 0 Z " fill="#0D5A93" transform="translate(146,165)"/>
<path d="M0 0 C3.82097239 0.53069061 6.06171403 1.49701566 9 4 C8.67 4.99 8.34 5.98 8 7 C5.0280615 5.87548273 2.66559313 4.77706209 0 3 C0 2.01 0 1.02 0 0 Z " fill="#0E5F92" transform="translate(46,165)"/>
<path d="M0 0 C0.99 0 1.98 0 3 0 C2.67 3.3 2.34 6.6 2 10 C1.01 10 0.02 10 -1 10 C-1.125 2.25 -1.125 2.25 0 0 Z " fill="#0D598F" transform="translate(10,81)"/>
<path d="M0 0 C3 1 3 1 4 3 C4.04022391 5.3329866 4.04320247 7.66706666 4 10 C3.01 10 2.02 10 1 10 C0.63883954 8.5225254 0.28624952 7.04295325 -0.0625 5.5625 C-0.25972656 4.73878906 -0.45695313 3.91507812 -0.66015625 3.06640625 C-0.82837891 2.04353516 -0.82837891 2.04353516 -1 1 C-0.67 0.67 -0.34 0.34 0 0 Z " fill="#0E5A92" transform="translate(176,67)"/>
<path d="M0 0 C3.86933162 0.57323431 6.15222057 2.38953552 9 5 C9 5.66 9 6.32 9 7 C5.2241456 6.47557578 2.77627845 5.67345333 0 3 C0 2.01 0 1.02 0 0 Z " fill="#0E5B92" transform="translate(143,24)"/>
<path d="M0 0 C0 1.32 0 2.64 0 4 C-3.3 4 -6.6 4 -10 4 C-10 3.01 -10 2.02 -10 1 C-3.375 0 -3.375 0 0 0 Z " fill="#0D598B" transform="translate(108,179)"/>
<path d="M0 0 C6.625 -0.125 6.625 -0.125 10 1 C10 1.99 10 2.98 10 4 C6.7 3.67 3.4 3.34 0 3 C0 2.01 0 1.02 0 0 Z " fill="#0D598E" transform="translate(71,177)"/>
<path d="M0 0 C2.97 0.33 5.94 0.66 9 1 C9 1.99 9 2.98 9 4 C5.7 4 2.4 4 -1 4 C-0.67 2.68 -0.34 1.36 0 0 Z " fill="#0D5A8E" transform="translate(85,179)"/>
<path d="M0 0 C0.99 0 1.98 0 3 0 C3 3.3 3 6.6 3 10 C2.01 10.33 1.02 10.66 0 11 C0 7.37 0 3.74 0 0 Z " fill="#0E5F93" transform="translate(180,94)"/>
<path d="M0 0 C0.66 0 1.32 0 2 0 C2 3.63 2 7.26 2 11 C1.01 11 0.02 11 -1 11 C-1.02688151 9.35425434 -1.04634123 7.70838587 -1.0625 6.0625 C-1.07410156 5.14597656 -1.08570313 4.22945313 -1.09765625 3.28515625 C-1 1 -1 1 0 0 Z " fill="#0E598A" transform="translate(10,94)"/>
<path d="M0 0 C0.99 0 1.98 0 3 0 C4.4783226 2.95664519 4.06032783 5.74229737 4 9 C3.01 9 2.02 9 1 9 C-0.4783226 6.04335481 -0.06032783 3.25770263 0 0 Z " fill="#0E598E" transform="translate(179,81)"/>
<path d="M0 0 C3.3 0 6.6 0 10 0 C10 0.99 10 1.98 10 3 C6.7 3 3.4 3 0 3 C0 2.01 0 1.02 0 0 Z " fill="#0F5F94" transform="translate(91,9)"/>
<path d="M0 0 C0.99 0.33 1.98 0.66 3 1 C2.01 1.33 1.02 1.66 0 2 C0.33 4.64 0.66 7.28 1 10 C-1.46278801 7.53721199 -1.99771255 5.29323018 -3 2 C-2.01 1.34 -1.02 0.68 0 0 Z " fill="#16669B" transform="translate(128,53)"/>
<path d="M0 0 C3.66881155 0.70554068 6.70450534 2.27735506 10 4 C9.01 4.66 8.02 5.32 7 6 C5.83054208 5.19152271 4.66449539 4.37810888 3.5 3.5625 C2.8503125 3.11003906 2.200625 2.65757813 1.53125 2.19140625 C1.0259375 1.79824219 0.520625 1.40507813 0 1 C0 0.67 0 0.34 0 0 Z " fill="#266F99" transform="translate(53,48)"/>
<path d="M0 0 C0.99 0.33 1.98 0.66 3 1 C3 3.31 3 5.62 3 8 C2.34 8 1.68 8 1 8 C0.67 5.36 0.34 2.72 0 0 Z " fill="#0E5A93" transform="translate(21,107)"/>
<path d="M0 0 C2.31 0.66 4.62 1.32 7 2 C7 2.33 7 2.66 7 3 C3.04 3 -0.92 3 -5 3 C-3.68 2.34 -2.36 1.68 -1 1 C-0.67 0.67 -0.34 0.34 0 0 Z " fill="#095C8C" transform="translate(95,169)"/>
<path d="M0 0 C-1.65 1.65 -3.3 3.3 -5 5 C-5.33 4.01 -5.66 3.02 -6 2 C-6.66 1.67 -7.32 1.34 -8 1 C-5.07175348 0.02391783 -3.04386724 -0.08226668 0 0 Z " fill="#D0C975" transform="translate(85,24)"/>
</svg>
