<?xml version="1.0" encoding="UTF-8"?>
<svg version="1.1" xmlns="http://www.w3.org/2000/svg" width="192" height="192">
<path d="M0 0 C1.02125977 0.4134668 2.04251953 0.82693359 3.09472656 1.25292969 C5.98527071 2.4266658 8.86816452 3.61757965 11.75 4.8125 C13.00993745 5.32539754 14.270264 5.83734206 15.53125 6.34765625 C20.13522721 8.23165219 24.67219298 10.22553927 29.1875 12.3125 C33.13462602 14.13294174 37.11453822 15.73233686 41.1875 17.25 C59.98581431 24.41979807 59.98581431 24.41979807 64.75 31.8125 C65.66836795 34.56760385 65.91316691 36.33566188 65.9375 39.1875 C65.95167969 39.93773437 65.96585938 40.68796875 65.98046875 41.4609375 C65.70958516 44.22486836 64.79265867 46.23291193 63.75 48.8125 C62.91318073 51.89619997 62.21324917 55.01071973 61.5 58.125 C61.05717013 60.02110943 60.61311215 61.91693237 60.16796875 63.8125 C59.9364209 64.79863281 59.70487305 65.78476563 59.46630859 66.80078125 C58.28864224 71.75227824 57.05261124 76.68883128 55.8125 81.625 C55.56363037 82.61564453 55.31476074 83.60628906 55.05834961 84.62695312 C54.54888576 86.65370125 54.03919995 88.68039359 53.52929688 90.70703125 C52.72870405 93.89736356 51.93386529 97.08908207 51.140625 100.28125 C50.87628662 101.3436792 50.61194824 102.4061084 50.33959961 103.50073242 C49.83956056 105.51109991 49.34031047 107.52166389 48.84204102 109.5324707 C48.1537918 112.29486264 47.45247652 115.05369646 46.75 117.8125 C46.50757568 118.80080811 46.26515137 119.78911621 46.01538086 120.80737305 C45.76796143 121.77843994 45.52054199 122.74950684 45.265625 123.75 C45.0480957 124.62140625 44.83056641 125.4928125 44.60644531 126.390625 C43.25508473 130.21203235 40.88545833 133.25347691 37.75 135.8125 C37.09 135.8125 36.43 135.8125 35.75 135.8125 C35.75 136.4725 35.75 137.1325 35.75 137.8125 C34.06886306 139.1462216 32.32804522 140.40521116 30.5625 141.625 C26.53567262 144.41197424 23.19717598 147.34446365 19.75 150.8125 C17.4260458 152.79549324 15.03238611 154.68220474 12.625 156.5625 C11.69494141 157.30306641 11.69494141 157.30306641 10.74609375 158.05859375 C8.1038621 160.13260354 5.96106564 161.74214479 2.75 162.8125 C2.42 163.8025 2.09 164.7925 1.75 165.8125 C-3.92996143 171.02797861 -9.3873806 174.30930286 -17.27734375 174.05859375 C-23.23414683 173.31546782 -28.89607586 168.77965423 -33.25 164.8125 C-33.25 164.1525 -33.25 163.4925 -33.25 162.8125 C-34.09111328 162.43544922 -34.09111328 162.43544922 -34.94921875 162.05078125 C-37.59972069 160.62428021 -39.73948083 158.9132898 -42.0625 157 C-45.00381934 154.60368983 -47.93780744 152.27665233 -51.0625 150.125 C-54.13197133 147.89812864 -56.5754303 145.4870697 -59.25 142.8125 C-60.50734311 141.89782901 -61.77877272 141.00225652 -63.0625 140.125 C-64.114375 139.361875 -65.16625 138.59875 -66.25 137.8125 C-66.25 137.1525 -66.25 136.4925 -66.25 135.8125 C-67.11625 135.4721875 -67.11625 135.4721875 -68 135.125 C-72.87777504 132.27963123 -74.78179224 128.09847942 -76.1875 122.8125 C-76.51878906 121.57242188 -76.85007812 120.33234375 -77.19140625 119.0546875 C-78.83216558 112.5563562 -80.36852946 106.03294848 -81.8984375 99.5078125 C-83.52864733 92.5860232 -85.27126234 85.69319169 -87.01025391 78.7980957 C-88.95765324 71.05066893 -90.81838744 63.28496395 -92.6015625 55.49804688 C-93.55060948 51.42559529 -94.6853835 47.69634893 -96.25 43.8125 C-97.23402147 37.3362657 -96.06421135 33.06992645 -92.25 27.8125 C-85.76724124 21.133294 -75.28233761 18.40654906 -66.76953125 15.1953125 C-62.88101627 13.66752748 -59.06739798 12.00816032 -55.25 10.3125 C-49.40947114 7.72249118 -43.53494911 5.31248101 -37.546875 3.078125 C-35.13355718 2.15168546 -32.76425919 1.19049106 -30.390625 0.171875 C-29.73263916 -0.1058374 -29.07465332 -0.3835498 -28.39672852 -0.66967773 C-26.54570107 -1.45414432 -24.70038756 -2.25205413 -22.85546875 -3.05078125 C-14.13596792 -5.79983298 -8.13033271 -3.38919412 0 0 Z M-27.875 18.375 C-30.02945308 19.31883867 -32.18439679 20.26155825 -34.33984375 21.203125 C-35.87874268 21.88665039 -35.87874268 21.88665039 -37.44873047 22.58398438 C-40.74802119 24.03091055 -44.06775323 25.35152515 -47.4375 26.625 C-48.40558594 26.99109375 -49.37367187 27.3571875 -50.37109375 27.734375 C-51.32113281 28.09015625 -52.27117188 28.4459375 -53.25 28.8125 C-66.19508655 33.39031554 -66.19508655 33.39031554 -78.25 39.8125 C-75.53984324 52.23405184 -72.65788862 64.56814074 -69.17651367 76.79638672 C-67.5365485 82.62085383 -66.11799704 88.48134685 -64.75 94.375 C-63.17221752 101.09325967 -61.54222929 107.78970671 -59.6875 114.4375 C-59.501875 115.14205322 -59.31625 115.84660645 -59.125 116.57250977 C-58.253449 119.5985198 -57.50795016 121.56299907 -55.22265625 123.7734375 C-53.32667449 124.96784508 -53.32667449 124.96784508 -51.25 124.8125 C-51.25 125.4725 -51.25 126.1325 -51.25 126.8125 C-48.61315253 129.21070305 -48.61315253 129.21070305 -45.25 129.8125 C-45.25 130.4725 -45.25 131.1325 -45.25 131.8125 C-43.07735345 133.85706059 -43.07735345 133.85706059 -40.375 135.9375 C-39.47007813 136.66195312 -38.56515625 137.38640625 -37.6328125 138.1328125 C-35.46344189 140.00455234 -35.46344189 140.00455234 -33.25 139.8125 C-33.25 140.4725 -33.25 141.1325 -33.25 141.8125 C-31.46034453 143.17527086 -31.46034453 143.17527086 -29.25 144.4375 C-28.13625 145.10652344 -28.13625 145.10652344 -27 145.7890625 C-26.4225 146.12679687 -25.845 146.46453125 -25.25 146.8125 C-24.80011719 146.41160156 -24.35023437 146.01070312 -23.88671875 145.59765625 C-9.94230769 133.27403846 -9.94230769 133.27403846 -3.25 128.8125 C-3.25 128.1525 -3.25 127.4925 -3.25 126.8125 C-2.73566406 126.59207031 -2.22132812 126.37164062 -1.69140625 126.14453125 C1.7488578 124.26752318 4.73048683 121.90992307 7.8125 119.5 C8.43705078 119.02626953 9.06160156 118.55253906 9.70507812 118.06445312 C20.33866687 109.76866511 20.90465255 96.46152011 23.30444336 83.93139648 C24.02981873 80.18589553 24.79366638 76.51418933 25.89453125 72.859375 C26.72530243 69.90046393 26.87151628 68.61629071 25.75 65.8125 C24.76 66.3075 24.76 66.3075 23.75 66.8125 C16.44908567 67.78595524 10.37949916 64.56573462 3.75 61.8125 C2.00974362 61.11273342 0.26856352 60.41526096 -1.47338867 59.71972656 C-2.36926193 59.36187073 -3.26513519 59.00401489 -4.18815613 58.63531494 C-4.86856461 58.36378601 -5.54897308 58.09225708 -6.25 57.8125 C-6.25879936 58.96428741 -6.25879936 58.96428741 -6.26777649 60.13934326 C-6.32570039 67.37865935 -6.39777477 74.61763114 -6.48571491 81.85663986 C-6.53042681 85.57823264 -6.5696808 89.29971575 -6.59643555 93.02148438 C-6.62246086 96.61378613 -6.66285692 100.20566603 -6.71318626 103.7977066 C-6.72986038 105.16756184 -6.74137131 106.53749006 -6.74761391 107.90743256 C-6.75724809 109.82740344 -6.78700622 111.74724133 -6.81762695 113.66699219 C-6.82873001 114.75953308 -6.83983307 115.85207397 -6.85127258 116.97772217 C-7.30070256 120.17297304 -7.97510059 121.55031943 -10.25 123.8125 C-14.22344161 124.91623378 -16.33999772 125.22793583 -20.125 123.5 C-22.25 121.8125 -22.25 121.8125 -23.25 119.8125 C-23.35839534 117.36215752 -23.4073055 114.93979874 -23.41113281 112.48876953 C-23.41858017 111.35680145 -23.41858017 111.35680145 -23.42617798 110.20196533 C-23.44081051 107.69973852 -23.44760335 105.19757511 -23.453125 102.6953125 C-23.45887551 100.95897418 -23.46463325 99.22263588 -23.47039795 97.48629761 C-23.48091101 93.84291284 -23.48675169 90.19955015 -23.49023438 86.55615234 C-23.4957201 81.88637814 -23.51974841 77.21689537 -23.54820633 72.5472126 C-23.56682505 68.95957586 -23.57203789 65.37200943 -23.57357025 61.78432846 C-23.57659899 60.06272666 -23.58463499 58.34112616 -23.59775543 56.61957169 C-23.61480039 54.21116175 -23.61293975 51.80346523 -23.60644531 49.39501953 C-23.62026749 48.32726791 -23.62026749 48.32726791 -23.6343689 47.23794556 C-23.60830505 44.15421022 -23.40219443 42.08297806 -21.87664795 39.37179565 C-19.62435468 37.21275988 -18.20997267 37.27734362 -15.125 37.3125 C-14.23554687 37.3021875 -13.34609375 37.291875 -12.4296875 37.28125 C-8.86597286 37.87666178 -6.13935688 39.0675441 -2.88623047 40.59570312 C0.11216419 41.97966302 3.1512968 43.22617487 6.2109375 44.46875 C7.90669922 45.16677734 7.90669922 45.16677734 9.63671875 45.87890625 C11.98230496 46.84288177 14.3313488 47.79848245 16.68359375 48.74609375 C17.80636719 49.21144531 18.92914063 49.67679688 20.0859375 50.15625 C21.10220215 50.57068359 22.1184668 50.98511719 23.16552734 51.41210938 C25.89551951 52.89134942 27.12074853 54.2051423 28.75 56.8125 C29.03875 55.78125 29.3275 54.75 29.625 53.6875 C30.26903776 51.39911053 30.9704291 49.22901121 31.8125 47 C33.09136267 42.65186692 33.41155165 38.31920703 33.75 33.8125 C23.80747902 29.35130758 13.7718323 25.13038265 3.6875 21 C2.5224292 20.52006592 1.3573584 20.04013184 0.15698242 19.5456543 C-2.03663076 18.65144356 -4.23683198 17.77316572 -6.44433594 16.91381836 C-8.59741853 16.06866037 -10.72218024 15.15106242 -12.83203125 14.203125 C-18.44523466 13.56161604 -22.83952305 16.06875548 -27.875 18.375 Z " fill="#7300F9" transform="translate(111.25,11.1875)"/>
<path d="M0 0 C1.33998047 0.03287109 1.33998047 0.03287109 2.70703125 0.06640625 C3.58746094 0.06511719 4.46789062 0.06382813 5.375 0.0625 C8.8998357 0.69740829 11.65343324 1.9052982 14.88110352 3.41870117 C17.87910706 4.79383799 20.9186618 6.02362689 23.98046875 7.25 C25.11097656 7.71083984 26.24148437 8.17167969 27.40625 8.64648438 C29.75054122 9.60073954 32.09962933 10.54328645 34.453125 11.47460938 C35.57589844 11.93673828 36.69867188 12.39886719 37.85546875 12.875 C38.8717334 13.28419678 39.88799805 13.69339355 40.93505859 14.11499023 C44.00068934 15.91075599 45.07718222 17.40782451 46.51953125 20.62890625 C46.45140571 24.51206222 46.05491376 26.82583249 43.89453125 30.06640625 C40.60299099 32.23189326 38.27147118 32.39234446 34.51953125 31.62890625 C28.45246249 29.64830187 22.62728893 27.13020616 16.80224609 24.53613281 C15.59633316 23.99934906 15.59633316 23.99934906 14.36605835 23.45172119 C13.75670441 23.18019226 13.14735046 22.90866333 12.51953125 22.62890625 C12.51588562 23.38201584 12.51223999 24.13512543 12.50848389 24.91105652 C12.47057535 32.01766777 12.41369071 39.12381674 12.33562851 46.23008251 C12.29616355 49.88330538 12.26397066 53.53628758 12.24853516 57.18969727 C12.23336148 60.71725624 12.19890507 64.24415355 12.15122223 67.77141762 C12.12922242 69.76817897 12.12705812 71.765127 12.12518311 73.76200867 C12.09560516 75.59334099 12.09560516 75.59334099 12.06542969 77.46166992 C12.05654724 78.53422531 12.04766479 79.6067807 12.03851318 80.71183777 C11.39001189 84.35690239 10.1208178 86.03200626 7.51953125 88.62890625 C3.57023846 89.77779143 1.48994266 90.06020021 -2.29296875 88.37890625 C-4.48046875 86.62890625 -4.48046875 86.62890625 -6.48046875 83.62890625 C-6.68461296 81.11872215 -6.77419838 78.71853962 -6.77099609 76.20751953 C-6.77771332 75.45433441 -6.78443054 74.70114929 -6.79135132 73.92514038 C-6.81036244 71.43309955 -6.81425712 68.94132761 -6.81640625 66.44921875 C-6.82283228 64.71670419 -6.82956049 62.98419073 -6.83657837 61.25167847 C-6.84855909 57.61844365 -6.8522584 53.98530396 -6.85107422 50.35205078 C-6.85087104 45.69909467 -6.87816802 41.04674943 -6.91261864 36.39393806 C-6.93487012 32.81482142 -6.93891229 29.23585216 -6.93785477 25.65667343 C-6.94021357 23.94147512 -6.94905284 22.22627292 -6.9645195 20.51114273 C-6.98414367 18.11002249 -6.97835633 15.71022412 -6.96630859 13.30908203 C-6.97754761 12.60241394 -6.98878662 11.89574585 -7.00036621 11.16766357 C-6.95517766 7.61870748 -6.53167823 5.70920757 -4.60513306 2.6882019 C-2.48046875 0.62890625 -2.48046875 0.62890625 0 0 Z " fill="#7300FA" transform="translate(93.48046875,47.37109375)"/>
<path d="M0 0 C3.66172475 0.62678171 6.8818995 1.64451846 10.3125 3.0625 C11.63701172 3.60583984 11.63701172 3.60583984 12.98828125 4.16015625 C13.65214844 4.43730469 14.31601563 4.71445312 15 5 C13.84187438 11.20206746 12.49127421 17.35559051 11.0625 23.5 C10.90491211 24.18698975 10.74732422 24.87397949 10.58496094 25.58178711 C9.726958 29.23431766 8.76521726 32.82296602 7.65234375 36.40625 C5.27854399 44.18292859 3.43981498 52.1066294 1.5 60 C0.18192979 65.36340666 -1.14728186 70.72329786 -2.51513672 76.07424927 C-2.94053345 77.76381434 -3.3414219 79.45951089 -3.73828125 81.15600586 C-5.22193583 86.97837398 -7.17001802 90.01224479 -12 93.5625 C-12.57669434 94.01737793 -13.15338867 94.47225586 -13.74755859 94.94091797 C-14.92449304 95.86803295 -16.10856252 96.78616643 -17.29980469 97.69482422 C-19.7933558 99.60902931 -22.20455597 101.61958888 -24.625 103.625 C-26.41586386 105.08431909 -28.207535 106.54264802 -30 108 C-36.05916982 112.93436458 -42.09464714 117.88202752 -48 123 C-51.23861303 121.55575365 -53.61969163 119.74227753 -56.25 117.375 C-57.30960937 116.42753906 -57.30960937 116.42753906 -58.390625 115.4609375 C-58.92171875 114.97882813 -59.4528125 114.49671875 -60 114 C-54.57534247 107.21917808 -54.57534247 107.21917808 -51 105 C-50.34 105 -49.68 105 -49 105 C-48.67 104.01 -48.34 103.02 -48 102 C-46.00390625 100.17578125 -46.00390625 100.17578125 -43.5625 98.3125 C-42.35787109 97.37857422 -42.35787109 97.37857422 -41.12890625 96.42578125 C-39 95 -39 95 -37 95 C-37 94.34 -37 93.68 -37 93 C-35.3828125 91.5546875 -35.3828125 91.5546875 -33.125 89.875 C-31.90103516 88.92753906 -31.90103516 88.92753906 -30.65234375 87.9609375 C-28.91621724 86.67738005 -27.13696176 85.44976601 -25.31640625 84.2890625 C-18.55036582 79.68453573 -16.37800276 75.20008155 -14.78515625 67.3046875 C-14.52210348 65.87003563 -14.2604398 64.43512852 -14 63 C-13.68954362 61.43943485 -13.37562485 59.87955528 -13.05859375 58.3203125 C-12.55478946 55.82987391 -12.05550898 53.33900648 -11.57104492 50.84472656 C-9.24579284 38.90442676 -6.3012971 27.10164412 -3.3125 15.3125 C-2.02820952 10.24101203 -0.96674672 5.14081784 0 0 Z " fill="#FC9EA0" transform="translate(145,45)"/>
<path d="M0 0 C-1.15173355 2.46800047 -2.04783565 4.04783565 -4 6 C-4.19293477 8.41821583 -4.26241605 10.72135852 -4.24291992 13.14013672 C-4.24481827 13.87527496 -4.24671661 14.61041321 -4.24867249 15.36782837 C-4.25238599 17.80522223 -4.24166598 20.24231997 -4.23046875 22.6796875 C-4.22927689 24.37118495 -4.2288238 26.06268306 -4.2290802 27.75418091 C-4.22751421 31.30344777 -4.21921738 34.85261394 -4.20581055 38.40185547 C-4.18884648 42.95046143 -4.18499545 47.49895637 -4.18575573 52.04759026 C-4.18548365 55.54258279 -4.17999597 59.03755109 -4.17275429 62.53253555 C-4.16957248 64.20946189 -4.16760135 65.88639097 -4.16686058 67.56332016 C-4.16469038 69.90928564 -4.15593067 72.25513395 -4.14526367 74.60107422 C-4.14571686 75.29420715 -4.14617004 75.98734009 -4.14663696 76.70147705 C-4.12508394 79.94623703 -3.99112395 82.89579474 -3 86 C-4.4747467 84.96383667 -4.4747467 84.96383667 -6 83 C-6.30113572 80.4457689 -6.42023783 78.13390258 -6.40405273 75.57861328 C-6.41091599 74.82542816 -6.41777924 74.07224304 -6.42485046 73.29623413 C-6.44316542 70.80406895 -6.43927385 68.31253061 -6.43359375 65.8203125 C-6.43815395 64.08779698 -6.44345904 62.35528328 -6.44947815 60.62277222 C-6.45841893 56.98948831 -6.45597595 53.35642407 -6.44604492 49.72314453 C-6.43456534 45.07015366 -6.45474591 40.41792282 -6.48396206 35.76503181 C-6.50232355 32.18589469 -6.50203153 28.6069396 -6.49632454 25.02776718 C-6.49617126 23.31257945 -6.5022214 21.59737943 -6.51461601 19.88223648 C-6.52952035 17.48106764 -6.51885372 15.08130121 -6.50170898 12.68017578 C-6.51137695 11.97350769 -6.52104492 11.2668396 -6.53100586 10.53875732 C-6.47761855 6.96205352 -6.04059906 5.06346433 -4.09364319 2.01998901 C-2 0 -2 0 0 0 Z " fill="#6700E3" transform="translate(93,48)"/>
</svg>
