<?xml version="1.0" encoding="UTF-8"?>
<svg version="1.1" xmlns="http://www.w3.org/2000/svg" width="192" height="192">
<path d="M0 0 C0 0.66 0 1.32 0 2 C0.54140625 2.2475 1.0828125 2.495 1.640625 2.75 C4.5282849 4.27988604 7.09776018 6.09150997 9.75 8 C10.73484375 8.70125 11.7196875 9.4025 12.734375 10.125 C13.48203125 10.74375 14.2296875 11.3625 15 12 C15 12.66 15 13.32 15 14 C15.56460938 14.2578125 16.12921875 14.515625 16.7109375 14.78125 C19.24936904 16.13276986 21.3685305 17.7189739 23.625 19.5 C24.40101563 20.1084375 25.17703125 20.716875 25.9765625 21.34375 C29.42515883 24.16653928 30.4034335 25.5880201 31 30 C31.05838439 32.17737069 31.05978752 34.35660304 31.02172852 36.53442383 C31.00163223 37.83539505 30.98153595 39.13636627 30.96083069 40.47676086 C30.93363831 41.88685323 30.9063274 43.29694331 30.87890625 44.70703125 C30.85458604 46.15719331 30.83074345 47.60736346 30.80735779 49.05754089 C30.74470584 52.86340584 30.67558636 56.66912663 30.60510254 60.47485352 C30.53424783 64.36272652 30.46953363 68.25070126 30.40429688 72.13867188 C30.27552824 79.75922714 30.13992435 87.37964053 30 95 C30.65597168 94.98952637 31.31194336 94.97905273 31.98779297 94.96826172 C34.95015658 94.92677497 37.91245916 94.90069738 40.875 94.875 C41.90753906 94.85824219 42.94007813 94.84148437 44.00390625 94.82421875 C44.99003906 94.81777344 45.97617188 94.81132813 46.9921875 94.8046875 C48.35899658 94.78897705 48.35899658 94.78897705 49.75341797 94.77294922 C52 95 52 95 54 97 C54.26742554 99.40203857 54.26742554 99.40203857 54.29052734 102.45605469 C54.30328705 103.59774109 54.31604675 104.73942749 54.32919312 105.91571045 C54.33141876 107.15524475 54.33364441 108.39477905 54.3359375 109.671875 C54.3459227 111.577341 54.3459227 111.577341 54.35610962 113.52130127 C54.36625381 116.21486366 54.37178929 118.90802276 54.37060547 121.6015625 C54.3704028 125.04273511 54.39764298 128.483077 54.43214989 131.92405319 C54.45983352 135.21496224 54.45857039 138.50586535 54.4609375 141.796875 C54.47530853 143.02831238 54.48967957 144.25974976 54.50448608 145.52850342 C54.47923692 150.26501502 54.39138519 154.03807731 52.59619141 158.45019531 C45.80029598 165.12466699 39.48000984 167.67667735 29.9822998 167.81317139 C28.72485962 167.801026 27.46741943 167.78888062 26.171875 167.77636719 C24.80731536 167.7845152 23.44276893 167.79520823 22.07824707 167.80822754 C18.40026485 167.83539243 14.72330152 167.82505545 11.04530334 167.80595303 C7.17959026 167.79066396 3.31395904 167.80487741 -0.55175781 167.81427002 C-7.04117345 167.82515761 -13.53017814 167.81087531 -20.01953125 167.78222656 C-27.50092631 167.7495777 -34.98134003 167.76015675 -42.46271133 167.793185 C-48.90896066 167.82049433 -55.35491614 167.82421565 -61.80120468 167.80855298 C-65.64127414 167.79924309 -69.48088373 167.7978279 -73.32092285 167.81777191 C-76.93296279 167.83522451 -80.54374911 167.82286864 -84.15565491 167.78840637 C-86.09785279 167.77680919 -88.04015789 167.79441259 -89.9822998 167.81317139 C-98.07110769 167.69692505 -103.72274011 166.26247552 -110 161 C-113.76083574 156.73167543 -114.50259128 153.70469948 -114.51757812 148.08007812 C-114.5245874 147.41584335 -114.53159668 146.75160858 -114.53881836 146.06724548 C-114.55631473 143.88814543 -114.54480717 141.71036149 -114.53125 139.53125 C-114.53394736 138.00719963 -114.53783182 136.48315095 -114.54284668 134.95910645 C-114.54873034 131.77156115 -114.54021592 128.58446551 -114.52148438 125.39697266 C-114.49869481 121.32140559 -114.51182408 117.24689228 -114.53577423 113.17136383 C-114.55026327 110.02622612 -114.54561215 106.88133617 -114.53526306 103.7361908 C-114.53260432 102.23396173 -114.53583544 100.7317098 -114.54518127 99.22950745 C-114.55539909 97.12571058 -114.53977694 95.02359429 -114.51757812 92.91992188 C-114.51439575 91.72556519 -114.51121338 90.5312085 -114.50793457 89.30065918 C-113.76319548 84.46119742 -111.55318994 81.28692881 -107.8125 78.1875 C-101.798398 75.64821249 -96.33200874 75.88746623 -90 77 C-90.00444122 76.05230743 -90.00888245 75.10461487 -90.01345825 74.12820435 C-90.05394611 65.21085896 -90.08395633 56.29353214 -90.10362434 47.3761158 C-90.11407566 42.79123234 -90.12825935 38.20642289 -90.15087891 33.62158203 C-90.17255936 29.19957626 -90.18455846 24.77764181 -90.18975449 20.35558701 C-90.19345889 18.66582999 -90.20069237 16.97607702 -90.21146011 15.28635025 C-90.22591143 12.92535111 -90.22798064 10.5646493 -90.22705078 8.20361328 C-90.23424133 7.50014771 -90.24143188 6.79668213 -90.24884033 6.07189941 C-90.22810432 1.22810432 -90.22810432 1.22810432 -88 -1 C-85.44929149 -1.227822 -83.00286539 -1.33226394 -80.44848633 -1.35058594 C-79.66939911 -1.36384415 -78.89031189 -1.37710236 -78.08761597 -1.39076233 C-75.5024583 -1.43196493 -72.91738579 -1.45862558 -70.33203125 -1.484375 C-68.53561156 -1.50816553 -66.73919934 -1.53252631 -64.9427948 -1.55743408 C-61.17081226 -1.60742076 -57.39883267 -1.65018182 -53.62670898 -1.68798828 C-48.80240513 -1.73695312 -43.97855911 -1.80407186 -39.15456104 -1.87673569 C-35.44078613 -1.93057871 -31.72694345 -1.97447809 -28.01300621 -2.01544952 C-26.23524772 -2.0362878 -24.45752278 -2.06023564 -22.67984962 -2.08739471 C-20.18605136 -2.12403803 -17.692468 -2.14721083 -15.19848633 -2.16699219 C-14.10483513 -2.18709099 -14.10483513 -2.18709099 -12.98908997 -2.20759583 C-8.24420223 -2.22672284 -4.45409754 -1.47530393 0 0 Z " fill="#E190A7" transform="translate(126,13)"/>
<path d="M0 0 C0 0.66 0 1.32 0 2 C0.54140625 2.2475 1.0828125 2.495 1.640625 2.75 C4.5282849 4.27988604 7.09776018 6.09150997 9.75 8 C10.73484375 8.70125 11.7196875 9.4025 12.734375 10.125 C13.48203125 10.74375 14.2296875 11.3625 15 12 C15 12.66 15 13.32 15 14 C15.56460938 14.2578125 16.12921875 14.515625 16.7109375 14.78125 C19.24936904 16.13276986 21.3685305 17.7189739 23.625 19.5 C24.78902344 20.41265625 24.78902344 20.41265625 25.9765625 21.34375 C29.42515883 24.16653928 30.4034335 25.5880201 31 30 C31.05838439 32.17737069 31.05978752 34.35660304 31.02172852 36.53442383 C31.00163223 37.83539505 30.98153595 39.13636627 30.96083069 40.47676086 C30.93363831 41.88685323 30.9063274 43.29694331 30.87890625 44.70703125 C30.85458604 46.15719331 30.83074345 47.60736346 30.80735779 49.05754089 C30.74470584 52.86340584 30.67558636 56.66912663 30.60510254 60.47485352 C30.52177724 65.04700095 30.44651523 69.61928742 30.36989594 74.19155121 C30.25276182 81.12782665 30.12541028 88.06384702 30 95 C12.18 95 -5.64 95 -24 95 C-24.33 90.38 -24.66 85.76 -25 81 C-28.53925491 77.46074509 -29.23234519 77.61630482 -34.03198242 77.56762695 C-35.27304245 77.54783279 -36.51410248 77.52803864 -37.79277039 77.50764465 C-39.14700163 77.50087491 -40.50123453 77.49442804 -41.85546875 77.48828125 C-43.24125261 77.47143595 -44.62702118 77.45328591 -46.01277161 77.43388367 C-49.65741192 77.38636062 -53.30199023 77.35656656 -56.94683838 77.33044434 C-60.66715746 77.30065017 -64.38726284 77.254116 -68.10742188 77.20898438 C-75.40484194 77.12292522 -82.7022775 77.05559197 -90 77 C-90.04627591 67.12539212 -90.08184499 57.2508099 -90.10362434 47.3761158 C-90.11407566 42.79123234 -90.12825935 38.20642289 -90.15087891 33.62158203 C-90.17255936 29.19957626 -90.18455846 24.77764181 -90.18975449 20.35558701 C-90.19345889 18.66582999 -90.20069237 16.97607702 -90.21146011 15.28635025 C-90.22591143 12.92535111 -90.22798064 10.5646493 -90.22705078 8.20361328 C-90.23424133 7.50014771 -90.24143188 6.79668213 -90.24884033 6.07189941 C-90.22810432 1.22810432 -90.22810432 1.22810432 -88 -1 C-85.44929149 -1.227822 -83.00286539 -1.33226394 -80.44848633 -1.35058594 C-79.66939911 -1.36384415 -78.89031189 -1.37710236 -78.08761597 -1.39076233 C-75.5024583 -1.43196493 -72.91738579 -1.45862558 -70.33203125 -1.484375 C-68.53561156 -1.50816553 -66.73919934 -1.53252631 -64.9427948 -1.55743408 C-61.17081226 -1.60742076 -57.39883267 -1.65018182 -53.62670898 -1.68798828 C-48.80240513 -1.73695312 -43.97855911 -1.80407186 -39.15456104 -1.87673569 C-35.44078613 -1.93057871 -31.72694345 -1.97447809 -28.01300621 -2.01544952 C-26.23524772 -2.0362878 -24.45752278 -2.06023564 -22.67984962 -2.08739471 C-20.18605136 -2.12403803 -17.692468 -2.14721083 -15.19848633 -2.16699219 C-14.10483513 -2.18709099 -14.10483513 -2.18709099 -12.98908997 -2.20759583 C-8.24420223 -2.22672284 -4.45409754 -1.47530393 0 0 Z " fill="#DC2853" transform="translate(126,13)"/>
<path d="M0 0 C1.051875 0.4125 2.10375 0.825 3.1875 1.25 C3.1875 1.91 3.1875 2.57 3.1875 3.25 C3.72890625 3.4975 4.2703125 3.745 4.828125 4 C7.7157849 5.52988604 10.28526018 7.34150997 12.9375 9.25 C13.92234375 9.95125 14.9071875 10.6525 15.921875 11.375 C16.66953125 11.99375 17.4171875 12.6125 18.1875 13.25 C18.1875 13.91 18.1875 14.57 18.1875 15.25 C18.75210938 15.5078125 19.31671875 15.765625 19.8984375 16.03125 C22.43686904 17.38276986 24.5560305 18.9689739 26.8125 20.75 C27.97652344 21.66265625 27.97652344 21.66265625 29.1640625 22.59375 C31.49034986 24.49789255 32.98513551 25.75083426 34.125 28.5625 C34.1875 31.25 34.1875 31.25 32.17797852 33.87866211 C28.53203224 36.76976148 25.86770362 36.96283955 21.40234375 36.87890625 C20.66423965 36.88131821 19.92613556 36.88373016 19.16566467 36.88621521 C17.61160893 36.88523926 16.05751735 36.87190542 14.50366211 36.84692383 C12.12819256 36.8125462 9.75643278 36.82628963 7.38085938 36.84570312 C5.86717171 36.83880575 4.35349361 36.82913434 2.83984375 36.81640625 C2.13246567 36.82136612 1.42508759 36.82632599 0.6962738 36.83143616 C-2.53673369 36.75436001 -4.5412368 36.43025475 -7.25537109 34.62670898 C-10.18603334 30.15352038 -9.43879824 24.96937202 -9.38891602 19.77783203 C-9.37503545 17.75516607 -9.40914196 15.73711989 -9.44726562 13.71484375 C-9.44533203 12.43738281 -9.44339844 11.15992188 -9.44140625 9.84375 C-9.44213135 8.67521484 -9.44285645 7.50667969 -9.44360352 6.30273438 C-8.8125 3.25 -8.8125 3.25 -6.51147461 0.79101562 C-3.8125 -0.75 -3.8125 -0.75 0 0 Z " fill="#E18EA6" transform="translate(122.8125,11.75)"/>
<path d="M0 0 C1.28828705 -0.00953201 2.5765741 -0.01906403 3.90390015 -0.02888489 C5.31695584 -0.02862344 6.73001155 -0.02768629 8.14306641 -0.02612305 C9.58794275 -0.030009 11.03281794 -0.03434346 12.47769165 -0.03910828 C15.50909117 -0.04657732 18.54037426 -0.04627479 21.57177734 -0.04101562 C25.45466549 -0.03522679 29.33707573 -0.05213398 33.21988487 -0.0753603 C36.2053404 -0.09010219 39.19068105 -0.09096863 42.17616653 -0.08785057 C43.60748871 -0.08836378 45.03881731 -0.09360155 46.47010422 -0.10366249 C48.47352199 -0.11601385 50.47703609 -0.10729556 52.48046875 -0.09765625 C53.62027191 -0.09828568 54.76007507 -0.0989151 55.93441772 -0.0995636 C59.14894655 0.31026953 60.51720448 1.10439182 62.86962891 3.2746582 C62.55712891 6.6496582 62.55712891 6.6496582 61.86962891 10.2746582 C58.32930464 12.63487438 56.80788582 12.53708738 52.60986328 12.56518555 C51.31842407 12.57794525 50.02698486 12.59070496 48.69641113 12.60385132 C47.28540191 12.60690829 45.87439068 12.60913642 44.46337891 12.6105957 C43.01753608 12.61702196 41.57169457 12.62375019 40.12585449 12.63076782 C37.0962421 12.64274131 34.06674376 12.64644846 31.03710938 12.64526367 C27.15291527 12.64506019 23.26945044 12.6723912 19.38542938 12.70680809 C16.4000105 12.72902985 13.41476865 12.73310273 10.42927551 12.73204422 C8.9971108 12.73440621 7.56494165 12.74326342 6.13285828 12.75870895 C4.13179926 12.77827454 2.13052649 12.77003275 0.12939453 12.76049805 C-1.57911682 12.7647731 -1.57911682 12.7647731 -3.32214355 12.76913452 C-6.13037109 12.2746582 -6.13037109 12.2746582 -8.0333252 10.43960571 C-9.58158967 7.3842082 -9.04449583 5.50925343 -8.13037109 2.2746582 C-5.38731382 -0.46839907 -3.84059714 0.01554643 0 0 Z " fill="#E190A7" transform="translate(69.13037109375,53.725341796875)"/>
<path d="M0 0 C1.26819077 -0.00953201 2.53638153 -0.01906403 3.84300232 -0.02888489 C5.22874987 -0.02862346 6.61449744 -0.0276864 8.00024414 -0.02612305 C9.42127101 -0.03001026 10.84229672 -0.03434498 12.26332092 -0.03910828 C15.24166632 -0.04656979 18.21989319 -0.04627982 21.19824219 -0.04101562 C25.01272344 -0.03522179 28.82671901 -0.0521497 32.64111996 -0.0753603 C35.57596162 -0.09010113 38.51068642 -0.09096888 41.44555855 -0.08785057 C42.85176111 -0.08836364 44.25797024 -0.09359871 45.66413689 -0.10366249 C47.63152225 -0.11601448 49.59900572 -0.10729529 51.56640625 -0.09765625 C52.68542831 -0.09828568 53.80445038 -0.0989151 54.9573822 -0.0995636 C58.14264195 0.31281701 59.51135793 1.12806809 61.84790039 3.2746582 C61.53540039 6.6496582 61.53540039 6.6496582 60.84790039 10.2746582 C57.30757612 12.63487438 55.7861573 12.53708738 51.58813477 12.56518555 C50.29669556 12.57794525 49.00525635 12.59070496 47.67468262 12.60385132 C46.2636734 12.60690829 44.85266217 12.60913642 43.44165039 12.6105957 C41.99580757 12.61702196 40.54996605 12.62375019 39.10412598 12.63076782 C36.07451358 12.64274131 33.04501524 12.64644846 30.01538086 12.64526367 C26.13118675 12.64506019 22.24772193 12.6723912 18.36370087 12.70680809 C15.37828198 12.72902985 12.39304013 12.73310273 9.407547 12.73204422 C7.97538228 12.73440621 6.54321313 12.74326342 5.11112976 12.75870895 C3.11007074 12.77827454 1.10879797 12.77003275 -0.89233398 12.76049805 C-2.60084534 12.7647731 -2.60084534 12.7647731 -4.34387207 12.76913452 C-7.15209961 12.2746582 -7.15209961 12.2746582 -9.05114746 10.43960571 C-10.616799 7.36085847 -10.14044871 5.52209096 -9.15209961 2.2746582 C-5.63126783 -0.07256298 -4.16882083 0.01717665 0 0 Z " fill="#E190A7" transform="translate(70.152099609375,71.725341796875)"/>
<path d="M0 0 C2.875 0.875 2.875 0.875 4.875 2.875 C5.0703125 5.0390625 5.0703125 5.0390625 5 7.5 C4.98195313 8.31726563 4.96390625 9.13453125 4.9453125 9.9765625 C4.92210938 10.60304687 4.89890625 11.22953125 4.875 11.875 C6.1125 11.813125 7.35 11.75125 8.625 11.6875 C11.65711302 11.67137174 12.69748296 11.76848977 15.375 13.375 C15.87 13.87 16.365 14.365 16.875 14.875 C16.5625 18.25 16.5625 18.25 15.875 21.875 C12.78611478 23.93425681 12.16564073 24.1140374 8.6875 24 C7.429375 23.95875 6.17125 23.9175 4.875 23.875 C4.99875 25.73125 4.99875 25.73125 5.125 27.625 C5.11393379 30.74013715 4.97554772 31.71644398 3.25 34.4375 C0.875 35.875 0.875 35.875 -2.25 35.8125 C-5.125 34.875 -5.125 34.875 -7.125 31.875 C-7.38260279 29.18047479 -7.21400053 26.58951625 -7.125 23.875 C-8.3625 23.9575 -9.6 24.04 -10.875 24.125 C-13.99013715 24.11393379 -14.96644398 23.97554772 -17.6875 22.25 C-19.125 19.875 -19.125 19.875 -19.0625 16.75 C-18.125 13.875 -18.125 13.875 -15.125 11.875 C-13.08203125 11.6796875 -13.08203125 11.6796875 -10.9375 11.75 C-9.0503125 11.811875 -9.0503125 11.811875 -7.125 11.875 C-7.24875 10.01875 -7.24875 10.01875 -7.375 8.125 C-7.36393379 5.00986285 -7.22554772 4.03355602 -5.5 1.3125 C-3.125 -0.125 -3.125 -0.125 0 0 Z " fill="#DD2954" transform="translate(97.125,126.125)"/>
</svg>
