<svg viewBox="0 0 32 32" fill="none" xmlns="http://www.w3.org/2000/svg"><path d="M16 4C9.373 4 4 9.373 4 16C4 22.627 9.373 28 16 28C22.627 28 28 22.627 28 16C28 9.373 22.627 4 16 4Z" fill="url(#gradient1)"></path><path d="M16 8C11.582 8 8 11.582 8 16C8 20.418 11.582 24 16 24C20.418 24 24 20.418 24 16C24 11.582 20.418 8 16 8Z" fill="white" fill-opacity="0.2"></path><path d="M12 16L14.5 18.5L20 13" stroke="white" stroke-width="2.5" stroke-linecap="round" stroke-linejoin="round"></path><path d="M16 10V12M16 20V22M10 16H12M20 16H22" stroke="white" stroke-width="1.5" stroke-linecap="round"></path><defs><linearGradient id="gradient1" x1="4" y1="4" x2="28" y2="28" gradientUnits="userSpaceOnUse"><stop stop-color="#F97316"></stop><stop offset="1" stop-color="#EA580C"></stop></linearGradient></defs></svg>
