<svg viewBox="0 0 32 32" fill="none" xmlns="http://www.w3.org/2000/svg"><path d="M16 4C13.5 4 11.1 5 9.3 6.7L16 2L22.7 6.7C20.9 5 18.5 4 16 4Z" fill="url(#gradientVitalora1)"></path><path d="M16 4C10.5 4 6 8.5 6 14C6 19.5 10.5 24 16 30C21.5 24 26 19.5 26 14C26 8.5 21.5 4 16 4Z" fill="url(#gradientVitalora2)"></path><path d="M16 10C13.8 10 12 11.8 12 14C12 16.2 13.8 18 16 18C18.2 18 20 16.2 20 14C20 11.8 18.2 10 16 10Z" fill="white" fill-opacity="0.9"></path><path d="M16 12C14.9 12 14 12.9 14 14C14 15.1 14.9 16 16 16C17.1 16 18 15.1 18 14C18 12.9 17.1 12 16 12Z" fill="url(#gradientVitalora1)" fill-opacity="0.6"></path><circle cx="16" cy="8" r="1.2" fill="white" fill-opacity="0.85"></circle><circle cx="12" cy="14" r="0.8" fill="white" fill-opacity="0.7"></circle><circle cx="20" cy="14" r="0.8" fill="white" fill-opacity="0.7"></circle><defs><linearGradient id="gradientVitalora1" x1="6" y1="4" x2="26" y2="30" gradientUnits="userSpaceOnUse"><stop stop-color="#14B8A6"></stop><stop offset="0.5" stop-color="#0D9488"></stop><stop offset="1" stop-color="#0F766E"></stop></linearGradient><linearGradient id="gradientVitalora2" x1="16" y1="4" x2="16" y2="30" gradientUnits="userSpaceOnUse"><stop stop-color="#14B8A6" stop-opacity="0.9"></stop><stop offset="1" stop-color="#0F766E"></stop></linearGradient></defs></svg>
