<?xml version="1.0" encoding="UTF-8"?>
<svg version="1.1" xmlns="http://www.w3.org/2000/svg" width="192" height="192">
<path d="M0 0 C1.08154861 -0.00960754 2.16309723 -0.01921509 3.27742004 -0.02911377 C4.44617172 -0.03336365 5.6149234 -0.03761353 6.8190918 -0.04199219 C8.02139938 -0.04769226 9.22370697 -0.05339233 10.46244812 -0.05926514 C13.00864786 -0.06871794 15.55485985 -0.07525023 18.10107422 -0.07910156 C21.99232388 -0.0888024 25.88304437 -0.11982218 29.77416992 -0.15136719 C32.24747408 -0.15789773 34.72078201 -0.163148 37.1940918 -0.16699219 C38.35677078 -0.17933899 39.51944977 -0.19168579 40.71736145 -0.20440674 C47.27610479 -0.18636518 52.27658674 0.03328972 57.3503418 4.66113281 C60.91890003 9.24416412 61.83576079 12.11536179 61.76831055 17.84863281 C61.75928711 18.8425 61.75026367 19.83636719 61.7409668 20.86035156 C61.72936523 21.61960937 61.71776367 22.37886719 61.70581055 23.16113281 C62.4515332 23.14018555 63.19725586 23.11923828 63.96557617 23.09765625 C67.37884779 23.01396647 70.79190279 22.96230488 74.20581055 22.91113281 C75.37885742 22.87761719 76.5519043 22.84410156 77.76049805 22.80957031 C90.86961132 22.6622769 90.86961132 22.6622769 95.70581055 27.16113281 C99.52042796 32.72039174 100.27592833 36.64777718 100.15991211 43.30932617 C100.16049622 44.19792328 100.16108032 45.08652039 100.16168213 46.00204468 C100.15891092 48.91876239 100.12786473 51.83443893 100.09643555 54.75097656 C100.08896973 56.78120872 100.08327841 58.81144811 100.07928467 60.84169006 C100.06405523 66.16997377 100.02479646 71.49781725 99.98046875 76.82592773 C99.93945804 82.2689824 99.92126127 87.71210861 99.90112305 93.15527344 C99.8582996 103.82411718 99.78797161 114.49251941 99.70581055 125.16113281 C94.09581055 125.16113281 88.48581055 125.16113281 82.70581055 125.16113281 C82.70581055 107.01113281 82.70581055 88.86113281 82.70581055 70.16113281 C36.83581055 70.16113281 -9.03418945 70.16113281 -56.29418945 70.16113281 C-56.29418945 35.16113281 -56.29418945 35.16113281 -52.29418945 27.16113281 C-45.44371373 22.11842151 -38.54598695 22.68457871 -30.29418945 22.91113281 C-29.04250977 22.92917969 -27.79083008 22.94722656 -26.5012207 22.96582031 C-23.43140703 23.0126877 -20.36320771 23.07828971 -17.29418945 23.16113281 C-17.31376709 22.49001465 -17.33334473 21.81889648 -17.35351562 21.12744141 C-17.3763562 19.79447021 -17.3763562 19.79447021 -17.3996582 18.43457031 C-17.41923584 17.55720215 -17.43881348 16.67983398 -17.45898438 15.77587891 C-17.1142712 10.30642992 -14.62458106 6.42662727 -10.73168945 2.72363281 C-7.05659277 0.3678016 -4.27090984 0.03062215 0 0 Z M-0.29418945 17.16113281 C-0.29418945 19.14113281 -0.29418945 21.12113281 -0.29418945 23.16113281 C14.88581055 23.16113281 30.06581055 23.16113281 45.70581055 23.16113281 C45.70581055 21.18113281 45.70581055 19.20113281 45.70581055 17.16113281 C30.52581055 17.16113281 15.34581055 17.16113281 -0.29418945 17.16113281 Z M-39.29418945 39.16113281 C-39.29418945 44.11113281 -39.29418945 49.06113281 -39.29418945 54.16113281 C-32.03418945 54.16113281 -24.77418945 54.16113281 -17.29418945 54.16113281 C-17.29418945 49.21113281 -17.29418945 44.26113281 -17.29418945 39.16113281 C-24.55418945 39.16113281 -31.81418945 39.16113281 -39.29418945 39.16113281 Z M-0.29418945 39.16113281 C-0.29418945 44.11113281 -0.29418945 49.06113281 -0.29418945 54.16113281 C14.88581055 54.16113281 30.06581055 54.16113281 45.70581055 54.16113281 C45.70581055 49.21113281 45.70581055 44.26113281 45.70581055 39.16113281 C30.52581055 39.16113281 15.34581055 39.16113281 -0.29418945 39.16113281 Z M61.70581055 39.16113281 C61.70581055 44.11113281 61.70581055 49.06113281 61.70581055 54.16113281 C68.63581055 54.16113281 75.56581055 54.16113281 82.70581055 54.16113281 C82.70581055 49.21113281 82.70581055 44.26113281 82.70581055 39.16113281 C75.77581055 39.16113281 68.84581055 39.16113281 61.70581055 39.16113281 Z " fill="#0B91F1" transform="translate(74.294189453125,17.8388671875)"/>
<path d="M0 0 C30.36 0 60.72 0 92 0 C92 12.87 92 25.74 92 39 C61.64 39 31.28 39 0 39 C0 26.13 0 13.26 0 0 Z " fill="#A7C7E5" transform="translate(50,103)"/>
<path d="M0 0 C5.61 0 11.22 0 17 0 C17 18.15 17 36.3 17 55 C62.87 55 108.74 55 156 55 C154.82649842 64.38801262 154.82649842 64.38801262 150 69 C144.19391506 73.00270033 138.09197773 72.42944759 131.31274414 72.40405273 C129.397089 72.41434761 129.397089 72.41434761 127.44273376 72.42485046 C123.95092166 72.44275056 120.45936129 72.44161951 116.96751714 72.43590808 C114.0475969 72.43281159 111.12772469 72.43891379 108.2078113 72.44494683 C101.3169668 72.45898013 94.42624631 72.45744081 87.53540039 72.44604492 C80.43707867 72.434565 73.33913484 72.44863968 66.24086291 72.4754414 C60.13619746 72.4976246 54.03165041 72.5042299 47.92694753 72.49836498 C44.28539982 72.49500041 40.64409429 72.49737691 37.00258064 72.51461601 C32.94036185 72.53300853 28.87887455 72.51887131 24.81665039 72.50170898 C23.61694611 72.51137695 22.41724182 72.52104492 21.18118286 72.53100586 C14.55878462 72.47241968 10.35866223 72.00629689 5 68 C0.79192838 63.45971219 -0.12629744 60.24387861 -0.11352539 54.15161133 C-0.11344986 52.9505928 -0.11337433 51.74957428 -0.11329651 50.51216125 C-0.10813522 49.21521835 -0.10297394 47.91827545 -0.09765625 46.58203125 C-0.09579077 45.24110466 -0.09436748 43.90017739 -0.09336853 42.55924988 C-0.08955356 39.03290927 -0.07973199 35.50660996 -0.06866455 31.98028564 C-0.0584285 28.38074299 -0.05386621 24.78119365 -0.04882812 21.18164062 C-0.0381088 14.12107526 -0.02052025 7.06054467 0 0 Z " fill="#0B91F1" transform="translate(18,102)"/>
<path d="M0 0 C14.85 0 29.7 0 45 0 C45 12.87 45 25.74 45 39 C36.10047847 32.32535885 36.10047847 32.32535885 32.125 28.625 C28.0679329 24.92099065 23.89386722 21.44490548 19.58203125 18.04296875 C15.84938229 15.08960203 12.17169861 12.07077687 8.49609375 9.046875 C6.99692418 7.81750903 5.49114182 6.59605093 3.97265625 5.390625 C2.61319837 4.3030587 1.29926717 3.15880585 0 2 C0 1.34 0 0.68 0 0 Z " fill="#FA840D" transform="translate(97,103)"/>
<path d="M0 0 C8.84210526 6.63157895 8.84210526 6.63157895 12.625 10.1875 C16.60894416 13.8343412 20.73128703 17.19956729 25 20.5 C32.41920481 26.24506606 39.36144376 32.36144376 46 39 C30.82 39 15.64 39 0 39 C0 26.13 0 13.26 0 0 Z " fill="#62B6F1" transform="translate(50,103)"/>
</svg>
