<?xml version="1.0" encoding="UTF-8"?>
<svg version="1.1" xmlns="http://www.w3.org/2000/svg" width="192" height="192">
<path d="M0 0 C11.52882457 8.89589031 18.0814567 19.68524001 21 34 C22.22413504 46.96379079 18.82859371 59.55521809 11 70 C10.04550053 70.94232473 9.06914329 71.86359466 8.0625 72.75 C5.63781748 74.8753998 5.63781748 74.8753998 6.0625 78.125 C6.90673098 81.15196521 6.90673098 81.15196521 9 84 C12.37286398 93.99367104 12.39094609 105.96893286 7.77734375 115.53515625 C2.53764726 124.79893964 -4.60031781 132.48289499 -14.859375 135.97265625 C-28.32643357 139.64704406 -38.19537469 137.26412374 -51 132 C-51.28875 132.61875 -51.5775 133.2375 -51.875 133.875 C-53 136 -53 136 -55 138 C-61.47687805 139.0050328 -61.47687805 139.0050328 -64.73120117 136.85766602 C-71.24135812 130.88903783 -77.46743719 124.64304175 -83.6875 118.375 C-84.81291457 117.24455619 -85.93856412 116.11434628 -87.06445312 114.984375 C-89.13255747 112.90817762 -91.19928792 110.8306341 -93.2644043 108.75146484 C-94.16715088 107.84348145 -95.06989746 106.93549805 -96 106 C-96.89436768 105.0920166 -97.78873535 104.1840332 -98.71020508 103.24853516 C-100.90836829 100.98099223 -100.90836829 100.98099223 -103.3125 99.3125 C-103.869375 98.879375 -104.42625 98.44625 -105 98 C-105 97.34 -105 96.68 -105 96 C-105.99 95.67 -106.98 95.34 -108 95 C-108 94.34 -108 93.68 -108 93 C-108.99 92.67 -109.98 92.34 -111 92 C-111 91.34 -111 90.68 -111 90 C-112.485 89.505 -112.485 89.505 -114 89 C-114 88.34 -114 87.68 -114 87 C-115.485 86.505 -115.485 86.505 -117 86 C-117 85.34 -117 84.68 -117 84 C-118.485 83.505 -118.485 83.505 -120 83 C-120 82.34 -120 81.68 -120 81 C-121.485 80.505 -121.485 80.505 -123 80 C-123 79.34 -123 78.68 -123 78 C-123.61875 77.7525 -124.2375 77.505 -124.875 77.25 C-127.35068687 75.79371361 -127.95125002 74.62187494 -129 72 C-129.66 72 -130.32 72 -131 72 C-140.50165652 58.67478531 -143.0053845 44.96815308 -140.53125 28.96875 C-136.63738088 14.3203852 -126.45022471 4.69073347 -114 -3 C-102.95765836 -8.68680595 -88.72776176 -8.20949074 -77 -5 C-71.04196497 -2.90946139 -66.13522422 0.4018497 -61 4 C-58.30713402 2.7375381 -56.42000991 1.53107185 -54.0625 -0.375 C-38.63945644 -11.68300157 -15.44072134 -10.04605938 0 0 Z " fill="#E190A7" transform="translate(156,42)"/>
<path d="M0 0 C8.38808574 6.3048605 13.99085452 12.30192887 16.08984375 22.796875 C17.81105367 35.11609657 15.7195985 45.19066108 8.4375 55.28515625 C0.51882869 64.83577856 -8.69023431 68.91771404 -20.875 70.60546875 C-29.3122434 71.07075791 -38.54971954 68.4591017 -45 62.97265625 C-46.21232724 61.76796973 -47.4014862 60.5393707 -48.5625 59.28515625 C-49.37460938 58.48271484 -49.37460938 58.48271484 -50.203125 57.6640625 C-57.56923582 49.90732459 -60.20056459 41.47755645 -59.94970703 30.99633789 C-59.46884604 20.61048787 -56.33974544 10.58933323 -48.5625 3.28515625 C-33.59497787 -8.76124325 -16.48929083 -11.03475407 0 0 Z " fill="#DC2853" transform="translate(150.5625,109.71484375)"/>
<path d="M0 0 C2 2 2 2 2.5625 4.6875 C1.30205817 12.11010189 -7.0173316 16.75704757 -12.64453125 21.1328125 C-14.60454395 22.68652075 -16.42025513 24.29992209 -18.25 26 C-21 28 -21 28 -23.9375 28.8125 C-29.71296842 27.28023287 -32.81133282 21.78300078 -36 17 C-35.8125 13.4375 -35.8125 13.4375 -35 10 C-32 8 -32 8 -29.5 8.1875 C-26.86337925 9.04440174 -25.74310252 9.88992853 -24 12 C-19.49555388 10.54292408 -16.32311497 8.00549108 -12.8125 4.9375 C-5.37203924 -1.47731079 -5.37203924 -1.47731079 0 0 Z " fill="#E18DA5" transform="translate(144,127)"/>
</svg>
