<?xml version="1.0" encoding="UTF-8"?>
<svg version="1.1" xmlns="http://www.w3.org/2000/svg" width="192" height="192">
<path d="M0 0 C1.23923218 -0.00852997 2.47846436 -0.01705994 3.75524902 -0.02584839 C5.12591565 -0.02514938 6.49658219 -0.02422632 7.86724854 -0.02310181 C9.31297147 -0.02908726 10.7586912 -0.03589285 12.20440674 -0.04345703 C16.13021875 -0.06112567 20.05594357 -0.06581286 23.9817915 -0.0670886 C26.43623701 -0.06851063 28.89066039 -0.07278127 31.3451004 -0.07808304 C39.91304429 -0.09658836 48.48092595 -0.1047533 57.04888916 -0.10317993 C65.02644148 -0.10197939 73.00372287 -0.12306311 80.98120666 -0.15466726 C87.83657021 -0.18085479 94.69184544 -0.19154614 101.54725862 -0.19026911 C105.63879814 -0.18976007 109.73009705 -0.19541066 113.82158661 -0.21662521 C117.67289545 -0.23604874 121.52373525 -0.23610436 125.37506104 -0.22159195 C126.7843113 -0.2195076 128.19359123 -0.22418247 129.60279083 -0.23631287 C140.97095424 -0.32778854 147.72122223 1.65629767 156.1963501 9.40023804 C158.78083112 12.14553121 160.29340596 14.882037 161.9541626 18.26742554 C162.49116256 19.17286291 162.49116256 19.17286291 163.039011 20.09659195 C164.23556386 22.93493824 164.21200828 25.23403258 164.22158813 28.31326294 C164.23438309 30.17211121 164.23438309 30.17211121 164.24743652 32.06851196 C164.24673751 33.43917859 164.24581446 34.80984513 164.24468994 36.18051147 C164.2506754 37.62623441 164.25748098 39.07195414 164.26504517 40.51766968 C164.28271381 44.44348169 164.28740099 48.36920651 164.28867674 52.29505444 C164.29009876 54.74949995 164.2943694 57.20392333 164.29967117 59.65836334 C164.3181765 68.22630723 164.32634143 76.79418889 164.32476807 85.3621521 C164.32356753 93.33970442 164.34465124 101.31698581 164.37625539 109.29446959 C164.40244293 116.14983315 164.41313428 123.00510838 164.41185725 129.86052155 C164.4113482 133.95206108 164.4169988 138.04335999 164.43821335 142.13484955 C164.45763687 145.98615839 164.45769249 149.83699819 164.44318008 153.68832397 C164.44109574 155.09757424 164.4457706 156.50685417 164.457901 157.91605377 C164.54937668 169.28421718 162.56529046 176.03448517 154.8213501 184.50961304 C152.07605692 187.09409406 149.33955113 188.6066689 145.9541626 190.26742554 C145.35053768 190.62542551 144.74691277 190.98342548 144.12499619 191.35227394 C141.28664989 192.5488268 138.98755556 192.52527122 135.9083252 192.53485107 C134.04947693 192.54764603 134.04947693 192.54764603 132.15307617 192.56069946 C130.78240954 192.56000045 129.41174301 192.5590774 128.04107666 192.55795288 C126.59535373 192.56393833 125.14963399 192.57074392 123.70391846 192.57830811 C119.77810645 192.59597675 115.85238163 192.60066393 111.9265337 192.60193968 C109.47208819 192.6033617 107.01766481 192.60763234 104.56322479 192.61293411 C95.99528091 192.63143943 87.42739924 192.63960437 78.85943604 192.63803101 C70.88188371 192.63683047 62.90460233 192.65791418 54.92711854 192.68951833 C48.07175498 192.71570586 41.21647975 192.72639722 34.36106658 192.72512019 C30.26952706 192.72461114 26.17822815 192.73026174 22.08673859 192.75147629 C18.23542974 192.77089981 14.38458995 192.77095543 10.53326416 192.75644302 C9.12401389 192.75435867 7.71473396 192.75903354 6.30553436 192.77116394 C-5.06262904 192.86263962 -11.81289704 190.8785534 -20.2880249 183.13461304 C-22.87250593 180.38931986 -24.38508076 177.65281407 -26.0458374 174.26742554 C-26.40383738 173.66380062 -26.76183735 173.0601757 -27.13068581 172.43825912 C-28.32723867 169.59991283 -28.30368308 167.3008185 -28.31326294 164.22158813 C-28.32179291 162.98235596 -28.33032288 161.74312378 -28.33911133 160.46633911 C-28.33841232 159.09567248 -28.33748926 157.72500595 -28.33636475 156.3543396 C-28.3423502 154.90861667 -28.34915579 153.46289693 -28.35671997 152.0171814 C-28.37438861 148.09136939 -28.3790758 144.16564457 -28.38035154 140.23979664 C-28.38177357 137.78535113 -28.38604421 135.33092775 -28.39134598 132.87648773 C-28.4098513 124.30854384 -28.41801624 115.74066218 -28.41644287 107.17269897 C-28.41524233 99.19514665 -28.43632605 91.21786527 -28.4679302 83.24038148 C-28.49411773 76.38501792 -28.50480908 69.52974269 -28.50353205 62.67432952 C-28.50302301 58.58278999 -28.5086736 54.49149109 -28.52988815 50.40000153 C-28.54931168 46.54869268 -28.5493673 42.69785289 -28.53485489 38.8465271 C-28.53277054 37.43727683 -28.53744541 36.0279969 -28.54957581 34.6187973 C-28.64105148 23.2506339 -26.65696527 16.5003659 -18.9130249 8.02523804 C-16.16773173 5.44075701 -13.43122594 3.92818218 -10.0458374 2.26742554 C-9.44221249 1.90942556 -8.83858757 1.55142559 -8.21667099 1.18257713 C-5.3783247 -0.01397573 -3.07923036 0.00957986 0 0 Z " fill="#FEFEFE" transform="translate(28.04583740234375,-0.267425537109375)"/>
<path d="M0 0 C2.36696937 1.26605106 2.36696937 1.26605106 6.15625 0.98828125 C8.1072638 0.10196355 10.02184623 -0.86640687 11.90625 -1.88671875 C22.39754325 -7.23967704 32.97674065 -9.11295985 44.69921875 -6.1015625 C59.93004646 -0.54847057 69.78833796 8.21448577 76.80859375 22.71875 C80.69945609 32.15832038 80.70884009 45.35976606 77.15625 54.98828125 C72.3401065 65.80442475 72.3401065 65.80442475 69.15625 68.98828125 C71.074375 69.17390625 71.074375 69.17390625 73.03125 69.36328125 C76.90625 69.73828125 76.90625 69.73828125 79.15625 71.98828125 C79.50049072 74.67335884 79.56300346 76.31075498 78.15356445 78.65844727 C75.49428093 80.42902755 73.34368767 80.06729212 70.23884583 79.91542053 C63.03674356 79.64812573 57.85444731 80.34130177 52.31814575 85.17105103 C49.23503989 88.18562831 46.33789875 91.33363872 43.46875 94.55078125 C42.26514875 95.83132208 41.05747623 97.10804881 39.84570312 98.38085938 C34.63089284 103.89787371 29.59899055 109.57386252 24.63061523 115.31323242 C22.1886795 118.08755285 19.63041677 120.73682664 17.03125 123.36328125 C16.53238281 123.88277344 16.03351563 124.40226563 15.51953125 124.9375 C11.23399426 129.26779456 8.51040567 130.86698406 2.44140625 131.1796875 C-3.66949045 130.19489134 -7.36436288 125.23863287 -11.40625 120.92578125 C-12.21771484 120.09111328 -13.02917969 119.25644531 -13.86523438 118.39648438 C-19.50966527 112.55160557 -24.8357498 106.45724359 -30.15698242 100.32055664 C-41.67461996 86.06212056 -41.67461996 86.06212056 -57.66674805 79.24780273 C-59.93211062 79.29855995 -62.1361123 79.47030403 -64.38671875 79.7265625 C-67.84375 79.98828125 -67.84375 79.98828125 -69.8125 78.69140625 C-71.24531943 76.32508325 -71.19169246 74.70223244 -70.84375 71.98828125 C-67.83757731 68.98210856 -65.01993402 69.39242809 -60.84375 68.98828125 C-61.58625 68.01890625 -62.32875 67.04953125 -63.09375 66.05078125 C-71.06520462 54.84092319 -72.56718352 41.62098972 -70.3828125 28.14453125 C-66.96949448 15.45501955 -58.23458604 4.53826622 -46.8828125 -2.01953125 C-31.37290275 -9.56649883 -14.89217993 -8.41408166 0 0 Z " fill="#F1C3BA" transform="translate(91.84375,34.01171875)"/>
<path d="M0 0 C3.29714793 0.32971479 4.6226839 0.6226839 7 3 C7.62255859 4.85327148 7.62255859 4.85327148 8.1484375 7.12109375 C8.34735596 7.96583252 8.54627441 8.81057129 8.7512207 9.6809082 C8.95706787 10.5905835 9.16291504 11.50025879 9.375 12.4375 C9.59051514 13.3658667 9.80603027 14.2942334 10.02807617 15.25073242 C12.15049583 24.4723607 14.10354158 33.72960271 16 43 C18.57899939 39.13150092 20.06813693 35.02374095 21.78125 30.71484375 C23 28 23 28 25 26 C27.41015625 25.62890625 27.41015625 25.62890625 30 26 C31.80859375 27.65234375 31.80859375 27.65234375 33.4375 29.9375 C33.97246094 30.66839844 34.50742188 31.39929688 35.05859375 32.15234375 C37 35 37 35 37.98779297 37.29174805 C39.39994327 40.14800159 40.55721426 41.93030984 43 44 C48.42177368 45.23311098 53.71734425 45.08312801 59.25 44.9375 C61.471796 44.91658954 63.69308789 44.90820002 65.91497803 44.90834045 C67.92039572 44.9026156 69.92563986 44.8641101 71.93066406 44.82397461 C75 45 75 45 77 47 C77.34424072 49.68507759 77.40675346 51.32247373 75.99731445 53.67016602 C73.33803093 55.4407463 71.18743767 55.07901087 68.08259583 54.92713928 C60.88049356 54.65984448 55.69819731 55.35302052 50.16189575 60.18276978 C47.07878989 63.19734706 44.18164875 66.34535747 41.3125 69.5625 C40.10889875 70.84304083 38.90122623 72.11976756 37.68945312 73.39257812 C32.47464284 78.90959246 27.44274055 84.58558127 22.47436523 90.32495117 C20.0324295 93.0992716 17.47416677 95.74854539 14.875 98.375 C14.37613281 98.89449219 13.87726563 99.41398437 13.36328125 99.94921875 C9.07774426 104.27951331 6.35415567 105.87870281 0.28515625 106.19140625 C-5.82574045 105.20661009 -9.52061288 100.25035162 -13.5625 95.9375 C-14.37396484 95.10283203 -15.18542969 94.26816406 -16.02148438 93.40820312 C-21.66591527 87.56332432 -26.9919998 81.46896234 -32.31323242 75.33227539 C-43.83086996 61.07383931 -43.83086996 61.07383931 -59.82299805 54.25952148 C-62.08836062 54.3102787 -64.2923623 54.48202278 -66.54296875 54.73828125 C-70 55 -70 55 -71.96875 53.703125 C-73.40156943 51.336802 -73.34794246 49.71395119 -73 47 C-71 45 -71 45 -68.01000977 44.93505859 C-66.74987061 45.00547363 -65.48973145 45.07588867 -64.19140625 45.1484375 C-49.80644289 46.29451926 -49.80644289 46.29451926 -36.44580078 42.42333984 C-32.3440369 38.25350545 -30.16508156 33.36688207 -28 28 C-26 26 -26 26 -23.625 25.5 C-21 26 -21 26 -18.9375 28.3125 C-16.24400642 32.8749483 -14.67345205 37.99744652 -13 43 C-12.67 43 -12.34 43 -12 43 C-9.53241117 35.01772403 -7.96665473 26.92110553 -6.53417969 18.70239258 C-3.85814243 3.85814243 -3.85814243 3.85814243 0 0 Z " fill="#EFC2BB" transform="translate(94,59)"/>
<path d="M0 0 C3.29714793 0.32971479 4.6226839 0.6226839 7 3 C7.62255859 4.85327148 7.62255859 4.85327148 8.1484375 7.12109375 C8.34735596 7.96583252 8.54627441 8.81057129 8.7512207 9.6809082 C8.95706787 10.5905835 9.16291504 11.50025879 9.375 12.4375 C9.59051514 13.3658667 9.80603027 14.2942334 10.02807617 15.25073242 C12.15049583 24.4723607 14.10354158 33.72960271 16 43 C18.57899939 39.13150092 20.06813693 35.02374095 21.78125 30.71484375 C23 28 23 28 25 26 C27.41015625 25.62890625 27.41015625 25.62890625 30 26 C31.80859375 27.65234375 31.80859375 27.65234375 33.4375 29.9375 C33.97246094 30.66839844 34.50742188 31.39929688 35.05859375 32.15234375 C37 35 37 35 37.98779297 37.29174805 C39.39994327 40.14800159 40.55721426 41.93030984 43 44 C48.42177368 45.23311098 53.71734425 45.08312801 59.25 44.9375 C61.471796 44.91658954 63.69308789 44.90820002 65.91497803 44.90834045 C67.92039572 44.9026156 69.92563986 44.8641101 71.93066406 44.82397461 C75 45 75 45 77 47 C77.34426674 49.68528053 77.43554187 51.31284372 75.96630859 53.63085938 C72.94116449 55.73726714 69.78661471 55.46777364 66.2265625 55.46875 C65.46580414 55.47636353 64.70504578 55.48397705 63.92123413 55.49182129 C62.31243163 55.50262097 60.70355902 55.50547589 59.09472656 55.50097656 C56.64007666 55.50000596 54.18857197 55.54158454 51.734375 55.5859375 C50.16927733 55.59114615 48.60416883 55.59383267 47.0390625 55.59375 C46.30869781 55.61014526 45.57833313 55.62654053 44.82583618 55.64343262 C40.867675 55.59010384 39.18803935 55.15524749 36.09643555 52.6027832 C34.28369975 50.35222116 32.66016319 48.16998938 31.1875 45.6875 C30.76855469 44.99011719 30.34960938 44.29273438 29.91796875 43.57421875 C29.46357422 42.79498047 29.46357422 42.79498047 29 42 C28.69707031 42.72703125 28.39414063 43.4540625 28.08203125 44.203125 C27.20130915 46.31685803 26.31273057 48.42732798 25.41796875 50.53515625 C24.48645702 52.81132954 23.61171737 55.11172779 22.80078125 57.43359375 C19.86849403 65.54852816 19.86849403 65.54852816 17.12890625 66.97265625 C15.1875 67.25 15.1875 67.25 12 67 C9.59916306 64.14371974 8.5884745 62.1193215 8.0625 58.4375 C7.06113587 52.11264453 5.71372779 45.88653348 4.32055664 39.63842773 C3.46574389 35.69366714 2.75314423 32.06489172 3 28 C2.34 28 1.68 28 1 28 C0.97421875 28.6084375 0.9484375 29.216875 0.921875 29.84375 C0.44377734 37.23253203 -1.14053763 44.04352252 -3.01953125 51.16796875 C-4.03865582 55.15108109 -4.83447869 59.12594312 -5.5078125 63.1796875 C-6 65 -6 65 -8 67 C-11.125 67.125 -11.125 67.125 -14 67 C-16.73609348 60.94696637 -19.32922869 54.84439508 -21.8515625 48.69921875 C-22.82363499 46.41451776 -23.85883799 44.2038037 -25 42 C-25.55429688 42.85464844 -26.10859375 43.70929688 -26.6796875 44.58984375 C-27.41121343 45.70588973 -28.14299771 46.8217664 -28.875 47.9375 C-29.59429687 49.03964844 -30.31359375 50.14179687 -31.0546875 51.27734375 C-33 54 -33 54 -35 55 C-37.59096365 55.12306844 -40.15403797 55.18835535 -42.74609375 55.203125 C-43.89646873 55.21167511 -43.89646873 55.21167511 -45.07008362 55.22039795 C-46.69327412 55.2298486 -48.31648382 55.23638219 -49.93969727 55.24023438 C-52.42433029 55.24994851 -54.90813903 55.28097346 -57.39257812 55.3125 C-58.96874508 55.31902927 -60.54491796 55.32428004 -62.12109375 55.328125 C-62.86491806 55.3404718 -63.60874237 55.3528186 -64.37510681 55.36553955 C-69.50201428 55.34337043 -69.50201428 55.34337043 -71.97290039 53.63964844 C-73.42917407 51.31487211 -73.34428657 49.68543525 -73 47 C-71 45 -71 45 -68.01000977 44.93505859 C-66.74987061 45.00547363 -65.48973145 45.07588867 -64.19140625 45.1484375 C-49.80644289 46.29451926 -49.80644289 46.29451926 -36.44580078 42.42333984 C-32.3440369 38.25350545 -30.16508156 33.36688207 -28 28 C-26 26 -26 26 -23.625 25.5 C-21 26 -21 26 -18.9375 28.3125 C-16.24400642 32.8749483 -14.67345205 37.99744652 -13 43 C-12.67 43 -12.34 43 -12 43 C-9.53241117 35.01772403 -7.96665473 26.92110553 -6.53417969 18.70239258 C-3.85814243 3.85814243 -3.85814243 3.85814243 0 0 Z " fill="#909DF1" transform="translate(94,59)"/>
<path d="M0 0 C2.36696937 1.26605106 2.36696937 1.26605106 6.15625 0.98828125 C8.1072638 0.10196355 10.02184623 -0.86640687 11.90625 -1.88671875 C22.39754325 -7.23967704 32.97674065 -9.11295985 44.69921875 -6.1015625 C58.67533094 -1.00593426 69.34679151 7.17521863 75.98901367 20.61181641 C78.44366061 26.00723662 79.24032781 31.1028342 79.15625 36.98828125 C78.063125 36.78203125 76.97 36.57578125 75.84375 36.36328125 C72.0724099 35.584816 72.0724099 35.584816 69.15625 37.98828125 C69.04410156 36.97121094 69.04410156 36.97121094 68.9296875 35.93359375 C67.54981083 26.16623142 63.66035331 18.53032004 56.15625 11.98828125 C55.0734375 10.96734375 55.0734375 10.96734375 53.96875 9.92578125 C45.02488009 3.76444864 34.80954929 2.09779084 24.15625 3.98828125 C17.76230162 5.99891921 11.86716104 9.20577582 7.15625 13.98828125 C4.46875 14.55078125 4.46875 14.55078125 1.15625 13.98828125 C-0.625 12.78125 -0.625 12.78125 -2.53125 11.23828125 C-10.71326213 4.68646129 -19.55335202 3.03573389 -29.84375 3.98828125 C-38.62540289 5.23628045 -47.39287469 9.4101661 -52.79296875 16.57421875 C-53.36660156 17.49460937 -53.94023438 18.415 -54.53125 19.36328125 C-55.11261719 20.27851562 -55.69398437 21.19375 -56.29296875 22.13671875 C-60.96929288 30.73550116 -61.1832203 40.73995675 -59.15625 50.1953125 C-57.101325 56.31727656 -53.95480715 61.06597549 -49.84375 65.98828125 C-48.83741043 67.31683627 -47.83572552 68.64896712 -46.84375 69.98828125 C-48.92528935 70.12364147 -51.00936206 70.2204359 -53.09375 70.30078125 C-54.25390625 70.35878906 -55.4140625 70.41679688 -56.609375 70.4765625 C-59.84375 69.98828125 -59.84375 69.98828125 -62.06640625 67.8359375 C-63.8533871 64.97284072 -65.50914421 62.12618988 -67.03125 59.11328125 C-67.54042969 58.12585938 -68.04960938 57.1384375 -68.57421875 56.12109375 C-72.49292581 46.45093048 -72.37969647 33.116576 -68.875 23.31640625 C-63.5835434 11.3705421 -54.86443552 1.05811598 -42.5546875 -3.94140625 C-27.79414984 -9.12487265 -13.63035413 -7.70115008 0 0 Z " fill="#F28383" transform="translate(91.84375,34.01171875)"/>
<path d="M0 0 C12.36290323 -0.91451613 12.36290323 -0.91451613 16.265625 1.265625 C20 5 20 5 20 8 C20.66 8 21.32 8 22 8 C23.27392578 9.30834961 23.27392578 9.30834961 24.8203125 11.21484375 C28.06417004 15.03465837 31.51415937 18.53029163 35.1171875 22.00390625 C36.22927315 23.08517695 37.34125071 24.16655883 38.453125 25.24804688 C40.17105258 26.91641885 41.89295097 28.57957842 43.62792969 30.23022461 C45.32588273 31.84928624 47.00386616 33.48698735 48.6796875 35.12890625 C49.19941132 35.6145253 49.71913513 36.10014435 50.25460815 36.60047913 C53.87090335 40.18891798 54.73074761 42.96309637 55 48 C55.99 48.33 56.98 48.66 58 49 C56 51 56 51 52.47265625 51.19140625 C46.22470248 50.22269845 42.57079939 45.34789209 38.4375 40.9375 C37.62603516 40.10283203 36.81457031 39.26816406 35.97851562 38.40820312 C32.42073259 34.72407428 28.95606306 30.98390052 25.625 27.09375 C20.90344244 21.63112542 15.69933218 16.6295676 10.5625 11.5625 C8.56095887 9.58748189 6.56272573 7.60920045 4.56640625 5.62890625 C3.68927979 4.76338135 2.81215332 3.89785645 1.90844727 3.00610352 C0 1 0 1 0 0 Z " fill="#F28383" transform="translate(42,114)"/>
<path d="M0 0 C-5.68302723 6.90971776 -12.04007484 13.10865023 -18.40209961 19.3815918 C-23.59428359 24.50757782 -28.6910595 29.6552564 -33.43774414 35.2019043 C-35.92467211 38.06426162 -38.57146 40.75550827 -41.25 43.4375 C-41.765625 43.96537109 -42.28125 44.49324219 -42.8125 45.03710938 C-45.189971 47.42377163 -46.75850599 48.919502 -50 50 C-53.8522012 46.74970524 -53.8522012 46.74970524 -54.45141602 43.71020508 C-53.80620274 39.83648274 -51.52190212 37.91743529 -48.77734375 35.32421875 C-48.23904434 34.79536575 -47.70074493 34.26651276 -47.14613342 33.72163391 C-45.42134159 32.03139238 -43.68038527 30.35906023 -41.9375 28.6875 C-39.6711823 26.48777279 -37.4112601 24.28154311 -35.15234375 22.07421875 C-34.60782059 21.54388031 -34.06329742 21.01354187 -33.50227356 20.46713257 C-28.67635022 15.74237553 -24.1713834 10.83109948 -20.05859375 5.46875 C-14.40197472 -1.40097528 -8.42656908 -0.85212496 0 0 Z " fill="#C197BC" transform="translate(150,114)"/>
<path d="M0 0 C2 2 2 2 2.265625 3.84765625 C2.18675943 15.02685025 -0.84437283 24.55122577 -7.2734375 33.83984375 C-9.99731961 35.67014463 -12.46548765 35.28320334 -15.6875 35.1875 C-17.45673828 35.14689453 -17.45673828 35.14689453 -19.26171875 35.10546875 C-20.16535156 35.07066406 -21.06898438 35.03585938 -22 35 C-20.700625 33.63875 -20.700625 33.63875 -19.375 32.25 C-12.68012357 24.34941123 -9.45184792 15.97032707 -8.51953125 5.71484375 C-7.54114414 0.60221936 -5.00883013 -0.64215771 0 0 Z " fill="#C096BC" transform="translate(169,69)"/>
</svg>
