<?xml version="1.0" encoding="UTF-8"?>
<svg version="1.1" xmlns="http://www.w3.org/2000/svg" width="192" height="192">
<path d="M0 0 C1.00835403 -0.00503792 1.00835403 -0.00503792 2.03707886 -0.01017761 C4.24885938 -0.01963937 6.46056381 -0.0216283 8.67236328 -0.02270508 C10.2178653 -0.02592094 11.76336702 -0.02928526 13.30886841 -0.03279114 C16.54511216 -0.03877043 19.78132925 -0.04063227 23.01757812 -0.04003906 C27.15219529 -0.0399375 31.28664051 -0.05358898 35.42121696 -0.07081127 C38.61264828 -0.08196233 41.80403842 -0.08395732 44.99548721 -0.08342934 C46.5192232 -0.0846048 48.04296041 -0.08900208 49.56667709 -0.0967617 C51.70342605 -0.10662479 53.83980686 -0.103659 55.9765625 -0.09765625 C57.18947968 -0.09908127 58.40239685 -0.10050629 59.65206909 -0.10197449 C65.82885634 0.33868068 70.31749738 1.73836065 74.86767578 5.95776367 C75.60501953 6.62420898 76.34236328 7.2906543 77.10205078 7.97729492 C83.78680812 15.16729555 83.35709318 22.28953001 83.4128418 31.67236328 C83.42441393 33.03119272 83.44494791 34.38997489 83.47436523 35.74853516 C83.51691485 37.71508798 83.53058807 39.68219893 83.54345703 41.64916992 C83.56533081 43.40982788 83.56533081 43.40982788 83.58764648 45.20605469 C83.11767578 48.14526367 83.11767578 48.14526367 81.28637695 50.06298828 C78.2281691 51.58916586 76.34671638 51.05781862 73.11767578 50.14526367 C70.54393877 47.57152666 70.84382676 46.48909565 70.77392578 42.91088867 C70.74427734 41.8615918 70.71462891 40.81229492 70.68408203 39.73120117 C70.66216797 38.6303418 70.64025391 37.52948242 70.61767578 36.39526367 C70.95537264 25.31494363 70.95537264 25.31494363 65.96873474 16.02333069 C62.45386258 13.70799258 60.40559221 13.63318429 56.21948242 13.61181641 C55.20871895 13.59889305 55.20871895 13.59889305 54.17753601 13.58570862 C51.96057192 13.56309394 49.74487669 13.56977851 47.52783203 13.57885742 C45.97993089 13.57361947 44.43203295 13.56734237 42.88414001 13.56007385 C39.64355425 13.54967781 36.40340781 13.5542188 33.1628418 13.56884766 C29.01871483 13.58602802 24.87597536 13.56254715 20.73200321 13.52735806 C17.53623848 13.5053508 14.340804 13.50683352 11.14498711 13.51512337 C9.61762407 13.51594121 8.09023638 13.50910968 6.56294441 13.49435234 C4.42286159 13.4768441 2.2852491 13.49149531 0.14526367 13.51416016 C-1.06987411 13.51512192 -2.2850119 13.51608368 -3.53697205 13.51707458 C-8.09557023 14.37308659 -9.69811117 15.77924271 -12.88232422 19.14526367 C-13.9118031 22.77471569 -14.01678072 26.26574197 -14.0405426 30.02351379 C-14.05522583 31.7881749 -14.05522583 31.7881749 -14.07020569 33.58848572 C-14.07596115 34.87026199 -14.08171661 36.15203827 -14.08764648 37.47265625 C-14.09723183 38.84283743 -14.10724229 40.2130157 -14.11764526 41.58319092 C-14.1446293 45.29556766 -14.16567396 49.00795702 -14.18564725 52.72037721 C-14.20754701 56.60280791 -14.23491614 60.48519998 -14.26170349 64.36759949 C-14.31157649 71.71622502 -14.35653528 79.06487207 -14.39972585 86.41353959 C-14.44914437 94.78111554 -14.50404536 103.14865271 -14.55940545 111.51619112 C-14.67314269 128.72584634 -14.77980518 145.93553811 -14.88232422 163.14526367 C-10.26232422 163.14526367 -5.64232422 163.14526367 -0.88232422 163.14526367 C-0.89803467 161.93990967 -0.91374512 160.73455566 -0.92993164 159.49267578 C-0.98443609 154.99941755 -1.01874874 150.50618827 -1.04711914 146.01269531 C-1.06215913 144.07189003 -1.08259636 142.13111847 -1.10864258 140.19042969 C-1.14523717 137.39273735 -1.1620987 134.59549634 -1.17529297 131.79760742 C-1.19077682 130.93691147 -1.20626068 130.07621552 -1.22221375 129.18943787 C-1.22371917 123.739436 -0.36973941 120.00820341 2.11767578 115.14526367 C2.77767578 115.14526367 3.43767578 115.14526367 4.11767578 115.14526367 C4.61267578 113.66026367 4.61267578 113.66026367 5.11767578 112.14526367 C9.22739985 108.8214162 13.18723605 108.69158286 18.27001953 108.71166992 C19.04777237 108.70642807 19.82552521 108.70118622 20.62684631 108.69578552 C22.26659963 108.6893818 23.90639898 108.69068094 25.54614258 108.69921875 C28.04413321 108.70772606 30.5398328 108.67895241 33.03759766 108.6472168 C34.63590427 108.6456044 36.2342149 108.64618305 37.83251953 108.64916992 C38.5733226 108.63793594 39.31412567 108.62670197 40.07737732 108.61512756 C45.41435677 108.68622826 48.14495246 109.79382786 52.11767578 113.14526367 C52.11767578 113.80526367 52.11767578 114.46526367 52.11767578 115.14526367 C52.77767578 115.14526367 53.43767578 115.14526367 54.11767578 115.14526367 C57.63681788 121.6141376 57.60131789 127.57167354 57.55517578 134.83276367 C57.57515625 135.96004883 57.59513672 137.08733398 57.61572266 138.2487793 C57.61475586 139.87396484 57.61475586 139.87396484 57.61376953 141.53198242 C57.61562256 142.51384521 57.61747559 143.49570801 57.61938477 144.50732422 C56.98059694 147.86601153 55.7641766 149.04782437 53.11767578 151.14526367 C50.61767578 151.70776367 50.61767578 151.70776367 48.11767578 151.14526367 C45.54590701 148.91513208 44.26668842 147.09774406 43.73583984 143.70458984 C43.57127615 140.78460636 43.50777997 137.88231228 43.49267578 134.95776367 C43.4672308 132.96414902 43.43377967 130.97061537 43.39111328 128.97729492 C43.38515137 128.0979126 43.37918945 127.21853027 43.37304688 126.3125 C43.31968888 123.93427634 43.31968888 123.93427634 41.11767578 122.14526367 C38.4324096 121.83369537 38.4324096 121.83369537 35.30517578 121.87963867 C33.56880859 121.87577148 33.56880859 121.87577148 31.79736328 121.87182617 C30.58306641 121.87956055 29.36876953 121.88729492 28.11767578 121.89526367 C26.90337891 121.8875293 25.68908203 121.87979492 24.43798828 121.87182617 C23.28041016 121.8744043 22.12283203 121.87698242 20.93017578 121.87963867 C19.33109375 121.88302246 19.33109375 121.88302246 17.69970703 121.88647461 C14.95444117 121.88645569 14.95444117 121.88645569 13.11767578 124.14526367 C12.87180484 127.08103046 12.7437652 129.93162351 12.70361328 132.87182617 C12.68596924 133.63648193 12.6683252 134.4011377 12.65014648 135.18896484 C12.58701389 138.04918269 12.54087248 140.90975516 12.49267578 143.77026367 C12.30705078 153.36088867 12.30705078 153.36088867 12.11767578 163.14526367 C31.58767578 163.14526367 51.05767578 163.14526367 71.11767578 163.14526367 C71.07126953 156.68319336 71.02486328 150.22112305 70.97705078 143.56323242 C70.95661849 139.47532579 70.93736318 135.38748189 70.92236328 131.29956055 C70.89842913 124.80748459 70.87008121 118.31563376 70.81591797 111.82373047 C70.77253409 106.59122052 70.74855424 101.3589519 70.73816681 96.12627602 C70.73076203 94.12750765 70.71630262 92.12875284 70.69475555 90.1300869 C70.6658207 87.33561788 70.66171561 84.54215271 70.66357422 81.74755859 C70.64919312 80.91677795 70.63481201 80.08599731 70.61999512 79.2300415 C70.66042637 73.63153498 70.66042637 73.63153498 73.02482605 71.11706543 C75.4131744 70.00805073 76.54020232 69.91223742 79.12158203 70.32104492 C79.90936035 70.44044434 80.69713867 70.55984375 81.50878906 70.68286133 C82.36972168 70.8354541 83.2306543 70.98804687 84.11767578 71.14526367 C85.04692871 71.29914551 85.97618164 71.45302734 86.93359375 71.61157227 C89.984056 72.14119086 93.01822956 72.73072588 96.05517578 73.33276367 C97.07546875 73.51645508 98.09576172 73.70014648 99.14697266 73.8894043 C107.31743084 75.5214103 115.60494485 78.55231612 121.11767578 85.14526367 C123.83323072 89.75188675 124.50910065 93.16918545 124.56933594 98.49243164 C124.58685913 99.5571167 124.58685913 99.5571167 124.60473633 100.64331055 C124.6381549 102.97483051 124.64904096 105.30571323 124.65673828 107.63745117 C124.66893054 109.26881119 124.68141692 110.90016903 124.69418335 112.53152466 C124.71661581 115.9459535 124.72620887 119.36015984 124.72851562 122.7746582 C124.73379816 127.13518836 124.78514177 131.49385209 124.848032 135.85387993 C124.88903149 139.2221291 124.8981588 142.58993212 124.89863205 145.95840836 C124.903994 147.56512486 124.92076166 149.17184775 124.94948196 150.7783165 C125.18032715 164.86360551 125.18032715 164.86360551 121.00585938 170.00512695 C115.96569353 175.00152896 109.98935683 176.51968456 103.09692383 176.5262146 C102.42617923 176.53089457 101.75543463 176.53557454 101.06436443 176.54039633 C98.83583488 176.55228137 96.60792772 176.54291519 94.37939453 176.53344727 C92.77397302 176.53751587 91.16855431 176.54285938 89.56314087 176.54937744 C85.21604638 176.56302249 80.86916613 176.55776405 76.52206802 176.54824018 C71.96628505 176.540629 67.41052005 176.54769325 62.85473633 176.55239868 C55.20504473 176.55785198 47.5554401 176.55067578 39.90576172 176.53637695 C31.06986489 176.52005125 22.23417576 176.52534006 13.39828396 176.54185617 C5.80317378 176.55548315 -1.79187399 176.55738477 -9.38699245 176.54954016 C-13.91937602 176.54487031 -18.45166206 176.54421985 -22.98403931 176.55414963 C-27.24572059 176.56283467 -31.50713486 176.5567694 -35.76878738 176.53946686 C-37.33002912 176.53551021 -38.89129344 176.53662196 -40.45252609 176.54325485 C-42.58917511 176.55149342 -44.72497675 176.54112222 -46.86157227 176.5262146 C-48.65234444 176.52451798 -48.65234444 176.52451798 -50.47929382 176.52278709 C-57.07221091 175.79138586 -62.31814802 173.01598219 -66.5123291 167.84985352 C-69.522123 161.90803817 -68.83340581 154.9656585 -68.74169922 148.45776367 C-68.74133492 146.82926317 -68.74334877 145.20076057 -68.74761963 143.57226562 C-68.74891011 140.16932351 -68.72606938 136.76767926 -68.68505859 133.36499023 C-68.6339839 129.02038534 -68.63618671 124.67782021 -68.65566635 120.33302307 C-68.66600204 116.97325152 -68.65148987 113.61394234 -68.62928009 110.25424194 C-68.62096187 108.65320902 -68.61939744 107.05212529 -68.62493134 105.45108032 C-68.63947097 95.59482664 -68.17019937 88.49736403 -60.95263672 81.19213867 C-52.42183221 75.50493566 -42.58279716 73.73296759 -32.6237793 72.09155273 C-31.00914543 71.82474701 -31.00914543 71.82474701 -29.3618927 71.55255127 C-28.5436351 71.41814636 -27.7253775 71.28374146 -26.88232422 71.14526367 C-26.88898605 70.50934799 -26.89564789 69.87343231 -26.9025116 69.21824646 C-26.96902369 62.58321197 -27.01419078 55.94827264 -27.04711914 49.31298828 C-27.06217981 46.83866528 -27.08263247 44.36436885 -27.10864258 41.89013672 C-27.14514452 38.32797677 -27.16207826 34.76617067 -27.17529297 31.20385742 C-27.19077682 30.1025499 -27.20626068 29.00124237 -27.22221375 27.86656189 C-27.22427523 18.39990853 -25.10163987 12.88530819 -18.64794922 5.87573242 C-13.09154986 0.42996933 -7.49771218 0.02359379 0 0 Z " fill="#B3404A" transform="translate(67.88232421875,7.854736328125)"/>
<path d="M0 0 C1.0209375 0.00580078 1.0209375 0.00580078 2.0625 0.01171875 C4 0.3125 4 0.3125 7 2.3125 C7.34057617 4.46728516 7.34057617 4.46728516 7.29296875 7.1015625 C7.28330078 8.04257812 7.27363281 8.98359375 7.26367188 9.953125 C7.23853516 10.93796875 7.21339844 11.9228125 7.1875 12.9375 C7.16719727 14.42636719 7.16719727 14.42636719 7.14648438 15.9453125 C7.11106189 18.40127161 7.05725369 20.85695282 7 23.3125 C11.62 23.3125 16.24 23.3125 21 23.3125 C20.96519531 21.81976563 20.93039063 20.32703125 20.89453125 18.7890625 C20.8663989 16.83855288 20.83909815 14.88803114 20.8125 12.9375 C20.78736328 11.95265625 20.76222656 10.9678125 20.73632812 9.953125 C20.72666016 9.01210938 20.71699219 8.07109375 20.70703125 7.1015625 C20.6913208 6.23225098 20.67561035 5.36293945 20.65942383 4.46728516 C20.82800903 3.4006665 20.82800903 3.4006665 21 2.3125 C23.96917403 0.33305064 24.65702279 0.01899419 28 0 C28.680625 -0.01675781 29.36125 -0.03351562 30.0625 -0.05078125 C32.62457534 0.42960788 33.3889469 1.28458122 35 3.3125 C35.36076355 5.41960144 35.36076355 5.41960144 35.34057617 7.87573242 C35.34023628 9.25682442 35.34023628 9.25682442 35.33988953 10.66581726 C35.32440567 11.65652725 35.30892181 12.64723724 35.29296875 13.66796875 C35.28872391 14.68474197 35.28447906 15.7015152 35.28010559 16.74909973 C35.26329997 19.99966812 35.22564382 23.2496187 35.1875 26.5 C35.17245562 28.70246501 35.15876679 30.90493973 35.14648438 33.10742188 C35.11339036 38.50932572 35.06317223 43.91086872 35 49.3125 C35.62503418 49.36438477 36.25006836 49.41626953 36.89404297 49.46972656 C37.71018066 49.54674805 38.52631836 49.62376953 39.3671875 49.703125 C40.17784668 49.77563477 40.98850586 49.84814453 41.82373047 49.92285156 C44 50.3125 44 50.3125 46.125 52.0625 C47.2558216 54.97032698 47.0489106 56.39053477 46 59.3125 C44.26133604 61.66095721 43.38986857 62.25289468 40.46424866 62.70018005 C39.45261154 62.70558304 38.44097443 62.71098602 37.39868164 62.71655273 C36.25061539 62.72923691 35.10254913 62.74192108 33.91969299 62.75498962 C32.05872231 62.75058617 32.05872231 62.75058617 30.16015625 62.74609375 C28.24969765 62.75395653 28.24969765 62.75395653 26.30064392 62.76197815 C23.60449431 62.7684079 20.90918907 62.76848429 18.21313477 62.75854492 C14.76166105 62.74705932 11.31121107 62.76725698 7.85987186 62.79646206 C4.56412806 62.81924367 1.26846036 62.81235663 -2.02734375 62.80859375 C-3.26596664 62.81982773 -4.50458954 62.83106171 -5.78074646 62.84263611 C-6.93196487 62.83325516 -8.08318329 62.82387421 -9.26928711 62.81420898 C-10.78793617 62.81395973 -10.78793617 62.81395973 -12.33726501 62.81370544 C-15.72609338 62.17582776 -16.94244255 61.03735573 -19 58.3125 C-18.85205998 54.6139996 -18.64194427 52.95444427 -16 50.3125 C-13.8359375 49.8984375 -13.8359375 49.8984375 -11.375 49.6875 C-10.55773437 49.61273438 -9.74046875 49.53796875 -8.8984375 49.4609375 C-8.27195312 49.41195312 -7.64546875 49.36296875 -7 49.3125 C-7.00666183 48.74287033 -7.01332367 48.17324066 -7.02018738 47.58634949 C-7.08648119 41.66561519 -7.13177567 35.74498607 -7.16479492 29.82397461 C-7.17989525 27.61331908 -7.20037709 25.40269357 -7.22631836 23.19213867 C-7.26264655 20.01734007 -7.27971384 16.84293703 -7.29296875 13.66796875 C-7.30845261 12.67725876 -7.32393646 11.68654877 -7.33988953 10.66581726 C-7.34011612 9.74508926 -7.34034271 8.82436127 -7.34057617 7.87573242 C-7.34723801 7.0652092 -7.35389984 6.25468597 -7.36076355 5.41960144 C-6.63347867 1.17176927 -4.05258482 -0.09977955 0 0 Z M7 34.3125 C7 39.2625 7 44.2125 7 49.3125 C11.62 49.3125 16.24 49.3125 21 49.3125 C21 44.3625 21 39.4125 21 34.3125 C16.38 34.3125 11.76 34.3125 7 34.3125 Z " fill="#B13E48" transform="translate(82,33.6875)"/>
<path d="M0 0 C0 26.4 0 52.8 0 80 C-8.58 80 -17.16 80 -26 80 C-30.50114292 74.37357135 -30.50114292 74.37357135 -30.51757812 68.74438477 C-30.53018677 67.5028212 -30.54279541 66.26125763 -30.55578613 64.98207092 C-30.54862525 63.6351769 -30.54042099 62.28828808 -30.53125 60.94140625 C-30.5339471 59.55044789 -30.53783134 58.15949137 -30.54284668 56.76853943 C-30.54873358 53.85747271 -30.5402071 50.94689803 -30.52148438 48.03588867 C-30.49871549 44.31561551 -30.51180831 40.59649805 -30.53577423 36.87626743 C-30.55027291 34.00476985 -30.54560748 31.13354332 -30.53526306 28.26203728 C-30.53260585 26.89098916 -30.53583001 25.51991597 -30.54518127 24.14889717 C-30.61629463 10.79093112 -30.61629463 10.79093112 -26 6 C-21.86176891 3.39636294 -17.76196179 2.29935392 -13 1.3125 C-11.824375 1.06113281 -10.64875 0.80976562 -9.4375 0.55078125 C-6 0 -6 0 0 0 Z " fill="#F3B1AF" transform="translate(41,92)"/>
<path d="M0 0 C2.64 0.33 5.28 0.66 8 1 C9.546875 1.17789063 9.546875 1.17789063 11.125 1.359375 C17.55251632 2.23267885 23.12649631 3.47638888 28 8 C30.14719928 11.39607676 30.26286219 14.18351381 30.29052734 18.15795898 C30.3096669 20.02525917 30.3096669 20.02525917 30.32919312 21.93028259 C30.33225054 23.28555139 30.33447842 24.64082229 30.3359375 25.99609375 C30.34236734 27.39087561 30.34909584 28.78565613 30.35610962 30.18043518 C30.36807268 33.1015231 30.37179139 36.02249283 30.37060547 38.94360352 C30.37040218 42.68073281 30.39771804 46.41710252 30.43214989 50.15405178 C30.45442081 53.03403686 30.45844299 55.91383907 30.45738602 58.79390144 C30.45974117 60.1713835 30.46856003 61.54887066 30.48405075 62.92626762 C30.50371322 64.85496045 30.49534949 66.78387688 30.48583984 68.71264648 C30.48868988 69.80866684 30.49153992 70.90468719 30.49447632 72.03392029 C30 75 30 75 26 80 C17.42 80 8.84 80 0 80 C0 53.6 0 27.2 0 0 Z " fill="#F3B1AF" transform="translate(151,92)"/>
</svg>
