<?xml version="1.0" encoding="UTF-8"?>
<svg version="1.1" xmlns="http://www.w3.org/2000/svg" width="192" height="192">
<path d="M0 0 C1.03125 0.763125 2.0625 1.52625 3.125 2.3125 C3.74375 2.869375 4.3625 3.42625 5 4 C5 4.66 5 5.32 5 6 C6.485 6.495 6.485 6.495 8 7 C8 7.66 8 8.32 8 9 C9.485 9.495 9.485 9.495 11 10 C11 10.66 11 11.32 11 12 C12.32 12.66 13.64 13.32 15 14 C15.40992187 13.4225 15.81984375 12.845 16.2421875 12.25 C16.78101562 11.5075 17.31984375 10.765 17.875 10 C18.40867187 9.2575 18.94234375 8.515 19.4921875 7.75 C19.98976563 7.1725 20.48734375 6.595 21 6 C21.66 6 22.32 6 23 6 C23.495 4.515 23.495 4.515 24 3 C24.66 3 25.32 3 26 3 C26 2.34 26 1.68 26 1 C32.60764589 -5.78671488 41.45369166 -9.33591531 50 -13 C50.81597656 -13.3815625 51.63195312 -13.763125 52.47265625 -14.15625 C55.84477775 -15.28202781 59.16407665 -15.51020513 62.6875 -15.6875 C63.75315186 -15.74284912 63.75315186 -15.74284912 64.84033203 -15.79931641 C76.49664173 -16.31602029 85.27143197 -14.71083917 94.6875 -7.3125 C103.4507227 0.79090358 110.01436771 12.43218062 110.62890625 24.4375 C110.63282202 26.62510849 110.61055351 28.81291585 110.5625 31 C110.57345703 32.08539063 110.58441406 33.17078125 110.59570312 34.2890625 C110.48368923 46.80474877 105.89000952 57.15231915 100 68 C99.54882812 68.83144531 99.09765625 69.66289063 98.6328125 70.51953125 C91.49145671 83.00681722 81.93700463 93.69541197 72 104 C71.46439453 104.55751953 70.92878906 105.11503906 70.37695312 105.68945312 C63.30951384 113.00900083 56.02536965 119.72402973 48 126 C46.8972118 126.89171547 45.79570791 127.78502095 44.6953125 128.6796875 C20.88686115 147.90226278 20.88686115 147.90226278 12.875 148.0625 C7.42078753 147.05716846 3.34018189 143.23088959 -1 140 C-3.12186578 138.55787765 -5.24701654 137.12057977 -7.375 135.6875 C-13.93813522 131.19076999 -19.98791888 126.20781597 -26 121 C-26.60207275 120.48477783 -27.20414551 119.96955566 -27.82446289 119.4387207 C-40.86775709 108.18684923 -52.84802262 95.92371897 -63 82 C-63.639375 81.16726562 -64.27875 80.33453125 -64.9375 79.4765625 C-68.55115628 74.62071187 -71.44416852 69.50485423 -74.1875 64.125 C-74.50871826 63.50125488 -74.82993652 62.87750977 -75.16088867 62.23486328 C-80.18620845 52.04914147 -82.74008102 42.51125176 -82.625 31.125 C-82.61662109 29.98675781 -82.60824219 28.84851562 -82.59960938 27.67578125 C-82.23373471 14.05278832 -77.57562985 3.85238216 -68 -6 C-45.860332 -24.7095786 -20.70819289 -15.92626185 0 0 Z M46 27 C45.62488281 27.51949219 45.24976562 28.03898437 44.86328125 28.57421875 C42.5823615 31.68247464 40.39267135 34.6176621 37.625 37.3125 C34.37848954 40.63630833 31.82638663 44.28940794 29.13671875 48.0703125 C26.3901184 51.83621791 23.449165 55.42167668 20.46875 59.00390625 C18.80244626 60.85544585 18.80244626 60.85544585 19 63 C18.34 63 17.68 63 17 63 C15.41173778 64.71497772 15.41173778 64.71497772 13.875 66.875 C13.33617187 67.59429687 12.79734375 68.31359375 12.2421875 69.0546875 C10.82060368 70.89626006 10.82060368 70.89626006 11 73 C7.15907448 70.91837953 4.58642359 68.68416086 1.75 65.375 C-2.63294647 60.36591832 -7.24460371 55.65421765 -12 51 C-15.92952661 53.2221701 -18.32558703 55.33506371 -21 59 C-19.63676257 61.0399719 -19.63676257 61.0399719 -18 63 C-17.34 63 -16.68 63 -16 63 C-15.67 63.99 -15.34 64.98 -15 66 C-14.34 66 -13.68 66 -13 66 C-12.7525 66.556875 -12.505 67.11375 -12.25 67.6875 C-9.64359067 72.50935727 -5.88950037 76.19693297 -2 80 C-0.4778033 81.51946875 1.04291274 83.04042161 2.5625 84.5625 C3.30628906 85.30628906 4.05007812 86.05007812 4.81640625 86.81640625 C6.87760417 88.87760417 8.93880208 90.93880208 11 93 C11.39791748 92.45585449 11.79583496 91.91170898 12.20581055 91.35107422 C14.03101322 88.85755841 15.85923069 86.36626808 17.6875 83.875 C18.31333984 83.0190625 18.93917969 82.163125 19.58398438 81.28125 C22.28567466 77.60355641 24.97716107 73.96593345 27.95703125 70.5078125 C30.21053077 68.28067179 30.21053077 68.28067179 30 66 C30.66 66 31.32 66 32 66 C33.46377767 64.39017134 33.46377767 64.39017134 34.94140625 62.265625 C35.52132324 61.46890381 36.10124023 60.67218262 36.69873047 59.85131836 C37.31377441 58.9928833 37.92881836 58.13444824 38.5625 57.25 C39.82626001 55.50610236 41.09058343 53.76261286 42.35546875 52.01953125 C42.97470215 51.16311035 43.59393555 50.30668945 44.23193359 49.42431641 C47.25598739 45.27783005 50.38902325 41.21568441 53.5234375 37.15234375 C55.18856762 35.16015328 55.18856762 35.16015328 55 33 C52.98208664 31.41030753 52.98208664 31.41030753 50.5 29.875 C49.6646875 29.33617187 48.829375 28.79734375 47.96875 28.2421875 C46.99421875 27.62730469 46.99421875 27.62730469 46 27 Z " fill="#00BBF1" transform="translate(82,30)"/>
</svg>
